<svg width="380" height="476" viewBox="0 0 380 476" fill="none" xmlns="http://www.w3.org/2000/svg">
<g clip-path="url(#clip0_663_1933)">
<path d="M376.823 3.18625V313.751H3.16477V3.18625H376.823ZM379.987 0.0214844H0V316.916H379.987V0.0214844Z" fill="#DFC98B"/>
<path d="M380 316.916H0V475.99H380V316.916Z" fill="#DFC98B"/>
<path d="M34.7998 344.867H45.7499V346.526H36.686V351.159H44.2814V352.779H36.686V360.134H34.7998V344.867Z" fill="white"/>
<path d="M48.0918 345.399C48.0815 345.237 48.1041 345.076 48.1585 344.923C48.2129 344.771 48.2977 344.631 48.4079 344.513C48.5181 344.394 48.6513 344.299 48.7994 344.234C48.9474 344.169 49.1073 344.134 49.2691 344.133C49.5937 344.149 49.8997 344.29 50.1235 344.526C50.3474 344.761 50.4721 345.074 50.4717 345.399C50.47 345.555 50.4376 345.71 50.3763 345.853C50.3149 345.997 50.2259 346.127 50.1142 346.237C50.0026 346.346 49.8704 346.432 49.7254 346.491C49.5804 346.549 49.4253 346.578 49.2691 346.576C49.114 346.578 48.9601 346.549 48.8165 346.49C48.6729 346.432 48.5425 346.345 48.4328 346.235C48.3232 346.126 48.2365 345.995 48.1779 345.851C48.1194 345.708 48.0901 345.554 48.0918 345.399ZM48.3829 348.627H50.1679V360.096H48.3829V348.627Z" fill="white"/>
<path d="M54.3328 361.856L55.0796 360.704C56.0491 361.634 57.3441 362.147 58.6875 362.134C60.637 362.134 62.8523 360.944 62.8523 357.552V357.172C62.4527 357.947 61.8307 358.585 61.0662 359.005C60.3017 359.424 59.4293 359.606 58.5609 359.526C57.8377 359.534 57.1206 359.394 56.4534 359.115C55.7862 358.836 55.1829 358.424 54.6805 357.904C54.1781 357.383 53.787 356.766 53.5314 356.09C53.2757 355.413 53.1607 354.692 53.1934 353.969C53.1626 353.246 53.2788 352.524 53.5348 351.847C53.7909 351.17 54.1816 350.552 54.6833 350.03C55.185 349.508 55.7873 349.093 56.4538 348.811C57.1202 348.528 57.837 348.384 58.5609 348.386C59.4338 348.315 60.3088 348.497 61.0811 348.91C61.8534 349.323 62.4903 349.95 62.9156 350.716V348.627H64.6373V357.488C64.7089 358.28 64.6097 359.078 64.3464 359.829C64.0831 360.579 63.6618 361.264 63.111 361.838C62.5602 362.412 61.8927 362.86 61.1536 363.154C60.4145 363.447 59.621 363.579 58.8267 363.539C58.0034 363.571 57.1819 363.439 56.4103 363.15C55.6387 362.861 54.9325 362.421 54.3328 361.856V361.856ZM62.8523 353.83C62.8441 353.322 62.7356 352.82 62.5331 352.354C62.3307 351.888 62.0381 351.466 61.6724 351.114C61.3066 350.761 60.8748 350.484 60.4017 350.298C59.9286 350.112 59.4234 350.022 58.9153 350.032C58.3969 350.03 57.8834 350.133 57.4053 350.333C56.9271 350.533 56.494 350.827 56.1316 351.198C55.7691 351.568 55.4848 352.008 55.2954 352.491C55.106 352.973 55.0154 353.489 55.029 354.007C55.0063 354.527 55.0907 355.046 55.277 355.532C55.4632 356.018 55.7474 356.461 56.1119 356.832C56.4763 357.204 56.9132 357.496 57.3955 357.692C57.8777 357.888 58.395 357.982 58.9153 357.969C59.4427 357.967 59.9641 357.857 60.4479 357.647C60.9317 357.437 61.3678 357.131 61.7299 356.748C62.092 356.364 62.3726 355.911 62.5547 355.416C62.7367 354.921 62.8164 354.394 62.789 353.868L62.8523 353.83Z" fill="white"/>
<path d="M68.106 355.817V348.665H69.8909V355.59C69.8909 357.729 70.9289 358.628 72.7898 358.628C73.2352 358.625 73.6755 358.532 74.0838 358.354C74.4922 358.176 74.8602 357.917 75.1655 357.593C75.4709 357.268 75.7072 356.885 75.8603 356.467C76.0133 356.049 76.0798 355.604 76.0559 355.159V348.665H77.8534V360.134H76.1318V358.058C75.7585 358.753 75.2004 359.331 74.519 359.729C73.8376 360.127 73.0596 360.328 72.2708 360.311C69.4478 360.362 68.106 358.881 68.106 355.817Z" fill="white"/>
<path d="M81.499 348.665H83.284V351.083C83.6651 350.242 84.2933 349.538 85.0847 349.063C85.8762 348.588 86.7935 348.365 87.7146 348.424V350.386C87.1282 350.323 86.5352 350.39 85.9775 350.582C85.4199 350.774 84.9114 351.087 84.4884 351.498C84.0654 351.909 83.7381 352.408 83.5299 352.96C83.3218 353.512 83.2378 354.103 83.284 354.691V360.134H81.499V348.665Z" fill="white"/>
<path d="M89.3728 354.412C89.3492 353.638 89.4807 352.866 89.7598 352.143C90.0388 351.42 90.4596 350.76 90.9975 350.202C91.5354 349.644 92.1795 349.199 92.8918 348.894C93.6042 348.589 94.3704 348.429 95.1454 348.424C95.8941 348.451 96.6304 348.624 97.3117 348.936C97.9931 349.248 98.6061 349.691 99.1155 350.24C99.6249 350.79 100.021 351.434 100.28 352.137C100.539 352.84 100.657 353.588 100.627 354.336C100.639 354.572 100.639 354.809 100.627 355.045H91.2844C91.3801 356.077 91.8628 357.034 92.6354 357.724C93.408 358.415 94.4133 358.787 95.4492 358.767C96.7364 358.76 97.9825 358.313 98.9811 357.501L99.7659 358.767C98.5299 359.744 96.9997 360.275 95.4239 360.273C94.6365 360.306 93.8508 360.178 93.1144 359.898C92.378 359.617 91.7065 359.19 91.1404 358.641C90.5744 358.093 90.1258 357.436 89.822 356.708C89.5181 355.981 89.3653 355.2 89.3728 354.412V354.412ZM98.8671 353.678C98.8128 352.703 98.3907 351.784 97.686 351.107C96.9812 350.431 96.0462 350.047 95.0694 350.032C94.0962 350.058 93.1678 350.446 92.4655 351.121C91.7632 351.795 91.3375 352.707 91.2717 353.678H98.8671Z" fill="white"/>
<path d="M108.767 352.501C108.767 347.905 111.134 344.639 114.501 344.639C117.868 344.639 120.223 347.905 120.223 352.501C120.223 357.096 117.856 360.362 114.501 360.362C111.147 360.362 108.767 357.096 108.767 352.501ZM118.299 352.501C118.299 348.88 116.818 346.285 114.501 346.285C112.185 346.285 110.703 348.817 110.703 352.501C110.703 356.184 112.21 358.716 114.501 358.716C116.792 358.716 118.337 356.108 118.337 352.501H118.299Z" fill="white"/>
<path d="M122.426 358.83C127.895 354.475 130.667 351.703 130.667 349.209C130.667 348.801 130.582 348.398 130.417 348.024C130.252 347.651 130.012 347.316 129.71 347.041C129.409 346.766 129.053 346.557 128.667 346.426C128.28 346.296 127.87 346.248 127.464 346.285C126.717 346.327 125.986 346.525 125.319 346.865C124.652 347.205 124.064 347.68 123.59 348.26L122.578 346.994C123.195 346.247 123.968 345.643 124.842 345.226C125.717 344.808 126.672 344.586 127.641 344.576C130.629 344.576 132.604 346.412 132.604 348.994C132.604 352.488 128.338 356.235 125.261 358.412H133.072V360.071H122.451L122.426 358.83Z" fill="white"/>
<path d="M136.313 359.121C136.313 358.786 136.446 358.464 136.684 358.226C136.921 357.989 137.243 357.855 137.579 357.855C137.915 357.855 138.237 357.989 138.474 358.226C138.711 358.464 138.845 358.786 138.845 359.121C138.845 359.457 138.711 359.779 138.474 360.016C138.237 360.254 137.915 360.387 137.579 360.387C137.243 360.387 136.921 360.254 136.684 360.016C136.446 359.779 136.313 359.457 136.313 359.121Z" fill="white"/>
<path d="M34.7617 377.642H47.4967V380.173H37.6985V384.174H46.9397V386.706H37.6985V391.541H47.8258V394.073H34.7363L34.7617 377.642Z" fill="white"/>
<path d="M50.0288 387.794C50.0288 384.174 52.3834 381.262 55.8266 381.262C56.6177 381.245 57.4027 381.402 58.1266 381.722C58.8505 382.041 59.4957 382.515 60.0168 383.11V381.515H62.8271V394.048H60.0168V392.478C59.4939 393.069 58.8478 393.539 58.1238 393.854C57.3999 394.169 56.6158 394.321 55.8266 394.301C52.3834 394.301 50.0288 391.389 50.0288 387.794ZM60.0168 387.794C60.0495 387.313 59.9842 386.831 59.8248 386.377C59.6655 385.922 59.4155 385.504 59.09 385.149C58.7645 384.794 58.3702 384.509 57.9311 384.311C57.492 384.112 57.0172 384.006 56.5356 383.996C56.0422 383.99 55.5528 384.086 55.0978 384.277C54.6427 384.467 54.2316 384.749 53.8899 385.105C53.5482 385.461 53.2832 385.884 53.1111 386.346C52.9391 386.809 52.8637 387.301 52.8897 387.794C52.8618 388.287 52.9359 388.781 53.1073 389.244C53.2786 389.707 53.5436 390.131 53.8857 390.487C54.2278 390.843 54.6396 391.125 55.0955 391.315C55.5514 391.505 56.0416 391.6 56.5356 391.592C57.0178 391.584 57.4934 391.479 57.9334 391.281C58.3733 391.084 58.7683 390.798 59.0942 390.443C59.4201 390.087 59.67 389.669 59.8287 389.214C59.9873 388.758 60.0513 388.275 60.0168 387.794Z" fill="white"/>
<path d="M65.8652 387.794C65.8685 386.927 66.0439 386.068 66.3812 385.269C66.7186 384.47 67.2112 383.745 67.8305 383.138C68.4499 382.53 69.1836 382.051 69.9893 381.729C70.7949 381.408 71.6564 381.249 72.5239 381.262C74.1663 381.254 75.7584 381.828 77.0179 382.882L75.271 384.882C74.5173 384.253 73.5556 383.928 72.5746 383.971C72.073 383.961 71.5745 384.052 71.1091 384.239C70.6436 384.426 70.2209 384.706 69.8661 385.06C69.5114 385.415 69.232 385.838 69.0448 386.303C68.8576 386.769 68.7665 387.267 68.7768 387.769C68.7598 388.283 68.8507 388.795 69.0436 389.272C69.2365 389.749 69.5271 390.18 69.8968 390.538C70.2665 390.896 70.7071 391.172 71.1901 391.349C71.6731 391.526 72.1878 391.6 72.7012 391.567C73.8207 391.588 74.9097 391.201 75.7646 390.478L77.3217 392.605C75.9845 393.702 74.304 394.293 72.5746 394.276C71.7067 394.297 70.8431 394.146 70.0341 393.831C69.2251 393.516 68.4869 393.043 67.8625 392.44C67.2381 391.837 66.7399 391.115 66.397 390.318C66.0542 389.52 65.8734 388.662 65.8652 387.794Z" fill="white"/>
<path d="M79.7144 377.388H82.5247V383.376C82.9634 382.715 83.5659 382.178 84.2736 381.819C84.9813 381.459 85.77 381.289 86.5629 381.325C89.8543 381.325 91.0695 383.477 91.0695 386.921V394.111H88.2592V387.174C88.2592 385.123 87.7022 383.933 85.6262 383.933C85.1861 383.938 84.7519 384.034 84.3514 384.217C83.9509 384.399 83.593 384.663 83.3009 384.993C83.0087 385.322 82.7887 385.708 82.655 386.128C82.5213 386.547 82.4769 386.989 82.5247 387.427V394.01H79.7144V377.388Z" fill="white"/>
<path d="M99.9053 387.794C99.9085 386.927 100.084 386.068 100.421 385.269C100.759 384.47 101.251 383.745 101.871 383.138C102.49 382.53 103.224 382.051 104.029 381.729C104.835 381.408 105.696 381.249 106.564 381.262C107.432 381.249 108.294 381.408 109.101 381.729C109.907 382.051 110.641 382.53 111.262 383.137C111.882 383.744 112.376 384.469 112.715 385.268C113.053 386.067 113.23 386.926 113.235 387.794C113.227 388.66 113.048 389.516 112.707 390.313C112.367 391.109 111.873 391.83 111.253 392.435C110.633 393.04 109.899 393.516 109.095 393.836C108.29 394.156 107.43 394.314 106.564 394.301C105.699 394.314 104.839 394.156 104.035 393.836C103.231 393.516 102.499 393.039 101.88 392.434C101.261 391.829 100.767 391.108 100.429 390.312C100.09 389.515 99.9119 388.66 99.9053 387.794V387.794ZM110.374 387.794C110.374 386.787 109.974 385.821 109.262 385.109C108.55 384.397 107.584 383.996 106.577 383.996C106.075 383.986 105.577 384.077 105.111 384.264C104.646 384.452 104.223 384.731 103.868 385.086C103.513 385.44 103.234 385.863 103.047 386.329C102.86 386.794 102.769 387.293 102.779 387.794C102.767 388.296 102.857 388.795 103.043 389.262C103.23 389.728 103.509 390.152 103.864 390.507C104.219 390.862 104.643 391.141 105.109 391.327C105.575 391.514 106.075 391.604 106.577 391.592C107.073 391.594 107.564 391.496 108.023 391.305C108.481 391.114 108.896 390.833 109.244 390.48C109.592 390.126 109.865 389.706 110.049 389.245C110.232 388.784 110.321 388.29 110.311 387.794H110.374Z" fill="white"/>
<path d="M116.501 383.794H114.526V381.515H116.501V380.654C116.501 377.667 118.122 376.578 120.096 376.578C121.204 376.596 122.293 376.874 123.274 377.388L122.438 379.465C121.937 379.187 121.378 379.031 120.805 379.009C119.995 379.009 119.311 379.414 119.311 380.958V381.515H122.78V383.794H119.311V394.048H116.501V383.794Z" fill="white"/>
<path d="M130.477 387.794C130.48 386.927 130.656 386.068 130.993 385.269C131.33 384.47 131.823 383.745 132.442 383.138C133.062 382.53 133.795 382.051 134.601 381.73C135.407 381.408 136.268 381.249 137.136 381.262C138.004 381.247 138.867 381.405 139.674 381.726C140.481 382.047 141.217 382.525 141.837 383.133C142.458 383.741 142.952 384.466 143.29 385.266C143.628 386.066 143.804 386.926 143.807 387.794C143.8 388.661 143.622 389.517 143.283 390.315C142.943 391.112 142.449 391.834 141.828 392.439C141.208 393.044 140.474 393.52 139.668 393.84C138.863 394.159 138.002 394.316 137.136 394.301C136.27 394.314 135.411 394.156 134.607 393.836C133.803 393.516 133.07 393.039 132.451 392.434C131.832 391.829 131.339 391.108 131 390.312C130.661 389.515 130.484 388.66 130.477 387.794V387.794ZM140.946 387.794C140.946 386.787 140.546 385.821 139.834 385.109C139.122 384.397 138.156 383.996 137.148 383.996C136.647 383.986 136.148 384.077 135.683 384.264C135.217 384.452 134.795 384.731 134.44 385.086C134.085 385.441 133.806 385.863 133.619 386.329C133.431 386.794 133.34 387.293 133.351 387.794C133.339 388.296 133.428 388.796 133.615 389.262C133.802 389.728 134.081 390.152 134.436 390.507C134.791 390.862 135.215 391.141 135.681 391.328C136.147 391.514 136.646 391.604 137.148 391.592C137.65 391.602 138.148 391.511 138.614 391.324C139.079 391.137 139.502 390.857 139.857 390.503C140.212 390.148 140.491 389.725 140.678 389.26C140.865 388.794 140.956 388.296 140.946 387.794V387.794Z" fill="white"/>
<path d="M146.744 389.136V381.541H149.554V388.756C149.554 390.756 150.441 391.617 152.188 391.617C152.614 391.606 153.033 391.506 153.419 391.324C153.805 391.143 154.149 390.883 154.43 390.562C154.71 390.241 154.921 389.865 155.05 389.459C155.178 389.052 155.221 388.623 155.175 388.199V381.541H157.985V394.073H155.327V392.149C154.893 392.821 154.297 393.373 153.593 393.753C152.889 394.134 152.101 394.331 151.301 394.326C147.921 394.301 146.744 392.427 146.744 389.136Z" fill="white"/>
<path d="M161.555 381.515H164.365V384.047C164.738 383.173 165.376 382.438 166.189 381.947C167.003 381.456 167.95 381.234 168.897 381.313V384.376C166.138 384.376 164.365 385.642 164.365 388.984V394.048H161.555V381.515Z" fill="white"/>
<path d="M177.455 381.515H180.139V383.085C180.683 382.489 181.349 382.018 182.092 381.704C182.835 381.389 183.637 381.238 184.443 381.262C187.886 381.262 190.241 384.174 190.241 387.769C190.241 391.364 187.886 394.301 184.443 394.301C183.654 394.317 182.871 394.16 182.149 393.841C181.427 393.522 180.784 393.048 180.265 392.453V397.668H177.455V381.515ZM187.38 387.769C187.408 387.276 187.334 386.782 187.162 386.319C186.991 385.855 186.726 385.432 186.384 385.076C186.042 384.72 185.63 384.438 185.174 384.247C184.718 384.057 184.228 383.963 183.734 383.971C183.252 383.978 182.777 384.084 182.338 384.282C181.898 384.479 181.504 384.765 181.179 385.121C180.854 385.476 180.606 385.895 180.449 386.35C180.291 386.806 180.229 387.288 180.265 387.769C180.233 388.248 180.298 388.73 180.456 389.183C180.615 389.637 180.864 390.054 181.188 390.409C181.512 390.764 181.905 391.05 182.342 391.249C182.78 391.447 183.253 391.556 183.734 391.566C184.227 391.572 184.717 391.477 185.172 391.286C185.627 391.096 186.038 390.813 186.38 390.457C186.721 390.101 186.986 389.679 187.158 389.217C187.33 388.754 187.406 388.261 187.38 387.769V387.769Z" fill="white"/>
<path d="M193.329 381.515H196.114V384.047C196.487 383.173 197.125 382.438 197.938 381.947C198.752 381.456 199.699 381.234 200.646 381.313V384.376C197.887 384.376 196.114 385.642 196.114 388.984V394.048H193.292L193.329 381.515Z" fill="white"/>
<path d="M202.444 387.794C202.449 386.926 202.626 386.067 202.964 385.268C203.303 384.469 203.797 383.744 204.417 383.137C205.038 382.53 205.772 382.051 206.579 381.729C207.385 381.408 208.247 381.249 209.115 381.262C209.983 381.249 210.844 381.408 211.65 381.729C212.455 382.051 213.189 382.53 213.809 383.138C214.428 383.745 214.921 384.47 215.258 385.269C215.595 386.068 215.771 386.927 215.774 387.794C215.767 388.66 215.589 389.515 215.251 390.312C214.912 391.108 214.419 391.829 213.8 392.434C213.181 393.039 212.448 393.516 211.644 393.836C210.84 394.156 209.981 394.314 209.115 394.301C208.249 394.314 207.389 394.156 206.584 393.836C205.78 393.516 205.046 393.04 204.426 392.435C203.806 391.83 203.312 391.109 202.972 390.313C202.631 389.516 202.452 388.66 202.444 387.794V387.794ZM212.913 387.794C212.923 387.293 212.832 386.794 212.645 386.329C212.458 385.863 212.178 385.44 211.824 385.086C211.469 384.731 211.046 384.452 210.581 384.264C210.115 384.077 209.617 383.986 209.115 383.996C208.613 383.984 208.114 384.074 207.648 384.261C207.181 384.447 206.758 384.727 206.403 385.082C206.048 385.437 205.768 385.86 205.582 386.327C205.395 386.793 205.305 387.292 205.317 387.794C205.305 388.296 205.395 388.795 205.582 389.262C205.768 389.728 206.048 390.152 206.403 390.507C206.758 390.862 207.181 391.141 207.648 391.327C208.114 391.514 208.613 391.604 209.115 391.592C209.62 391.609 210.124 391.523 210.595 391.339C211.065 391.155 211.493 390.876 211.853 390.521C212.212 390.165 212.494 389.74 212.683 389.271C212.872 388.802 212.963 388.299 212.951 387.794H212.913Z" fill="white"/>
<path d="M218.28 387.794C218.28 384.174 220.648 381.262 224.091 381.262C224.88 381.246 225.663 381.403 226.385 381.722C227.107 382.041 227.75 382.515 228.268 383.11V377.388H231.079V394.048H228.395V392.478C227.851 393.073 227.185 393.545 226.442 393.859C225.699 394.174 224.897 394.325 224.091 394.301C220.648 394.301 218.28 391.389 218.28 387.794ZM228.268 387.794C228.301 387.315 228.236 386.833 228.077 386.38C227.919 385.926 227.67 385.509 227.346 385.154C227.022 384.799 226.629 384.513 226.191 384.314C225.754 384.116 225.28 384.007 224.8 383.996C224.306 383.991 223.817 384.086 223.362 384.277C222.907 384.468 222.496 384.75 222.154 385.105C221.812 385.461 221.547 385.884 221.375 386.346C221.203 386.809 221.128 387.301 221.154 387.794C221.126 388.287 221.2 388.781 221.371 389.244C221.543 389.708 221.808 390.131 222.15 390.487C222.492 390.843 222.904 391.125 223.36 391.315C223.816 391.506 224.306 391.6 224.8 391.592C225.281 391.585 225.757 391.479 226.196 391.281C226.635 391.083 227.029 390.798 227.354 390.442C227.679 390.087 227.928 389.668 228.085 389.213C228.242 388.757 228.305 388.275 228.268 387.794Z" fill="white"/>
<path d="M234.598 389.136V381.541H237.408V388.756C237.408 390.756 238.295 391.617 240.042 391.617C240.468 391.606 240.887 391.506 241.273 391.324C241.659 391.143 242.003 390.883 242.284 390.562C242.564 390.241 242.775 389.865 242.904 389.459C243.032 389.052 243.075 388.623 243.029 388.199V381.541H245.839V394.073H243.181V392.149C242.747 392.821 242.151 393.373 241.447 393.753C240.743 394.134 239.955 394.331 239.155 394.326C235.839 394.301 234.598 392.427 234.598 389.136Z" fill="white"/>
<path d="M248.89 387.794C248.893 386.927 249.069 386.068 249.406 385.269C249.743 384.47 250.236 383.745 250.855 383.138C251.475 382.53 252.209 382.051 253.014 381.729C253.82 381.408 254.681 381.249 255.549 381.262C257.188 381.252 258.777 381.826 260.03 382.882L258.283 384.882C257.534 384.254 256.577 383.929 255.599 383.971C255.098 383.961 254.599 384.052 254.134 384.239C253.669 384.426 253.246 384.706 252.891 385.06C252.536 385.415 252.257 385.838 252.07 386.303C251.883 386.769 251.791 387.267 251.802 387.769C251.785 388.283 251.876 388.795 252.068 389.272C252.261 389.749 252.552 390.18 252.922 390.538C253.291 390.896 253.732 391.172 254.215 391.349C254.698 391.526 255.213 391.6 255.726 391.567C256.846 391.588 257.935 391.201 258.79 390.478L260.334 392.605C259.002 393.702 257.325 394.293 255.599 394.276C254.732 394.297 253.868 394.146 253.059 393.831C252.25 393.516 251.512 393.043 250.887 392.44C250.263 391.837 249.765 391.115 249.422 390.318C249.079 389.52 248.898 388.662 248.89 387.794V387.794Z" fill="white"/>
<path d="M263.878 390.022V383.819H262.03V381.515H263.878V379.059L266.689 378.477V381.515H270.487V383.819H266.689V390.149C266.689 391.491 267.322 391.921 268.031 391.921C268.683 391.893 269.315 391.682 269.854 391.313L270.689 393.415C269.8 394.02 268.751 394.346 267.676 394.352C265.119 394.301 263.878 392.908 263.878 390.022Z" fill="white"/>
<path d="M272.626 392.478L273.689 390.174C274.795 391.128 276.204 391.657 277.664 391.668C278.804 391.668 280.196 391.237 280.196 390.402C280.196 389.566 278.93 389.262 277.664 388.908C275.284 388.25 273.259 387.541 273.259 385.11C273.259 382.68 275.791 381.313 277.968 381.313C279.554 381.284 281.113 381.724 282.449 382.578L281.411 384.857C280.378 384.24 279.197 383.916 277.993 383.92C277.057 383.92 276.12 384.351 276.12 385.009C276.12 385.87 277.158 386.072 278.272 386.275C280.601 386.781 283.032 387.718 283.032 390.3C283.032 393.237 280.019 394.301 277.69 394.301C275.834 394.343 274.029 393.694 272.626 392.478Z" fill="white"/>
<path d="M291.513 377.996C291.513 377.544 291.691 377.11 292.008 376.787C292.326 376.465 292.757 376.281 293.209 376.274C293.665 376.278 294.101 376.46 294.423 376.782C294.745 377.105 294.928 377.54 294.931 377.996C294.924 378.448 294.74 378.88 294.418 379.197C294.096 379.514 293.662 379.692 293.209 379.692C292.76 379.692 292.328 379.514 292.01 379.195C291.692 378.877 291.513 378.446 291.513 377.996ZM291.817 381.515H294.627V394.048H291.817V381.515Z" fill="white"/>
<path d="M297.45 392.478L298.501 390.174C299.612 391.128 301.024 391.657 302.488 391.668C303.628 391.668 305.02 391.237 305.02 390.402C305.02 389.566 303.754 389.262 302.488 388.908C300.109 388.25 298.07 387.541 298.07 385.11C298.07 382.68 300.602 381.313 302.792 381.313C304.378 381.284 305.937 381.724 307.274 382.578L306.236 384.857C305.203 384.24 304.021 383.916 302.818 383.92C301.881 383.92 300.944 384.351 300.944 385.009C300.944 385.87 301.982 386.072 303.096 386.275C305.425 386.781 307.856 387.718 307.856 390.3C307.856 393.237 304.843 394.301 302.514 394.301C300.658 394.343 298.853 393.694 297.45 392.478Z" fill="white"/>
<path d="M34.863 407.846H32.8882V405.568H34.863V404.707C34.863 401.719 36.4834 400.63 38.4582 400.63C39.5621 400.648 40.6463 400.926 41.6229 401.441L40.7874 403.517C40.2915 403.237 39.7359 403.081 39.1671 403.061C38.3569 403.061 37.6733 403.466 37.6733 405.01V405.568H41.1419V407.846H37.6733V418.1H34.863V407.846Z" fill="white"/>
<path d="M42.585 411.846C42.5882 410.979 42.7636 410.121 43.1009 409.321C43.4383 408.522 43.9309 407.798 44.5502 407.19C45.1696 406.582 45.9033 406.104 46.709 405.782C47.5146 405.46 48.3762 405.301 49.2436 405.314C50.1111 405.301 50.9726 405.46 51.7783 405.782C52.5839 406.104 53.3177 406.582 53.937 407.19C54.5564 407.798 55.049 408.522 55.3863 409.321C55.7237 410.121 55.899 410.979 55.9023 411.846C55.8957 412.712 55.7179 413.567 55.3791 414.364C55.0402 415.16 54.5471 415.882 53.9281 416.486C53.3091 417.091 52.5764 417.568 51.7724 417.888C50.9685 418.209 50.109 418.367 49.2436 418.353C48.3783 418.367 47.5188 418.209 46.7148 417.888C45.9108 417.568 45.1782 417.091 44.5592 416.486C43.9402 415.882 43.447 415.16 43.1082 414.364C42.7694 413.567 42.5915 412.712 42.585 411.846V411.846ZM53.0414 411.846C53.0517 411.345 52.9605 410.846 52.7733 410.381C52.5861 409.916 52.3068 409.493 51.952 409.138C51.5973 408.783 51.1745 408.504 50.7091 408.317C50.2437 408.129 49.7452 408.038 49.2436 408.049C48.7421 408.038 48.2436 408.129 47.7782 408.317C47.3127 408.504 46.8899 408.783 46.5352 409.138C46.1805 409.493 45.9011 409.916 45.7139 410.381C45.5267 410.846 45.4356 411.345 45.4459 411.846C45.4338 412.348 45.5237 412.848 45.7102 413.314C45.8968 413.78 46.1761 414.204 46.5312 414.559C46.8863 414.914 47.3098 415.193 47.7761 415.38C48.2423 415.566 48.7416 415.656 49.2436 415.644C49.7478 415.66 50.2498 415.572 50.719 415.387C51.1882 415.202 51.6148 414.924 51.9727 414.568C52.3305 414.213 52.6121 413.788 52.8002 413.32C52.9883 412.852 53.079 412.351 53.0667 411.846H53.0414Z" fill="white"/>
<path d="M58.9155 405.567H61.7258V408.099C62.0986 407.223 62.7387 406.486 63.5549 405.995C64.371 405.504 65.3214 405.284 66.2704 405.365V408.428C63.5108 408.428 61.7258 409.694 61.7258 413.036V418.1H58.9155V405.567Z" fill="white"/>
<path d="M68.6753 405.568H71.4856V407.428C71.8703 406.797 72.4087 406.273 73.0507 405.905C73.6926 405.538 74.4172 405.339 75.1568 405.327C75.9817 405.258 76.8074 405.451 77.5165 405.878C78.2255 406.305 78.7819 406.945 79.1064 407.707C79.538 407 80.1391 406.412 80.8554 405.997C81.5716 405.581 82.3802 405.351 83.2079 405.327C86.4993 405.327 87.9677 407.353 87.9677 410.897V418.113H85.1574V411.226C85.1574 409.479 84.7777 407.985 82.6256 407.985C82.2298 407.987 81.8386 408.071 81.4769 408.232C81.1152 408.393 80.7908 408.627 80.5243 408.92C80.2578 409.213 80.0549 409.558 79.9285 409.933C79.8021 410.308 79.7549 410.705 79.79 411.1V418.062H76.9797V411.226C76.9797 409.479 76.5999 407.985 74.4479 407.985C74.0394 408.001 73.6383 408.1 73.2695 408.276C72.9008 408.452 72.5721 408.702 72.304 409.011C72.0358 409.32 71.8337 409.68 71.7104 410.07C71.5871 410.459 71.545 410.87 71.5869 411.277V418.062H68.7766L68.6753 405.568Z" fill="white"/>
<path d="M91.3228 413.188V405.593H94.1331V412.809C94.1331 414.809 95.0192 415.669 96.7661 415.669C97.1924 415.658 97.6117 415.558 97.9976 415.377C98.3835 415.195 98.7276 414.936 99.0082 414.614C99.2889 414.293 99.5 413.918 99.6283 413.511C99.7566 413.104 99.7993 412.676 99.7537 412.252V405.593H102.564V418.125H99.9056V416.201C99.4716 416.873 98.8753 417.425 98.1717 417.805C97.4681 418.186 96.6799 418.383 95.88 418.379C92.5634 418.353 91.3228 416.48 91.3228 413.188Z" fill="white"/>
<path d="M106.235 401.441H109.045V418.1H106.235V401.441Z" fill="white"/>
<path d="M112.096 411.846C112.096 408.226 114.451 405.314 117.894 405.314C118.683 405.298 119.466 405.455 120.188 405.774C120.91 406.094 121.553 406.567 122.072 407.162V405.567H124.882V418.1H122.072V416.53C121.551 417.121 120.907 417.591 120.185 417.906C119.464 418.221 118.681 418.374 117.894 418.353C114.451 418.353 112.096 415.441 112.096 411.846ZM122.072 411.846C122.104 411.367 122.039 410.886 121.881 410.432C121.722 409.978 121.473 409.561 121.149 409.206C120.825 408.851 120.432 408.566 119.995 408.367C119.557 408.168 119.084 408.059 118.603 408.049C118.11 408.043 117.62 408.138 117.165 408.329C116.71 408.52 116.299 408.802 115.957 409.158C115.616 409.514 115.351 409.936 115.179 410.398C115.006 410.861 114.931 411.354 114.957 411.846C114.929 412.339 115.003 412.833 115.175 413.296C115.346 413.76 115.611 414.183 115.953 414.539C116.295 414.895 116.707 415.177 117.163 415.368C117.619 415.558 118.109 415.652 118.603 415.644C119.085 415.637 119.56 415.531 119.999 415.333C120.438 415.136 120.833 414.85 121.158 414.494C121.482 414.139 121.731 413.72 121.888 413.265C122.045 412.809 122.108 412.327 122.072 411.846V411.846Z" fill="white"/>
<path d="M129.211 414.074V407.871H127.363V405.568H129.211V403.112L132.021 402.529V405.568H135.819V407.871H132.021V414.201C132.021 415.543 132.654 415.973 133.363 415.973C134.016 415.945 134.647 415.735 135.186 415.366L136.022 417.467C135.133 418.072 134.084 418.398 133.009 418.404C130.452 418.353 129.211 416.961 129.211 414.074Z" fill="white"/>
<path d="M137.566 411.846C137.556 410.992 137.715 410.144 138.035 409.352C138.355 408.56 138.829 407.839 139.43 407.232C140.03 406.624 140.745 406.142 141.534 405.813C142.322 405.484 143.168 405.314 144.022 405.314C145.672 405.374 147.231 406.083 148.36 407.288C149.489 408.493 150.096 410.095 150.048 411.745C150.044 412.109 150.018 412.473 149.972 412.834H140.477C140.658 413.722 141.15 414.517 141.865 415.074C142.58 415.631 143.471 415.914 144.376 415.872C145.657 415.877 146.909 415.498 147.972 414.783L149.086 416.859C147.683 417.82 146.026 418.34 144.326 418.353C143.447 418.402 142.567 418.269 141.742 417.963C140.916 417.656 140.163 417.183 139.528 416.572C138.894 415.962 138.392 415.227 138.055 414.414C137.717 413.601 137.551 412.727 137.566 411.846V411.846ZM147.313 410.758C147.202 409.926 146.791 409.163 146.157 408.612C145.523 408.062 144.71 407.763 143.87 407.77C143.042 407.794 142.249 408.106 141.625 408.651C141.002 409.196 140.587 409.941 140.452 410.758H147.313Z" fill="white"/>
<path d="M152.517 411.846C152.517 408.226 154.871 405.314 158.314 405.314C159.105 405.298 159.891 405.455 160.614 405.774C161.338 406.093 161.984 406.567 162.505 407.163V401.441H165.315V418.1H162.631V416.53C162.085 417.126 161.416 417.597 160.671 417.912C159.927 418.226 159.123 418.377 158.314 418.353C154.871 418.353 152.517 415.442 152.517 411.846ZM162.505 411.846C162.537 411.366 162.472 410.884 162.313 410.429C162.153 409.974 161.903 409.557 161.578 409.202C161.252 408.846 160.858 408.561 160.419 408.363C159.98 408.165 159.505 408.058 159.023 408.049C158.53 408.043 158.041 408.138 157.586 408.329C157.131 408.52 156.719 408.802 156.378 409.158C156.036 409.514 155.771 409.936 155.599 410.398C155.427 410.861 155.352 411.354 155.378 411.846C155.35 412.34 155.424 412.833 155.595 413.296C155.766 413.76 156.031 414.183 156.373 414.539C156.716 414.896 157.127 415.178 157.583 415.368C158.039 415.558 158.529 415.652 159.023 415.644C159.506 415.637 159.981 415.531 160.421 415.334C160.861 415.136 161.256 414.851 161.582 414.495C161.908 414.14 162.158 413.721 162.316 413.266C162.475 412.81 162.539 412.327 162.505 411.846Z" fill="white"/>
<path d="M175.48 414.074V407.871H173.632V405.568H175.48V403.112L178.29 402.529V405.568H182.088V407.871H178.29V414.201C178.29 415.543 178.923 415.973 179.632 415.973C180.285 415.945 180.916 415.735 181.455 415.366L182.291 417.467C181.402 418.072 180.353 418.398 179.278 418.404C176.721 418.353 175.48 416.961 175.48 414.074Z" fill="white"/>
<path d="M183.835 411.846C183.838 410.979 184.014 410.121 184.351 409.321C184.688 408.522 185.181 407.798 185.8 407.19C186.42 406.582 187.153 406.104 187.959 405.782C188.765 405.46 189.626 405.301 190.494 405.314C191.362 405.299 192.225 405.457 193.032 405.778C193.839 406.099 194.575 406.578 195.195 407.185C195.816 407.793 196.31 408.518 196.648 409.318C196.986 410.118 197.162 410.978 197.165 411.846C197.158 412.713 196.98 413.57 196.641 414.367C196.301 415.164 195.807 415.886 195.186 416.491C194.566 417.096 193.832 417.572 193.026 417.892C192.221 418.212 191.36 418.368 190.494 418.353C189.628 418.367 188.769 418.209 187.965 417.888C187.161 417.568 186.428 417.091 185.809 416.487C185.19 415.882 184.697 415.16 184.358 414.364C184.019 413.568 183.842 412.712 183.835 411.846V411.846ZM194.304 411.846C194.304 410.839 193.904 409.873 193.192 409.161C192.479 408.449 191.514 408.049 190.506 408.049C190.005 408.038 189.506 408.13 189.041 408.317C188.575 408.504 188.153 408.783 187.798 409.138C187.443 409.493 187.164 409.916 186.977 410.381C186.789 410.847 186.698 411.345 186.709 411.846C186.696 412.349 186.786 412.848 186.973 413.314C187.159 413.78 187.439 414.204 187.794 414.559C188.149 414.914 188.572 415.193 189.039 415.38C189.505 415.566 190.004 415.656 190.506 415.644C191.008 415.655 191.506 415.563 191.972 415.376C192.437 415.189 192.86 414.91 193.215 414.555C193.569 414.2 193.849 413.777 194.036 413.312C194.223 412.847 194.314 412.348 194.304 411.846Z" fill="white"/>
<path d="M205.685 411.846C205.685 408.226 208.039 405.314 211.482 405.314C212.273 405.298 213.058 405.455 213.782 405.774C214.506 406.093 215.151 406.567 215.673 407.163V401.441H218.483V418.1H215.799V416.53C215.253 417.126 214.584 417.597 213.839 417.912C213.094 418.226 212.291 418.377 211.482 418.353C208.039 418.353 205.685 415.442 205.685 411.846ZM215.673 411.846C215.705 411.366 215.64 410.884 215.481 410.429C215.321 409.974 215.071 409.557 214.746 409.202C214.42 408.846 214.026 408.561 213.587 408.363C213.148 408.165 212.673 408.058 212.191 408.049C211.698 408.043 211.209 408.138 210.754 408.329C210.299 408.52 209.887 408.802 209.546 409.158C209.204 409.514 208.939 409.936 208.767 410.398C208.595 410.861 208.52 411.354 208.546 411.846C208.518 412.34 208.592 412.833 208.763 413.296C208.934 413.76 209.199 414.183 209.541 414.539C209.884 414.896 210.295 415.178 210.751 415.368C211.207 415.558 211.697 415.652 212.191 415.644C212.674 415.637 213.149 415.531 213.589 415.334C214.029 415.136 214.424 414.851 214.75 414.495C215.076 414.14 215.326 413.721 215.484 413.266C215.643 412.81 215.707 412.327 215.673 411.846Z" fill="white"/>
<path d="M221.521 411.846C221.511 410.992 221.67 410.144 221.99 409.352C222.31 408.56 222.784 407.839 223.385 407.232C223.985 406.624 224.7 406.142 225.489 405.813C226.277 405.484 227.123 405.314 227.977 405.314C229.629 405.37 231.192 406.078 232.323 407.284C233.455 408.489 234.063 410.093 234.015 411.745C234.011 412.109 233.986 412.473 233.94 412.834H224.433C224.613 413.722 225.105 414.517 225.82 415.074C226.535 415.631 227.426 415.914 228.332 415.872C229.616 415.877 230.872 415.498 231.939 414.783L233.053 416.859C231.645 417.818 229.985 418.338 228.281 418.353C227.402 418.402 226.522 418.269 225.697 417.963C224.871 417.656 224.118 417.183 223.483 416.572C222.849 415.962 222.347 415.227 222.01 414.414C221.672 413.601 221.506 412.727 221.521 411.846V411.846ZM231.268 410.758C231.157 409.926 230.746 409.163 230.112 408.612C229.478 408.062 228.665 407.763 227.825 407.77C226.997 407.794 226.204 408.106 225.58 408.651C224.957 409.196 224.542 409.941 224.407 410.758H231.268Z" fill="white"/>
<path d="M237.092 401.441H239.902V418.1H237.092V401.441Z" fill="white"/>
<path d="M243.219 402.048C243.219 401.596 243.397 401.162 243.714 400.84C244.031 400.518 244.463 400.333 244.915 400.327C245.371 400.33 245.807 400.512 246.129 400.835C246.451 401.157 246.633 401.593 246.637 402.048C246.63 402.5 246.446 402.932 246.124 403.249C245.801 403.567 245.367 403.745 244.915 403.745C244.465 403.745 244.034 403.566 243.716 403.248C243.397 402.93 243.219 402.498 243.219 402.048ZM243.523 405.568H246.333V418.1H243.523V405.568Z" fill="white"/>
<path d="M248.536 405.568H251.346L253.878 411.897C254.536 413.517 255.042 415.264 255.042 415.264C255.042 415.264 255.574 413.492 256.207 411.922L258.739 405.593H261.549L256.384 418.151H253.675L248.536 405.568Z" fill="white"/>
<path d="M262.727 411.846C262.717 410.992 262.876 410.144 263.196 409.352C263.516 408.56 263.99 407.839 264.59 407.232C265.191 406.624 265.906 406.142 266.694 405.813C267.483 405.484 268.328 405.314 269.183 405.314C270.835 405.37 272.397 406.078 273.529 407.284C274.66 408.489 275.269 410.093 275.221 411.745C275.217 412.109 275.192 412.473 275.145 412.834H265.638C265.818 413.722 266.311 414.517 267.026 415.074C267.741 415.631 268.632 415.914 269.537 415.872C270.818 415.881 272.072 415.502 273.132 414.783L274.246 416.859C272.844 417.82 271.187 418.34 269.487 418.353C268.607 418.402 267.728 418.269 266.902 417.963C266.077 417.656 265.323 417.183 264.689 416.572C264.055 415.962 263.553 415.227 263.215 414.414C262.878 413.601 262.711 412.727 262.727 411.846ZM272.474 410.758C272.363 409.926 271.952 409.163 271.318 408.612C270.684 408.062 269.87 407.763 269.031 407.77C268.203 407.794 267.409 408.106 266.786 408.651C266.162 409.196 265.748 409.941 265.613 410.758H272.474Z" fill="white"/>
<path d="M278.259 405.567H281.069V408.099C281.442 407.223 282.082 406.486 282.898 405.995C283.714 405.504 284.665 405.284 285.614 405.365V408.428C282.841 408.428 281.069 409.694 281.069 413.036V418.1H278.259V405.567Z" fill="white"/>
<path d="M293.729 411.846C293.729 408.226 296.083 405.314 299.526 405.314C300.317 405.298 301.102 405.455 301.826 405.774C302.55 406.093 303.195 406.567 303.717 407.163V405.567H306.527V418.1H303.717V416.53C303.194 417.122 302.547 417.591 301.824 417.906C301.1 418.221 300.316 418.374 299.526 418.353C296.121 418.353 293.729 415.442 293.729 411.846ZM303.717 411.846C303.749 411.366 303.684 410.883 303.525 410.429C303.365 409.974 303.115 409.557 302.79 409.202C302.464 408.846 302.07 408.561 301.631 408.363C301.192 408.165 300.717 408.058 300.235 408.049C299.742 408.043 299.253 408.138 298.797 408.329C298.342 408.52 297.931 408.802 297.59 409.158C297.248 409.514 296.983 409.936 296.811 410.398C296.639 410.861 296.563 411.354 296.589 411.846C296.562 412.339 296.636 412.833 296.807 413.296C296.978 413.76 297.243 414.183 297.585 414.539C297.927 414.896 298.339 415.177 298.795 415.368C299.251 415.558 299.741 415.652 300.235 415.644C300.717 415.637 301.193 415.531 301.633 415.333C302.073 415.136 302.468 414.851 302.794 414.495C303.12 414.14 303.37 413.721 303.528 413.266C303.687 412.81 303.751 412.327 303.717 411.846V411.846Z" fill="white"/>
<path d="M33.7744 440.582L34.8378 438.278C35.9435 439.232 37.3524 439.762 38.8127 439.772C39.952 439.772 41.3445 439.342 41.3445 438.506C41.3445 437.671 40.0786 437.367 38.8127 437.013C36.4328 436.354 34.4074 435.645 34.4074 433.215C34.4074 430.784 36.9392 429.417 39.1165 429.417C40.7024 429.388 42.2614 429.829 43.5978 430.683L42.5598 432.962C41.5268 432.345 40.3451 432.021 39.1418 432.025C38.2051 432.025 37.2683 432.455 37.2683 433.114C37.2683 433.974 38.3064 434.177 39.4204 434.379C41.7496 434.886 44.1802 435.823 44.1802 438.405C44.1802 441.342 41.1673 442.405 38.838 442.405C36.9823 442.448 35.1771 441.798 33.7744 440.582V440.582Z" fill="white"/>
<path d="M47.1299 429.62H49.8136V431.189C50.3577 430.594 51.0239 430.123 51.7667 429.808C52.5094 429.493 53.3114 429.343 54.1177 429.366C57.5609 429.366 59.9156 432.278 59.9156 435.873C59.9156 439.468 57.5609 442.405 54.1177 442.405C53.3285 442.422 52.5454 442.265 51.8236 441.945C51.1017 441.626 50.4588 441.152 49.9402 440.557V445.773H47.1299V429.62ZM57.0546 435.873C57.0825 435.38 57.0084 434.886 56.8371 434.423C56.6657 433.96 56.4008 433.537 56.0587 433.181C55.7166 432.824 55.3048 432.542 54.8488 432.352C54.3929 432.162 53.9027 432.068 53.4088 432.075C52.9271 432.083 52.452 432.189 52.0126 432.386C51.5733 432.584 51.1791 432.869 50.8542 433.225C50.5293 433.581 50.2806 433.999 50.1234 434.455C49.9662 434.91 49.9039 435.393 49.9402 435.873C49.9076 436.353 49.9725 436.834 50.131 437.288C50.2896 437.742 50.5384 438.159 50.8626 438.514C51.1868 438.869 51.5796 439.154 52.0172 439.353C52.4548 439.552 52.9282 439.66 53.4088 439.671C53.9022 439.677 54.3915 439.582 54.8466 439.391C55.3016 439.2 55.7127 438.918 56.0544 438.562C56.3961 438.206 56.6612 437.784 56.8332 437.321C57.0053 436.859 57.0806 436.366 57.0546 435.873V435.873Z" fill="white"/>
<path d="M62.4473 435.899C62.4372 435.044 62.5968 434.197 62.9167 433.405C63.2367 432.613 63.7106 431.892 64.3112 431.284C64.9117 430.677 65.6267 430.194 66.415 429.865C67.2033 429.536 68.0491 429.366 68.9034 429.366C70.5533 429.426 72.1127 430.135 73.2415 431.34C74.3703 432.545 74.9769 434.147 74.9291 435.797C74.9251 436.161 74.8997 436.525 74.8531 436.886H65.3588C65.5391 437.774 66.0313 438.569 66.7464 439.126C67.4615 439.683 68.3523 439.967 69.2578 439.924C70.5382 439.93 71.7907 439.55 72.853 438.836L73.967 440.912C72.5647 441.873 70.9072 442.393 69.2072 442.405C68.3281 442.454 67.4483 442.321 66.6229 442.015C65.7974 441.708 65.044 441.235 64.4097 440.625C63.7753 440.014 63.2736 439.279 62.936 438.466C62.5983 437.653 62.432 436.779 62.4473 435.899V435.899ZM72.1947 434.81C72.0836 433.978 71.6724 433.215 71.0383 432.665C70.4042 432.115 69.591 431.815 68.7515 431.822C67.9237 431.847 67.13 432.158 66.5064 432.703C65.8829 433.248 65.4683 433.993 65.3335 434.81H72.1947Z" fill="white"/>
<path d="M77.3345 435.899C77.3377 435.031 77.5131 434.173 77.8504 433.373C78.1878 432.574 78.6804 431.85 79.2997 431.242C79.9191 430.635 80.6528 430.156 81.4585 429.834C82.2641 429.512 83.1256 429.353 83.9931 429.367C85.6321 429.356 87.2211 429.931 88.4744 430.987L86.7275 432.987C85.9783 432.358 85.0208 432.033 84.0438 432.076C83.5422 432.065 83.0437 432.156 82.5783 432.344C82.1128 432.531 81.6901 432.81 81.3353 433.165C80.9806 433.52 80.7012 433.942 80.514 434.408C80.3268 434.873 80.2357 435.372 80.246 435.873C80.229 436.387 80.3199 436.9 80.5128 437.377C80.7057 437.853 80.9963 438.285 81.366 438.642C81.7357 439 82.1763 439.277 82.6593 439.454C83.1423 439.631 83.657 439.705 84.1704 439.671C85.2899 439.692 86.3789 439.305 87.2338 438.582L88.7782 440.709C87.446 441.806 85.7694 442.398 84.0438 442.38C83.1758 442.402 82.3123 442.251 81.5033 441.936C80.6943 441.621 79.9561 441.148 79.3317 440.545C78.7073 439.941 78.2091 439.22 77.8662 438.422C77.5234 437.625 77.3426 436.767 77.3345 435.899V435.899Z" fill="white"/>
<path d="M90.8413 426.101C90.8413 425.648 91.0192 425.214 91.3366 424.892C91.654 424.57 92.0854 424.386 92.5376 424.379C92.9932 424.382 93.4292 424.565 93.7513 424.887C94.0735 425.209 94.256 425.645 94.2593 426.101C94.2526 426.553 94.0683 426.984 93.7462 427.302C93.424 427.619 92.9899 427.797 92.5376 427.797C92.0877 427.797 91.6563 427.618 91.3382 427.3C91.02 426.982 90.8413 426.55 90.8413 426.101V426.101ZM91.1451 429.62H93.9554V442.152H91.1451V429.62Z" fill="white"/>
<path d="M98.1965 431.898H96.2217V429.62H98.1965V428.759C98.1965 425.771 99.8168 424.683 101.792 424.683C102.896 424.7 103.98 424.978 104.956 425.493L104.121 427.569C103.625 427.29 103.069 427.133 102.501 427.113C101.69 427.113 101.007 427.518 101.007 429.063V429.62H104.475V431.898H101.007V442.152H98.1965V431.898ZM105.792 426.101C105.792 425.648 105.97 425.214 106.287 424.892C106.605 424.57 107.036 424.386 107.488 424.379C107.944 424.382 108.38 424.565 108.702 424.887C109.024 425.209 109.207 425.645 109.21 426.101C109.203 426.553 109.019 426.984 108.697 427.302C108.375 427.619 107.94 427.797 107.488 427.797C107.261 427.804 107.035 427.765 106.824 427.683C106.612 427.6 106.419 427.476 106.256 427.318C106.093 427.16 105.964 426.971 105.875 426.762C105.787 426.552 105.741 426.328 105.741 426.101H105.792ZM106.096 429.62H108.906V442.152H106.096V429.62Z" fill="white"/>
<path d="M111.855 435.899C111.86 435.03 112.037 434.172 112.376 433.373C112.715 432.573 113.209 431.849 113.829 431.241C114.449 430.634 115.184 430.156 115.99 429.834C116.797 429.512 117.659 429.353 118.527 429.367C120.166 429.356 121.755 429.931 123.008 430.987L121.261 432.987C120.512 432.358 119.554 432.033 118.577 432.076C118.076 432.065 117.577 432.156 117.112 432.344C116.647 432.531 116.224 432.81 115.869 433.165C115.514 433.52 115.235 433.942 115.048 434.408C114.861 434.873 114.769 435.372 114.78 435.873C114.763 436.387 114.854 436.9 115.046 437.377C115.239 437.853 115.53 438.285 115.9 438.642C116.269 439 116.71 439.277 117.193 439.454C117.676 439.631 118.191 439.705 118.704 439.671C119.824 439.692 120.913 439.305 121.768 438.582L123.312 440.709C121.98 441.806 120.303 442.398 118.577 442.38C117.708 442.404 116.844 442.254 116.033 441.939C115.223 441.625 114.483 441.152 113.857 440.549C113.231 439.946 112.732 439.224 112.388 438.425C112.045 437.627 111.864 436.768 111.855 435.899V435.899Z" fill="white"/>
<path d="M131.325 435.899C131.33 435.03 131.507 434.172 131.846 433.373C132.184 432.573 132.678 431.849 133.299 431.241C133.919 430.634 134.654 430.156 135.46 429.834C136.266 429.512 137.128 429.353 137.997 429.367C139.636 429.356 141.224 429.931 142.478 430.987L140.731 432.987C139.982 432.358 139.024 432.033 138.047 432.076C137.545 432.063 137.046 432.153 136.58 432.34C136.113 432.527 135.69 432.806 135.335 433.161C134.98 433.516 134.7 433.939 134.514 434.406C134.327 434.872 134.237 435.371 134.249 435.873C134.232 436.387 134.323 436.9 134.516 437.377C134.709 437.853 135 438.285 135.369 438.642C135.739 439 136.18 439.277 136.663 439.454C137.146 439.631 137.66 439.705 138.174 439.671C139.293 439.692 140.382 439.305 141.237 438.582L142.782 440.709C141.449 441.806 139.773 442.398 138.047 442.38C137.178 442.404 136.313 442.254 135.503 441.939C134.692 441.625 133.953 441.152 133.327 440.549C132.701 439.946 132.202 439.224 131.858 438.425C131.514 437.627 131.333 436.768 131.325 435.899Z" fill="white"/>
<path d="M144.389 435.899C144.389 432.278 146.744 429.366 150.187 429.366C150.976 429.35 151.759 429.507 152.481 429.826C153.203 430.146 153.846 430.62 154.364 431.215V429.62H157.175V442.152H154.339V440.582C153.819 441.173 153.175 441.643 152.453 441.958C151.731 442.273 150.949 442.426 150.162 442.405C146.744 442.405 144.389 439.494 144.389 435.899ZM154.364 435.899C154.397 435.419 154.332 434.938 154.174 434.484C154.015 434.03 153.766 433.613 153.442 433.258C153.118 432.903 152.725 432.618 152.287 432.419C151.85 432.22 151.376 432.112 150.896 432.101C150.403 432.095 149.913 432.19 149.458 432.381C149.003 432.572 148.592 432.854 148.25 433.21C147.909 433.566 147.643 433.988 147.471 434.451C147.299 434.913 147.224 435.406 147.25 435.899C147.222 436.392 147.296 436.885 147.468 437.349C147.639 437.812 147.904 438.235 148.246 438.591C148.588 438.948 149 439.23 149.456 439.42C149.912 439.61 150.402 439.704 150.896 439.696C151.375 439.686 151.848 439.577 152.284 439.378C152.721 439.179 153.112 438.893 153.434 438.538C153.756 438.182 154.003 437.765 154.158 437.311C154.314 436.858 154.375 436.377 154.339 435.899H154.364Z" fill="white"/>
<path d="M160.808 429.62H163.618V431.481C164.063 430.822 164.668 430.287 165.377 429.928C166.086 429.569 166.875 429.398 167.669 429.43C171.062 429.43 172.176 431.683 172.176 435.025V442.215H169.366V435.278C169.366 433.228 168.91 432.038 166.834 432.038C166.388 432.043 165.948 432.14 165.542 432.323C165.135 432.506 164.771 432.771 164.471 433.102C164.172 433.432 163.944 433.82 163.802 434.243C163.659 434.665 163.605 435.113 163.644 435.557V442.114H160.833L160.808 429.62Z" fill="white"/>
<path d="M175.708 429.62H178.518V431.481C178.963 430.822 179.568 430.287 180.277 429.928C180.986 429.569 181.775 429.398 182.569 429.43C185.962 429.43 187.076 431.683 187.076 435.025V442.215H184.266V435.278C184.266 433.228 183.81 432.038 181.734 432.038C181.288 432.043 180.848 432.14 180.442 432.323C180.035 432.506 179.671 432.771 179.371 433.102C179.072 433.432 178.844 433.82 178.701 434.243C178.559 434.665 178.505 435.113 178.544 435.557V442.114H175.733L175.708 429.62Z" fill="white"/>
<path d="M190.038 435.899C190.038 432.278 192.393 429.366 195.836 429.366C196.625 429.35 197.408 429.507 198.13 429.826C198.852 430.146 199.495 430.62 200.013 431.215V429.62H202.824V442.152H200.013V440.582C199.493 441.173 198.849 441.643 198.127 441.958C197.405 442.273 196.623 442.426 195.836 442.405C192.393 442.405 190.038 439.494 190.038 435.899ZM200.013 435.899C200.046 435.419 199.981 434.938 199.823 434.484C199.664 434.03 199.415 433.613 199.091 433.258C198.767 432.903 198.374 432.618 197.936 432.419C197.499 432.22 197.025 432.112 196.545 432.101C196.051 432.095 195.562 432.19 195.107 432.381C194.652 432.572 194.241 432.854 193.899 433.21C193.557 433.566 193.292 433.988 193.12 434.451C192.948 434.913 192.873 435.406 192.899 435.899C192.871 436.392 192.945 436.885 193.117 437.349C193.288 437.812 193.553 438.235 193.895 438.591C194.237 438.948 194.649 439.23 195.105 439.42C195.561 439.61 196.051 439.704 196.545 439.696C197.027 439.689 197.502 439.583 197.941 439.385C198.38 439.188 198.775 438.902 199.099 438.547C199.424 438.191 199.673 437.773 199.83 437.317C199.987 436.862 200.05 436.379 200.013 435.899Z" fill="white"/>
<path d="M209.141 440.582V442.152H206.457V425.493H209.267V431.215C209.786 430.62 210.429 430.146 211.151 429.827C211.873 429.507 212.656 429.35 213.445 429.367C216.888 429.367 219.243 432.278 219.243 435.899C219.243 439.519 216.888 442.405 213.445 442.405C212.639 442.429 211.837 442.278 211.094 441.964C210.351 441.649 209.685 441.178 209.141 440.582V440.582ZM216.382 435.899C216.408 435.406 216.332 434.913 216.16 434.451C215.988 433.988 215.723 433.566 215.382 433.21C215.04 432.854 214.629 432.572 214.174 432.381C213.719 432.19 213.229 432.095 212.736 432.101C212.255 432.112 211.782 432.22 211.344 432.419C210.907 432.618 210.514 432.903 210.19 433.258C209.866 433.613 209.617 434.03 209.458 434.484C209.3 434.938 209.235 435.419 209.267 435.899C209.231 436.379 209.293 436.862 209.451 437.317C209.608 437.773 209.856 438.191 210.181 438.547C210.506 438.903 210.9 439.188 211.34 439.386C211.779 439.583 212.254 439.689 212.736 439.696C213.229 439.702 213.718 439.607 214.172 439.416C214.626 439.225 215.037 438.943 215.377 438.587C215.718 438.231 215.982 437.808 216.153 437.346C216.323 436.883 216.397 436.391 216.369 435.899H216.382Z" fill="white"/>
<path d="M222.002 426.101C222.002 425.648 222.18 425.214 222.497 424.892C222.815 424.57 223.246 424.386 223.698 424.379C224.154 424.382 224.59 424.565 224.912 424.887C225.234 425.209 225.417 425.645 225.42 426.101C225.413 426.553 225.229 426.984 224.907 427.302C224.585 427.619 224.151 427.797 223.698 427.797C223.248 427.797 222.817 427.618 222.499 427.3C222.181 426.982 222.002 426.55 222.002 426.101ZM222.306 429.62H225.116V442.152H222.306V429.62Z" fill="white"/>
<path d="M228.75 429.62H231.56V431.481C232.004 430.822 232.609 430.287 233.319 429.928C234.028 429.569 234.817 429.398 235.611 429.43C239.003 429.43 240.117 431.683 240.117 435.025V442.215H237.307V435.278C237.307 433.228 236.851 432.038 234.775 432.038C234.329 432.043 233.89 432.14 233.483 432.323C233.077 432.506 232.712 432.771 232.413 433.102C232.113 433.432 231.885 433.82 231.743 434.243C231.6 434.665 231.547 435.113 231.585 435.557V442.114H228.775L228.75 429.62Z" fill="white"/>
<path d="M242.953 435.899C242.956 435.031 243.132 434.173 243.469 433.373C243.806 432.574 244.299 431.85 244.918 431.242C245.538 430.635 246.271 430.156 247.077 429.834C247.883 429.512 248.744 429.353 249.612 429.367C250.479 429.353 251.341 429.512 252.146 429.834C252.952 430.156 253.686 430.635 254.305 431.242C254.925 431.85 255.417 432.574 255.754 433.373C256.092 434.173 256.267 435.031 256.27 435.899C256.264 436.764 256.086 437.62 255.747 438.416C255.408 439.212 254.915 439.934 254.296 440.539C253.677 441.144 252.945 441.62 252.141 441.94C251.337 442.261 250.477 442.419 249.612 442.405C248.746 442.419 247.887 442.261 247.083 441.94C246.279 441.62 245.546 441.144 244.927 440.539C244.308 439.934 243.815 439.212 243.476 438.416C243.138 437.62 242.96 436.764 242.953 435.899V435.899ZM253.41 435.899C253.42 435.397 253.329 434.899 253.142 434.433C252.954 433.968 252.675 433.545 252.32 433.19C251.965 432.835 251.543 432.556 251.077 432.369C250.612 432.182 250.113 432.091 249.612 432.101C249.11 432.091 248.612 432.182 248.146 432.369C247.681 432.556 247.258 432.835 246.903 433.19C246.549 433.545 246.269 433.968 246.082 434.433C245.895 434.899 245.804 435.397 245.814 435.899C245.802 436.401 245.892 436.9 246.078 437.366C246.265 437.832 246.544 438.256 246.899 438.611C247.254 438.966 247.678 439.245 248.144 439.432C248.61 439.618 249.11 439.708 249.612 439.696C250.117 439.714 250.62 439.628 251.091 439.444C251.562 439.259 251.99 438.981 252.349 438.625C252.708 438.269 252.991 437.844 253.18 437.375C253.369 436.906 253.46 436.404 253.447 435.899H253.41Z" fill="white"/>
<path d="M258.967 426.101C258.967 425.648 259.145 425.214 259.462 424.892C259.779 424.57 260.211 424.386 260.663 424.379C261.119 424.382 261.555 424.565 261.877 424.887C262.199 425.209 262.381 425.645 262.385 426.101C262.378 426.553 262.194 426.984 261.872 427.302C261.549 427.619 261.115 427.797 260.663 427.797C260.213 427.797 259.782 427.618 259.464 427.3C259.146 426.982 258.967 426.55 258.967 426.101ZM259.271 429.62H262.081V442.152H259.271V429.62Z" fill="white"/>
<path d="M265.119 435.899C265.119 432.278 267.474 429.367 270.917 429.367C271.706 429.35 272.489 429.507 273.211 429.827C273.933 430.146 274.576 430.62 275.094 431.215V425.493H277.905V442.152H275.221V440.582C274.677 441.178 274.011 441.649 273.268 441.964C272.525 442.278 271.723 442.429 270.917 442.405C267.474 442.405 265.119 439.494 265.119 435.899ZM275.094 435.899C275.127 435.419 275.062 434.938 274.904 434.484C274.745 434.03 274.496 433.613 274.172 433.258C273.848 432.903 273.455 432.618 273.018 432.419C272.58 432.22 272.106 432.112 271.626 432.101C271.133 432.095 270.643 432.19 270.188 432.381C269.733 432.572 269.322 432.854 268.98 433.21C268.639 433.566 268.374 433.988 268.201 434.451C268.029 434.913 267.954 435.406 267.98 435.899C267.952 436.392 268.026 436.885 268.198 437.349C268.369 437.812 268.634 438.235 268.976 438.591C269.318 438.948 269.73 439.23 270.186 439.42C270.642 439.61 271.132 439.704 271.626 439.696C272.108 439.689 272.583 439.583 273.022 439.386C273.461 439.188 273.856 438.903 274.181 438.547C274.505 438.191 274.754 437.773 274.911 437.317C275.068 436.862 275.131 436.379 275.094 435.899V435.899Z" fill="white"/>
<path d="M286.854 435.899C286.854 432.278 289.222 429.367 292.665 429.367C293.454 429.35 294.237 429.507 294.959 429.827C295.681 430.146 296.324 430.62 296.843 431.215V425.493H299.653V442.152H296.969V440.582C296.425 441.178 295.759 441.649 295.016 441.964C294.273 442.278 293.471 442.429 292.665 442.405C289.222 442.405 286.854 439.494 286.854 435.899ZM296.843 435.899C296.875 435.419 296.81 434.938 296.652 434.484C296.493 434.03 296.244 433.613 295.92 433.258C295.596 432.903 295.203 432.618 294.766 432.419C294.328 432.22 293.855 432.112 293.374 432.101C292.881 432.095 292.391 432.19 291.936 432.381C291.481 432.572 291.07 432.854 290.728 433.21C290.387 433.566 290.122 433.988 289.949 434.451C289.777 434.913 289.702 435.406 289.728 435.899C289.7 436.392 289.774 436.885 289.946 437.349C290.117 437.812 290.382 438.235 290.724 438.591C291.066 438.948 291.478 439.23 291.934 439.42C292.39 439.61 292.88 439.704 293.374 439.696C293.856 439.689 294.331 439.583 294.77 439.386C295.209 439.188 295.604 438.903 295.929 438.547C296.253 438.191 296.502 437.773 296.659 437.317C296.816 436.862 296.879 436.379 296.843 435.899V435.899Z" fill="white"/>
<path d="M302.704 435.899C302.707 435.031 302.882 434.173 303.22 433.373C303.557 432.574 304.05 431.85 304.669 431.242C305.288 430.635 306.022 430.156 306.828 429.834C307.633 429.512 308.495 429.353 309.362 429.367C310.23 429.353 311.091 429.512 311.897 429.834C312.703 430.156 313.436 430.635 314.056 431.242C314.675 431.85 315.168 432.574 315.505 433.373C315.842 434.173 316.018 435.031 316.021 435.899C316.014 436.764 315.837 437.62 315.498 438.416C315.159 439.212 314.666 439.934 314.047 440.539C313.428 441.144 312.695 441.62 311.891 441.94C311.087 442.261 310.228 442.419 309.362 442.405C308.497 442.419 307.637 442.261 306.833 441.94C306.029 441.62 305.297 441.144 304.678 440.539C304.059 439.934 303.566 439.212 303.227 438.416C302.888 437.62 302.71 436.764 302.704 435.899V435.899ZM313.16 435.899C313.17 435.397 313.079 434.899 312.892 434.433C312.705 433.968 312.425 433.545 312.071 433.19C311.716 432.835 311.293 432.556 310.828 432.369C310.362 432.182 309.864 432.091 309.362 432.101C308.861 432.091 308.362 432.182 307.897 432.369C307.431 432.556 307.009 432.835 306.654 433.19C306.299 433.545 306.02 433.968 305.833 434.433C305.645 434.899 305.554 435.397 305.565 435.899C305.552 436.401 305.642 436.9 305.829 437.366C306.015 437.832 306.295 438.256 306.65 438.611C307.005 438.966 307.428 439.245 307.895 439.432C308.361 439.618 308.86 439.708 309.362 439.696C309.864 439.708 310.364 439.618 310.83 439.432C311.296 439.245 311.72 438.966 312.075 438.611C312.43 438.256 312.709 437.832 312.896 437.366C313.082 436.9 313.172 436.401 313.16 435.899V435.899Z" fill="white"/>
<path d="M318.123 440.582L319.186 438.278C320.29 439.234 321.7 439.764 323.161 439.772C324.3 439.772 325.693 439.342 325.693 438.506C325.693 437.671 324.427 437.367 323.161 437.013C320.781 436.354 318.743 435.645 318.743 433.215C318.743 430.784 321.275 429.417 323.465 429.417C325.051 429.388 326.61 429.829 327.946 430.683L326.908 432.962C325.875 432.345 324.693 432.021 323.49 432.025C322.553 432.025 321.616 432.455 321.616 433.114C321.616 433.974 322.655 434.177 323.769 434.379C326.098 434.886 328.528 435.823 328.528 438.405C328.528 441.342 325.515 442.405 323.186 442.405C321.33 442.448 319.525 441.798 318.123 440.582V440.582Z" fill="white"/>
<path d="M330.731 435.899C330.721 435.044 330.88 434.197 331.2 433.405C331.52 432.613 331.994 431.892 332.595 431.284C333.195 430.677 333.91 430.194 334.699 429.865C335.487 429.536 336.333 429.366 337.187 429.366C338.837 429.426 340.396 430.135 341.525 431.34C342.654 432.545 343.261 434.147 343.213 435.797C343.209 436.161 343.183 436.525 343.137 436.886H333.643C333.823 437.774 334.315 438.569 335.03 439.126C335.745 439.683 336.636 439.967 337.542 439.924C338.822 439.93 340.074 439.55 341.137 438.836L342.251 440.912C340.848 441.873 339.191 442.393 337.491 442.405C336.612 442.454 335.732 442.321 334.907 442.015C334.081 441.708 333.328 441.235 332.693 440.625C332.059 440.014 331.557 439.279 331.22 438.466C330.882 437.653 330.716 436.779 330.731 435.899V435.899ZM340.478 434.81C340.367 433.978 339.956 433.215 339.322 432.665C338.688 432.115 337.875 431.815 337.035 431.822C336.207 431.847 335.414 432.158 334.79 432.703C334.167 433.248 333.752 433.993 333.617 434.81H340.478Z" fill="white"/>
<path d="M345.707 440.658C345.705 440.427 345.749 440.198 345.836 439.984C345.923 439.77 346.051 439.575 346.213 439.41C346.375 439.246 346.568 439.115 346.781 439.025C346.994 438.935 347.222 438.888 347.454 438.886C347.686 438.886 347.917 438.932 348.132 439.021C348.347 439.11 348.542 439.241 348.707 439.405C348.871 439.57 349.002 439.765 349.091 439.98C349.18 440.195 349.226 440.426 349.226 440.658C349.219 441.124 349.029 441.568 348.698 441.895C348.366 442.222 347.919 442.405 347.454 442.405C347.224 442.407 346.996 442.363 346.783 442.276C346.57 442.189 346.377 442.06 346.215 441.897C346.052 441.735 345.923 441.542 345.836 441.329C345.749 441.116 345.705 440.888 345.707 440.658Z" fill="white"/>
<path d="M75.7139 54.7846L75.7392 77.9634L95.8165 89.5338L115.868 77.9254L115.843 54.7467L95.7658 43.1763L75.7139 54.7846Z" stroke="#DFC98B" stroke-width="2.5" stroke-linecap="round" stroke-linejoin="round"/>
<path d="M158.34 101.243L158.378 124.422L178.455 135.993L198.52 124.384L198.494 101.205L178.404 89.635L158.34 101.243Z" stroke="#DFC98B" stroke-width="2.5" stroke-linecap="round" stroke-linejoin="round"/>
<path d="M95.7661 43.1763V21.5293" stroke="#DFC98B" stroke-width="2.5" stroke-linecap="round" stroke-linejoin="round"/>
<path d="M95.8164 89.5338V112.814" stroke="#DFC98B" stroke-width="2.5" stroke-linecap="round" stroke-linejoin="round"/>
<path d="M95.766 112.814L76.6382 124.004" stroke="#DFC98B" stroke-width="2.5" stroke-linecap="round" stroke-linejoin="round"/>
<path d="M95.7661 112.814L116.35 124.41" stroke="#DFC98B" stroke-width="2.5" stroke-linecap="round" stroke-linejoin="round"/>
<path d="M112.691 129.777L94.1455 118.751" stroke="#DFC98B" stroke-width="2.5" stroke-linecap="round" stroke-linejoin="round"/>
<path d="M94.4238 49.8602L110.425 59.4305" stroke="#DFC98B" stroke-width="2.5" stroke-linecap="round" stroke-linejoin="round"/>
<path d="M115.869 77.9254L158.353 101.243" stroke="#DFC98B" stroke-width="2.5" stroke-linecap="round" stroke-linejoin="round"/>
<path d="M158.365 124.422L146.098 132.106" stroke="#DFC98B" stroke-width="2.5" stroke-linecap="round" stroke-linejoin="round"/>
<path d="M178.404 89.6351V75.1278" stroke="#DFC98B" stroke-width="2.5" stroke-linecap="round" stroke-linejoin="round"/>
<path d="M165.467 103.155V122.283" stroke="#DFC98B" stroke-width="2.5" stroke-linecap="round" stroke-linejoin="round"/>
<path d="M177.037 95.5215L192.912 105.484" stroke="#DFC98B" stroke-width="2.5" stroke-linecap="round" stroke-linejoin="round"/>
<path d="M193.456 119.814L177.315 129.245" stroke="#DFC98B" stroke-width="2.5" stroke-linecap="round" stroke-linejoin="round"/>
<path d="M198.52 124.384L218.344 135.562L238.927 124.384L258.321 135.562L278.905 124.384L298.438 135.562" stroke="#DFC98B" stroke-width="2.5" stroke-linecap="round" stroke-linejoin="round"/>
<path d="M172.315 68.8615C174.581 68.8615 176.417 67.0252 176.417 64.76C176.417 62.4948 174.581 60.6584 172.315 60.6584C170.05 60.6584 168.214 62.4948 168.214 64.76C168.214 67.0252 170.05 68.8615 172.315 68.8615Z" stroke="#DFC98B" stroke-width="2.5" stroke-linecap="round" stroke-linejoin="round"/>
<path d="M180.025 60.1141V69.3173" stroke="#DFC98B" stroke-width="2.5" stroke-linecap="round" stroke-linejoin="round"/>
<path d="M186.367 60.1141V69.3173" stroke="#DFC98B" stroke-width="2.5" stroke-linecap="round" stroke-linejoin="round"/>
<path d="M180.303 64.722H186.367" stroke="#DFC98B" stroke-width="2.5" stroke-linecap="round" stroke-linejoin="round"/>
<path d="M125.249 136.043C127.514 136.043 129.351 134.207 129.351 131.942C129.351 129.676 127.514 127.84 125.249 127.84C122.984 127.84 121.147 129.676 121.147 131.942C121.147 134.207 122.984 136.043 125.249 136.043Z" stroke="#DFC98B" stroke-width="2.5" stroke-linecap="round" stroke-linejoin="round"/>
<path d="M132.958 127.308V136.512" stroke="#DFC98B" stroke-width="2.5" stroke-linecap="round" stroke-linejoin="round"/>
<path d="M139.3 127.308V136.512" stroke="#DFC98B" stroke-width="2.5" stroke-linecap="round" stroke-linejoin="round"/>
<path d="M133.25 131.904H139.301" stroke="#DFC98B" stroke-width="2.5" stroke-linecap="round" stroke-linejoin="round"/>
<path d="M79.7646 184.882L79.79 212.669L103.842 226.53L127.882 212.618L127.844 184.831L103.792 170.97L79.7646 184.882Z" stroke="#DFC98B" stroke-width="2.5" stroke-linecap="round" stroke-linejoin="round"/>
<path d="M102.462 178.261L121.641 189.73" stroke="#DFC98B" stroke-width="2.5" stroke-linecap="round" stroke-linejoin="round"/>
<path d="M156.175 227.822L156.2 255.671L180.341 269.571L204.444 255.621L204.419 227.771L180.278 213.871L156.175 227.822Z" stroke="#DFC98B" stroke-width="2.5" stroke-linecap="round" stroke-linejoin="round"/>
<path d="M163.948 230.113V253.102" stroke="#DFC98B" stroke-width="2.5" stroke-linecap="round" stroke-linejoin="round"/>
<path d="M178.923 221.163L198.001 233.138" stroke="#DFC98B" stroke-width="2.5" stroke-linecap="round" stroke-linejoin="round"/>
<path d="M197.76 249.633L178.366 260.963" stroke="#DFC98B" stroke-width="2.5" stroke-linecap="round" stroke-linejoin="round"/>
<path d="M204.355 254.583L227.661 267.723L251.852 254.583L274.626 267.723L298.817 254.583" stroke="#DFC98B" stroke-width="2.5" stroke-linecap="round" stroke-linejoin="round"/>
<path d="M173.429 187.528C175.694 187.528 177.531 185.691 177.531 183.426C177.531 181.161 175.694 179.325 173.429 179.325C171.164 179.325 169.328 181.161 169.328 183.426C169.328 185.691 171.164 187.528 173.429 187.528Z" stroke="#DFC98B" stroke-width="2.5" stroke-linecap="round" stroke-linejoin="round"/>
<path d="M181.139 178.793V187.996" stroke="#DFC98B" stroke-width="2.5" stroke-linecap="round" stroke-linejoin="round"/>
<path d="M187.481 178.793V187.996" stroke="#DFC98B" stroke-width="2.5" stroke-linecap="round" stroke-linejoin="round"/>
<path d="M181.43 183.388H187.481" stroke="#DFC98B" stroke-width="2.5" stroke-linecap="round" stroke-linejoin="round"/>
<path d="M129.92 266.735C132.185 266.735 134.021 264.899 134.021 262.634C134.021 260.369 132.185 258.532 129.92 258.532C127.655 258.532 125.818 260.369 125.818 262.634C125.818 264.899 127.655 266.735 129.92 266.735Z" stroke="#DFC98B" stroke-width="2.5" stroke-linecap="round" stroke-linejoin="round"/>
<path d="M180.278 213.871V195.68" stroke="#DFC98B" stroke-width="2.5" stroke-linecap="round" stroke-linejoin="round"/>
<path d="M156.175 227.821L127.882 212.618" stroke="#DFC98B" stroke-width="2.5" stroke-linecap="round" stroke-linejoin="round"/>
<path d="M103.842 226.53V253.102" stroke="#DFC98B" stroke-width="2.5" stroke-linecap="round" stroke-linejoin="round"/>
<path d="M89.0186 279.787L103.842 253.102" stroke="#DFC98B" stroke-width="2.5" stroke-linecap="round" stroke-linejoin="round"/>
<path d="M121.147 262.9L103.842 253.102" stroke="#DFC98B" stroke-width="2.5" stroke-linecap="round" stroke-linejoin="round"/>
<path d="M73.8784 253.102H103.842" stroke="#DFC98B" stroke-width="2.5" stroke-linecap="round" stroke-linejoin="round"/>
<path d="M103.792 170.97V144.259" stroke="#DFC98B" stroke-width="2.5" stroke-linecap="round" stroke-linejoin="round"/>
</g>
<defs>
<clipPath id="clip0_663_1933">
<rect width="380" height="475.968" fill="white" transform="translate(0 0.0214844)"/>
</clipPath>
</defs>
</svg>
