<svg width="364" height="364" viewBox="0 0 364 364" fill="none" xmlns="http://www.w3.org/2000/svg">
<path d="M148.508 231.933C138.384 223.611 130.255 213.487 121.869 203.599C107.394 186.129 96.0195 166.31 88.2366 145C83.1103 131.509 78.5201 117.824 73.6083 104.247C72.4929 101.159 71.0773 98.1986 69.1255 93.5227C70.7945 94.1939 72.39 95.0348 73.8871 96.0323C81.6731 103.518 88.9016 111.54 97.1809 118.554C126.33 143.392 155.822 180.606 169.593 216.49" stroke="#DFC98B" stroke-width="2.5" stroke-linecap="round" stroke-linejoin="round"/>
<path d="M172.424 273.587C161.907 280.346 150.014 284.67 137.612 286.242C129.955 287.014 122.276 287.315 114.597 287.744C113.338 287.546 112.107 287.2 110.929 286.714C115.219 283.797 118.715 281.352 122.276 279.142C130.041 274.316 137.655 269.212 145.741 265.008C150.031 262.734 155.865 261.576 161.828 259.838C159.643 259.504 157.431 259.375 155.222 259.452C128.174 258.144 103.98 248.428 82.295 232.255C75.1525 226.936 68.0316 221.531 60.696 216.511C55.5697 212.972 49.9714 209.927 44.7378 206.645C42.8503 205.487 41.0057 204.221 39.1396 203.02L39.7618 201.626C41.0118 201.421 42.2868 201.421 43.5368 201.626C59.5163 207.439 76.3967 208.94 92.8695 212.05C104.237 214.195 138.234 227.922 148.337 232.148" stroke="#DFC98B" stroke-width="2.5" stroke-linecap="round" stroke-linejoin="round"/>
<path d="M181.733 38.7424C180.829 40.6029 180.055 42.5236 179.416 44.4907C174.719 66.1113 169.807 87.689 165.539 109.417C163.208 120.74 161.624 132.204 160.798 143.735C158.878 168.265 161.793 192.933 169.378 216.34" stroke="#DFC98B" stroke-width="2.5" stroke-linecap="round" stroke-linejoin="round"/>
<path d="M215.129 231.933C225.274 223.611 233.403 213.487 241.79 203.599C256.257 186.129 267.625 166.309 275.401 145C280.548 131.509 285.138 117.824 290.05 104.247C291.166 101.159 292.581 98.1986 294.533 93.5227C292.862 94.1888 291.266 95.03 289.771 96.0323C281.964 103.518 274.757 111.54 266.456 118.554C237.329 143.392 207.836 180.606 194.066 216.49" stroke="#DFC98B" stroke-width="2.5" stroke-linecap="round" stroke-linejoin="round"/>
<path d="M183.534 263.914C196.811 282.36 215.579 285.212 226.046 286.285C233.682 287.057 241.382 287.357 249.061 287.786C250.313 287.588 251.536 287.242 252.707 286.757C248.417 283.84 244.943 281.395 241.361 279.185C233.618 274.359 225.982 269.254 217.896 265.05C213.606 262.777 207.772 261.619 201.809 259.881C203.994 259.548 206.206 259.418 208.415 259.495C235.484 258.187 259.657 248.47 281.342 232.298C288.463 226.978 295.584 221.573 302.919 216.554C308.067 213.015 313.644 209.969 318.878 206.688C320.787 205.529 322.631 204.264 324.497 203.063L323.875 201.669C322.618 201.464 321.336 201.464 320.079 201.669C304.121 207.481 287.24 208.983 270.746 212.093C259.399 214.238 225.403 227.965 215.3 232.191" stroke="#DFC98B" stroke-width="2.5" stroke-linecap="round" stroke-linejoin="round"/>
<path d="M181.905 38.7424C182.822 40.5993 183.604 42.5205 184.243 44.4907C188.94 66.1113 193.83 87.689 198.099 109.417C200.447 120.738 202.038 132.203 202.86 143.735C204.781 168.265 201.866 192.933 194.281 216.34" stroke="#DFC98B" stroke-width="2.5" stroke-linecap="round" stroke-linejoin="round"/>
<path d="M182.591 325.236V264.15" stroke="#DFC98B" stroke-width="2.5" stroke-linecap="round" stroke-linejoin="round"/>
<path d="M181.84 362C281.251 362 361.84 281.411 361.84 182C361.84 82.5887 281.251 2 181.84 2C82.4286 2 1.83984 82.5887 1.83984 182C1.83984 281.411 82.4286 362 181.84 362Z" stroke="#DFC98B" stroke-width="2.5" stroke-linecap="round" stroke-linejoin="round"/>
</svg>
