<svg width="380" height="503" viewBox="0 0 380 503" fill="none" xmlns="http://www.w3.org/2000/svg">
<g clip-path="url(#clip0_664_2034)">
<path d="M169.619 191.282C163.644 186.37 158.846 180.395 153.896 174.559C145.353 164.251 138.643 152.553 134.059 139.974C131.021 132.012 128.312 123.935 125.413 115.922C124.755 114.099 123.92 112.352 122.768 109.593C123.754 109.986 124.696 110.482 125.578 111.074C130.173 115.492 134.439 120.226 139.338 124.366C156.529 139.025 173.936 160.989 182.063 182.167" stroke="#DFC98B" stroke-width="2.5" stroke-linecap="round" stroke-linejoin="round"/>
<path d="M183.734 215.891C177.527 219.88 170.508 222.432 163.188 223.36C158.669 223.816 154.137 223.993 149.605 224.246C148.863 224.128 148.136 223.924 147.44 223.638C149.972 221.917 152.036 220.474 154.137 219.17C158.72 216.321 163.214 213.309 167.986 210.827C170.518 209.486 173.974 208.802 177.493 207.777C176.199 207.58 174.89 207.503 173.581 207.549C157.618 206.776 143.339 201.042 130.604 191.497C126.388 188.358 122.186 185.167 117.869 182.205C114.831 180.116 111.539 178.319 108.438 176.382C107.324 175.698 106.235 174.952 105.134 174.243L105.501 173.42C106.239 173.299 106.991 173.299 107.729 173.42C117.16 176.838 127.123 177.737 136.845 179.572C143.554 180.838 163.619 188.94 169.581 191.434" stroke="#DFC98B" stroke-width="2.5" stroke-linecap="round" stroke-linejoin="round"/>
<path d="M189.266 77.2615C188.733 78.3595 188.276 79.4931 187.899 80.6541C185.127 93.4145 182.228 106.149 179.708 118.973C178.333 125.656 177.398 132.422 176.911 139.228C175.771 153.705 177.492 168.265 181.974 182.079" stroke="#DFC98B" stroke-width="2.5" stroke-linecap="round" stroke-linejoin="round"/>
<path d="M208.938 191.282C214.926 186.37 219.724 180.395 224.673 174.559C233.212 164.248 239.921 152.551 244.51 139.974C247.548 132.012 250.257 123.935 253.156 115.922C253.814 114.099 254.65 112.352 255.802 109.593C254.815 109.986 253.873 110.482 252.992 111.074C248.396 115.492 244.13 120.226 239.231 124.366C222.04 139.025 204.634 160.989 196.507 182.167" stroke="#DFC98B" stroke-width="2.5" stroke-linecap="round" stroke-linejoin="round"/>
<path d="M190.291 210.156C198.127 221.043 209.204 222.727 215.381 223.36C219.888 223.816 224.433 223.993 228.964 224.246C229.707 224.128 230.434 223.924 231.129 223.638C228.597 221.917 226.534 220.474 224.433 219.17C219.85 216.321 215.343 213.309 210.571 210.827C208.039 209.485 204.596 208.802 201.077 207.776C202.366 207.58 203.672 207.503 204.976 207.549C220.951 206.776 235.218 201.042 248.016 191.497C252.219 188.357 256.422 185.167 260.751 182.205C263.79 180.116 267.081 178.319 270.17 176.382C271.296 175.698 272.385 174.952 273.486 174.243L273.119 173.42C272.377 173.299 271.621 173.299 270.879 173.42C261.46 176.838 251.498 177.737 241.763 179.572C235.066 180.838 215.002 188.94 209.039 191.434" stroke="#DFC98B" stroke-width="2.5" stroke-linecap="round" stroke-linejoin="round"/>
<path d="M189.342 77.2615C189.875 78.3595 190.332 79.4931 190.709 80.6541C193.481 93.4145 196.368 106.149 198.887 118.973C200.273 125.655 201.212 132.421 201.697 139.228C202.831 153.705 201.11 168.264 196.633 182.079" stroke="#DFC98B" stroke-width="2.5" stroke-linecap="round" stroke-linejoin="round"/>
<path d="M189.734 246.349V210.296" stroke="#DFC98B" stroke-width="2.5" stroke-linecap="round" stroke-linejoin="round"/>
<path d="M376.835 3.83884V314.404H3.17744V3.83884H376.848H376.835ZM380.013 0.674072H0V317.556H380V0.674072H380.013Z" fill="#DFC98B"/>
<path d="M380 317.569H0V502.1H380V317.569Z" fill="#DFC98B"/>
<path d="M34.8252 345.533H45.7753V347.178H36.7114V351.811H44.3068V353.444H36.7114V360.787H34.8252V345.533Z" fill="white"/>
<path d="M48.1046 346.09C48.1029 345.934 48.1321 345.779 48.1905 345.635C48.2489 345.491 48.3354 345.36 48.4449 345.249C48.5544 345.138 48.6847 345.05 48.8284 344.99C48.972 344.93 49.1262 344.9 49.2819 344.9C49.5938 344.915 49.8891 345.044 50.1111 345.264C50.3331 345.484 50.4661 345.778 50.4845 346.09C50.4828 346.246 50.4504 346.4 50.3891 346.544C50.3278 346.688 50.2387 346.818 50.127 346.927C50.0153 347.037 49.8832 347.123 49.7382 347.181C49.5932 347.239 49.4382 347.268 49.2819 347.267C49.1268 347.269 48.9729 347.239 48.8293 347.181C48.6857 347.122 48.5553 347.035 48.4456 346.926C48.3359 346.816 48.2493 346.686 48.1908 346.542C48.1322 346.398 48.1029 346.245 48.1046 346.09V346.09ZM48.3831 349.318H50.1807V360.787H48.3831V349.318Z" fill="white"/>
<path d="M54.2693 362.559L55.0289 361.394C55.9886 362.333 57.2817 362.852 58.624 362.837C60.5862 362.837 62.7889 361.635 62.7889 358.242V357.862C62.3941 358.639 61.7749 359.278 61.0119 359.698C60.2489 360.118 59.3772 360.299 58.5101 360.217C57.7869 360.225 57.0698 360.085 56.4026 359.806C55.7354 359.527 55.1321 359.114 54.6297 358.594C54.1273 358.074 53.7363 357.457 53.4806 356.78C53.2249 356.104 53.1099 355.382 53.1427 354.66C53.1118 353.937 53.228 353.216 53.4842 352.539C53.7404 351.863 54.1313 351.246 54.6332 350.725C55.1351 350.204 55.7374 349.791 56.4039 349.51C57.0703 349.228 57.7868 349.086 58.5101 349.09C59.383 349.018 60.258 349.2 61.0303 349.613C61.8026 350.026 62.4395 350.653 62.8648 351.419V349.318H64.5865V358.179C64.6583 358.972 64.5588 359.771 64.2948 360.523C64.0307 361.274 63.6083 361.96 63.0561 362.534C62.5039 363.107 61.8348 363.556 61.0941 363.849C60.3535 364.141 59.5586 364.271 58.7633 364.23C57.1041 364.284 55.4902 363.684 54.2693 362.559V362.559ZM62.7889 354.52C62.7892 354.011 62.6869 353.507 62.4882 353.037C62.2894 352.568 61.9983 352.144 61.6322 351.789C61.266 351.435 60.8323 351.158 60.3568 350.975C59.8813 350.791 59.3738 350.706 58.8645 350.723C58.3462 350.721 57.8327 350.823 57.3545 351.023C56.8763 351.224 56.4432 351.518 56.0808 351.888C55.7184 352.259 55.434 352.699 55.2447 353.181C55.0553 353.664 54.9647 354.179 54.9782 354.698C54.9608 355.216 55.0495 355.732 55.2389 356.214C55.4283 356.696 55.7145 357.135 56.0797 357.502C56.445 357.87 56.8816 358.159 57.3627 358.352C57.8438 358.544 58.3592 358.636 58.8772 358.622C59.4083 358.626 59.9347 358.522 60.4238 358.315C60.9129 358.107 61.3543 357.802 61.7209 357.418C62.0874 357.034 62.3713 356.578 62.555 356.08C62.7387 355.581 62.8183 355.051 62.7889 354.52V354.52Z" fill="white"/>
<path d="M68.106 356.483V349.318H69.9035V356.242C69.9035 358.381 70.9289 359.28 72.7898 359.28C73.2352 359.279 73.6757 359.188 74.0846 359.011C74.4936 358.835 74.8625 358.577 75.169 358.254C75.4755 357.931 75.7133 357.549 75.8679 357.132C76.0225 356.714 76.0907 356.269 76.0685 355.824V349.318H77.8661V360.787H76.1445V358.761C75.7729 359.459 75.2155 360.04 74.534 360.439C73.8525 360.839 73.0735 361.043 72.2834 361.027C69.4478 361.027 68.106 359.533 68.106 356.483Z" fill="white"/>
<path d="M81.499 349.318H83.2966V351.735C83.677 350.897 84.3032 350.194 85.0921 349.719C85.8811 349.244 86.7956 349.02 87.7146 349.077V351.027C87.1288 350.963 86.5361 351.03 85.979 351.222C85.4219 351.414 84.9142 351.727 84.4921 352.138C84.07 352.549 83.7439 353.049 83.5373 353.601C83.3306 354.153 83.2484 354.743 83.2966 355.331V360.774H81.499V349.318Z" fill="white"/>
<path d="M89.3856 355.065C89.3637 354.292 89.4961 353.523 89.7751 352.802C90.0541 352.082 90.4741 351.424 91.0105 350.867C91.5469 350.311 92.1889 349.867 92.8989 349.562C93.6089 349.257 94.3727 349.096 95.1455 349.09C95.8953 349.113 96.6333 349.284 97.3167 349.593C98.0001 349.902 98.6155 350.344 99.1274 350.892C99.6393 351.441 100.038 352.085 100.299 352.788C100.561 353.491 100.681 354.239 100.652 354.989C100.665 355.225 100.665 355.462 100.652 355.698H91.3098C91.4026 356.731 91.8845 357.69 92.6577 358.381C93.431 359.072 94.4379 359.443 95.4746 359.42C96.7622 359.415 98.009 358.968 99.0065 358.154L99.7787 359.42C98.5455 360.393 97.0206 360.924 95.4493 360.926C94.661 360.96 93.8739 360.834 93.136 360.554C92.3981 360.274 91.725 359.847 91.1576 359.299C90.5902 358.75 90.1405 358.092 89.8358 357.364C89.5312 356.636 89.378 355.854 89.3856 355.065ZM98.8673 354.331C98.828 353.35 98.4106 352.423 97.7026 351.743C96.9946 351.063 96.051 350.684 95.0695 350.685C94.0964 350.711 93.1679 351.099 92.4656 351.773C91.7633 352.447 91.3376 353.359 91.2718 354.331H98.8673Z" fill="white"/>
<path d="M108.805 353.153C108.805 348.571 111.185 345.292 114.552 345.292C117.919 345.292 120.274 348.571 120.274 353.153C120.274 357.736 117.894 361.027 114.552 361.027C111.21 361.027 108.805 357.749 108.805 353.153ZM118.337 353.153C118.337 349.533 116.856 346.938 114.539 346.938C112.223 346.938 110.742 349.533 110.742 353.153C110.742 356.774 112.248 359.369 114.539 359.369C116.831 359.369 118.375 356.799 118.375 353.153H118.337Z" fill="white"/>
<path d="M122.375 359.166L123.35 357.9C123.844 358.402 124.437 358.794 125.09 359.054C125.744 359.313 126.445 359.433 127.148 359.407C129.68 359.407 131.25 357.9 131.25 355.926C131.25 353.951 129.528 352.774 127.452 352.774C126.673 352.746 125.906 352.968 125.262 353.406L124.515 352.204L129.832 347.14H122.857V345.533H132.401V347.102L127.857 351.394C128.28 351.383 128.703 351.404 129.123 351.457C130.232 351.558 131.262 352.073 132.01 352.898C132.758 353.723 133.169 354.799 133.161 355.913C133.161 359.09 130.629 360.977 127.275 360.977C126.377 361.03 125.478 360.897 124.635 360.586C123.792 360.274 123.022 359.791 122.375 359.166V359.166Z" fill="white"/>
<path d="M136.098 359.774C136.098 359.438 136.231 359.116 136.468 358.879C136.706 358.641 137.028 358.508 137.364 358.508C137.699 358.508 138.021 358.641 138.259 358.879C138.496 359.116 138.629 359.438 138.629 359.774C138.629 360.11 138.496 360.432 138.259 360.669C138.021 360.907 137.699 361.04 137.364 361.04C137.028 361.04 136.706 360.907 136.468 360.669C136.231 360.432 136.098 360.11 136.098 359.774Z" fill="white"/>
<path d="M33.3062 378.319H36.2431L39.3572 388.219C39.7623 389.485 40.1167 390.953 40.1167 390.953L40.8003 388.219L43.3322 378.319H46.4716L49.0034 388.219C49.3579 389.485 49.6617 390.953 49.6617 390.953C49.6617 390.953 50.0415 389.535 50.4465 388.219L53.662 378.319H56.5989L51.358 394.776H48.2439L45.6108 385.257C45.231 383.839 44.9525 382.016 44.9525 382.016C44.9525 382.016 44.674 383.839 44.2943 385.257L41.6611 394.776H38.5217L33.3062 378.319Z" fill="white"/>
<path d="M57.6113 388.447C57.6013 387.593 57.7608 386.745 58.0808 385.953C58.4007 385.161 58.8747 384.44 59.4752 383.832C60.0757 383.225 60.7909 382.742 61.5791 382.413C62.3674 382.084 63.2132 381.915 64.0674 381.915C65.7173 381.974 67.2767 382.684 68.4056 383.888C69.5344 385.093 70.141 386.695 70.0931 388.345C70.0891 388.71 70.0638 389.073 70.0172 389.434H60.5229C60.7032 390.323 61.1954 391.117 61.9105 391.674C62.6256 392.232 63.5164 392.515 64.4219 392.472C65.7023 392.478 66.9547 392.098 68.0171 391.384L69.1311 393.46C67.7287 394.421 66.0712 394.941 64.3713 394.954C63.4921 395.002 62.6124 394.869 61.7869 394.563C60.9615 394.257 60.2081 393.783 59.5737 393.173C58.9394 392.562 58.4377 391.827 58.1001 391.014C57.7624 390.201 57.596 389.327 57.6113 388.447V388.447ZM67.3588 387.358C67.2483 386.53 66.8406 385.771 66.2119 385.221C65.5831 384.672 64.776 384.369 63.9409 384.371C63.113 384.395 62.3194 384.706 61.6958 385.251C61.0723 385.796 60.6576 386.541 60.5229 387.358H67.3588Z" fill="white"/>
<path d="M78.8662 389.789V382.117H81.6639V389.384C81.6639 391.384 82.55 392.244 84.2969 392.244C84.7243 392.235 85.145 392.136 85.5324 391.955C85.9197 391.775 86.2654 391.515 86.5474 391.194C86.8294 390.873 87.0416 390.497 87.1707 390.089C87.2997 389.681 87.3428 389.252 87.2972 388.827V382.117H90.1075V394.65H87.4491V392.776C87.0151 393.448 86.4187 394 85.7151 394.38C85.0115 394.761 84.2234 394.958 83.4235 394.954C80.1068 394.954 78.8662 393.08 78.8662 389.789Z" fill="white"/>
<path d="M92.9556 393.131L94.0189 390.827C95.1235 391.783 96.5332 392.312 97.9939 392.32C99.1332 392.32 100.526 391.89 100.526 391.055C100.526 390.219 99.2598 389.915 97.9939 389.561C95.6139 388.903 93.5758 388.194 93.5758 385.763C93.5758 383.333 96.1077 381.965 98.2977 381.965C99.8836 381.937 101.443 382.377 102.779 383.231L101.741 385.51C100.708 384.893 99.5263 384.569 98.323 384.573C97.3862 384.573 96.4494 385.004 96.4494 385.662C96.4494 386.523 97.4875 386.725 98.6015 386.928C100.931 387.434 103.361 388.371 103.361 390.953C103.361 393.89 100.348 394.954 98.0192 394.954C96.1634 394.996 94.3583 394.346 92.9556 393.131V393.131Z" fill="white"/>
<path d="M105.564 388.447C105.554 387.59 105.714 386.741 106.036 385.947C106.357 385.153 106.834 384.431 107.437 383.823C108.04 383.215 108.758 382.734 109.549 382.406C110.341 382.078 111.189 381.911 112.046 381.915C113.695 381.974 115.255 382.684 116.384 383.888C117.512 385.093 118.119 386.695 118.071 388.346C118.067 388.71 118.042 389.073 117.995 389.434H108.501C108.681 390.323 109.173 391.117 109.889 391.674C110.604 392.232 111.494 392.515 112.4 392.472C113.68 392.478 114.933 392.098 115.995 391.384L117.109 393.51C115.707 394.471 114.049 394.992 112.349 395.004C111.464 395.057 110.577 394.925 109.745 394.618C108.913 394.31 108.154 393.833 107.516 393.216C106.878 392.6 106.375 391.857 106.039 391.036C105.703 390.215 105.541 389.334 105.564 388.447V388.447ZM115.312 387.358C115.2 386.526 114.789 385.763 114.155 385.213C113.521 384.663 112.708 384.363 111.868 384.371C111.04 384.395 110.247 384.706 109.623 385.251C109 385.796 108.585 386.541 108.45 387.358H115.312Z" fill="white"/>
<path d="M127.426 384.447H125.451V382.117H127.426V381.256C127.426 378.269 129.046 377.18 131.034 377.18C132.138 377.198 133.222 377.475 134.199 377.99L133.363 380.066C132.867 379.787 132.312 379.631 131.743 379.611C130.933 379.611 130.249 380.016 130.249 381.56V382.117H133.718V384.396H130.249V394.65H127.426V384.447Z" fill="white"/>
<path d="M135.819 389.789V382.117H138.63V389.384C138.63 391.384 139.516 392.244 141.263 392.244C141.689 392.233 142.108 392.133 142.494 391.952C142.88 391.77 143.224 391.511 143.505 391.19C143.785 390.869 143.997 390.493 144.125 390.086C144.253 389.679 144.296 389.251 144.25 388.827V382.117H147.061V394.65H144.402V392.776C143.968 393.448 143.372 394 142.668 394.38C141.965 394.761 141.177 394.958 140.377 394.954C137.06 394.954 135.819 393.08 135.819 389.789Z" fill="white"/>
<path d="M150.693 378.041H153.504V394.7H150.693V378.041Z" fill="white"/>
<path d="M157.099 378.041H159.909V394.7H157.099V378.041Z" fill="white"/>
<path d="M163.226 387.358H173.467V389.713H163.226V387.358Z" fill="white"/>
<path d="M175.771 393.131L176.834 390.827C177.94 391.781 179.349 392.31 180.809 392.32C181.949 392.32 183.341 391.89 183.341 391.055C183.341 390.219 182.075 389.915 180.809 389.561C178.429 388.903 176.404 388.194 176.404 385.763C176.404 383.333 178.936 381.965 181.113 381.965C182.699 381.937 184.258 382.377 185.594 383.231L184.556 385.51C183.523 384.893 182.342 384.569 181.138 384.573C180.202 384.573 179.265 385.004 179.265 385.662C179.265 386.523 180.303 386.725 181.417 386.928C183.746 387.434 186.177 388.371 186.177 390.953C186.177 393.89 183.164 394.954 180.835 394.954C178.979 394.996 177.174 394.346 175.771 393.131V393.131Z" fill="white"/>
<path d="M189.126 382.117H191.797V383.687C192.342 383.091 193.008 382.62 193.751 382.306C194.493 381.991 195.295 381.84 196.102 381.864C199.545 381.864 201.899 384.776 201.899 388.371C201.899 391.966 199.545 394.903 196.102 394.903C195.312 394.919 194.529 394.762 193.807 394.443C193.086 394.124 192.443 393.65 191.924 393.055V398.321H189.114L189.126 382.117ZM199.051 388.447C199.079 387.954 199.005 387.46 198.834 386.997C198.662 386.533 198.397 386.11 198.055 385.754C197.713 385.398 197.301 385.116 196.845 384.926C196.389 384.735 195.899 384.641 195.405 384.649C194.924 384.656 194.448 384.762 194.009 384.96C193.57 385.157 193.176 385.443 192.851 385.799C192.526 386.154 192.277 386.573 192.12 387.028C191.963 387.484 191.9 387.966 191.937 388.447C191.904 388.926 191.969 389.408 192.128 389.861C192.286 390.315 192.535 390.732 192.859 391.087C193.183 391.442 193.576 391.728 194.014 391.927C194.451 392.125 194.925 392.234 195.405 392.244C195.899 392.25 196.388 392.155 196.843 391.964C197.298 391.773 197.709 391.491 198.051 391.135C198.393 390.78 198.658 390.357 198.83 389.895C199.002 389.432 199.077 388.94 199.051 388.447V388.447Z" fill="white"/>
<path d="M204.457 388.447C204.446 387.593 204.606 386.745 204.926 385.953C205.246 385.161 205.72 384.44 206.32 383.832C206.921 383.225 207.636 382.742 208.424 382.413C209.213 382.084 210.058 381.915 210.913 381.915C212.563 381.974 214.122 382.684 215.251 383.888C216.38 385.093 216.986 386.695 216.938 388.345C216.934 388.71 216.909 389.073 216.862 389.434H207.368C207.548 390.323 208.041 391.117 208.756 391.674C209.471 392.232 210.362 392.515 211.267 392.472C212.547 392.478 213.8 392.098 214.862 391.384L215.976 393.46C214.574 394.421 212.916 394.941 211.216 394.954C210.337 395.002 209.458 394.869 208.632 394.563C207.807 394.257 207.053 393.783 206.419 393.173C205.785 392.562 205.283 391.827 204.945 391.014C204.608 390.201 204.441 389.327 204.457 388.447V388.447ZM214.204 387.358C214.093 386.53 213.686 385.771 213.057 385.221C212.428 384.672 211.621 384.369 210.786 384.371C209.958 384.395 209.165 384.706 208.541 385.251C207.918 385.796 207.503 386.541 207.368 387.358H214.204Z" fill="white"/>
<path d="M219.331 388.447C219.334 387.58 219.509 386.723 219.846 385.925C220.182 385.126 220.674 384.402 221.292 383.795C221.91 383.187 222.642 382.709 223.446 382.386C224.25 382.063 225.111 381.903 225.977 381.915C227.616 381.904 229.205 382.479 230.458 383.535L228.724 385.535C227.969 384.92 227.013 384.604 226.04 384.649C225.539 384.639 225.04 384.73 224.575 384.917C224.109 385.104 223.687 385.384 223.332 385.738C222.977 386.093 222.698 386.516 222.511 386.981C222.323 387.447 222.232 387.945 222.243 388.447C222.226 388.961 222.316 389.473 222.509 389.95C222.702 390.427 222.993 390.858 223.363 391.216C223.732 391.574 224.173 391.85 224.656 392.027C225.139 392.204 225.654 392.278 226.167 392.244C227.286 392.266 228.376 391.879 229.23 391.156L230.788 393.283C229.434 394.394 227.728 394.986 225.977 394.954C225.112 394.967 224.253 394.809 223.45 394.488C222.647 394.168 221.915 393.691 221.297 393.086C220.679 392.481 220.187 391.76 219.85 390.963C219.512 390.167 219.336 389.312 219.331 388.447V388.447Z" fill="white"/>
<path d="M234.319 390.675V384.472H232.471V382.117H234.319V379.712L237.13 379.13V382.117H240.927V384.421H237.13V390.751C237.13 392.093 237.763 392.523 238.472 392.523C239.124 392.495 239.756 392.284 240.294 391.915L241.168 394.017C240.279 394.622 239.23 394.948 238.155 394.954C235.56 394.954 234.319 393.51 234.319 390.675Z" fill="white"/>
<path d="M243.611 382.117H246.422V384.649C246.794 383.775 247.432 383.04 248.245 382.549C249.059 382.058 250.007 381.836 250.954 381.915V384.978C248.194 384.978 246.422 386.244 246.422 389.586V394.65H243.611V382.117Z" fill="white"/>
<path d="M253.27 389.789V382.117H256.08V389.384C256.08 391.384 256.966 392.244 258.713 392.244C259.14 392.233 259.559 392.133 259.945 391.952C260.331 391.77 260.675 391.511 260.955 391.19C261.236 390.869 261.447 390.493 261.576 390.086C261.704 389.679 261.747 389.251 261.701 388.827V382.117H264.511V394.65H261.853V392.776C261.419 393.448 260.823 394 260.119 394.38C259.415 394.761 258.627 394.958 257.827 394.954C254.511 394.954 253.27 393.08 253.27 389.789Z" fill="white"/>
<path d="M268.145 382.117H270.955V384.016C271.34 383.384 271.878 382.86 272.52 382.493C273.162 382.125 273.886 381.927 274.626 381.915C275.451 381.846 276.277 382.039 276.986 382.466C277.695 382.893 278.251 383.533 278.576 384.295C279.007 383.588 279.608 383 280.325 382.585C281.041 382.169 281.849 381.939 282.677 381.915C285.968 381.915 287.437 383.94 287.437 387.485V394.7H284.627V387.864C284.627 386.118 284.247 384.624 282.095 384.624C281.699 384.626 281.308 384.71 280.946 384.871C280.584 385.032 280.26 385.266 279.994 385.558C279.727 385.851 279.524 386.196 279.398 386.571C279.271 386.946 279.224 387.344 279.259 387.738V394.7H276.449V387.864C276.449 386.118 276.069 384.624 273.917 384.624C273.509 384.639 273.108 384.738 272.739 384.914C272.37 385.091 272.041 385.341 271.773 385.649C271.505 385.958 271.303 386.318 271.18 386.708C271.056 387.098 271.014 387.508 271.056 387.915V394.7H268.246L268.145 382.117Z" fill="white"/>
<path d="M34.0151 412.499C34.0051 411.645 34.1647 410.797 34.4846 410.005C34.8046 409.213 35.2785 408.492 35.879 407.885C36.4795 407.277 37.1947 406.795 37.9829 406.466C38.7712 406.136 39.617 405.967 40.4713 405.967C42.1211 406.026 43.6805 406.736 44.8094 407.941C45.9382 409.145 46.5448 410.747 46.497 412.398C46.493 412.762 46.4676 413.125 46.421 413.486H36.9267C37.1071 414.375 37.5992 415.169 38.3143 415.727C39.0294 416.284 39.9202 416.567 40.8257 416.525C42.1061 416.53 43.3586 416.151 44.4209 415.436L45.5349 417.512C44.1325 418.473 42.4751 418.993 40.7751 419.006C39.896 419.055 39.0162 418.922 38.1908 418.615C37.3653 418.309 36.6119 417.836 35.9775 417.225C35.3432 416.615 34.8415 415.88 34.5039 415.067C34.1663 414.253 33.9998 413.379 34.0151 412.499V412.499ZM43.7626 411.41C43.6515 410.578 43.2403 409.815 42.6062 409.265C41.9721 408.715 41.1588 408.415 40.3194 408.423C39.4915 408.447 38.6979 408.758 38.0743 409.303C37.4508 409.848 37.0362 410.593 36.9014 411.41H43.7626Z" fill="white"/>
<path d="M52.2312 412.398L47.8765 406.169H50.9906L52.9654 409.03C53.3452 409.587 53.9781 410.575 53.9781 410.575C53.9781 410.575 54.5605 409.613 54.9656 409.03L56.9404 406.169H60.0545L55.6998 412.347L60.0545 418.677H56.9404L55.0795 416.018C54.5984 415.309 53.9908 414.221 53.9908 414.221C53.6593 414.838 53.2959 415.438 52.9021 416.018L51.0033 418.753H47.8891L52.2312 412.398Z" fill="white"/>
<path d="M63.6627 414.727V408.524H61.8145V406.169H63.6627V403.764L66.473 403.182V406.169H70.2707V408.473H66.473V414.803C66.473 416.145 67.1059 416.575 67.8148 416.575C68.4673 416.547 69.0988 416.337 69.6377 415.968L70.4733 418.069C69.5845 418.674 68.5355 419 67.4604 419.006C64.9033 419.006 63.6627 417.563 63.6627 414.727Z" fill="white"/>
<path d="M72.9541 406.169H75.7644V408.701C76.1365 407.827 76.7746 407.092 77.5882 406.601C78.4018 406.11 79.3494 405.888 80.2964 405.967V409.03C77.5367 409.03 75.7644 410.296 75.7644 413.638V418.702H72.9541V406.169Z" fill="white"/>
<path d="M82.1826 412.499C82.1826 408.879 84.5372 405.967 87.9805 405.967C88.7696 405.951 89.5527 406.108 90.2746 406.427C90.9964 406.746 91.6393 407.22 92.158 407.815V406.169H94.9683V418.702H92.158V417.183C91.6375 417.774 90.9936 418.244 90.2718 418.559C89.5499 418.874 88.7678 419.026 87.9805 419.006C84.5372 419.006 82.1826 416.094 82.1826 412.499ZM92.158 412.499C92.1906 412.019 92.1257 411.538 91.9671 411.084C91.8086 410.631 91.5597 410.214 91.2355 409.859C90.9113 409.504 90.5186 409.218 90.081 409.019C89.6434 408.82 89.1699 408.712 88.6894 408.701C88.196 408.695 87.7066 408.791 87.2516 408.982C86.7965 409.172 86.3854 409.454 86.0437 409.81C85.702 410.166 85.437 410.589 85.2649 411.051C85.0929 411.513 85.0176 412.006 85.0436 412.499C85.0157 412.992 85.0897 413.486 85.2611 413.949C85.4324 414.412 85.6974 414.835 86.0395 415.192C86.3816 415.548 86.7934 415.83 87.2493 416.02C87.7053 416.21 88.1955 416.304 88.6894 416.297C89.1711 416.289 89.6462 416.184 90.0855 415.986C90.5249 415.788 90.9191 415.503 91.244 415.147C91.5689 414.791 91.8176 414.373 91.9747 413.918C92.1319 413.462 92.1943 412.979 92.158 412.499V412.499Z" fill="white"/>
<path d="M98.019 412.499C98.0223 411.631 98.1977 410.773 98.535 409.974C98.8724 409.174 99.365 408.45 99.9843 407.842C100.604 407.235 101.337 406.756 102.143 406.434C102.949 406.112 103.81 405.954 104.678 405.967C106.317 405.957 107.906 406.531 109.159 407.587L107.412 409.587C106.663 408.959 105.705 408.634 104.728 408.676C104.227 408.666 103.728 408.757 103.263 408.944C102.797 409.131 102.375 409.411 102.02 409.765C101.665 410.12 101.386 410.543 101.199 411.008C101.011 411.474 100.92 411.972 100.931 412.474C100.914 412.988 101.004 413.5 101.197 413.977C101.39 414.454 101.681 414.885 102.051 415.243C102.42 415.601 102.861 415.877 103.344 416.054C103.827 416.231 104.342 416.305 104.855 416.271C105.974 416.293 107.063 415.906 107.918 415.183L109.463 417.309C108.131 418.406 106.454 418.998 104.728 418.98C103.86 419.002 102.997 418.851 102.188 418.536C101.379 418.221 100.641 417.748 100.016 417.145C99.3918 416.542 98.8937 415.82 98.5508 415.023C98.2079 414.225 98.0272 413.367 98.019 412.499V412.499Z" fill="white"/>
<path d="M112.995 414.727V408.524H111.146V406.169H112.995V403.764L115.805 403.182V406.169H119.603V408.473H115.805V414.803C115.805 416.145 116.438 416.575 117.147 416.575C117.799 416.547 118.431 416.337 118.97 415.968L119.805 418.069C118.917 418.674 117.868 419 116.792 419.006C114.235 419.006 112.995 417.563 112.995 414.727Z" fill="white"/>
<path d="M121.755 417.183L122.818 414.879C123.923 415.835 125.332 416.365 126.793 416.373C127.932 416.373 129.325 415.942 129.325 415.107C129.325 414.271 128.059 413.967 126.793 413.613C124.413 412.955 122.375 412.246 122.375 409.815C122.375 407.385 124.907 406.018 127.097 406.018C128.683 405.989 130.242 406.429 131.578 407.283L130.54 409.562C129.507 408.945 128.326 408.621 127.122 408.625C126.186 408.625 125.249 409.056 125.249 409.714C125.249 410.575 126.287 410.777 127.401 410.98C129.73 411.486 132.161 412.423 132.161 415.006C132.161 417.942 129.148 419.006 126.819 419.006C124.963 419.048 123.158 418.399 121.755 417.183V417.183Z" fill="white"/>
<path d="M141.731 414.727V408.524H139.896V406.169H141.744V403.764L144.554 403.182V406.169H148.352V408.473H144.554V414.803C144.554 416.145 145.187 416.575 145.896 416.575C146.548 416.547 147.18 416.337 147.719 415.968L148.554 418.069C147.666 418.674 146.617 419 145.541 419.006C142.972 419.006 141.731 417.563 141.731 414.727Z" fill="white"/>
<path d="M151.01 402.093H153.821V408.018C154.257 407.357 154.858 406.821 155.563 406.462C156.269 406.102 157.055 405.932 157.846 405.967C161.15 405.967 162.365 408.119 162.365 411.562V418.753H159.542V411.917C159.542 409.866 158.998 408.676 156.909 408.676C156.47 408.682 156.038 408.78 155.639 408.963C155.24 409.146 154.883 409.411 154.592 409.74C154.302 410.069 154.083 410.455 153.95 410.873C153.817 411.292 153.773 411.733 153.821 412.17V418.753H151.01V402.093Z" fill="white"/>
<path d="M165.315 412.499C165.315 408.878 167.67 405.967 171.113 405.967C171.91 405.943 172.703 406.096 173.435 406.416C174.166 406.736 174.817 407.213 175.341 407.815V406.169H178.151V418.702H175.341V417.183C174.82 417.774 174.177 418.244 173.455 418.559C172.733 418.874 171.951 419.026 171.163 419.006C167.67 419.006 165.315 416.094 165.315 412.499ZM175.29 412.499C175.323 412.019 175.258 411.538 175.099 411.084C174.941 410.631 174.692 410.214 174.368 409.859C174.044 409.504 173.651 409.218 173.213 409.019C172.776 408.82 172.302 408.712 171.822 408.701C171.328 408.695 170.839 408.791 170.384 408.982C169.929 409.172 169.518 409.454 169.176 409.81C168.834 410.166 168.569 410.589 168.397 411.051C168.225 411.513 168.15 412.006 168.176 412.499C168.148 412.992 168.222 413.486 168.393 413.949C168.565 414.412 168.83 414.835 169.172 415.192C169.514 415.548 169.926 415.83 170.382 416.02C170.838 416.21 171.328 416.304 171.822 416.297C172.308 416.296 172.788 416.196 173.234 416.001C173.679 415.806 174.079 415.522 174.41 415.165C174.74 414.809 174.993 414.388 175.153 413.929C175.314 413.471 175.378 412.984 175.341 412.499H175.29Z" fill="white"/>
<path d="M182.442 414.727V408.524H180.594V406.169H182.442V403.764L185.253 403.182V406.169H189.05V408.473H185.253V414.803C185.253 416.145 185.886 416.575 186.595 416.575C187.247 416.547 187.879 416.337 188.418 415.968L189.253 418.069C188.364 418.674 187.315 419 186.24 419.006C183.683 419.006 182.442 417.563 182.442 414.727Z" fill="white"/>
<path d="M197.709 406.169H200.393V407.739C200.937 407.144 201.603 406.673 202.346 406.358C203.089 406.043 203.891 405.893 204.697 405.916C208.141 405.916 210.495 408.828 210.495 412.423C210.495 416.018 208.141 418.955 204.697 418.955C203.908 418.972 203.125 418.815 202.403 418.495C201.681 418.176 201.038 417.702 200.52 417.107V422.373H197.709V406.169ZM207.634 412.423C207.662 411.93 207.588 411.436 207.417 410.973C207.245 410.51 206.98 410.087 206.638 409.73C206.296 409.374 205.884 409.092 205.428 408.902C204.972 408.712 204.482 408.618 203.988 408.625C203.507 408.633 203.032 408.738 202.592 408.936C202.153 409.134 201.759 409.419 201.434 409.775C201.109 410.131 200.86 410.549 200.703 411.005C200.546 411.46 200.483 411.943 200.52 412.423C200.487 412.903 200.552 413.384 200.711 413.838C200.869 414.291 201.118 414.708 201.442 415.063C201.766 415.418 202.159 415.704 202.597 415.903C203.034 416.102 203.508 416.21 203.988 416.221C204.475 416.226 204.958 416.133 205.408 415.947C205.857 415.761 206.265 415.486 206.605 415.138C206.946 414.79 207.213 414.377 207.39 413.924C207.566 413.47 207.65 412.985 207.634 412.499V412.423Z" fill="white"/>
<path d="M213.584 406.169H216.394V408.701C216.766 407.829 217.402 407.096 218.213 406.605C219.024 406.114 219.969 405.891 220.914 405.967V409.03C218.154 409.03 216.382 410.296 216.382 413.638V418.702H213.571L213.584 406.169Z" fill="white"/>
<path d="M222.749 412.499C222.739 411.645 222.899 410.797 223.218 410.005C223.538 409.213 224.012 408.492 224.613 407.885C225.213 407.277 225.929 406.795 226.717 406.466C227.505 406.136 228.351 405.967 229.205 405.967C230.855 406.026 232.414 406.736 233.543 407.941C234.672 409.145 235.279 410.747 235.231 412.398C235.227 412.762 235.201 413.125 235.155 413.486H225.661C225.841 414.375 226.333 415.169 227.048 415.727C227.763 416.284 228.654 416.567 229.56 416.525C230.84 416.53 232.092 416.151 233.155 415.436L234.269 417.512C232.866 418.473 231.209 418.993 229.509 419.006C228.63 419.055 227.75 418.922 226.925 418.615C226.099 418.309 225.346 417.836 224.711 417.225C224.077 416.615 223.575 415.88 223.238 415.067C222.9 414.253 222.734 413.379 222.749 412.499V412.499ZM232.496 411.41C232.385 410.578 231.974 409.815 231.34 409.265C230.706 408.715 229.893 408.415 229.053 408.423C228.225 408.447 227.432 408.758 226.808 409.303C226.185 409.848 225.77 410.593 225.635 411.41H232.496Z" fill="white"/>
<path d="M237.37 417.183L238.433 414.879C239.539 415.833 240.948 416.362 242.408 416.373C243.548 416.373 244.94 415.942 244.94 415.107C244.94 414.271 243.674 413.967 242.408 413.613C240.029 412.955 238.003 412.246 238.003 409.815C238.003 407.385 240.535 406.018 242.712 406.018C244.298 405.989 245.857 406.429 247.194 407.283L246.156 409.562C245.122 408.945 243.941 408.621 242.738 408.625C241.801 408.625 240.864 409.056 240.864 409.714C240.864 410.575 241.902 410.777 243.016 410.98C245.345 411.486 247.776 412.423 247.776 415.006C247.776 417.942 244.763 419.006 242.434 419.006C240.578 419.048 238.773 418.399 237.37 417.183V417.183Z" fill="white"/>
<path d="M249.928 412.499C249.918 411.645 250.077 410.797 250.397 410.005C250.717 409.213 251.191 408.492 251.792 407.885C252.392 407.277 253.107 406.795 253.896 406.466C254.684 406.136 255.53 405.967 256.384 405.967C258.034 406.026 259.593 406.736 260.722 407.941C261.851 409.145 262.458 410.747 262.41 412.398C262.406 412.762 262.38 413.125 262.334 413.486H252.839C253.02 414.375 253.512 415.169 254.227 415.727C254.942 416.284 255.833 416.567 256.738 416.525C258.019 416.53 259.271 416.151 260.334 415.436L261.422 417.563C260.02 418.524 258.362 419.044 256.662 419.056C255.781 419.102 254.9 418.965 254.074 418.654C253.248 418.343 252.495 417.865 251.863 417.249C251.23 416.633 250.732 415.893 250.399 415.076C250.066 414.259 249.906 413.381 249.928 412.499V412.499ZM259.675 411.41C259.564 410.578 259.153 409.815 258.519 409.265C257.885 408.715 257.071 408.415 256.232 408.423C255.404 408.447 254.611 408.758 253.987 409.303C253.363 409.848 252.949 410.593 252.814 411.41H259.675Z" fill="white"/>
<path d="M265.461 406.169H268.271V408.701C268.644 407.825 269.284 407.088 270.1 406.597C270.916 406.106 271.867 405.886 272.816 405.967V409.03C270.056 409.03 268.284 410.296 268.284 413.638V418.702H265.474L265.461 406.169Z" fill="white"/>
<path d="M274.613 406.169H277.424L279.955 412.499C280.614 414.119 281.12 415.866 281.12 415.866C281.12 415.866 281.652 414.094 282.285 412.524L284.817 406.195H287.627L282.487 418.829H279.778L274.613 406.169Z" fill="white"/>
<path d="M288.804 412.499C288.794 411.645 288.954 410.797 289.274 410.005C289.594 409.213 290.068 408.492 290.668 407.885C291.269 407.277 291.984 406.795 292.772 406.466C293.56 406.136 294.406 405.967 295.26 405.967C296.912 406.023 298.475 406.731 299.607 407.936C300.738 409.141 301.347 410.745 301.299 412.398C301.295 412.762 301.269 413.125 301.223 413.486H291.716C291.896 414.375 292.388 415.169 293.103 415.727C293.818 416.284 294.709 416.567 295.615 416.525C296.899 416.529 298.155 416.15 299.223 415.436L300.337 417.512C298.941 418.467 297.293 418.987 295.602 419.006C294.72 419.06 293.836 418.931 293.006 418.627C292.176 418.323 291.418 417.851 290.78 417.24C290.141 416.629 289.636 415.892 289.296 415.076C288.956 414.26 288.789 413.383 288.804 412.499V412.499ZM298.564 411.41C298.453 410.578 298.042 409.815 297.408 409.265C296.774 408.715 295.961 408.415 295.121 408.423C294.291 408.444 293.494 408.754 292.868 409.299C292.242 409.845 291.826 410.591 291.69 411.41H298.564Z" fill="white"/>
<path d="M35.2301 438.779V432.576H33.3818V430.222H35.2301V427.816L38.0404 427.234V430.222H41.8381V432.526H38.0404V438.855C38.0404 440.197 38.6734 440.627 39.3823 440.627C40.0347 440.599 40.6663 440.389 41.2052 440.02L42.0407 442.121C41.1519 442.726 40.1029 443.052 39.0278 443.058C36.4707 443.058 35.2301 441.615 35.2301 438.779Z" fill="white"/>
<path d="M44.5093 426.145H47.3196V432.07C47.7563 431.409 48.3566 430.873 49.0621 430.514C49.7676 430.155 50.5542 429.984 51.3452 430.019C54.6492 430.019 55.8645 432.171 55.8645 435.614V442.805H53.0415V435.969C53.0415 433.918 52.4972 432.728 50.4084 432.728C49.9694 432.734 49.5366 432.832 49.1376 433.016C48.7386 433.199 48.3823 433.463 48.0915 433.792C47.8007 434.121 47.5819 434.507 47.4489 434.926C47.316 435.344 47.2719 435.786 47.3196 436.222V442.805H44.5093V426.145Z" fill="white"/>
<path d="M58.7759 436.551C58.7659 435.697 58.9254 434.849 59.2454 434.057C59.5653 433.265 60.0393 432.544 60.6398 431.937C61.2403 431.329 61.9554 430.847 62.7437 430.518C63.532 430.189 64.3778 430.019 65.232 430.019C66.8819 430.079 68.4413 430.788 69.5701 431.993C70.699 433.198 71.3056 434.8 71.2578 436.45C71.2537 436.814 71.2284 437.178 71.1818 437.539H61.6875C61.8678 438.427 62.36 439.222 63.0751 439.779C63.7901 440.336 64.6809 440.619 65.5865 440.577C66.8669 440.582 68.1194 440.203 69.1817 439.488L70.2704 441.615C68.868 442.576 67.2105 443.096 65.5105 443.109C64.6291 443.154 63.7478 443.017 62.9219 442.706C62.0959 442.395 61.3432 441.917 60.7108 441.301C60.0785 440.685 59.5802 439.946 59.2472 439.128C58.9142 438.311 58.7538 437.434 58.7759 436.551V436.551ZM68.5234 435.463C68.4123 434.63 68.0011 433.868 67.367 433.317C66.7329 432.767 65.9196 432.468 65.0801 432.475C64.2523 432.499 63.4587 432.811 62.8351 433.356C62.2116 433.901 61.7969 434.645 61.6622 435.463H68.5234Z" fill="white"/>
<path d="M80.6511 432.551H78.6763V430.222H80.6511V429.361C80.6511 426.373 82.2714 425.285 84.2463 425.285C85.3502 425.302 86.4344 425.58 87.411 426.095L86.5755 428.171C86.0796 427.892 85.524 427.735 84.9552 427.715C84.145 427.715 83.4614 428.12 83.4614 429.665V430.222H86.93V432.5H83.4614V442.754H80.6511V432.551Z" fill="white"/>
<path d="M89.0312 437.893V430.222H91.7909V437.437C91.7909 439.438 92.677 440.298 94.424 440.298C94.8503 440.287 95.2696 440.187 95.6555 440.006C96.0413 439.824 96.3854 439.565 96.6661 439.243C96.9467 438.922 97.1578 438.547 97.2861 438.14C97.4144 437.733 97.4571 437.304 97.4115 436.88V430.222H100.235V442.754H97.5635V440.881C97.1295 441.553 96.5331 442.104 95.8296 442.485C95.126 442.865 94.3378 443.063 93.5379 443.058C90.2718 443.058 89.0312 441.184 89.0312 437.893Z" fill="white"/>
<path d="M103.906 426.145H106.716V442.805H103.906V426.145Z" fill="white"/>
<path d="M110.324 426.145H113.134V442.805H110.324V426.145Z" fill="white"/>
<path d="M117.35 439.843H119.983L117.831 446.273H115.957L117.35 439.843Z" fill="white"/>
<path d="M129.046 430.222H131.857V432.019C132.301 431.36 132.906 430.826 133.615 430.467C134.324 430.108 135.114 429.936 135.908 429.969C139.3 429.969 140.414 432.222 140.414 435.564V442.754H137.604V435.918C137.604 433.868 137.148 432.678 135.072 432.678C134.626 432.683 134.186 432.78 133.78 432.963C133.373 433.146 133.009 433.411 132.71 433.742C132.41 434.072 132.182 434.46 132.04 434.883C131.897 435.305 131.844 435.753 131.882 436.197V442.754H129.072L129.046 430.222Z" fill="white"/>
<path d="M143.376 436.551C143.376 432.931 145.731 430.019 149.174 430.019C149.963 430.003 150.747 430.16 151.468 430.479C152.19 430.798 152.833 431.272 153.352 431.867V430.222H156.162V442.754H153.352V441.235C152.831 441.826 152.187 442.296 151.466 442.611C150.744 442.926 149.962 443.078 149.174 443.058C145.731 443.058 143.376 440.146 143.376 436.551ZM153.352 436.551C153.384 436.072 153.32 435.59 153.161 435.137C153.002 434.683 152.754 434.266 152.429 433.911C152.105 433.556 151.712 433.27 151.275 433.071C150.837 432.873 150.364 432.764 149.883 432.754C149.389 432.746 148.898 432.84 148.441 433.03C147.985 433.22 147.572 433.502 147.229 433.858C146.886 434.214 146.62 434.637 146.447 435.1C146.274 435.564 146.199 436.057 146.225 436.551C146.197 437.044 146.271 437.538 146.442 438.001C146.614 438.465 146.879 438.888 147.221 439.244C147.563 439.6 147.975 439.882 148.431 440.072C148.886 440.263 149.377 440.357 149.871 440.349C150.353 440.343 150.83 440.239 151.271 440.042C151.712 439.845 152.107 439.56 152.434 439.204C152.76 438.848 153.01 438.429 153.168 437.973C153.325 437.516 153.388 437.033 153.352 436.551V436.551Z" fill="white"/>
<path d="M160.492 438.779V432.576H158.644V430.222H160.492V427.816L163.302 427.234V430.222H167.1V432.526H163.302V438.855C163.302 440.197 163.935 440.627 164.644 440.627C165.296 440.599 165.928 440.389 166.467 440.02L167.302 442.121C166.414 442.726 165.365 443.052 164.289 443.058C161.732 443.058 160.492 441.615 160.492 438.779Z" fill="white"/>
<path d="M169.505 437.893V430.222H172.315V437.437C172.315 439.438 173.201 440.298 174.948 440.298C175.375 440.287 175.794 440.187 176.18 440.006C176.566 439.824 176.91 439.565 177.19 439.243C177.471 438.922 177.682 438.547 177.81 438.14C177.939 437.733 177.981 437.304 177.936 436.88V430.222H180.746V442.754H178.088V440.881C177.655 441.551 177.061 442.101 176.359 442.482C175.658 442.862 174.873 443.06 174.075 443.058C170.745 443.058 169.505 441.184 169.505 437.893Z" fill="white"/>
<path d="M184.379 430.222H187.19V432.754C187.562 431.879 188.2 431.144 189.013 430.653C189.827 430.163 190.775 429.941 191.722 430.019V433.083C188.962 433.083 187.19 434.349 187.19 437.691V442.754H184.379V430.222Z" fill="white"/>
<path d="M193.608 436.551C193.608 432.931 195.963 430.019 199.406 430.019C200.195 430.003 200.978 430.16 201.7 430.479C202.422 430.798 203.065 431.272 203.583 431.867V430.222H206.394V442.754H203.583V441.235C203.063 441.826 202.419 442.296 201.697 442.611C200.975 442.926 200.193 443.078 199.406 443.058C195.963 443.058 193.608 440.146 193.608 436.551ZM203.583 436.551C203.616 436.072 203.551 435.59 203.392 435.137C203.234 434.683 202.985 434.266 202.661 433.911C202.337 433.556 201.944 433.27 201.506 433.071C201.069 432.873 200.595 432.764 200.115 432.754C199.621 432.748 199.132 432.843 198.677 433.034C198.222 433.225 197.811 433.507 197.469 433.863C197.127 434.219 196.862 434.641 196.69 435.103C196.518 435.566 196.443 436.059 196.469 436.551C196.441 437.044 196.515 437.538 196.686 438.001C196.858 438.465 197.123 438.888 197.465 439.244C197.807 439.6 198.219 439.882 198.675 440.072C199.131 440.263 199.621 440.357 200.115 440.349C200.596 440.342 201.071 440.236 201.511 440.038C201.95 439.841 202.344 439.555 202.669 439.199C202.994 438.844 203.243 438.425 203.4 437.97C203.557 437.514 203.62 437.032 203.583 436.551V436.551Z" fill="white"/>
<path d="M210.027 426.145H212.837V442.805H210.027V426.145Z" fill="white"/>
<path d="M222.838 444.856L223.926 443.083C225.006 443.934 226.349 444.382 227.724 444.349C230.408 444.349 231.724 442.628 231.724 440.07V439.969C231.305 440.676 230.696 441.252 229.967 441.633C229.238 442.013 228.417 442.182 227.597 442.121C226.815 442.128 226.039 441.973 225.319 441.668C224.598 441.362 223.948 440.911 223.409 440.344C222.87 439.777 222.454 439.104 222.186 438.369C221.917 437.634 221.803 436.851 221.85 436.07C221.803 435.288 221.918 434.504 222.186 433.768C222.454 433.031 222.87 432.357 223.408 431.788C223.947 431.218 224.596 430.765 225.317 430.457C226.037 430.148 226.814 429.991 227.597 429.994C228.43 429.949 229.26 430.122 230.005 430.495C230.751 430.868 231.387 431.428 231.851 432.121V430.222H234.534V439.893C234.6 440.77 234.476 441.651 234.172 442.476C233.867 443.301 233.389 444.05 232.77 444.675C232.151 445.299 231.404 445.783 230.582 446.093C229.759 446.404 228.88 446.535 228.002 446.476C226.14 446.588 224.302 446.012 222.838 444.856V444.856ZM231.699 435.994C231.706 435.53 231.619 435.069 231.445 434.639C231.27 434.209 231.011 433.819 230.683 433.491C230.355 433.162 229.964 432.903 229.534 432.729C229.104 432.555 228.644 432.468 228.18 432.475C227.712 432.476 227.249 432.572 226.818 432.756C226.388 432.941 226 433.21 225.676 433.548C225.352 433.886 225.1 434.286 224.934 434.723C224.768 435.161 224.692 435.628 224.711 436.095C224.694 436.564 224.772 437.03 224.94 437.468C225.108 437.905 225.363 438.304 225.69 438.64C226.016 438.976 226.408 439.242 226.84 439.423C227.272 439.603 227.736 439.694 228.205 439.691C228.68 439.69 229.149 439.592 229.585 439.403C230.02 439.214 230.413 438.938 230.738 438.592C231.062 438.245 231.313 437.836 231.474 437.39C231.635 436.943 231.703 436.468 231.674 435.994H231.699Z" fill="white"/>
<path d="M237.497 436.551C237.5 435.684 237.676 434.825 238.013 434.026C238.35 433.227 238.843 432.502 239.462 431.895C240.082 431.287 240.815 430.809 241.621 430.487C242.427 430.165 243.288 430.006 244.156 430.019C245.023 430.006 245.885 430.165 246.69 430.487C247.496 430.809 248.23 431.287 248.849 431.895C249.468 432.502 249.961 433.227 250.298 434.026C250.636 434.825 250.811 435.684 250.814 436.551C250.808 437.417 250.63 438.272 250.291 439.069C249.952 439.865 249.459 440.586 248.84 441.191C248.221 441.796 247.489 442.273 246.685 442.593C245.881 442.913 245.021 443.071 244.156 443.058C243.29 443.071 242.431 442.913 241.627 442.593C240.823 442.273 240.09 441.796 239.471 441.191C238.852 440.586 238.359 439.865 238.02 439.069C237.681 438.272 237.504 437.417 237.497 436.551V436.551ZM247.953 436.551C247.964 436.05 247.873 435.551 247.685 435.086C247.498 434.62 247.219 434.198 246.864 433.843C246.509 433.488 246.087 433.209 245.621 433.022C245.156 432.834 244.657 432.743 244.156 432.754C243.654 432.743 243.156 432.834 242.69 433.022C242.225 433.209 241.802 433.488 241.447 433.843C241.093 434.198 240.813 434.62 240.626 435.086C240.439 435.551 240.348 436.05 240.358 436.551C240.346 437.053 240.436 437.553 240.622 438.019C240.809 438.485 241.088 438.909 241.443 439.264C241.798 439.619 242.222 439.898 242.688 440.085C243.154 440.271 243.654 440.361 244.156 440.349C244.658 440.361 245.157 440.271 245.623 440.085C246.09 439.898 246.513 439.619 246.868 439.264C247.223 438.909 247.503 438.485 247.689 438.019C247.876 437.553 247.966 437.053 247.953 436.551V436.551Z" fill="white"/>
<path d="M253.232 436.551C253.235 435.684 253.411 434.825 253.748 434.026C254.085 433.227 254.578 432.502 255.197 431.895C255.817 431.287 256.55 430.809 257.356 430.487C258.162 430.165 259.023 430.006 259.891 430.019C260.758 430.006 261.62 430.165 262.425 430.487C263.231 430.809 263.965 431.287 264.584 431.895C265.203 432.502 265.696 433.227 266.033 434.026C266.371 434.825 266.546 435.684 266.549 436.551C266.543 437.417 266.365 438.272 266.026 439.069C265.687 439.865 265.194 440.586 264.575 441.191C263.956 441.796 263.223 442.273 262.419 442.593C261.615 442.913 260.756 443.071 259.891 443.058C259.025 443.071 258.166 442.913 257.362 442.593C256.558 442.273 255.825 441.796 255.206 441.191C254.587 440.586 254.094 439.865 253.755 439.069C253.416 438.272 253.239 437.417 253.232 436.551V436.551ZM263.688 436.551C263.699 436.05 263.608 435.551 263.42 435.086C263.233 434.62 262.954 434.198 262.599 433.843C262.244 433.488 261.822 433.209 261.356 433.022C260.891 432.834 260.392 432.743 259.891 432.754C259.389 432.743 258.891 432.834 258.425 433.022C257.96 433.209 257.537 433.488 257.182 433.843C256.827 434.198 256.548 434.62 256.361 435.086C256.174 435.551 256.083 436.05 256.093 436.551C256.081 437.053 256.171 437.553 256.357 438.019C256.544 438.485 256.823 438.909 257.178 439.264C257.533 439.619 257.957 439.898 258.423 440.085C258.889 440.271 259.389 440.361 259.891 440.349C260.393 440.361 260.892 440.271 261.358 440.085C261.824 439.898 262.248 439.619 262.603 439.264C262.958 438.909 263.237 438.485 263.424 438.019C263.611 437.553 263.7 437.053 263.688 436.551V436.551Z" fill="white"/>
<path d="M269.018 436.551C269.018 432.931 271.373 430.019 274.816 430.019C275.605 430.003 276.388 430.16 277.11 430.479C277.832 430.798 278.475 431.272 278.993 431.867V426.145H281.804V442.805H279.145V441.235C278.601 441.831 277.935 442.302 277.192 442.616C276.449 442.931 275.648 443.082 274.841 443.058C271.385 443.058 269.018 440.146 269.018 436.551ZM278.993 436.551C279.026 436.072 278.961 435.59 278.803 435.137C278.644 434.683 278.395 434.266 278.071 433.911C277.747 433.556 277.354 433.27 276.916 433.071C276.479 432.873 276.005 432.764 275.525 432.754C275.031 432.748 274.542 432.843 274.087 433.034C273.632 433.225 273.221 433.507 272.879 433.863C272.537 434.218 272.272 434.641 272.1 435.103C271.928 435.566 271.853 436.058 271.879 436.551C271.851 437.044 271.925 437.538 272.097 438.001C272.268 438.465 272.533 438.888 272.875 439.244C273.217 439.6 273.629 439.882 274.085 440.072C274.541 440.263 275.031 440.357 275.525 440.349C276.008 440.343 276.484 440.239 276.925 440.042C277.366 439.845 277.762 439.56 278.088 439.204C278.414 438.848 278.664 438.429 278.822 437.973C278.98 437.516 279.042 437.033 279.006 436.551H278.993Z" fill="white"/>
<path d="M285.475 430.222H288.285V432.019C288.729 431.36 289.335 430.826 290.044 430.467C290.753 430.108 291.542 429.936 292.336 429.969C295.728 429.969 296.842 432.222 296.842 435.564V442.754H294.032V435.918C294.032 433.868 293.576 432.678 291.5 432.678C291.055 432.683 290.615 432.78 290.208 432.963C289.802 433.146 289.437 433.411 289.138 433.742C288.838 434.072 288.61 434.46 288.468 434.883C288.326 435.305 288.272 435.753 288.31 436.197V442.754H285.475V430.222Z" fill="white"/>
<path d="M299.729 436.551C299.719 435.697 299.879 434.849 300.198 434.057C300.518 433.265 300.992 432.544 301.593 431.937C302.193 431.329 302.909 430.847 303.697 430.518C304.485 430.189 305.331 430.019 306.185 430.019C307.837 430.075 309.4 430.783 310.531 431.988C311.663 433.194 312.271 434.798 312.224 436.45C312.219 436.814 312.194 437.178 312.148 437.539H302.641C302.821 438.427 303.313 439.222 304.028 439.779C304.743 440.336 305.634 440.619 306.54 440.577C307.824 440.582 309.08 440.202 310.147 439.488L311.261 441.564C309.855 442.527 308.193 443.047 306.489 443.058C305.61 443.107 304.73 442.974 303.905 442.668C303.079 442.361 302.326 441.888 301.691 441.277C301.057 440.667 300.555 439.932 300.218 439.119C299.88 438.306 299.714 437.432 299.729 436.551V436.551ZM309.489 435.463C309.375 434.629 308.961 433.866 308.325 433.316C307.689 432.766 306.874 432.467 306.033 432.475C305.206 432.502 304.414 432.814 303.791 433.358C303.168 433.903 302.752 434.646 302.615 435.463H309.489Z" fill="white"/>
<path d="M314.299 441.235L315.363 438.931C316.472 439.887 317.886 440.416 319.35 440.425C320.49 440.425 321.882 439.994 321.882 439.159C321.882 438.324 320.616 438.02 319.35 437.665C316.97 437.007 314.945 436.298 314.945 433.868C314.945 431.437 317.477 430.07 319.654 430.07C321.244 430.039 322.808 430.48 324.148 431.336L323.11 433.614C322.076 432.999 320.895 432.675 319.692 432.678C318.755 432.678 317.806 433.108 317.806 433.766C317.806 434.627 318.857 434.83 319.971 435.032C322.3 435.539 324.73 436.475 324.73 439.058C324.73 441.995 321.705 443.058 319.388 443.058C317.524 443.103 315.71 442.454 314.299 441.235V441.235Z" fill="white"/>
<path d="M326.769 441.235L327.832 438.931C328.938 439.885 330.347 440.415 331.807 440.425C332.946 440.425 334.339 439.995 334.339 439.159C334.339 438.324 333.073 438.02 331.807 437.665C329.427 437.007 327.402 436.298 327.402 433.868C327.402 431.437 329.933 430.07 332.111 430.07C333.697 430.041 335.256 430.482 336.592 431.336L335.554 433.614C334.521 432.997 333.339 432.673 332.136 432.678C331.199 432.678 330.262 433.108 330.262 433.766C330.262 434.627 331.301 434.83 332.415 435.032C334.744 435.539 337.174 436.475 337.174 439.058C337.174 441.995 334.161 443.058 331.832 443.058C329.976 443.101 328.171 442.451 326.769 441.235Z" fill="white"/>
<path d="M34.0151 460.603C34.0184 459.736 34.1938 458.878 34.5311 458.078C34.8685 457.279 35.3611 456.555 35.9804 455.947C36.5998 455.339 37.3335 454.861 38.1392 454.539C38.9448 454.217 39.8063 454.058 40.6738 454.071C41.5413 454.058 42.4028 454.217 43.2085 454.539C44.0141 454.861 44.7479 455.339 45.3672 455.947C45.9866 456.555 46.4792 457.279 46.8165 458.078C47.1539 458.878 47.3293 459.736 47.3325 460.603C47.3259 461.469 47.1481 462.325 46.8092 463.121C46.4704 463.917 45.9773 464.639 45.3583 465.244C44.7393 465.848 44.0067 466.325 43.2027 466.645C42.3987 466.966 41.5392 467.124 40.6738 467.11C39.8085 467.124 38.949 466.966 38.145 466.645C37.341 466.325 36.6084 465.848 35.9894 465.244C35.3704 464.639 34.8773 463.917 34.5384 463.121C34.1996 462.325 34.0217 461.469 34.0151 460.603V460.603ZM44.4715 460.603C44.4819 460.102 44.3907 459.603 44.2035 459.138C44.0164 458.673 43.737 458.25 43.3823 457.895C43.0275 457.54 42.6047 457.261 42.1393 457.074C41.6739 456.887 41.1754 456.795 40.6738 456.806C40.1723 456.795 39.6738 456.887 39.2083 457.074C38.7429 457.261 38.3201 457.54 37.9654 457.895C37.6106 458.25 37.3313 458.673 37.1441 459.138C36.9569 459.603 36.8658 460.102 36.8761 460.603C36.864 461.106 36.9539 461.605 37.1405 462.071C37.327 462.537 37.6063 462.961 37.9614 463.316C38.3165 463.671 38.74 463.95 39.2063 464.137C39.6725 464.323 40.1718 464.413 40.6738 464.401C41.1759 464.413 41.6751 464.323 42.1414 464.137C42.6076 463.95 43.0311 463.671 43.3862 463.316C43.7413 462.961 44.0207 462.537 44.2072 462.071C44.3938 461.605 44.4837 461.106 44.4715 460.603V460.603Z" fill="white"/>
<path d="M50.6742 456.603H48.75V454.274H50.7248V453.413C50.7248 450.426 52.3452 449.337 54.32 449.337C55.4239 449.355 56.5081 449.632 57.4848 450.147L56.6492 452.223C56.1534 451.944 55.5977 451.788 55.0289 451.767C54.2187 451.767 53.5351 452.173 53.5351 453.717V454.274H57.0037V456.553H53.5351V466.806H50.7248L50.6742 456.603Z" fill="white"/>
<path d="M65.8653 462.831V456.629H64.0171V454.274H65.8653V451.869L68.6756 451.286V454.274H72.4733V456.578H68.6756V462.907C68.6756 464.249 69.3086 464.68 70.0175 464.68C70.67 464.651 71.3015 464.441 71.8404 464.072L72.6759 466.173C71.7871 466.778 70.7381 467.105 69.663 467.11C67.1059 467.11 65.8653 465.667 65.8653 462.831Z" fill="white"/>
<path d="M75.144 450.198H77.9544V456.122C78.393 455.461 78.9956 454.924 79.7033 454.565C80.411 454.205 81.1997 454.035 81.9926 454.071C85.284 454.071 86.4992 456.223 86.4992 459.667V466.857H83.6762V460.021C83.6762 457.97 83.1319 456.78 81.0432 456.78C80.6042 456.787 80.1713 456.885 79.7723 457.068C79.3733 457.251 79.0171 457.516 78.7263 457.844C78.4355 458.173 78.2166 458.559 78.0837 458.978C77.9507 459.396 77.9067 459.838 77.9544 460.274V466.857H75.144V450.198Z" fill="white"/>
<path d="M89.4111 460.603C89.4011 459.749 89.5607 458.902 89.8806 458.11C90.2006 457.317 90.6745 456.597 91.275 455.989C91.8756 455.382 92.5907 454.899 93.379 454.57C94.1672 454.241 95.013 454.071 95.8673 454.071C97.5216 454.124 99.0875 454.831 100.222 456.036C101.356 457.242 101.966 458.848 101.918 460.502C101.914 460.866 101.889 461.23 101.842 461.591H92.3481C92.5284 462.479 93.0205 463.274 93.7356 463.831C94.4507 464.388 95.3415 464.671 96.247 464.629C97.5274 464.634 98.7799 464.255 99.8422 463.54L100.956 465.616C99.5539 466.577 97.8964 467.098 96.1964 467.11C95.3153 467.163 94.4327 467.033 93.6043 466.728C92.7758 466.423 92.0193 465.95 91.3822 465.339C90.745 464.728 90.2411 463.992 89.9019 463.177C89.5627 462.362 89.3956 461.486 89.4111 460.603V460.603ZM99.1586 459.515C99.0476 458.683 98.6363 457.92 98.0022 457.37C97.3681 456.819 96.5548 456.52 95.7154 456.527C94.8876 456.551 94.0939 456.863 93.4704 457.408C92.8468 457.953 92.4321 458.698 92.2974 459.515H99.1586Z" fill="white"/>
<path d="M110.425 460.603C110.428 459.734 110.605 458.873 110.944 458.072C111.283 457.271 111.777 456.546 112.399 455.938C113.021 455.33 113.758 454.852 114.567 454.531C115.375 454.211 116.24 454.055 117.109 454.071C118.748 454.061 120.337 454.636 121.591 455.692L119.844 457.692C119.078 457.06 118.1 456.743 117.109 456.806C116.608 456.795 116.109 456.887 115.644 457.074C115.178 457.261 114.756 457.54 114.401 457.895C114.046 458.25 113.767 458.673 113.58 459.138C113.392 459.603 113.301 460.102 113.312 460.603C113.295 461.118 113.385 461.63 113.578 462.107C113.771 462.584 114.062 463.015 114.432 463.373C114.801 463.73 115.242 464.007 115.725 464.184C116.208 464.361 116.723 464.435 117.236 464.401C118.355 464.423 119.444 464.036 120.299 463.312L121.844 465.439C120.512 466.536 118.835 467.128 117.109 467.11C116.241 467.129 115.378 466.974 114.571 466.656C113.763 466.338 113.027 465.862 112.405 465.257C111.783 464.651 111.287 463.928 110.947 463.129C110.608 462.33 110.43 461.472 110.425 460.603V460.603Z" fill="white"/>
<path d="M123.438 460.603C123.438 456.983 125.793 454.071 129.236 454.071C130.025 454.055 130.809 454.212 131.53 454.531C132.252 454.851 132.895 455.325 133.414 455.92V454.274H136.224V466.806H133.414V465.287C132.893 465.878 132.249 466.348 131.528 466.663C130.806 466.978 130.024 467.131 129.236 467.11C125.844 467.11 123.438 464.199 123.438 460.603ZM133.414 460.603C133.446 460.124 133.382 459.643 133.223 459.189C133.064 458.735 132.816 458.318 132.491 457.963C132.167 457.608 131.774 457.323 131.337 457.124C130.899 456.925 130.426 456.817 129.945 456.806C129.452 456.8 128.962 456.895 128.507 457.086C128.052 457.277 127.641 457.559 127.3 457.915C126.958 458.271 126.693 458.693 126.521 459.155C126.349 459.618 126.273 460.111 126.299 460.603C126.272 461.097 126.346 461.59 126.517 462.054C126.688 462.517 126.953 462.94 127.295 463.296C127.637 463.653 128.049 463.935 128.505 464.125C128.961 464.315 129.451 464.409 129.945 464.401C130.431 464.401 130.912 464.3 131.357 464.106C131.803 463.911 132.203 463.626 132.533 463.27C132.864 462.913 133.117 462.493 133.277 462.034C133.437 461.575 133.501 461.088 133.464 460.603H133.414Z" fill="white"/>
<path d="M139.896 454.274H142.706V456.072C143.15 455.413 143.755 454.878 144.465 454.519C145.174 454.16 145.963 453.989 146.757 454.021C150.149 454.021 151.263 456.274 151.263 459.616V466.806H148.453V459.971C148.453 457.92 147.997 456.73 145.921 456.73C145.475 456.735 145.036 456.832 144.629 457.015C144.223 457.199 143.858 457.463 143.559 457.794C143.259 458.124 143.031 458.513 142.889 458.935C142.746 459.358 142.693 459.805 142.731 460.249V466.806H139.896V454.274Z" fill="white"/>
<path d="M154.795 454.274H157.618V456.072C158.062 455.413 158.668 454.878 159.377 454.519C160.086 454.16 160.875 453.989 161.669 454.021C165.074 454.021 166.188 456.274 166.188 459.616V466.806H163.378V459.971C163.378 457.92 162.922 456.73 160.846 456.73C160.392 456.729 159.944 456.824 159.529 457.008C159.114 457.192 158.742 457.46 158.438 457.797C158.134 458.133 157.904 458.53 157.762 458.961C157.621 459.392 157.572 459.848 157.618 460.3V466.857H154.808L154.795 454.274Z" fill="white"/>
<path d="M169.125 460.603C169.125 456.983 171.48 454.071 174.923 454.071C175.718 454.049 176.509 454.204 177.238 454.523C177.967 454.843 178.616 455.32 179.138 455.92V454.274H181.961V466.806H179.138V465.287C178.618 465.878 177.974 466.348 177.252 466.663C176.53 466.978 175.748 467.131 174.961 467.11C171.543 467.11 169.125 464.199 169.125 460.603ZM179.1 460.603C179.133 460.124 179.068 459.643 178.91 459.189C178.751 458.735 178.502 458.318 178.178 457.963C177.854 457.608 177.461 457.323 177.023 457.124C176.586 456.925 176.112 456.817 175.632 456.806C175.138 456.8 174.649 456.895 174.194 457.086C173.739 457.277 173.328 457.559 172.986 457.915C172.644 458.271 172.379 458.693 172.207 459.155C172.035 459.618 171.96 460.111 171.986 460.603C171.958 461.097 172.032 461.59 172.203 462.054C172.375 462.517 172.64 462.94 172.982 463.296C173.324 463.653 173.736 463.935 174.192 464.125C174.648 464.315 175.138 464.409 175.632 464.401C176.117 464.399 176.596 464.297 177.04 464.102C177.484 463.906 177.882 463.622 178.211 463.265C178.54 462.909 178.792 462.489 178.952 462.031C179.111 461.573 179.175 461.087 179.138 460.603H179.1Z" fill="white"/>
<path d="M188.228 465.287V466.857H185.544V450.198H188.354V455.92C188.875 455.324 189.52 454.849 190.244 454.53C190.968 454.21 191.753 454.054 192.544 454.071C195.988 454.071 198.342 456.983 198.342 460.603C198.342 464.224 195.988 467.11 192.544 467.11C191.736 467.135 190.932 466.985 190.187 466.67C189.442 466.356 188.774 465.884 188.228 465.287V465.287ZM195.481 460.603C195.506 460.108 195.428 459.613 195.253 459.148C195.078 458.684 194.809 458.261 194.464 457.905C194.119 457.549 193.704 457.267 193.245 457.078C192.786 456.889 192.294 456.796 191.798 456.806C191.317 456.817 190.844 456.925 190.406 457.124C189.968 457.323 189.576 457.608 189.251 457.963C188.927 458.318 188.678 458.735 188.52 459.189C188.361 459.643 188.296 460.124 188.329 460.603C188.293 461.084 188.355 461.567 188.512 462.022C188.669 462.477 188.918 462.896 189.243 463.252C189.568 463.607 189.962 463.893 190.401 464.091C190.841 464.288 191.316 464.394 191.798 464.401C192.295 464.414 192.789 464.324 193.249 464.136C193.71 463.949 194.126 463.667 194.473 463.31C194.819 462.954 195.087 462.529 195.261 462.063C195.434 461.597 195.51 461.1 195.481 460.603V460.603Z" fill="white"/>
<path d="M201.089 450.805C201.089 450.353 201.267 449.919 201.585 449.597C201.902 449.275 202.333 449.09 202.786 449.084C203.232 449.1 203.656 449.288 203.967 449.609C204.278 449.93 204.454 450.358 204.457 450.805C204.45 451.258 204.266 451.689 203.944 452.006C203.621 452.324 203.187 452.502 202.735 452.502C202.294 452.488 201.875 452.304 201.568 451.987C201.261 451.671 201.089 451.247 201.089 450.805V450.805ZM201.393 454.325H204.203V466.857H201.393V454.325Z" fill="white"/>
<path d="M206.988 465.287L208.052 462.983C209.164 463.943 210.583 464.473 212.052 464.477C213.191 464.477 214.584 464.047 214.584 463.211C214.584 462.376 213.318 462.072 212.052 461.717C209.672 461.059 207.647 460.35 207.647 457.92C207.647 455.489 210.178 454.122 212.356 454.122C213.942 454.093 215.501 454.534 216.837 455.388L215.799 457.667C214.766 457.05 213.584 456.726 212.381 456.73C211.444 456.73 210.508 457.16 210.508 457.818C210.508 458.679 211.546 458.882 212.66 459.084C214.989 459.591 217.419 460.528 217.419 463.11C217.419 466.047 214.406 467.11 212.077 467.11C210.213 467.159 208.397 466.509 206.988 465.287V465.287Z" fill="white"/>
<path d="M226.205 454.274H228.889V455.844C229.436 455.249 230.105 454.779 230.85 454.464C231.594 454.15 232.398 453.999 233.206 454.021C236.649 454.021 239.003 456.932 239.003 460.528C239.003 464.123 236.649 467.06 233.206 467.06C232.416 467.076 231.633 466.919 230.911 466.6C230.19 466.28 229.547 465.806 229.028 465.211V470.478H226.205V454.274ZM236.104 460.603C236.132 460.11 236.058 459.617 235.887 459.153C235.716 458.69 235.451 458.267 235.109 457.911C234.766 457.554 234.355 457.272 233.899 457.082C233.443 456.892 232.953 456.798 232.459 456.806C231.977 456.813 231.502 456.919 231.063 457.116C230.623 457.314 230.229 457.6 229.904 457.955C229.579 458.311 229.33 458.73 229.173 459.185C229.016 459.64 228.954 460.123 228.99 460.603C228.957 461.083 229.022 461.564 229.181 462.018C229.339 462.472 229.588 462.889 229.913 463.244C230.237 463.599 230.629 463.884 231.067 464.083C231.505 464.282 231.978 464.39 232.459 464.401C232.952 464.407 233.441 464.312 233.896 464.121C234.352 463.93 234.763 463.648 235.104 463.292C235.446 462.936 235.711 462.514 235.883 462.052C236.055 461.589 236.13 461.096 236.104 460.603V460.603Z" fill="white"/>
<path d="M242.117 450.198H244.965V466.857H242.155L242.117 450.198Z" fill="white"/>
<path d="M248.017 460.603C248.017 456.983 250.371 454.071 253.814 454.071C254.605 454.057 255.39 454.214 256.113 454.533C256.837 454.853 257.482 455.326 258.005 455.92V454.274H260.815V466.806H258.005V465.287C257.482 465.876 256.838 466.345 256.117 466.659C255.395 466.974 254.614 467.128 253.827 467.11C250.371 467.11 248.017 464.199 248.017 460.603ZM258.005 460.603C258.037 460.123 257.972 459.641 257.813 459.186C257.653 458.731 257.403 458.314 257.078 457.959C256.752 457.603 256.358 457.318 255.919 457.12C255.48 456.922 255.005 456.815 254.523 456.806C254.03 456.8 253.541 456.895 253.086 457.086C252.631 457.277 252.219 457.559 251.878 457.915C251.536 458.271 251.271 458.693 251.099 459.155C250.927 459.618 250.852 460.111 250.878 460.603C250.85 461.097 250.924 461.59 251.095 462.054C251.266 462.517 251.531 462.94 251.873 463.296C252.216 463.653 252.627 463.935 253.083 464.125C253.539 464.315 254.029 464.409 254.523 464.401C255.006 464.394 255.481 464.288 255.921 464.091C256.361 463.893 256.756 463.608 257.082 463.252C257.408 462.897 257.658 462.478 257.816 462.023C257.975 461.568 258.039 461.085 258.005 460.603V460.603Z" fill="white"/>
<path d="M264.436 454.274H267.246V456.072C267.69 455.413 268.295 454.878 269.005 454.519C269.714 454.16 270.503 453.989 271.297 454.021C274.689 454.021 275.816 456.274 275.816 459.616V466.806H272.993V459.971C272.993 457.92 272.537 456.73 270.461 456.73C270.015 456.735 269.576 456.832 269.169 457.015C268.763 457.199 268.398 457.463 268.099 457.794C267.799 458.124 267.571 458.513 267.429 458.935C267.287 459.358 267.233 459.805 267.271 460.249V466.806H264.461L264.436 454.274Z" fill="white"/>
<path d="M279.816 462.831V456.629H277.968V454.274H279.816V451.869L282.626 451.286V454.274H286.424V456.578H282.626V462.907C282.626 464.249 283.259 464.68 283.968 464.68C284.621 464.651 285.252 464.441 285.791 464.072L286.627 466.173C285.738 466.778 284.689 467.105 283.614 467.11C281.057 467.11 279.816 465.667 279.816 462.831Z" fill="white"/>
<path d="M289.386 465.363C289.385 465.132 289.428 464.903 289.515 464.689C289.602 464.475 289.73 464.28 289.893 464.115C290.055 463.951 290.248 463.82 290.461 463.73C290.674 463.64 290.902 463.593 291.133 463.591C291.604 463.591 292.057 463.777 292.391 464.109C292.725 464.441 292.915 464.892 292.918 465.363C292.912 465.831 292.72 466.277 292.386 466.605C292.051 466.932 291.601 467.114 291.133 467.11C290.903 467.112 290.675 467.068 290.463 466.981C290.25 466.893 290.057 466.765 289.894 466.602C289.732 466.44 289.603 466.246 289.516 466.034C289.429 465.821 289.385 465.593 289.386 465.363V465.363Z" fill="white"/>
<path d="M189.278 268.034C247.95 268.034 295.513 220.471 295.513 161.799C295.513 103.127 247.95 55.5638 189.278 55.5638C130.606 55.5638 83.0435 103.127 83.0435 161.799C83.0435 220.471 130.606 268.034 189.278 268.034Z" stroke="#DFC98B" stroke-width="2.5" stroke-linecap="round" stroke-linejoin="round"/>
</g>
<defs>
<clipPath id="clip0_664_2034">
<rect width="380" height="501.426" fill="white" transform="translate(0 0.674072)"/>
</clipPath>
</defs>
</svg>
