<svg width="28" height="28" viewBox="0 0 28 28" fill="none" xmlns="http://www.w3.org/2000/svg">
<g clip-path="url(#clip0_518_5819)">
<path d="M7.8916 14.4824L11.0744 18.0422L18.9905 8.37817" stroke="#529D37" stroke-width="0.911989" stroke-linecap="round" stroke-linejoin="round"/>
<path d="M13.501 2.38035V0.456055" stroke="#529D37" stroke-width="0.911989" stroke-linecap="round" stroke-linejoin="round"/>
<path d="M10.6157 2.76953L10.1172 0.912109" stroke="#529D37" stroke-width="0.911989" stroke-linecap="round" stroke-linejoin="round"/>
<path d="M7.92851 3.89417L6.96484 2.22827" stroke="#529D37" stroke-width="0.911989" stroke-linecap="round" stroke-linejoin="round"/>
<path d="M5.62058 5.67551L4.26172 4.31665" stroke="#529D37" stroke-width="0.911989" stroke-linecap="round" stroke-linejoin="round"/>
<path d="M3.85438 7.99212L2.18848 7.03149" stroke="#529D37" stroke-width="0.911989" stroke-linecap="round" stroke-linejoin="round"/>
<path d="M2.75108 10.6885L0.890625 10.1899" stroke="#529D37" stroke-width="0.911989" stroke-linecap="round" stroke-linejoin="round"/>
<path d="M2.38035 13.5795H0.456055" stroke="#529D37" stroke-width="0.911989" stroke-linecap="round" stroke-linejoin="round"/>
<path d="M2.76953 16.4644L0.912109 16.9629" stroke="#529D37" stroke-width="0.911989" stroke-linecap="round" stroke-linejoin="round"/>
<path d="M3.89442 19.1548L2.22852 20.1154" stroke="#529D37" stroke-width="0.911989" stroke-linecap="round" stroke-linejoin="round"/>
<path d="M5.67527 21.4592L4.31641 22.8181" stroke="#529D37" stroke-width="0.911989" stroke-linecap="round" stroke-linejoin="round"/>
<path d="M7.99188 23.2253L7.03125 24.8912" stroke="#529D37" stroke-width="0.911989" stroke-linecap="round" stroke-linejoin="round"/>
<path d="M10.688 24.3289L10.1895 26.1893" stroke="#529D37" stroke-width="0.911989" stroke-linecap="round" stroke-linejoin="round"/>
<path d="M13.5791 24.6997V26.624" stroke="#529D37" stroke-width="0.911989" stroke-linecap="round" stroke-linejoin="round"/>
<path d="M16.4648 24.3105L16.9634 26.168" stroke="#529D37" stroke-width="0.911989" stroke-linecap="round" stroke-linejoin="round"/>
<path d="M19.1543 23.1858L20.1149 24.8517" stroke="#529D37" stroke-width="0.911989" stroke-linecap="round" stroke-linejoin="round"/>
<path d="M21.459 21.4044L22.8178 22.7663" stroke="#529D37" stroke-width="0.911989" stroke-linecap="round" stroke-linejoin="round"/>
<path d="M23.2256 19.0879L24.8915 20.0485" stroke="#529D37" stroke-width="0.911989" stroke-linecap="round" stroke-linejoin="round"/>
<path d="M24.3291 16.3914L26.1896 16.8899" stroke="#529D37" stroke-width="0.911989" stroke-linecap="round" stroke-linejoin="round"/>
<path d="M24.7002 13.5005H26.6245" stroke="#529D37" stroke-width="0.911989" stroke-linecap="round" stroke-linejoin="round"/>
<path d="M24.3105 10.6156L26.168 10.1171" stroke="#529D37" stroke-width="0.911989" stroke-linecap="round" stroke-linejoin="round"/>
<path d="M23.1855 7.92827L24.8514 6.9646" stroke="#529D37" stroke-width="0.911989" stroke-linecap="round" stroke-linejoin="round"/>
<path d="M21.4043 5.62083L22.7662 4.26196" stroke="#529D37" stroke-width="0.911989" stroke-linecap="round" stroke-linejoin="round"/>
<path d="M19.0879 3.85462L20.0485 2.18872" stroke="#529D37" stroke-width="0.911989" stroke-linecap="round" stroke-linejoin="round"/>
<path d="M16.3916 2.75108L16.8902 0.890625" stroke="#529D37" stroke-width="0.911989" stroke-linecap="round" stroke-linejoin="round"/>
</g>
<defs>
<clipPath id="clip0_518_5819">
<rect width="27.08" height="27.08" fill="white"/>
</clipPath>
</defs>
</svg>
