<svg width="360" height="450" viewBox="0 0 360 450" fill="none" xmlns="http://www.w3.org/2000/svg">
<g clip-path="url(#clip0_659_1816)">
<path d="M59.3379 250.481H62.3179V261.683H70.2767V264.233H59.3379V250.481Z" fill="#2D2A26"/>
<path d="M71.7368 250.673C71.7368 250.226 71.9125 249.797 72.2261 249.479C72.5396 249.161 72.9658 248.979 73.4124 248.973C73.8621 248.976 74.2926 249.156 74.6106 249.474C74.9287 249.792 75.1087 250.223 75.1118 250.673C75.1056 251.119 74.9237 251.545 74.6057 251.859C74.2877 252.172 73.859 252.348 73.4124 252.348C72.9699 252.342 72.5473 252.163 72.2344 251.851C71.9215 251.538 71.743 251.115 71.7368 250.673V250.673ZM72.0121 253.641H74.8605V264.257H72.0121V253.641Z" fill="#2D2A26"/>
<path d="M77.4697 266.04L78.5349 264.256C79.4346 264.89 80.5105 265.225 81.6107 265.214C82.0066 265.252 82.406 265.204 82.7822 265.075C83.1583 264.946 83.5025 264.738 83.7915 264.465C84.0806 264.191 84.3078 263.86 84.4581 263.491C84.6083 263.123 84.678 262.727 84.6626 262.329C84.6758 262.254 84.6758 262.177 84.6626 262.102C84.3132 262.617 83.8361 263.032 83.278 263.307C82.72 263.582 82.1 263.707 81.4791 263.67C80.8212 263.672 80.17 263.538 79.5662 263.276C78.9624 263.015 78.4189 262.632 77.9697 262.151C77.5205 261.671 77.1752 261.103 76.9553 260.483C76.7354 259.863 76.6457 259.204 76.6918 258.548C76.644 257.89 76.7325 257.23 76.9516 256.609C77.1707 255.987 77.5157 255.418 77.9651 254.936C78.4145 254.454 78.9585 254.07 79.5632 253.808C80.1679 253.546 80.8201 253.412 81.4791 253.413C82.13 253.38 82.7783 253.516 83.3613 253.808C83.9442 254.099 84.442 254.536 84.8062 255.077V253.629H87.499V261.671C87.5674 262.429 87.4698 263.192 87.213 263.908C86.9561 264.624 86.5462 265.275 86.0118 265.816C85.4774 266.358 84.8314 266.776 84.1188 267.042C83.4063 267.308 82.6443 267.415 81.886 267.356C80.307 267.432 78.7494 266.968 77.4697 266.04V266.04ZM84.7105 258.488C84.7202 258.146 84.6605 257.805 84.5351 257.486C84.4097 257.168 84.2211 256.878 83.9807 256.634C83.7403 256.39 83.4531 256.198 83.1362 256.068C82.8194 255.938 82.4796 255.874 82.1373 255.879C81.7922 255.878 81.4506 255.948 81.1333 256.084C80.8159 256.219 80.5294 256.418 80.2911 256.667C80.0527 256.917 79.8675 257.212 79.7467 257.535C79.6259 257.858 79.5719 258.203 79.5881 258.548C79.5735 258.89 79.6287 259.232 79.7506 259.553C79.8724 259.873 80.0582 260.166 80.2968 260.412C80.5353 260.658 80.8215 260.854 81.138 260.986C81.4544 261.118 81.7944 261.184 82.1373 261.181C82.4859 261.186 82.832 261.12 83.1538 260.985C83.4756 260.851 83.7663 260.652 84.0078 260.401C84.2492 260.149 84.4362 259.85 84.5571 259.523C84.678 259.196 84.7302 258.848 84.7105 258.5V258.488Z" fill="#2D2A26"/>
<path d="M89.6772 250.29H92.5855V254.981C92.9632 254.476 93.458 254.071 94.0272 253.8C94.5964 253.529 95.2229 253.4 95.8528 253.425C98.6055 253.425 99.6228 255.173 99.6228 258.141V264.256H96.7863V258.5C96.7863 256.956 96.3196 256.106 94.9193 256.106C94.5774 256.111 94.2404 256.189 93.9311 256.334C93.6219 256.48 93.3474 256.691 93.1263 256.952C92.9051 257.212 92.7424 257.518 92.6492 257.847C92.5559 258.176 92.5342 258.521 92.5855 258.859V264.256H89.7371L89.6772 250.29Z" fill="#2D2A26"/>
<path d="M102.327 260.834V255.939H100.771V253.641H102.327V251.606L105.164 250.972V253.641H108.144V255.939H105.212V260.798C105.212 261.707 105.666 261.995 106.169 261.995C106.659 261.979 107.133 261.821 107.533 261.54L108.335 263.646C107.538 264.177 106.6 264.456 105.643 264.448C103.476 264.46 102.327 263.239 102.327 260.834Z" fill="#2D2A26"/>
<path d="M144.264 250.481H147.196L153.18 264.233H150.164L149.231 262.042H142.253L141.32 264.233H138.28L144.264 250.481ZM148.297 259.733L146.705 255.807C146.286 254.766 145.76 253.413 145.736 253.342C145.712 253.27 145.185 254.766 144.755 255.807L143.163 259.733H148.297Z" fill="#2D2A26"/>
<path d="M152.426 253.641H155.263L157.237 259.098C157.644 260.199 157.979 261.3 158.027 261.492C158.243 260.701 158.499 259.922 158.793 259.158L160.756 253.677H163.581L159.404 264.304H156.603L152.426 253.641Z" fill="#2D2A26"/>
<path d="M164.179 258.943C164.171 258.218 164.307 257.499 164.58 256.827C164.853 256.156 165.257 255.546 165.769 255.032C166.28 254.519 166.888 254.112 167.559 253.836C168.229 253.56 168.947 253.421 169.672 253.425C170.372 253.444 171.06 253.601 171.699 253.887C172.338 254.173 172.913 254.582 173.393 255.092C173.872 255.602 174.246 256.201 174.493 256.856C174.74 257.51 174.854 258.208 174.83 258.907C174.828 259.247 174.808 259.586 174.771 259.924H167.063C167.218 260.578 167.6 261.155 168.142 261.552C168.684 261.949 169.349 262.14 170.019 262.09C171.032 262.096 172.025 261.809 172.88 261.265L173.945 263.299C172.776 264.08 171.401 264.496 169.995 264.496C169.241 264.546 168.484 264.438 167.774 264.181C167.063 263.923 166.413 263.52 165.867 262.998C165.32 262.476 164.887 261.846 164.597 261.147C164.306 260.449 164.164 259.699 164.179 258.943ZM172.162 258.033C172.08 257.411 171.772 256.841 171.298 256.431C170.824 256.021 170.215 255.799 169.588 255.807C168.968 255.819 168.372 256.048 167.904 256.455C167.436 256.862 167.125 257.421 167.027 258.033H172.162Z" fill="#2D2A26"/>
<path d="M176.709 253.641H179.51V255.675C179.813 254.957 180.334 254.353 181 253.949C181.667 253.545 182.444 253.362 183.22 253.425V256.525C180.755 256.525 179.546 257.65 179.546 260.175V264.256H176.709V253.641Z" fill="#2D2A26"/>
<path d="M184.369 258.943C184.369 255.891 186.236 253.425 189.156 253.425C189.785 253.41 190.409 253.538 190.982 253.799C191.554 254.06 192.059 254.448 192.46 254.933V253.641H195.236V264.256H192.46V262.976C192.059 263.459 191.553 263.845 190.98 264.102C190.408 264.359 189.784 264.482 189.156 264.46C186.236 264.46 184.369 262.006 184.369 258.943ZM192.412 258.943C192.444 258.586 192.404 258.226 192.294 257.885C192.183 257.543 192.004 257.228 191.768 256.959C191.532 256.689 191.243 256.47 190.92 256.315C190.596 256.16 190.245 256.073 189.886 256.058C189.521 256.064 189.16 256.144 188.826 256.294C188.493 256.444 188.193 256.661 187.947 256.931C187.7 257.202 187.511 257.519 187.392 257.865C187.273 258.211 187.226 258.578 187.253 258.943C187.222 259.309 187.267 259.677 187.385 260.025C187.502 260.374 187.691 260.694 187.938 260.965C188.185 261.237 188.486 261.455 188.821 261.606C189.156 261.756 189.519 261.835 189.886 261.839C190.246 261.826 190.6 261.739 190.925 261.584C191.25 261.429 191.54 261.209 191.777 260.938C192.013 260.666 192.192 260.349 192.301 260.006C192.41 259.663 192.448 259.301 192.412 258.943V258.943Z" fill="#2D2A26"/>
<path d="M197.905 266.04L198.958 264.256C199.863 264.89 200.942 265.225 202.046 265.214C202.442 265.25 202.84 265.201 203.216 265.071C203.591 264.941 203.934 264.733 204.223 264.46C204.511 264.187 204.739 263.856 204.89 263.489C205.041 263.122 205.112 262.726 205.098 262.33C205.111 262.254 205.111 262.177 205.098 262.102C204.749 262.617 204.272 263.032 203.714 263.307C203.156 263.582 202.536 263.707 201.915 263.67C201.257 263.672 200.606 263.538 200.002 263.276C199.398 263.015 198.854 262.632 198.405 262.151C197.956 261.671 197.611 261.103 197.391 260.483C197.171 259.863 197.081 259.204 197.127 258.548C197.08 257.89 197.168 257.23 197.387 256.609C197.606 255.987 197.951 255.418 198.401 254.936C198.85 254.454 199.394 254.07 199.999 253.808C200.603 253.546 201.256 253.412 201.915 253.413C202.566 253.38 203.214 253.516 203.797 253.808C204.38 254.099 204.878 254.536 205.242 255.077V253.629H207.935V261.671C208.003 262.43 207.905 263.194 207.648 263.911C207.39 264.628 206.979 265.28 206.444 265.821C205.908 266.363 205.26 266.781 204.546 267.046C203.832 267.311 203.069 267.417 202.31 267.356C200.734 267.432 199.18 266.968 197.905 266.04V266.04ZM205.086 258.488C205.098 258.146 205.039 257.806 204.915 257.487C204.791 257.169 204.604 256.879 204.364 256.635C204.125 256.391 203.838 256.198 203.522 256.068C203.206 255.938 202.867 255.874 202.525 255.879C202.18 255.878 201.838 255.948 201.521 256.084C201.204 256.219 200.917 256.418 200.679 256.667C200.44 256.917 200.255 257.212 200.134 257.535C200.014 257.858 199.96 258.203 199.976 258.548C199.961 258.89 200.016 259.232 200.138 259.553C200.26 259.873 200.446 260.166 200.684 260.412C200.923 260.658 201.209 260.854 201.526 260.986C201.842 261.118 202.182 261.184 202.525 261.181C202.873 261.186 203.219 261.12 203.54 260.985C203.861 260.851 204.151 260.652 204.392 260.4C204.632 260.148 204.818 259.85 204.938 259.522C205.057 259.195 205.108 258.847 205.086 258.5V258.488Z" fill="#2D2A26"/>
<path d="M209.754 258.943C209.746 258.218 209.882 257.499 210.155 256.827C210.428 256.156 210.832 255.546 211.343 255.032C211.855 254.519 212.463 254.112 213.134 253.836C213.804 253.56 214.522 253.421 215.247 253.425C216.65 253.466 217.98 254.06 218.947 255.078C219.913 256.096 220.438 257.456 220.405 258.859C220.403 259.199 220.383 259.538 220.346 259.876H212.638C212.791 260.531 213.173 261.11 213.715 261.507C214.257 261.904 214.924 262.094 215.594 262.042C216.607 262.046 217.6 261.759 218.455 261.217L219.52 263.251C218.349 264.028 216.976 264.444 215.57 264.448C214.82 264.498 214.067 264.391 213.36 264.136C212.653 263.881 212.006 263.483 211.459 262.966C210.913 262.449 210.48 261.825 210.186 261.133C209.893 260.44 209.746 259.695 209.754 258.943ZM217.737 258.033C217.652 257.412 217.344 256.844 216.87 256.434C216.397 256.024 215.79 255.801 215.163 255.807C214.543 255.819 213.947 256.048 213.479 256.455C213.011 256.862 212.7 257.421 212.602 258.033H217.737Z" fill="#2D2A26"/>
<path d="M246.113 250.481H249.081V255.843H254.957V250.481H257.925V264.233H254.957V258.392H249.081V264.233H246.113V250.481Z" fill="#2D2A26"/>
<path d="M260.139 258.943C260.13 258.217 260.265 257.498 260.537 256.825C260.81 256.153 261.214 255.542 261.725 255.028C262.237 254.514 262.846 254.108 263.517 253.833C264.188 253.557 264.907 253.419 265.633 253.425C266.332 253.445 267.02 253.603 267.658 253.89C268.295 254.176 268.87 254.586 269.35 255.095C269.829 255.605 270.203 256.203 270.45 256.857C270.697 257.511 270.813 258.208 270.791 258.907C270.808 259.246 270.808 259.585 270.791 259.924H263.083C263.236 260.579 263.618 261.157 264.16 261.555C264.703 261.952 265.369 262.142 266.04 262.09C267.052 262.094 268.045 261.807 268.9 261.264L269.953 263.299C268.788 264.079 267.418 264.496 266.016 264.496C265.256 264.554 264.493 264.453 263.775 264.199C263.058 263.946 262.401 263.544 261.847 263.021C261.294 262.498 260.856 261.865 260.562 261.163C260.268 260.46 260.124 259.704 260.139 258.943V258.943ZM268.122 258.033C268.038 257.412 267.73 256.844 267.256 256.434C266.782 256.024 266.175 255.801 265.549 255.807C264.929 255.819 264.332 256.048 263.864 256.455C263.396 256.862 263.086 257.421 262.988 258.033H268.122Z" fill="#2D2A26"/>
<path d="M272.287 258.943C272.287 255.891 274.154 253.425 277.074 253.425C277.705 253.409 278.331 253.536 278.906 253.798C279.48 254.059 279.987 254.447 280.39 254.933V253.641H283.166V264.256H280.39V262.976C279.988 263.461 279.48 263.847 278.905 264.104C278.33 264.362 277.704 264.483 277.074 264.46C274.154 264.46 272.287 262.006 272.287 258.943ZM280.33 258.943C280.362 258.585 280.322 258.225 280.212 257.884C280.101 257.543 279.922 257.228 279.686 256.959C279.45 256.689 279.161 256.47 278.838 256.315C278.514 256.16 278.163 256.073 277.804 256.058C277.439 256.064 277.078 256.144 276.744 256.294C276.411 256.444 276.111 256.661 275.865 256.931C275.618 257.202 275.429 257.519 275.31 257.865C275.191 258.211 275.144 258.578 275.171 258.943C275.14 259.309 275.185 259.677 275.302 260.025C275.42 260.373 275.609 260.693 275.856 260.965C276.103 261.237 276.404 261.455 276.739 261.605C277.074 261.756 277.437 261.835 277.804 261.839C278.164 261.826 278.518 261.739 278.843 261.584C279.168 261.429 279.458 261.209 279.695 260.938C279.931 260.666 280.11 260.349 280.219 260.006C280.328 259.663 280.366 259.301 280.33 258.943V258.943Z" fill="#2D2A26"/>
<path d="M284.399 253.641H287.247L289.222 259.098C289.629 260.199 289.964 261.3 290 261.492C290 261.336 290.383 260.199 290.766 259.158L292.741 253.677H295.565L291.388 264.304H288.588L284.399 253.641Z" fill="#2D2A26"/>
<path d="M297.887 264.843C298.34 264.914 298.804 264.826 299.201 264.595C299.598 264.364 299.903 264.004 300.065 263.574L300.304 263.108L295.864 253.701H298.749L300.891 258.667C301.214 259.409 301.597 260.475 301.597 260.475C301.597 260.475 302.04 259.218 302.279 258.608L304.206 253.701H307.054L302.339 264.604C302.008 265.496 301.393 266.256 300.589 266.766C299.785 267.276 298.836 267.509 297.887 267.428V264.843Z" fill="#2D2A26"/>
<path d="M128.239 242.475H231.033" stroke="#2D2A26" stroke-width="2.53" stroke-miterlimit="10"/>
<path d="M231.033 242.475H320.925V258.596" stroke="#2D2A26" stroke-width="2.53" stroke-miterlimit="10"/>
<path d="M128.239 242.475V258.584" stroke="#2D2A26" stroke-width="2.53" stroke-miterlimit="10"/>
<path d="M38.334 258.584V242.475H128.239" stroke="#2D2A26" stroke-width="2.53" stroke-miterlimit="10"/>
<path d="M231.033 242.475V258.596" stroke="#2D2A26" stroke-width="2.53" stroke-miterlimit="10"/>
<path d="M273.831 225.276C299.841 225.276 320.926 204.191 320.926 178.182C320.926 152.172 299.841 131.087 273.831 131.087C247.821 131.087 226.736 152.172 226.736 178.182C226.736 204.191 247.821 225.276 273.831 225.276Z" fill="#DFC98B" stroke="#2D2A26" stroke-width="2.53" stroke-linecap="round" stroke-linejoin="round"/>
<path d="M273.831 210.328C299.841 210.328 320.926 189.243 320.926 163.234C320.926 137.224 299.841 116.139 273.831 116.139C247.821 116.139 226.736 137.224 226.736 163.234C226.736 189.243 247.821 210.328 273.831 210.328Z" fill="#DFC98B" stroke="#2D2A26" stroke-width="2.53" stroke-linecap="round" stroke-linejoin="round"/>
<path d="M273.831 195.368C299.841 195.368 320.926 174.283 320.926 148.273C320.926 122.264 299.841 101.179 273.831 101.179C247.821 101.179 226.736 122.264 226.736 148.273C226.736 174.283 247.821 195.368 273.831 195.368Z" fill="#DFC98B" stroke="#2D2A26" stroke-width="2.53" stroke-linecap="round" stroke-linejoin="round"/>
<path d="M273.831 180.42C299.841 180.42 320.926 159.335 320.926 133.325C320.926 107.315 299.841 86.2305 273.831 86.2305C247.821 86.2305 226.736 107.315 226.736 133.325C226.736 159.335 247.821 180.42 273.831 180.42Z" fill="#DFC98B" stroke="#2D2A26" stroke-width="2.53" stroke-linecap="round" stroke-linejoin="round"/>
<path d="M179.63 225.276C205.639 225.276 226.724 204.191 226.724 178.182C226.724 152.172 205.639 131.087 179.63 131.087C153.62 131.087 132.535 152.172 132.535 178.182C132.535 204.191 153.62 225.276 179.63 225.276Z" fill="#DFC98B" stroke="#2D2A26" stroke-width="2.53" stroke-linecap="round" stroke-linejoin="round"/>
<path d="M179.63 210.328C205.639 210.328 226.724 189.243 226.724 163.234C226.724 137.224 205.639 116.139 179.63 116.139C153.62 116.139 132.535 137.224 132.535 163.234C132.535 189.243 153.62 210.328 179.63 210.328Z" fill="#DFC98B" stroke="#2D2A26" stroke-width="2.53" stroke-linecap="round" stroke-linejoin="round"/>
<path d="M179.63 195.368C205.639 195.368 226.724 174.283 226.724 148.273C226.724 122.264 205.639 101.179 179.63 101.179C153.62 101.179 132.535 122.264 132.535 148.273C132.535 174.283 153.62 195.368 179.63 195.368Z" fill="#DFC98B" stroke="#2D2A26" stroke-width="2.53" stroke-linecap="round" stroke-linejoin="round"/>
<path d="M179.63 180.42C205.639 180.42 226.724 159.335 226.724 133.325C226.724 107.315 205.639 86.2305 179.63 86.2305C153.62 86.2305 132.535 107.315 132.535 133.325C132.535 159.335 153.62 180.42 179.63 180.42Z" fill="#DFC98B" stroke="#2D2A26" stroke-width="2.53" stroke-linecap="round" stroke-linejoin="round"/>
<path d="M273.831 165.471C299.841 165.471 320.926 144.386 320.926 118.377C320.926 92.3672 299.841 71.2822 273.831 71.2822C247.821 71.2822 226.736 92.3672 226.736 118.377C226.736 144.386 247.821 165.471 273.831 165.471Z" fill="#DFC98B" stroke="#2D2A26" stroke-width="2.53" stroke-linecap="round" stroke-linejoin="round"/>
<path d="M85.4403 221.841C111.45 221.841 132.535 200.756 132.535 174.747C132.535 148.737 111.45 127.652 85.4403 127.652C59.4307 127.652 38.3457 148.737 38.3457 174.747C38.3457 200.756 59.4307 221.841 85.4403 221.841Z" fill="#DFC98B" stroke="#2D2A26" stroke-width="2.53" stroke-linecap="round" stroke-linejoin="round"/>
<path d="M85.4403 206.893C111.45 206.893 132.535 185.808 132.535 159.798C132.535 133.789 111.45 112.704 85.4403 112.704C59.4307 112.704 38.3457 133.789 38.3457 159.798C38.3457 185.808 59.4307 206.893 85.4403 206.893Z" fill="#DFC98B" stroke="#2D2A26" stroke-width="2.53" stroke-linecap="round" stroke-linejoin="round"/>
<path d="M155.598 141.236L157.321 138.447C158.636 139.518 160.294 140.075 161.989 140.015C164.538 140.015 166.261 138.747 166.261 136.748C166.261 135.204 164.837 133.923 162.384 133.923C161.406 133.892 160.44 134.137 159.595 134.63L158.231 132.236L164.215 127.209H156.627V123.619H169.421V127.102L164.753 131.195C165.29 131.233 165.82 131.333 166.333 131.494C167.544 131.79 168.619 132.489 169.38 133.476C170.141 134.464 170.544 135.681 170.522 136.927C170.522 141.38 166.812 143.558 162.396 143.558C159.919 143.664 157.492 142.835 155.598 141.236V141.236Z" fill="#2D2A26"/>
<path d="M172.772 134.115H185.542V137.358H172.772V134.115Z" fill="#2D2A26"/>
<path d="M197.283 139.441H188.043V136.688L195.404 122.985L198.803 124.684L192.819 135.838H197.307V131.566H201.22V135.838H203.554V139.429H201.22V143.223H197.307L197.283 139.441Z" fill="#2D2A26"/>
<path d="M257.746 126.013L259.301 123.008C260.653 123.978 262.27 124.509 263.933 124.528C266.662 124.528 267.93 123.009 267.93 121.369C267.93 119.274 266.028 118.245 263.598 118.245C262.336 118.278 261.103 118.623 260.008 119.251L258.524 117.886V108.06H271.042V111.651H262.581V115.241C263.33 115.015 264.108 114.902 264.891 114.906C268.792 114.906 272.167 117.036 272.167 121.13C272.167 125.223 268.888 127.975 264.065 127.975C261.796 128.06 259.567 127.367 257.746 126.013V126.013Z" fill="#2D2A26"/>
<path d="M280.832 120.83H275.53V117.551H280.832V112.309H284.423V117.551H289.76V120.83H284.423V126.013H280.832V120.83Z" fill="#2D2A26"/>
<path d="M67.7397 155.574L63.491 158.327L61.6719 155.478L68.1586 150.32H71.749V169.972H67.6918L67.7397 155.574Z" fill="#2D2A26"/>
<path d="M76.1055 160.84H88.8755V164.083H76.1055V160.84Z" fill="#2D2A26"/>
<path d="M91.1733 167.362C97.8157 162.001 100.844 158.877 100.844 156.328C100.855 155.958 100.786 155.59 100.642 155.25C100.498 154.909 100.283 154.603 100.01 154.353C99.7378 154.104 99.4145 153.915 99.0626 153.802C98.7108 153.688 98.3385 153.652 97.9712 153.695C96.2929 153.815 94.7172 154.548 93.543 155.753L91.4845 153.084C92.3499 152.132 93.4024 151.369 94.5761 150.841C95.7499 150.314 97.0197 150.035 98.3063 150.021C102.028 150.021 105.128 152.079 105.128 156.005C105.128 159.93 101.358 163.664 97.7319 166.393H105.751V169.983H91.1973L91.1733 167.362Z" fill="#2D2A26"/>
<path d="M40.1653 31.4644H48.1241C53.5816 31.4644 56.4419 34.6598 56.4419 38.6452C56.4489 39.856 56.1248 41.0457 55.5047 42.0856C54.8845 43.1255 53.9919 43.9761 52.9233 44.5455L56.789 50.003H52.1813L49.3209 45.6585C48.8029 45.7479 48.2787 45.7959 47.7531 45.8022H44.1627V50.003H40.1533L40.1653 31.4644ZM48.2318 42.3554C48.7397 42.3829 49.248 42.3073 49.7259 42.1332C50.2038 41.959 50.6416 41.69 51.0128 41.3423C51.3841 40.9945 51.6811 40.5752 51.886 40.1097C52.0909 39.6441 52.1995 39.1419 52.2052 38.6333C52.2075 38.1233 52.1058 37.6182 51.9066 37.1487C51.7073 36.6793 51.4146 36.2553 51.0462 35.9026C50.6778 35.5499 50.2415 35.2759 49.7638 35.0972C49.2862 34.9185 48.7771 34.8389 48.2677 34.8633H44.1746V42.3554H48.2318Z" fill="#DFC98B"/>
<path d="M59.0748 42.822C59.0621 41.8449 59.2443 40.8752 59.6109 39.9694C59.9775 39.0636 60.521 38.24 61.2098 37.5468C61.8985 36.8536 62.7186 36.3047 63.622 35.9323C64.5254 35.5599 65.494 35.3714 66.4711 35.3778C68.3717 35.4373 70.1711 36.2481 71.4746 37.6324C72.7782 39.0167 73.4794 40.8615 73.4246 42.7622C73.4208 43.2221 73.3928 43.6815 73.3409 44.1385H62.9645C63.1704 45.0179 63.6843 45.7945 64.4131 46.3279C65.1418 46.8613 66.0375 47.1163 66.9379 47.0468C68.3032 47.0568 69.642 46.6701 70.7917 45.9337L72.2278 48.6864C70.6439 49.7184 68.7924 50.2634 66.902 50.2543C62.6653 50.2543 59.0748 47.5375 59.0748 42.822ZM69.8462 41.6252C69.7377 40.7877 69.3256 40.0192 68.688 39.4654C68.0505 38.9117 67.2318 38.6113 66.3874 38.6212C65.5512 38.6407 64.7481 38.9515 64.1166 39.4999C63.4852 40.0484 63.065 40.8 62.9286 41.6252H69.8462Z" fill="#DFC98B"/>
<path d="M75.9258 42.822C75.9319 41.83 76.1351 40.8491 76.5233 39.9362C76.9116 39.0233 77.4774 38.1965 78.1877 37.504C78.898 36.8115 79.7389 36.2669 80.6614 35.902C81.5838 35.537 82.5696 35.3588 83.5615 35.3778C85.4317 35.3635 87.2465 36.0123 88.6838 37.209L86.362 39.9018C85.6123 39.2456 84.641 38.899 83.6452 38.9324C83.133 38.917 82.6232 39.0076 82.1476 39.1984C81.672 39.3892 81.241 39.6762 80.8815 40.0414C80.5219 40.4065 80.2417 40.842 80.0582 41.3205C79.8748 41.7989 79.7921 42.3101 79.8154 42.822C79.7928 43.344 79.8799 43.8649 80.0712 44.3511C80.2624 44.8373 80.5536 45.2779 80.9258 45.6445C81.2981 46.0111 81.7431 46.2955 82.2321 46.4793C82.7212 46.6632 83.2434 46.7423 83.7649 46.7117C84.9148 46.7128 86.0239 46.2862 86.8767 45.5149L88.9112 48.3753C87.4018 49.6038 85.5074 50.2607 83.5615 50.2303C82.5722 50.2509 81.5886 50.0751 80.6677 49.7129C79.7469 49.3507 78.9071 48.8094 78.1969 48.1204C77.4867 47.4314 76.9203 46.6083 76.5304 45.6988C76.1406 44.7893 75.9351 43.8115 75.9258 42.822Z" fill="#DFC98B"/>
<path d="M90.5029 42.8221C90.5091 41.83 90.7122 40.8491 91.1005 39.9362C91.4888 39.0233 92.0545 38.1966 92.7649 37.5041C93.4752 36.8115 94.316 36.267 95.2385 35.902C96.1609 35.537 97.1467 35.3589 98.1386 35.3779C99.1335 35.354 100.123 35.5286 101.05 35.8914C101.976 36.2542 102.821 36.798 103.536 37.491C104.25 38.1841 104.819 39.0124 105.209 39.9277C105.6 40.843 105.804 41.8269 105.81 42.8221C105.802 43.8162 105.597 44.7989 105.206 45.7128C104.815 46.6267 104.245 47.4536 103.531 48.1453C102.817 48.8371 101.973 49.3798 101.047 49.7419C100.121 50.104 99.1325 50.2782 98.1386 50.2543C97.1473 50.275 96.1618 50.0983 95.2394 49.7346C94.317 49.371 93.4761 48.8275 92.7655 48.136C92.055 47.4444 91.4891 46.6185 91.1007 45.7062C90.7122 44.794 90.5091 43.8136 90.5029 42.8221ZM101.885 42.8221C101.907 42.3173 101.827 41.8133 101.649 41.3406C101.47 40.8678 101.198 40.4364 100.847 40.0725C100.497 39.7086 100.076 39.4198 99.6102 39.2238C99.1445 39.0278 98.6438 38.9287 98.1386 38.9324C97.6334 38.9287 97.1327 39.0278 96.667 39.2238C96.2013 39.4198 95.7804 39.7086 95.4299 40.0725C95.0794 40.4364 94.8067 40.8678 94.6284 41.3406C94.45 41.8133 94.3698 42.3173 94.3926 42.8221C94.3681 43.3272 94.4471 43.8321 94.6248 44.3056C94.8025 44.7791 95.0752 45.2112 95.426 45.5755C95.7768 45.9398 96.1984 46.2285 96.6649 46.4239C97.1314 46.6193 97.6329 46.7172 98.1386 46.7117C98.6443 46.7172 99.1458 46.6193 99.6123 46.4239C100.079 46.2285 100.5 45.9398 100.851 45.5755C101.202 45.2112 101.475 44.7791 101.652 44.3056C101.83 43.8321 101.909 43.3272 101.885 42.8221V42.8221Z" fill="#DFC98B"/>
<path d="M108.994 35.665H112.74V37.5798C113.216 36.9016 113.849 36.3477 114.584 35.9645C115.319 35.5813 116.135 35.3801 116.964 35.3777C117.872 35.2947 118.783 35.4953 119.572 35.9519C120.361 36.4084 120.989 37.0985 121.369 37.9269C121.868 37.1481 122.555 36.5067 123.366 36.0615C124.177 35.6162 125.087 35.3811 126.012 35.3777C130.034 35.3777 131.302 38.1543 131.302 41.8166V49.9669H127.461V42.3073C127.461 40.4163 127.006 39.016 124.971 39.016C122.937 39.016 122.063 40.536 122.063 42.415V49.9669H118.233V42.3073C118.233 40.4163 117.802 39.016 115.744 39.016C113.685 39.016 112.823 40.6676 112.823 42.6065V50.0147H108.994V35.665Z" fill="#DFC98B"/>
<path d="M135.048 35.665H138.794V37.5798C139.273 36.9007 139.907 36.3463 140.645 35.9631C141.382 35.5799 142.2 35.3792 143.031 35.3777C143.938 35.2964 144.849 35.4978 145.637 35.9542C146.426 36.4106 147.054 37.0996 147.435 37.9269C147.934 37.1498 148.619 36.5096 149.428 36.0644C150.236 35.6192 151.144 35.3831 152.067 35.3777C156.1 35.3777 157.357 38.1543 157.357 41.8166V49.9669H153.527V42.3073C153.527 40.4163 153.06 39.016 151.038 39.016C149.015 39.016 148.118 40.536 148.118 42.415V49.9669H144.288V42.3073C144.288 40.4163 143.857 39.016 141.798 39.016C139.74 39.016 138.878 40.6676 138.878 42.6065V50.0148H135.048V35.665Z" fill="#DFC98B"/>
<path d="M160.409 42.8219C160.396 41.8438 160.579 40.873 160.946 39.9664C161.313 39.0598 161.858 38.2357 162.548 37.5423C163.238 36.849 164.059 36.3004 164.964 35.9287C165.869 35.557 166.839 35.3696 167.817 35.3777C169.716 35.4402 171.512 36.2524 172.813 37.6364C174.114 39.0203 174.813 40.8634 174.759 42.762C174.755 43.222 174.727 43.6814 174.675 44.1384H164.298C164.504 45.0177 165.018 45.7943 165.747 46.3277C166.476 46.8611 167.371 47.1161 168.272 47.0466C169.641 47.0562 170.983 46.6697 172.138 45.9336L173.562 48.6863C171.981 49.716 170.134 50.261 168.248 50.2541C164.071 50.2541 160.409 47.5373 160.409 42.8219ZM171.18 41.6251C171.072 40.7876 170.66 40.019 170.022 39.4653C169.384 38.9115 168.566 38.6112 167.721 38.6211C166.885 38.6406 166.082 38.9513 165.451 39.4998C164.819 40.0482 164.399 40.7999 164.263 41.6251H171.18Z" fill="#DFC98B"/>
<path d="M178.002 35.6651H181.748V37.58C182.262 36.8711 182.942 36.2994 183.729 35.9154C184.516 35.5313 185.385 35.3467 186.26 35.3779C190.042 35.3779 191.358 37.7715 191.358 41.733V49.9671H187.529V42.2356C187.529 40.1412 186.978 39.0282 185.039 39.0282C183.1 39.0282 181.832 40.5721 181.832 42.7503V49.9311H178.002V35.6651Z" fill="#DFC98B"/>
<path d="M194.482 42.822C194.482 38.705 197.056 35.3778 201.005 35.3778C201.819 35.3623 202.627 35.5233 203.373 35.8498C204.118 36.1762 204.785 36.6603 205.326 37.2688V31.1531H209.155V49.967H205.565V48.2197C205.003 48.8758 204.3 49.3964 203.508 49.7425C202.716 50.0886 201.856 50.2513 200.993 50.2183C196.996 50.2543 194.482 46.939 194.482 42.822ZM205.326 42.822C205.366 42.3407 205.31 41.8562 205.159 41.3974C205.008 40.9385 204.766 40.5148 204.447 40.1517C204.129 39.7885 203.741 39.4934 203.305 39.2839C202.87 39.0744 202.397 38.9548 201.915 38.9324C201.417 38.9306 200.924 39.0324 200.468 39.2313C200.011 39.4301 199.602 39.7217 199.264 40.0875C198.926 40.4532 198.668 40.8852 198.507 41.356C198.345 41.8267 198.283 42.326 198.324 42.822C198.283 43.3181 198.345 43.8173 198.507 44.2881C198.668 44.7588 198.926 45.1908 199.264 45.5566C199.602 45.9224 200.011 46.2139 200.468 46.4127C200.924 46.6116 201.417 46.7134 201.915 46.7117C202.397 46.6892 202.87 46.5697 203.305 46.3602C203.741 46.1507 204.129 45.8555 204.447 45.4923C204.766 45.1292 205.008 44.7055 205.159 44.2467C205.31 43.7879 205.366 43.3033 205.326 42.822Z" fill="#DFC98B"/>
<path d="M212.375 42.8219C212.362 41.8438 212.545 40.873 212.912 39.9664C213.279 39.0598 213.824 38.2357 214.514 37.5423C215.204 36.849 216.025 36.3004 216.93 35.9287C217.835 35.557 218.805 35.3696 219.783 35.3777C221.681 35.4402 223.478 36.2524 224.779 37.6364C226.08 39.0203 226.779 40.8634 226.724 42.762C226.721 43.222 226.693 43.6814 226.641 44.1384H216.264C216.47 45.0177 216.984 45.7943 217.713 46.3277C218.442 46.8611 219.337 47.1161 220.238 47.0466C221.607 47.0562 222.949 46.6697 224.103 45.9336L225.528 48.6863C223.947 49.716 222.1 50.261 220.214 50.2541C216.037 50.2541 212.375 47.5373 212.375 42.8219ZM223.146 41.6251C223.038 40.7876 222.625 40.019 221.988 39.4653C221.35 38.9115 220.532 38.6112 219.687 38.6211C218.851 38.6406 218.048 38.9513 217.416 39.4998C216.785 40.0482 216.365 40.7999 216.228 41.6251H223.146Z" fill="#DFC98B"/>
<path d="M229.345 42.822C229.345 38.705 231.918 35.3778 235.856 35.3778C236.67 35.3607 237.478 35.521 238.224 35.8475C238.97 36.1741 239.637 36.6591 240.176 37.2688V31.1531H244.006V49.967H240.416V48.2197C239.854 48.8758 239.15 49.3964 238.359 49.7425C237.567 50.0886 236.707 50.2513 235.844 50.2183C231.859 50.2543 229.345 46.939 229.345 42.822ZM240.176 42.822C240.217 42.3417 240.161 41.8581 240.011 41.4C239.86 40.942 239.62 40.5188 239.302 40.1558C238.985 39.7928 238.598 39.4974 238.164 39.2872C237.731 39.077 237.259 38.9563 236.777 38.9324C236.28 38.9306 235.787 39.0324 235.331 39.2313C234.874 39.4301 234.464 39.7217 234.127 40.0875C233.789 40.4532 233.531 40.8852 233.369 41.356C233.208 41.8267 233.146 42.326 233.187 42.822C233.146 43.3181 233.208 43.8173 233.369 44.2881C233.531 44.7588 233.789 45.1908 234.127 45.5566C234.464 45.9224 234.874 46.2139 235.331 46.4127C235.787 46.6116 236.28 46.7134 236.777 46.7117C237.259 46.6877 237.731 46.567 238.164 46.3568C238.598 46.1466 238.985 45.8512 239.302 45.4882C239.62 45.1252 239.86 44.7021 240.011 44.244C240.161 43.786 240.217 43.3023 240.176 42.822V42.822Z" fill="#DFC98B"/>
<path d="M254.742 31.4644H262.174C268.266 31.4644 272.095 35.6652 272.095 40.7277C272.095 45.7902 268.266 49.991 262.174 49.991H254.742V31.4644ZM262.006 46.5562C262.786 46.5987 263.565 46.4776 264.295 46.2005C265.025 45.9235 265.688 45.4967 266.243 44.9476C266.798 44.3985 267.231 43.7394 267.516 43.0126C267.8 42.2858 267.929 41.5074 267.895 40.7277C267.927 39.9479 267.797 39.1699 267.512 38.4434C267.227 37.7168 266.793 37.0577 266.239 36.5081C265.685 35.9585 265.023 35.5305 264.294 35.2514C263.565 34.9723 262.786 34.8483 262.006 34.8872H258.751V46.5562H262.006Z" fill="#DFC98B"/>
<path d="M274.812 42.822C274.819 41.83 275.022 40.8491 275.41 39.9362C275.798 39.0233 276.364 38.1965 277.074 37.504C277.785 36.8115 278.626 36.267 279.548 35.902C280.471 35.537 281.456 35.3588 282.448 35.3779C283.442 35.3556 284.43 35.5314 285.356 35.8949C286.281 36.2585 287.125 36.8025 287.837 37.4954C288.55 38.1882 289.118 39.016 289.508 39.9305C289.898 40.845 290.102 41.8279 290.108 42.822C290.1 43.8151 289.895 44.7968 289.505 45.7099C289.114 46.623 288.546 47.4494 287.833 48.141C287.12 48.8325 286.277 49.3755 285.353 49.7383C284.428 50.1011 283.441 50.2765 282.448 50.2543C281.457 50.2749 280.471 50.0983 279.549 49.7346C278.627 49.371 277.786 48.8275 277.075 48.1359C276.365 47.4444 275.799 46.6184 275.41 45.7062C275.022 44.7939 274.819 43.8135 274.812 42.822V42.822ZM286.194 42.822C286.217 42.3173 286.137 41.8132 285.958 41.3405C285.78 40.8678 285.507 40.4364 285.157 40.0724C284.806 39.7085 284.385 39.4198 283.92 39.2238C283.454 39.0278 282.953 38.9286 282.448 38.9324C281.943 38.9286 281.442 39.0278 280.977 39.2238C280.511 39.4198 280.09 39.7085 279.74 40.0724C279.389 40.4364 279.116 40.8678 278.938 41.3405C278.76 41.8132 278.679 42.3173 278.702 42.822C278.678 43.3272 278.757 43.832 278.934 44.3055C279.112 44.779 279.385 45.2112 279.736 45.5755C280.086 45.9397 280.508 46.2284 280.974 46.4238C281.441 46.6192 281.942 46.7172 282.448 46.7117C282.954 46.7172 283.455 46.6192 283.922 46.4238C284.388 46.2284 284.81 45.9397 285.161 45.5755C285.512 45.2112 285.784 44.779 285.962 44.3055C286.14 43.832 286.219 43.3272 286.194 42.822V42.822Z" fill="#DFC98B"/>
<path d="M292.262 48.3153L293.638 45.3591C294.898 46.3713 296.474 46.9092 298.09 46.8791C298.988 46.8791 300.484 46.532 300.484 45.6823C300.484 44.8326 299.287 44.6171 298.09 44.282C295.254 43.528 292.944 42.5945 292.944 39.8419C292.944 37.0892 295.804 35.3777 298.485 35.3777C300.362 35.3334 302.211 35.8321 303.811 36.8139L302.518 39.6743C301.258 39.0147 299.86 38.6621 298.437 38.645C297.552 38.645 296.726 39.0519 296.726 39.6504C296.726 40.4522 297.923 40.7035 299.239 40.9908C301.633 41.5653 304.326 42.6185 304.326 45.5387C304.326 49.0573 300.735 50.2302 298.09 50.2302C295.979 50.3196 293.908 49.6391 292.262 48.3153V48.3153Z" fill="#DFC98B"/>
<path d="M306.672 42.8219C306.659 41.8438 306.841 40.873 307.209 39.9664C307.576 39.0598 308.121 38.2357 308.811 37.5423C309.501 36.849 310.322 36.3004 311.227 35.9287C312.132 35.557 313.102 35.3696 314.08 35.3777C315.978 35.4402 317.775 36.2524 319.076 37.6364C320.377 39.0203 321.076 40.8634 321.021 42.762C321.017 43.222 320.989 43.6814 320.938 44.1384H310.561C310.767 45.0177 311.281 45.7943 312.01 46.3277C312.739 46.8611 313.634 47.1161 314.535 47.0466C315.9 47.0566 317.239 46.67 318.388 45.9336L319.824 48.6863C318.241 49.7182 316.389 50.2633 314.499 50.2541C310.334 50.2541 306.672 47.5373 306.672 42.8219ZM317.443 41.6251C317.329 40.794 316.917 40.0329 316.282 39.4843C315.648 38.9357 314.835 38.6373 313.996 38.645C313.16 38.6645 312.357 38.9753 311.725 39.5237C311.094 40.0721 310.674 40.8238 310.537 41.649L317.443 41.6251Z" fill="#DFC98B"/>
<path d="M356.267 2.99203V296.606H2.99203V2.99203H356.267ZM359.26 0H0V299.551H359.26V0Z" fill="#DFC98B"/>
<path d="M359.26 299.598H0V449.99H359.26V299.598Z" fill="#DFC98B"/>
<path d="M32.9126 326.024H43.265V327.592H34.6839V331.972H41.8647V333.504H34.6839V340.457H32.9126V326.024Z" fill="white"/>
<path d="M45.4789 326.563C45.4691 326.41 45.4905 326.257 45.5419 326.113C45.5933 325.969 45.6736 325.837 45.7777 325.725C45.8819 325.613 46.0078 325.523 46.1478 325.461C46.2878 325.4 46.4389 325.367 46.5919 325.366C46.8967 325.384 47.1829 325.518 47.3921 325.741C47.6012 325.963 47.7174 326.257 47.7169 326.563C47.7169 326.71 47.6877 326.855 47.631 326.991C47.5743 327.127 47.4913 327.25 47.3866 327.354C47.282 327.457 47.1579 327.539 47.0215 327.594C46.8851 327.65 46.7391 327.677 46.5919 327.676C46.4453 327.677 46.2998 327.649 46.164 327.594C46.0283 327.539 45.9049 327.457 45.8013 327.353C45.6976 327.249 45.6157 327.126 45.5603 326.99C45.5049 326.855 45.4773 326.709 45.4789 326.563V326.563ZM45.7421 329.614H47.4296V340.458H45.7421V329.614Z" fill="white"/>
<path d="M51.3076 342.121L52.0138 341.032C52.9303 341.911 54.1547 342.397 55.4247 342.385C57.2678 342.385 59.3622 341.26 59.3622 338.052V337.693C58.9877 338.426 58.4021 339.03 57.681 339.427C56.96 339.823 56.1365 339.995 55.3169 339.919C54.6332 339.926 53.9553 339.794 53.3245 339.53C52.6937 339.266 52.1233 338.877 51.6483 338.385C51.1733 337.893 50.8037 337.31 50.5619 336.67C50.3202 336.03 50.2115 335.348 50.2425 334.665C50.2116 333.981 50.3202 333.298 50.5617 332.657C50.8032 332.016 51.1725 331.431 51.6471 330.937C52.1218 330.444 52.6919 330.052 53.3228 329.785C53.9537 329.519 54.6321 329.383 55.3169 329.387C56.1418 329.323 56.9679 329.496 57.6975 329.886C58.4271 330.276 59.0297 330.867 59.434 331.589V329.615H61.0617V337.992C61.1296 338.742 61.0355 339.498 60.7859 340.208C60.5362 340.918 60.1369 341.567 59.6148 342.109C59.0927 342.652 58.4602 343.076 57.76 343.352C57.0597 343.629 56.3082 343.752 55.5563 343.713C54.7779 343.743 54.0013 343.618 53.2718 343.345C52.5423 343.071 51.8746 342.655 51.3076 342.121V342.121ZM59.3622 334.533C59.3624 334.052 59.2658 333.575 59.0779 333.131C58.89 332.688 58.6148 332.286 58.2686 331.951C57.9224 331.616 57.5124 331.354 57.0629 331.181C56.6133 331.008 56.1336 330.927 55.6521 330.943C55.162 330.941 54.6765 331.038 54.2244 331.227C53.7723 331.416 53.3628 331.695 53.0202 332.045C52.6776 332.395 52.4088 332.811 52.2297 333.267C52.0507 333.724 51.965 334.211 51.9779 334.701C51.9564 335.193 52.0362 335.683 52.2123 336.143C52.3884 336.602 52.657 337.021 53.0016 337.372C53.3461 337.723 53.7592 338 54.2151 338.185C54.6711 338.37 55.1602 338.459 55.6521 338.447C56.1579 338.451 56.6592 338.351 57.1247 338.154C57.5903 337.956 58.0102 337.664 58.3582 337.297C58.7062 336.93 58.9749 336.495 59.1477 336.02C59.3204 335.544 59.3934 335.038 59.3622 334.533V334.533Z" fill="white"/>
<path d="M64.3887 336.377V329.615H66.0762V336.161C66.0762 338.184 67.0576 339.033 68.8169 339.033C69.239 339.032 69.6565 338.946 70.044 338.778C70.4315 338.611 70.7808 338.366 71.0708 338.059C71.3608 337.752 71.5852 337.39 71.7307 336.994C71.8761 336.597 71.9394 336.176 71.9166 335.754V329.615H73.6041V340.458H71.9765V338.543C71.6283 339.191 71.11 339.731 70.4773 340.107C69.8447 340.482 69.1216 340.678 68.386 340.673C65.6573 340.673 64.3887 339.273 64.3887 336.377Z" fill="white"/>
<path d="M77.0269 329.614H78.7144V331.864C79.0761 331.071 79.6702 330.406 80.4182 329.957C81.1661 329.508 82.0327 329.297 82.9032 329.351V331.206C82.3488 331.146 81.7881 331.21 81.2609 331.391C80.7337 331.573 80.253 331.868 79.8531 332.257C79.4531 332.645 79.1437 333.117 78.9469 333.639C78.7501 334.161 78.6707 334.719 78.7144 335.275V340.422H77.0269V329.614Z" fill="white"/>
<path d="M84.4949 335.048C84.4742 334.316 84.5997 333.587 84.8641 332.905C85.1284 332.222 85.5264 331.599 86.0346 331.071C86.5428 330.544 87.1511 330.124 87.8238 329.835C88.4965 329.545 89.2201 329.393 89.9523 329.387C90.6603 329.412 91.3563 329.576 92.0005 329.871C92.6447 330.165 93.2242 330.585 93.7058 331.104C94.1874 331.623 94.5616 332.233 94.8068 332.898C95.052 333.562 95.1634 334.269 95.1346 334.976C95.1346 335.287 95.1346 335.623 95.1346 335.647H86.2901C86.3835 336.623 86.8423 337.528 87.5747 338.181C88.3071 338.833 89.2589 339.185 90.2396 339.165C91.4559 339.155 92.6327 338.733 93.5787 337.968L94.3088 339.165C93.1438 340.087 91.7015 340.589 90.2156 340.589C89.4713 340.62 88.7285 340.499 88.0323 340.234C87.3361 339.969 86.7011 339.565 86.166 339.047C85.6309 338.528 85.2068 337.906 84.9195 337.219C84.6322 336.532 84.4877 335.793 84.4949 335.048V335.048ZM93.471 334.354C93.4339 333.427 93.0393 332.55 92.3699 331.907C91.7006 331.265 90.8084 330.906 89.8805 330.907C88.9613 330.935 88.085 331.302 87.4216 331.939C86.7582 332.576 86.355 333.437 86.2901 334.354H93.471Z" fill="white"/>
<path d="M102.866 333.241C102.866 328.896 105.116 325.809 108.3 325.809C111.483 325.809 113.709 328.896 113.709 333.241C113.709 337.585 111.459 340.673 108.3 340.673C105.14 340.673 102.866 337.585 102.866 333.241ZM111.878 333.241C111.878 329.818 110.478 327.364 108.288 327.364C106.098 327.364 104.697 329.758 104.697 333.241C104.697 336.724 106.122 339.117 108.288 339.117C110.454 339.117 111.878 336.652 111.878 333.241V333.241Z" fill="white"/>
<path d="M120.028 328.274L116.869 330.548L116.067 329.351L120.232 326.024H121.728V340.457H120.028V328.274Z" fill="white"/>
<path d="M125.929 339.5C125.929 339.183 126.055 338.878 126.279 338.654C126.504 338.43 126.808 338.303 127.126 338.303C127.443 338.303 127.747 338.43 127.972 338.654C128.196 338.878 128.322 339.183 128.322 339.5C128.322 339.818 128.196 340.122 127.972 340.347C127.747 340.571 127.443 340.697 127.126 340.697C126.808 340.697 126.504 340.571 126.279 340.347C126.055 340.122 125.929 339.818 125.929 339.5Z" fill="white"/>
<path d="M32.2663 364.765C32.2611 363.699 32.47 362.644 32.8805 361.66C33.2909 360.677 33.8947 359.786 34.6559 359.041C35.4171 358.295 36.3203 357.71 37.3119 357.32C38.3035 356.93 39.3634 356.743 40.4286 356.77C41.4943 356.743 42.5547 356.93 43.5469 357.32C44.5392 357.71 45.4431 358.294 46.2053 359.04C46.9675 359.785 47.5724 360.676 47.9842 361.659C48.396 362.643 48.6063 363.699 48.6028 364.765C48.608 365.831 48.3988 366.888 47.9875 367.872C47.5763 368.856 46.9715 369.748 46.209 370.494C45.4465 371.239 44.5418 371.824 43.5488 372.213C42.5558 372.603 41.4947 372.788 40.4286 372.76C39.3629 372.789 38.3024 372.603 37.31 372.213C36.3177 371.824 35.4138 371.239 34.6523 370.493C33.8907 369.747 33.287 368.855 32.8771 367.871C32.4672 366.887 32.2595 365.831 32.2663 364.765ZM45.7065 364.765C45.7272 364.059 45.6071 363.355 45.3532 362.696C45.0994 362.036 44.7168 361.434 44.2278 360.924C43.7388 360.413 43.1531 360.006 42.505 359.724C41.8568 359.442 41.1591 359.293 40.4525 359.283C39.7433 359.29 39.0424 359.437 38.3909 359.717C37.7393 359.997 37.15 360.404 36.6575 360.914C36.165 361.425 35.7792 362.028 35.5225 362.689C35.2658 363.35 35.1434 364.056 35.1625 364.765C35.1434 365.474 35.2658 366.179 35.5225 366.841C35.7792 367.502 36.165 368.105 36.6575 368.615C37.15 369.126 37.7393 369.533 38.3909 369.813C39.0424 370.093 39.7433 370.24 40.4525 370.246C41.1591 370.237 41.8568 370.087 42.505 369.806C43.1531 369.524 43.7388 369.116 44.2278 368.606C44.7168 368.096 45.0994 367.494 45.3532 366.834C45.6071 366.175 45.7272 365.471 45.7065 364.765Z" fill="white"/>
<path d="M51.5825 367.877V360.696H54.2873V367.518C54.2873 369.409 55.1251 370.222 56.7767 370.222C57.1797 370.211 57.5761 370.117 57.941 369.946C58.3058 369.774 58.6311 369.529 58.8964 369.225C59.1617 368.922 59.3613 368.566 59.4826 368.182C59.6039 367.797 59.6443 367.392 59.6012 366.991V360.696H62.2581V372.556H59.7448V370.737C59.3345 371.372 58.7707 371.894 58.1055 372.254C57.4403 372.614 56.6952 372.8 55.9389 372.796C52.7554 372.76 51.5825 370.988 51.5825 367.877Z" fill="white"/>
<path d="M65.645 360.672H68.3019V363.065C68.6537 362.239 69.257 361.544 70.0262 361.08C70.7954 360.616 71.6913 360.406 72.5866 360.48V363.377C69.9775 363.377 68.3019 364.573 68.3019 367.733V372.52H65.645V360.672Z" fill="white"/>
<path d="M80.6772 360.672H83.2145V362.156C83.7289 361.593 84.3587 361.147 85.061 360.85C85.7632 360.553 86.5214 360.41 87.2837 360.432C90.539 360.432 92.7651 363.185 92.7651 366.584C92.7651 369.983 90.539 372.76 87.2837 372.76C86.5376 372.775 85.7972 372.627 85.1148 372.325C84.4324 372.023 83.8245 371.575 83.3342 371.012V375.943H80.6772V360.672ZM90.0603 366.584C90.0867 366.118 90.0166 365.651 89.8546 365.213C89.6926 364.775 89.4421 364.375 89.1187 364.038C88.7953 363.701 88.4059 363.435 87.9749 363.255C87.5439 363.075 87.0804 362.986 86.6135 362.994C86.1581 363.001 85.7088 363.1 85.2935 363.287C84.8781 363.474 84.5054 363.744 84.1983 364.081C83.8911 364.417 83.656 364.812 83.5074 365.243C83.3588 365.673 83.2998 366.13 83.3342 366.584C83.3033 367.038 83.3647 367.492 83.5146 367.922C83.6645 368.351 83.8998 368.745 84.2063 369.08C84.5128 369.416 84.8841 369.686 85.2978 369.874C85.7115 370.062 86.1591 370.164 86.6135 370.175C87.081 370.18 87.5447 370.09 87.9757 369.909C88.4068 369.727 88.796 369.46 89.1193 369.122C89.4425 368.784 89.6928 368.383 89.8547 367.945C90.0166 367.506 90.0866 367.039 90.0603 366.572V366.584Z" fill="white"/>
<path d="M95.6973 360.672H98.3542V363.065C98.7059 362.239 99.3093 361.544 100.078 361.08C100.848 360.616 101.744 360.406 102.639 360.48V363.377C100.03 363.377 98.3542 364.573 98.3542 367.733V372.52H95.6973V360.672Z" fill="white"/>
<path d="M104.35 366.572C104.353 365.752 104.519 364.94 104.838 364.185C105.157 363.429 105.623 362.744 106.208 362.17C106.794 361.595 107.487 361.143 108.249 360.838C109.011 360.534 109.825 360.384 110.645 360.396C111.465 360.384 112.28 360.534 113.042 360.838C113.803 361.143 114.497 361.595 115.083 362.17C115.668 362.744 116.134 363.429 116.453 364.185C116.772 364.94 116.938 365.752 116.941 366.572C116.934 367.39 116.766 368.199 116.446 368.952C116.126 369.705 115.659 370.387 115.074 370.959C114.489 371.531 113.796 371.981 113.036 372.284C112.276 372.587 111.463 372.736 110.645 372.724C109.827 372.736 109.015 372.587 108.255 372.284C107.494 371.981 106.802 371.531 106.217 370.959C105.631 370.387 105.165 369.705 104.845 368.952C104.524 368.199 104.356 367.39 104.35 366.572V366.572ZM114.236 366.572C114.246 366.098 114.159 365.627 113.982 365.187C113.805 364.746 113.541 364.347 113.206 364.011C112.871 363.676 112.471 363.412 112.031 363.235C111.591 363.058 111.12 362.972 110.645 362.982C110.171 362.972 109.7 363.058 109.26 363.235C108.82 363.412 108.42 363.676 108.085 364.011C107.749 364.347 107.485 364.746 107.308 365.187C107.131 365.627 107.045 366.098 107.055 366.572C107.043 367.047 107.128 367.519 107.305 367.96C107.481 368.4 107.745 368.801 108.081 369.136C108.417 369.472 108.817 369.736 109.258 369.913C109.699 370.089 110.171 370.174 110.645 370.162C111.12 370.174 111.592 370.089 112.033 369.913C112.474 369.736 112.874 369.472 113.21 369.136C113.545 368.801 113.81 368.4 113.986 367.96C114.162 367.519 114.247 367.047 114.236 366.572Z" fill="white"/>
<path d="M119.287 366.572C119.287 363.149 121.513 360.397 124.768 360.397C125.514 360.381 126.255 360.529 126.937 360.831C127.619 361.133 128.227 361.581 128.718 362.144V356.734H131.374V372.556H128.837V371.072C128.323 371.635 127.693 372.081 126.991 372.378C126.289 372.675 125.53 372.818 124.768 372.796C121.513 372.76 119.287 370.007 119.287 366.572ZM128.718 366.572C128.748 366.119 128.687 365.664 128.537 365.235C128.387 364.806 128.152 364.411 127.845 364.076C127.539 363.74 127.168 363.47 126.754 363.282C126.34 363.094 125.893 362.992 125.438 362.982C124.972 362.976 124.509 363.066 124.079 363.247C123.649 363.427 123.26 363.694 122.937 364.03C122.614 364.367 122.363 364.766 122.201 365.203C122.038 365.64 121.967 366.106 121.991 366.572C121.965 367.038 122.035 367.505 122.197 367.943C122.359 368.381 122.61 368.781 122.933 369.118C123.256 369.455 123.646 369.722 124.077 369.901C124.508 370.081 124.971 370.17 125.438 370.163C125.894 370.156 126.343 370.056 126.758 369.869C127.174 369.682 127.546 369.412 127.853 369.076C128.161 368.739 128.396 368.344 128.544 367.913C128.693 367.483 128.752 367.026 128.718 366.572V366.572Z" fill="white"/>
<path d="M134.701 367.877V360.696H137.358V367.518C137.358 369.409 138.196 370.222 139.847 370.222C140.25 370.211 140.647 370.117 141.012 369.946C141.377 369.774 141.702 369.529 141.967 369.225C142.233 368.922 142.432 368.566 142.553 368.182C142.675 367.797 142.715 367.392 142.672 366.991V360.696H145.329V372.556H142.851V370.737C142.441 371.372 141.877 371.894 141.212 372.254C140.547 372.614 139.802 372.8 139.046 372.796C135.874 372.76 134.701 370.988 134.701 367.877Z" fill="white"/>
<path d="M148.213 366.572C148.216 365.752 148.382 364.94 148.701 364.185C149.02 363.429 149.486 362.744 150.071 362.17C150.657 361.595 151.351 361.143 152.112 360.838C152.874 360.534 153.688 360.384 154.509 360.396C156.058 360.387 157.56 360.93 158.745 361.928L157.094 363.819C156.385 363.225 155.48 362.918 154.556 362.958C154.082 362.948 153.611 363.034 153.171 363.211C152.731 363.388 152.331 363.652 151.996 363.987C151.66 364.323 151.396 364.723 151.219 365.163C151.042 365.603 150.956 366.074 150.966 366.548C150.95 367.034 151.036 367.518 151.218 367.969C151.401 368.42 151.675 368.828 152.025 369.166C152.374 369.504 152.791 369.766 153.248 369.933C153.704 370.101 154.191 370.171 154.676 370.138C155.735 370.159 156.764 369.793 157.572 369.109L159.033 371.12C157.773 372.157 156.188 372.716 154.556 372.7C153.736 372.72 152.919 372.578 152.155 372.28C151.39 371.982 150.692 371.535 150.102 370.964C149.511 370.394 149.04 369.712 148.716 368.958C148.392 368.204 148.221 367.393 148.213 366.572V366.572Z" fill="white"/>
<path d="M162.384 368.714V362.85H160.636V360.672H162.384V358.35L165.041 357.799V360.672H168.631V362.85H165.041V368.834C165.041 370.103 165.639 370.509 166.309 370.509C166.926 370.483 167.523 370.284 168.033 369.935L168.822 371.922C167.982 372.494 166.99 372.802 165.974 372.807C163.556 372.76 162.384 371.443 162.384 368.714Z" fill="white"/>
<path d="M170.654 371.036L171.659 368.858C172.704 369.76 174.037 370.26 175.417 370.27C176.494 370.27 177.811 369.863 177.811 369.073C177.811 368.284 176.614 367.996 175.417 367.661C173.167 367.039 171.252 366.369 171.252 364.071C171.252 361.773 173.646 360.48 175.704 360.48C177.204 360.453 178.678 360.87 179.941 361.677L178.96 363.831C177.983 363.248 176.866 362.942 175.728 362.946C174.843 362.946 173.957 363.353 173.957 363.975C173.957 364.789 174.938 364.98 175.992 365.172C178.194 365.651 180.492 366.536 180.492 368.978C180.492 371.754 177.643 372.76 175.441 372.76C173.687 372.8 171.98 372.186 170.654 371.036Z" fill="white"/>
<path d="M188.391 366.572C188.394 365.752 188.559 364.94 188.878 364.185C189.197 363.429 189.663 362.744 190.249 362.17C190.834 361.595 191.528 361.143 192.29 360.838C193.051 360.534 193.866 360.384 194.686 360.396C196.235 360.387 197.738 360.93 198.923 361.928L197.271 363.819C196.563 363.225 195.657 362.918 194.734 362.958C194.26 362.948 193.788 363.034 193.348 363.211C192.908 363.388 192.509 363.652 192.173 363.987C191.838 364.323 191.574 364.723 191.397 365.163C191.22 365.603 191.134 366.074 191.143 366.548C191.127 367.034 191.213 367.518 191.395 367.969C191.578 368.42 191.853 368.828 192.202 369.166C192.552 369.504 192.968 369.766 193.425 369.933C193.881 370.101 194.368 370.171 194.853 370.138C195.912 370.159 196.941 369.793 197.75 369.109L199.21 371.12C197.95 372.157 196.365 372.716 194.734 372.7C193.913 372.72 193.097 372.578 192.332 372.28C191.567 371.982 190.869 371.535 190.279 370.964C189.689 370.394 189.218 369.712 188.893 368.958C188.569 368.204 188.398 367.393 188.391 366.572V366.572Z" fill="white"/>
<path d="M200.658 366.572C200.661 365.752 200.827 364.94 201.146 364.185C201.464 363.429 201.93 362.744 202.516 362.17C203.101 361.595 203.795 361.143 204.557 360.838C205.318 360.534 206.133 360.384 206.953 360.396C207.774 360.382 208.59 360.531 209.353 360.835C210.116 361.138 210.811 361.591 211.398 362.165C211.985 362.74 212.452 363.425 212.771 364.182C213.091 364.938 213.257 365.751 213.26 366.572C213.254 367.391 213.085 368.201 212.764 368.955C212.443 369.709 211.976 370.391 211.389 370.963C210.803 371.535 210.109 371.985 209.347 372.287C208.586 372.59 207.772 372.738 206.953 372.724C206.135 372.736 205.322 372.587 204.562 372.284C203.802 371.981 203.109 371.531 202.524 370.959C201.939 370.387 201.473 369.705 201.152 368.952C200.832 368.199 200.664 367.39 200.658 366.572ZM210.555 366.572C210.555 365.62 210.177 364.706 209.504 364.033C208.83 363.36 207.917 362.982 206.965 362.982C206.491 362.972 206.019 363.058 205.579 363.235C205.139 363.412 204.74 363.676 204.404 364.011C204.069 364.347 203.805 364.746 203.628 365.186C203.451 365.627 203.365 366.098 203.375 366.572C203.363 367.047 203.448 367.519 203.624 367.959C203.801 368.4 204.065 368.801 204.401 369.136C204.736 369.472 205.137 369.736 205.577 369.913C206.018 370.089 206.49 370.174 206.965 370.162C207.439 370.172 207.91 370.086 208.35 369.909C208.79 369.732 209.19 369.468 209.526 369.133C209.861 368.797 210.125 368.397 210.302 367.957C210.479 367.517 210.565 367.046 210.555 366.572V366.572Z" fill="white"/>
<path d="M216.109 360.672H218.766V362.419C219.13 361.822 219.639 361.326 220.245 360.979C220.852 360.632 221.537 360.444 222.237 360.432C223.017 360.367 223.797 360.55 224.467 360.953C225.138 361.357 225.664 361.962 225.971 362.682C226.379 362.014 226.947 361.459 227.624 361.066C228.301 360.673 229.066 360.455 229.848 360.432C232.96 360.432 234.348 362.347 234.348 365.698V372.556H231.691V366.093C231.691 364.442 231.332 363.029 229.298 363.029C228.924 363.031 228.554 363.111 228.212 363.263C227.87 363.415 227.563 363.636 227.311 363.913C227.059 364.19 226.867 364.516 226.748 364.871C226.628 365.225 226.584 365.601 226.617 365.974V372.556H223.96V366.093C223.96 364.442 223.601 363.029 221.566 363.029C221.18 363.044 220.801 363.137 220.452 363.304C220.104 363.471 219.793 363.707 219.54 363.999C219.286 364.291 219.095 364.631 218.978 365C218.862 365.368 218.822 365.757 218.862 366.141V372.556H216.205L216.109 360.672Z" fill="white"/>
<path d="M237.137 366.572C237.127 365.764 237.278 364.963 237.581 364.214C237.883 363.465 238.331 362.784 238.899 362.21C239.467 361.635 240.143 361.179 240.888 360.868C241.633 360.557 242.433 360.396 243.24 360.396C244.8 360.453 246.275 361.123 247.342 362.262C248.409 363.401 248.982 364.916 248.937 366.476C248.933 366.82 248.909 367.164 248.865 367.506H239.889C240.06 368.345 240.525 369.097 241.201 369.623C241.877 370.15 242.719 370.418 243.576 370.378C244.786 370.383 245.97 370.024 246.974 369.349L248.028 371.311C246.702 372.22 245.135 372.712 243.528 372.724C242.696 372.77 241.865 372.644 241.084 372.355C240.304 372.065 239.592 371.617 238.992 371.04C238.392 370.463 237.918 369.768 237.599 368.999C237.28 368.231 237.122 367.404 237.137 366.572V366.572ZM246.352 365.543C246.247 364.756 245.858 364.035 245.259 363.515C244.659 362.995 243.89 362.711 243.097 362.718C242.314 362.741 241.564 363.035 240.974 363.551C240.385 364.066 239.993 364.77 239.865 365.543H246.352Z" fill="white"/>
<path d="M256.262 360.672H258.847L260.953 367.23C261.167 367.958 261.319 368.703 261.408 369.456C261.48 368.715 261.6 367.98 261.767 367.254L263.514 360.672H266.123L267.871 367.254C268.038 367.98 268.158 368.715 268.23 369.456C268.319 368.703 268.471 367.958 268.685 367.23L270.791 360.672H273.376L269.475 372.556H267.081L265.238 365.974C265.062 365.248 264.926 364.513 264.831 363.772C264.736 364.513 264.6 365.248 264.424 365.974L262.533 372.556H260.139L256.262 360.672Z" fill="white"/>
<path d="M275.219 357.345C275.219 356.917 275.387 356.507 275.687 356.202C275.988 355.898 276.395 355.723 276.823 355.717C277.254 355.72 277.666 355.893 277.97 356.197C278.275 356.502 278.448 356.914 278.451 357.345C278.444 357.772 278.27 358.18 277.966 358.48C277.661 358.78 277.251 358.948 276.823 358.948C276.398 358.948 275.99 358.78 275.689 358.479C275.388 358.178 275.219 357.77 275.219 357.345ZM275.506 360.672H278.163V372.556H275.506V360.672Z" fill="white"/>
<path d="M282.149 368.714V362.85H280.401V360.672H282.149V358.35L284.806 357.799V360.672H288.396V362.85H284.806V368.834C284.806 370.103 285.404 370.509 286.074 370.509C286.691 370.483 287.288 370.284 287.798 369.935L288.588 371.922C287.747 372.494 286.756 372.802 285.739 372.807C283.322 372.76 282.149 371.443 282.149 368.714Z" fill="white"/>
<path d="M290.934 356.77H293.65V362.371C294.063 361.747 294.631 361.24 295.298 360.9C295.965 360.561 296.708 360.399 297.456 360.433C300.568 360.433 301.717 362.467 301.717 365.722V372.556H299.06V366.093C299.06 364.155 298.533 363.03 296.571 363.03C296.156 363.035 295.746 363.128 295.369 363.301C294.992 363.474 294.655 363.725 294.38 364.036C294.105 364.347 293.898 364.712 293.773 365.107C293.647 365.503 293.605 365.92 293.65 366.333V372.556H290.993L290.934 356.77Z" fill="white"/>
<path d="M32.1465 389.312C32.1465 385.889 34.3725 383.136 37.6279 383.136C38.374 383.121 39.1143 383.269 39.7968 383.571C40.4792 383.873 41.0871 384.321 41.5774 384.883V383.375H44.2343V395.296H41.5774V393.812C41.0853 394.371 40.4766 394.815 39.7941 395.112C39.1117 395.41 38.3722 395.554 37.6279 395.535C34.3725 395.499 32.1465 392.746 32.1465 389.312ZM41.5774 389.312C41.6082 388.858 41.5468 388.403 41.397 387.974C41.2471 387.545 41.0118 387.151 40.7053 386.815C40.3988 386.48 40.0275 386.21 39.6138 386.022C39.2 385.834 38.7525 385.731 38.2981 385.721C37.8317 385.716 37.369 385.806 36.9388 385.986C36.5086 386.166 36.1199 386.433 35.7969 386.77C35.4738 387.106 35.2232 387.505 35.0606 387.943C34.8979 388.38 34.8267 388.846 34.8513 389.312C34.8249 389.778 34.8949 390.245 35.0569 390.683C35.2189 391.121 35.4694 391.521 35.7928 391.857C36.1163 392.194 36.5056 392.461 36.9367 392.641C37.3677 392.82 37.8312 392.909 38.2981 392.902C38.7535 392.895 39.2027 392.795 39.6181 392.608C40.0334 392.421 40.4061 392.152 40.7133 391.815C41.0205 391.479 41.2556 391.083 41.4041 390.653C41.5527 390.222 41.6117 389.766 41.5774 389.312Z" fill="white"/>
<path d="M52.4922 393.776L53.4975 391.597C54.5429 392.499 55.8749 393 57.2555 393.01C58.3327 393.01 59.6491 392.603 59.6491 391.813C59.6491 391.023 58.4523 390.736 57.2555 390.401C55.0055 389.778 53.0906 389.108 53.0906 386.81C53.0906 384.512 55.4842 383.22 57.5427 383.22C59.042 383.193 60.516 383.609 61.7795 384.417L60.7981 386.571C59.8214 385.988 58.7043 385.681 57.5667 385.685C56.681 385.685 55.7954 386.092 55.7954 386.714C55.7954 387.528 56.7768 387.72 57.83 387.911C60.0321 388.39 62.33 389.276 62.33 391.717C62.33 394.494 59.4816 395.499 57.2794 395.499C55.525 395.539 53.8183 394.925 52.4922 393.776Z" fill="white"/>
<path d="M64.7954 380.084C64.7954 379.657 64.9636 379.246 65.2636 378.942C65.5637 378.637 65.9716 378.463 66.3991 378.457C66.8299 378.46 67.242 378.632 67.5466 378.937C67.8512 379.241 68.0237 379.653 68.0268 380.084C68.0205 380.512 67.8463 380.92 67.5417 381.22C67.2371 381.52 66.8267 381.688 66.3991 381.688C66.1885 381.688 65.98 381.646 65.7854 381.566C65.5909 381.485 65.4141 381.367 65.2651 381.218C65.1162 381.069 64.9981 380.893 64.9175 380.698C64.8369 380.503 64.7954 380.295 64.7954 380.084V380.084ZM65.0826 383.411H67.7396V395.296H65.0587L65.0826 383.411Z" fill="white"/>
<path d="M71.1743 383.411H73.8312V385.159C74.195 384.561 74.704 384.066 75.3109 383.718C75.9178 383.371 76.6028 383.183 77.302 383.172C78.082 383.107 78.8626 383.289 79.5329 383.693C80.2033 384.097 80.7293 384.702 81.0361 385.422C81.4441 384.754 82.0125 384.198 82.6896 383.805C83.3667 383.412 84.1312 383.195 84.9138 383.172C88.0255 383.172 89.4138 385.087 89.4138 388.438V395.296H86.7569V388.833C86.7569 387.181 86.3978 385.769 84.3632 385.769C83.989 385.771 83.6192 385.85 83.2772 386.002C82.9353 386.154 82.6286 386.376 82.3766 386.653C82.1246 386.929 81.9329 387.255 81.8134 387.61C81.6938 387.965 81.6493 388.34 81.6824 388.713V395.296H79.0255V388.833C79.0255 387.181 78.6664 385.769 76.6318 385.769C76.2456 385.783 75.8664 385.877 75.5178 386.044C75.1692 386.21 74.8585 386.447 74.6049 386.739C74.3514 387.03 74.1604 387.371 74.0438 387.739C73.9272 388.108 73.8874 388.496 73.927 388.881V395.296H71.2701L71.1743 383.411Z" fill="white"/>
<path d="M92.7651 383.411H95.3024V384.895C95.8168 384.332 96.4466 383.887 97.1489 383.589C97.8511 383.292 98.6093 383.15 99.3716 383.172C102.627 383.172 104.853 385.925 104.853 389.324C104.853 392.723 102.627 395.499 99.3716 395.499C98.6255 395.515 97.8851 395.366 97.2027 395.064C96.5202 394.762 95.9124 394.314 95.4221 393.752V398.683H92.7651V383.411ZM102.16 389.312C102.186 388.845 102.116 388.379 101.954 387.941C101.793 387.503 101.542 387.103 101.219 386.766C100.895 386.429 100.506 386.162 100.075 385.983C99.6437 385.803 99.1802 385.714 98.7133 385.721C98.2579 385.728 97.8087 385.828 97.3933 386.015C96.978 386.202 96.6053 386.472 96.2981 386.808C95.991 387.144 95.7558 387.54 95.6072 387.971C95.4586 388.401 95.3997 388.857 95.434 389.312C95.4032 389.765 95.4646 390.22 95.6145 390.649C95.7644 391.078 95.9996 391.472 96.3061 391.808C96.6126 392.143 96.9839 392.413 97.3977 392.601C97.8114 392.79 98.2589 392.892 98.7133 392.902C99.1798 392.908 99.6424 392.817 100.073 392.637C100.503 392.457 100.891 392.19 101.215 391.854C101.538 391.517 101.788 391.118 101.951 390.681C102.113 390.243 102.185 389.777 102.16 389.312V389.312Z" fill="white"/>
<path d="M107.797 379.51H110.454V395.296H107.797V379.51Z" fill="white"/>
<path d="M113.338 389.312C113.329 388.504 113.48 387.703 113.782 386.954C114.085 386.205 114.533 385.523 115.1 384.949C115.668 384.375 116.344 383.919 117.09 383.607C117.835 383.296 118.634 383.136 119.442 383.136C121.004 383.189 122.481 383.858 123.551 384.998C124.621 386.137 125.196 387.654 125.151 389.216C125.146 389.56 125.118 389.904 125.067 390.245H116.091C116.261 391.085 116.727 391.836 117.403 392.363C118.079 392.89 118.921 393.157 119.777 393.117C120.988 393.122 122.172 392.764 123.176 392.088L124.229 394.051C122.904 394.959 121.336 395.451 119.729 395.463C118.898 395.509 118.066 395.384 117.286 395.094C116.506 394.804 115.793 394.357 115.194 393.78C114.594 393.202 114.12 392.508 113.8 391.739C113.481 390.97 113.324 390.144 113.338 389.312V389.312ZM122.554 388.282C122.449 387.496 122.06 386.774 121.46 386.254C120.861 385.734 120.092 385.451 119.298 385.458C118.516 385.481 117.765 385.775 117.176 386.29C116.586 386.805 116.194 387.51 116.067 388.282H122.554Z" fill="white"/>
<path d="M133.206 389.312C133.206 385.889 135.432 383.136 138.687 383.136C139.433 383.121 140.173 383.269 140.856 383.571C141.538 383.873 142.146 384.321 142.636 384.883V379.474H145.246V395.296H142.708V393.812C142.194 394.375 141.564 394.82 140.862 395.118C140.16 395.415 139.401 395.557 138.639 395.535C135.432 395.499 133.206 392.746 133.206 389.312ZM142.636 389.312C142.667 388.858 142.606 388.403 142.456 387.974C142.306 387.545 142.071 387.151 141.764 386.815C141.458 386.48 141.087 386.21 140.673 386.022C140.259 385.834 139.812 385.731 139.357 385.721C138.891 385.716 138.428 385.806 137.998 385.986C137.568 386.166 137.179 386.433 136.856 386.77C136.533 387.106 136.282 387.505 136.12 387.943C135.957 388.38 135.886 388.846 135.91 389.312C135.884 389.778 135.954 390.245 136.116 390.683C136.278 391.121 136.529 391.521 136.852 391.857C137.175 392.194 137.565 392.461 137.996 392.641C138.427 392.82 138.89 392.909 139.357 392.902C139.813 392.895 140.262 392.795 140.677 392.608C141.092 392.421 141.465 392.152 141.772 391.815C142.08 391.479 142.315 391.083 142.463 390.653C142.612 390.222 142.671 389.766 142.636 389.312V389.312Z" fill="white"/>
<path d="M148.178 389.311C148.181 388.491 148.347 387.68 148.666 386.924C148.984 386.168 149.45 385.483 150.036 384.909C150.621 384.335 151.315 383.882 152.077 383.578C152.838 383.273 153.653 383.123 154.473 383.136C155.296 383.118 156.114 383.265 156.88 383.567C157.646 383.869 158.344 384.321 158.934 384.896C159.523 385.471 159.992 386.157 160.313 386.916C160.634 387.674 160.801 388.488 160.804 389.311C160.798 390.13 160.63 390.939 160.309 391.692C159.989 392.444 159.523 393.126 158.938 393.698C158.352 394.27 157.66 394.721 156.9 395.023C156.14 395.326 155.327 395.476 154.509 395.463C153.688 395.481 152.871 395.335 152.107 395.034C151.343 394.733 150.646 394.284 150.057 393.711C149.468 393.139 148.998 392.455 148.676 391.7C148.353 390.945 148.184 390.133 148.178 389.311V389.311ZM158.063 389.311C158.073 388.837 157.987 388.366 157.81 387.926C157.633 387.486 157.369 387.086 157.034 386.751C156.698 386.415 156.298 386.151 155.858 385.974C155.418 385.797 154.947 385.711 154.473 385.721C153.999 385.711 153.527 385.797 153.087 385.974C152.647 386.151 152.248 386.415 151.912 386.751C151.577 387.086 151.313 387.486 151.136 387.926C150.959 388.366 150.873 388.837 150.883 389.311C150.871 389.786 150.956 390.258 151.132 390.699C151.309 391.14 151.573 391.54 151.909 391.876C152.244 392.212 152.645 392.476 153.085 392.652C153.526 392.828 153.998 392.913 154.473 392.902C154.948 392.913 155.42 392.828 155.86 392.652C156.301 392.476 156.702 392.212 157.037 391.876C157.373 391.54 157.637 391.14 157.813 390.699C157.99 390.258 158.075 389.786 158.063 389.311Z" fill="white"/>
<path d="M162.755 393.776L163.76 391.597C164.806 392.499 166.138 393 167.518 393.01C168.595 393.01 169.912 392.603 169.912 391.813C169.912 391.023 168.715 390.736 167.518 390.401C165.268 389.778 163.353 389.108 163.353 386.81C163.353 384.512 165.747 383.22 167.805 383.22C169.305 383.193 170.779 383.609 172.042 384.417L171.061 386.571C170.084 385.988 168.967 385.681 167.829 385.685C166.944 385.685 166.058 386.092 166.058 386.714C166.058 387.528 167.039 387.72 168.093 387.911C170.295 388.39 172.593 389.276 172.593 391.717C172.593 394.494 169.744 395.499 167.542 395.499C165.788 395.539 164.081 394.925 162.755 393.776V393.776Z" fill="white"/>
<path d="M175.058 380.084C175.058 379.657 175.226 379.246 175.526 378.942C175.826 378.637 176.234 378.463 176.662 378.457C177.093 378.46 177.505 378.632 177.809 378.937C178.114 379.241 178.286 379.653 178.289 380.084C178.283 380.512 178.109 380.92 177.804 381.22C177.5 381.52 177.089 381.688 176.662 381.688C176.451 381.688 176.243 381.646 176.048 381.566C175.854 381.485 175.677 381.367 175.528 381.218C175.379 381.069 175.261 380.893 175.18 380.698C175.1 380.503 175.058 380.295 175.058 380.084V380.084ZM175.345 383.411H178.002V395.296H175.345V383.411Z" fill="white"/>
<path d="M181.437 383.411H184.094V385.111C184.514 384.488 185.086 383.982 185.757 383.643C186.427 383.304 187.173 383.141 187.924 383.172C191.131 383.172 192.184 385.302 192.184 388.462V395.296H189.527V388.833C189.527 386.894 189.097 385.769 187.134 385.769C186.712 385.774 186.297 385.866 185.912 386.039C185.528 386.212 185.183 386.463 184.9 386.775C184.617 387.087 184.402 387.454 184.267 387.854C184.132 388.253 184.082 388.676 184.118 389.096V395.296H181.461L181.437 383.411Z" fill="white"/>
<path d="M195.883 397.198L196.912 395.523C197.933 396.327 199.203 396.75 200.502 396.72C203.04 396.72 204.284 395.092 204.284 392.674V392.579C203.888 393.247 203.312 393.792 202.623 394.151C201.934 394.511 201.158 394.671 200.383 394.613C199.643 394.62 198.91 394.474 198.228 394.185C197.547 393.896 196.933 393.47 196.423 392.933C195.914 392.397 195.52 391.761 195.266 391.066C195.013 390.371 194.905 389.631 194.949 388.893C194.905 388.153 195.013 387.412 195.266 386.716C195.52 386.019 195.913 385.382 196.422 384.844C196.931 384.306 197.546 383.877 198.227 383.586C198.908 383.294 199.642 383.145 200.383 383.148C201.17 383.106 201.954 383.269 202.659 383.622C203.364 383.974 203.965 384.504 204.404 385.159V383.387H206.941V392.531C207.003 393.36 206.886 394.192 206.598 394.972C206.311 395.752 205.859 396.461 205.273 397.051C204.687 397.641 203.982 398.099 203.204 398.393C202.427 398.686 201.595 398.81 200.766 398.754C199.002 398.854 197.264 398.3 195.883 397.198V397.198ZM204.26 388.821C204.267 388.382 204.185 387.946 204.02 387.54C203.855 387.133 203.611 386.764 203.3 386.454C202.99 386.144 202.621 385.899 202.214 385.734C201.807 385.569 201.372 385.487 200.933 385.494C200.489 385.492 200.048 385.58 199.639 385.753C199.229 385.925 198.859 386.179 198.55 386.499C198.242 386.819 198.001 387.198 197.843 387.614C197.685 388.029 197.612 388.472 197.63 388.916C197.614 389.359 197.688 389.8 197.847 390.214C198.006 390.627 198.247 391.004 198.555 391.322C198.864 391.639 199.234 391.891 199.643 392.062C200.051 392.233 200.49 392.319 200.933 392.315C201.384 392.318 201.831 392.228 202.245 392.051C202.66 391.873 203.034 391.613 203.343 391.285C203.653 390.957 203.892 390.57 204.046 390.146C204.199 389.722 204.264 389.271 204.236 388.821H204.26Z" fill="white"/>
<path d="M216.348 397.198L217.377 395.523C218.398 396.327 219.668 396.75 220.968 396.72C223.505 396.72 224.75 395.092 224.75 392.674V392.579C224.353 393.247 223.778 393.792 223.088 394.151C222.399 394.511 221.623 394.671 220.848 394.613C220.108 394.62 219.375 394.474 218.694 394.185C218.013 393.896 217.398 393.47 216.889 392.933C216.379 392.397 215.985 391.761 215.732 391.066C215.478 390.371 215.37 389.631 215.414 388.893C215.37 388.153 215.478 387.412 215.732 386.716C215.985 386.019 216.378 385.382 216.888 384.844C217.397 384.306 218.011 383.877 218.692 383.586C219.373 383.294 220.107 383.145 220.848 383.148C221.635 383.106 222.42 383.269 223.124 383.622C223.829 383.974 224.431 384.504 224.869 385.159V383.387H227.407V392.531C227.468 393.36 227.351 394.192 227.064 394.972C226.776 395.752 226.324 396.461 225.738 397.051C225.153 397.641 224.447 398.099 223.67 398.393C222.892 398.686 222.06 398.81 221.231 398.754C219.467 398.854 217.729 398.3 216.348 397.198V397.198ZM224.726 388.821C224.732 388.382 224.65 387.946 224.486 387.54C224.321 387.133 224.076 386.764 223.766 386.454C223.455 386.144 223.086 385.899 222.679 385.734C222.273 385.569 221.837 385.487 221.399 385.494C220.954 385.492 220.514 385.58 220.104 385.753C219.695 385.925 219.324 386.179 219.016 386.499C218.707 386.819 218.466 387.198 218.308 387.614C218.15 388.029 218.078 388.472 218.095 388.916C218.079 389.359 218.153 389.8 218.312 390.214C218.471 390.627 218.712 391.004 219.021 391.322C219.329 391.639 219.699 391.891 220.108 392.062C220.517 392.233 220.956 392.319 221.399 392.315C221.849 392.318 222.296 392.228 222.711 392.051C223.125 391.873 223.499 391.613 223.809 391.285C224.118 390.957 224.357 390.57 224.511 390.146C224.665 389.722 224.73 389.271 224.702 388.821H224.726Z" fill="white"/>
<path d="M230.674 390.616V383.435H233.331V390.257C233.331 392.148 234.169 392.962 235.832 392.962C236.235 392.951 236.632 392.857 236.996 392.685C237.361 392.513 237.686 392.268 237.952 391.965C238.217 391.661 238.417 391.306 238.538 390.921C238.659 390.537 238.7 390.131 238.657 389.73V383.435H241.314V395.296H238.8V393.476C238.39 394.112 237.826 394.633 237.161 394.993C236.496 395.353 235.751 395.539 234.994 395.535C231.847 395.499 230.674 393.728 230.674 390.616Z" fill="white"/>
<path d="M244.473 380.084C244.473 379.657 244.641 379.246 244.941 378.942C245.241 378.637 245.649 378.463 246.077 378.457C246.508 378.46 246.92 378.632 247.224 378.937C247.529 379.241 247.701 379.653 247.705 380.084C247.698 380.512 247.524 380.92 247.219 381.22C246.915 381.52 246.504 381.688 246.077 381.688C245.866 381.688 245.658 381.646 245.463 381.566C245.269 381.485 245.092 381.367 244.943 381.218C244.794 381.069 244.676 380.893 244.595 380.698C244.515 380.503 244.473 380.295 244.473 380.084V380.084ZM244.76 383.411H247.417V395.296H244.76V383.411Z" fill="white"/>
<path d="M250.29 389.312C250.29 385.889 252.516 383.136 255.771 383.136C256.517 383.121 257.257 383.269 257.94 383.571C258.622 383.873 259.23 384.321 259.72 384.883V379.474H262.377V395.296H259.84V393.812C259.326 394.375 258.696 394.82 257.994 395.118C257.291 395.415 256.533 395.557 255.771 395.535C252.516 395.499 250.29 392.746 250.29 389.312ZM259.72 389.312C259.751 388.858 259.69 388.403 259.54 387.974C259.39 387.545 259.155 387.151 258.848 386.815C258.542 386.48 258.171 386.21 257.757 386.022C257.343 385.834 256.896 385.731 256.441 385.721C255.975 385.716 255.512 385.806 255.082 385.986C254.652 386.166 254.263 386.433 253.94 386.77C253.617 387.106 253.366 387.505 253.204 387.943C253.041 388.38 252.97 388.846 252.994 389.312C252.968 389.778 253.038 390.245 253.2 390.683C253.362 391.121 253.612 391.521 253.936 391.857C254.259 392.194 254.649 392.461 255.08 392.641C255.511 392.82 255.974 392.909 256.441 392.902C256.897 392.895 257.346 392.795 257.761 392.608C258.176 392.421 258.549 392.152 258.856 391.815C259.164 391.479 259.399 391.083 259.547 390.653C259.696 390.222 259.755 389.766 259.72 389.312Z" fill="white"/>
<path d="M265.262 389.312C265.252 388.504 265.403 387.703 265.706 386.954C266.008 386.205 266.456 385.523 267.024 384.949C267.592 384.375 268.268 383.919 269.013 383.607C269.758 383.296 270.558 383.136 271.365 383.136C272.925 383.192 274.4 383.863 275.467 385.002C276.534 386.141 277.107 387.656 277.062 389.216C277.058 389.56 277.034 389.904 276.99 390.245H268.014C268.185 391.085 268.65 391.836 269.326 392.363C270.002 392.89 270.844 393.157 271.701 393.117C272.911 393.122 274.095 392.764 275.099 392.088L276.153 394.051C274.827 394.959 273.26 395.451 271.653 395.463C270.822 395.509 269.99 395.384 269.209 395.094C268.429 394.804 267.717 394.357 267.117 393.78C266.517 393.202 266.043 392.508 265.724 391.739C265.405 390.97 265.247 390.144 265.262 389.312V389.312ZM274.477 388.282C274.372 387.496 273.983 386.774 273.384 386.254C272.784 385.734 272.015 385.451 271.222 385.458C270.439 385.481 269.689 385.775 269.099 386.29C268.51 386.805 268.118 387.51 267.99 388.282H274.477Z" fill="white"/>
<path d="M286.278 391.454V385.589H284.53V383.411H286.278V381.089L288.935 380.539V383.411H292.525V385.589H288.935V391.573C288.935 392.842 289.533 393.249 290.203 393.249C290.82 393.222 291.417 393.023 291.927 392.674L292.716 394.661C291.876 395.233 290.884 395.541 289.868 395.547C287.45 395.499 286.278 394.182 286.278 391.454Z" fill="white"/>
<path d="M294.177 389.311C294.18 388.491 294.346 387.68 294.665 386.924C294.984 386.168 295.449 385.484 296.035 384.909C296.62 384.335 297.314 383.882 298.076 383.578C298.837 383.273 299.652 383.123 300.472 383.136C301.296 383.117 302.116 383.262 302.883 383.564C303.65 383.865 304.35 384.317 304.94 384.892C305.531 385.467 306.001 386.154 306.323 386.913C306.645 387.672 306.812 388.487 306.815 389.311C306.809 390.13 306.641 390.939 306.32 391.691C306 392.444 305.534 393.126 304.949 393.698C304.363 394.27 303.671 394.721 302.911 395.023C302.151 395.326 301.338 395.476 300.52 395.463C299.698 395.482 298.88 395.337 298.114 395.037C297.349 394.737 296.65 394.288 296.06 393.716C295.47 393.143 294.999 392.459 294.676 391.703C294.353 390.947 294.183 390.134 294.177 389.311V389.311ZM304.062 389.311C304.072 388.837 303.986 388.366 303.809 387.926C303.632 387.486 303.368 387.086 303.033 386.751C302.697 386.415 302.298 386.151 301.857 385.974C301.417 385.797 300.946 385.711 300.472 385.721C299.998 385.711 299.527 385.797 299.087 385.974C298.646 386.151 298.247 386.415 297.911 386.751C297.576 387.086 297.312 387.486 297.135 387.926C296.958 388.366 296.872 388.837 296.882 389.311C296.87 389.786 296.955 390.258 297.131 390.699C297.308 391.14 297.572 391.54 297.908 391.876C298.243 392.212 298.644 392.476 299.085 392.652C299.525 392.828 299.997 392.913 300.472 392.902C300.947 392.913 301.419 392.828 301.859 392.652C302.3 392.476 302.701 392.212 303.036 391.876C303.372 391.54 303.636 391.14 303.813 390.699C303.989 390.258 304.074 389.786 304.062 389.311Z" fill="white"/>
<path d="M32.5532 402.249H35.2102V407.85C35.623 407.226 36.1906 406.719 36.8576 406.379C37.5246 406.039 38.2682 405.878 39.016 405.911C42.1277 405.911 43.2767 407.946 43.2767 411.201V418.035H40.6197V411.572C40.6197 409.633 40.0932 408.508 38.1304 408.508C37.7153 408.514 37.3061 408.607 36.9289 408.78C36.5517 408.953 36.2149 409.203 35.9399 409.514C35.665 409.825 35.4581 410.19 35.3324 410.586C35.2068 410.981 35.1651 411.399 35.2102 411.812V418.035H32.5532V402.249Z" fill="white"/>
<path d="M46.0415 412.051C46.032 411.243 46.1829 410.442 46.4854 409.693C46.7879 408.944 47.2359 408.263 47.8037 407.689C48.3714 407.114 49.0475 406.658 49.7927 406.347C50.538 406.036 51.3376 405.875 52.1452 405.875C52.9291 405.899 53.7006 406.077 54.4147 406.401C55.1288 406.725 55.7713 407.188 56.3048 407.763C56.8383 408.338 57.2521 409.013 57.5222 409.749C57.7923 410.485 57.9133 411.268 57.878 412.051C57.8742 412.395 57.8502 412.739 57.8062 413.08H48.8301C49.0006 413.92 49.4659 414.671 50.1419 415.198C50.818 415.725 51.6601 415.993 52.5163 415.953C53.7267 415.958 54.9109 415.599 55.9152 414.923L56.9684 416.886C55.6426 417.795 54.0756 418.286 52.4684 418.298C51.6261 418.351 50.7822 418.226 49.9908 417.933C49.1994 417.64 48.478 417.185 47.8729 416.596C47.2678 416.008 46.7923 415.3 46.4769 414.517C46.1615 413.734 46.0132 412.894 46.0415 412.051V412.051ZM55.257 411.022C55.152 410.235 54.7632 409.514 54.1637 408.994C53.5642 408.474 52.7953 408.19 52.0016 408.197C51.219 408.22 50.4687 408.514 49.8792 409.03C49.2896 409.545 48.8976 410.249 48.7703 411.022H55.257Z" fill="white"/>
<path d="M60.7505 402.249H63.4074V418.035H60.7505V402.249Z" fill="white"/>
<path d="M66.8184 406.151H69.3556V407.635C69.87 407.072 70.4998 406.626 71.2021 406.329C71.9043 406.032 72.6625 405.889 73.4248 405.911C76.6801 405.911 78.9062 408.664 78.9062 412.063C78.9062 415.462 76.6801 418.239 73.4248 418.239C72.6787 418.254 71.9383 418.106 71.2559 417.804C70.5734 417.502 69.9656 417.054 69.4753 416.491V421.422H66.8184V406.151ZM76.2014 412.063C76.2277 411.597 76.1577 411.13 75.9957 410.692C75.8337 410.254 75.5832 409.854 75.2598 409.517C74.9364 409.18 74.547 408.914 74.116 408.734C73.6849 408.554 73.2215 408.465 72.7545 408.473C72.2991 408.48 71.85 408.579 71.4346 408.766C71.0193 408.953 70.6465 409.223 70.3394 409.56C70.0322 409.896 69.7971 410.291 69.6485 410.722C69.4999 411.152 69.441 411.609 69.4753 412.063C69.4444 412.517 69.5058 412.971 69.6557 413.401C69.8056 413.83 70.0409 414.224 70.3474 414.559C70.6539 414.895 71.0252 415.165 71.4389 415.353C71.8527 415.541 72.3002 415.643 72.7545 415.654C73.2221 415.659 73.6858 415.569 74.1169 415.388C74.5479 415.206 74.9371 414.939 75.2604 414.601C75.5836 414.263 75.8339 413.862 75.9958 413.424C76.1577 412.985 76.2277 412.518 76.2014 412.051V412.063Z" fill="white"/>
<path d="M88.5044 419.029C89.0674 419.082 89.6318 418.943 90.1056 418.634C90.5794 418.326 90.9347 417.866 91.1135 417.329L91.3528 416.85L86.2305 406.151H88.9951L91.8435 412.47C92.2026 413.26 92.6095 414.337 92.6095 414.337C92.6095 414.337 93.1361 412.949 93.3755 412.35L95.9366 406.151H98.5696L93.16 418.526C92.8138 419.465 92.1707 420.265 91.3282 420.805C90.4858 421.345 89.4901 421.595 88.4924 421.518L88.5044 419.029Z" fill="white"/>
<path d="M99.563 412.051C99.5677 411.231 99.7346 410.42 100.054 409.666C100.374 408.911 100.839 408.226 101.425 407.652C102.01 407.078 102.703 406.626 103.464 406.321C104.225 406.016 105.039 405.864 105.858 405.875C106.679 405.861 107.495 406.01 108.258 406.314C109.021 406.617 109.716 407.07 110.303 407.644C110.89 408.219 111.357 408.904 111.677 409.661C111.996 410.417 112.162 411.23 112.165 412.051C112.159 412.87 111.991 413.68 111.67 414.434C111.349 415.188 110.881 415.87 110.295 416.442C109.708 417.014 109.014 417.464 108.253 417.766C107.491 418.069 106.677 418.217 105.858 418.203C105.04 418.215 104.228 418.066 103.467 417.763C102.707 417.46 102.015 417.01 101.429 416.438C100.844 415.866 100.378 415.184 100.058 414.431C99.7374 413.678 99.5692 412.869 99.563 412.051V412.051ZM109.461 412.051C109.47 411.577 109.384 411.106 109.207 410.665C109.03 410.225 108.766 409.826 108.431 409.49C108.095 409.155 107.696 408.891 107.256 408.714C106.816 408.537 106.344 408.451 105.87 408.461C105.396 408.451 104.925 408.537 104.485 408.714C104.045 408.891 103.645 409.155 103.31 409.49C102.974 409.826 102.71 410.225 102.533 410.665C102.356 411.106 102.27 411.577 102.28 412.051C102.268 412.526 102.353 412.998 102.53 413.438C102.706 413.879 102.97 414.28 103.306 414.615C103.642 414.951 104.042 415.215 104.483 415.392C104.924 415.568 105.396 415.653 105.87 415.641C106.344 415.651 106.816 415.565 107.256 415.388C107.696 415.211 108.095 414.947 108.431 414.612C108.766 414.276 109.03 413.877 109.207 413.436C109.384 412.996 109.47 412.525 109.461 412.051Z" fill="white"/>
<path d="M114.882 413.356V406.175H117.539V412.997C117.539 414.888 118.377 415.701 120.029 415.701C120.432 415.69 120.828 415.596 121.193 415.425C121.558 415.253 121.883 415.008 122.148 414.704C122.414 414.401 122.613 414.045 122.735 413.661C122.856 413.276 122.896 412.871 122.853 412.47V406.175H125.51V418.035H122.997V416.216C122.586 416.851 122.023 417.373 121.357 417.733C120.692 418.093 119.947 418.279 119.191 418.275C116.055 418.239 114.882 416.467 114.882 413.356Z" fill="white"/>
<path d="M133.983 412.051C133.986 411.231 134.152 410.419 134.471 409.664C134.79 408.908 135.256 408.223 135.841 407.649C136.427 407.074 137.121 406.622 137.882 406.317C138.644 406.013 139.459 405.863 140.279 405.875C141.099 405.863 141.913 406.013 142.675 406.317C143.437 406.622 144.13 407.074 144.716 407.649C145.301 408.223 145.767 408.908 146.086 409.664C146.405 410.419 146.571 411.231 146.574 412.051C146.568 412.869 146.4 413.678 146.079 414.431C145.759 415.184 145.293 415.866 144.707 416.438C144.122 417.01 143.43 417.46 142.669 417.763C141.909 418.066 141.097 418.215 140.279 418.203C139.461 418.215 138.648 418.066 137.888 417.763C137.128 417.46 136.435 417.01 135.85 416.438C135.265 415.866 134.798 415.184 134.478 414.431C134.158 413.678 133.99 412.869 133.983 412.051V412.051ZM143.869 412.051C143.879 411.577 143.793 411.106 143.616 410.666C143.439 410.225 143.175 409.826 142.839 409.49C142.504 409.155 142.104 408.891 141.664 408.714C141.224 408.537 140.753 408.451 140.279 408.461C139.804 408.451 139.333 408.537 138.893 408.714C138.453 408.891 138.053 409.155 137.718 409.49C137.383 409.826 137.119 410.225 136.942 410.666C136.765 411.106 136.678 411.577 136.688 412.051C136.677 412.526 136.762 412.998 136.938 413.438C137.114 413.879 137.379 414.28 137.714 414.615C138.05 414.951 138.45 415.215 138.891 415.392C139.332 415.568 139.804 415.653 140.279 415.641C140.753 415.653 141.225 415.568 141.666 415.392C142.107 415.215 142.507 414.951 142.843 414.615C143.179 414.28 143.443 413.879 143.619 413.438C143.796 412.998 143.881 412.526 143.869 412.051V412.051Z" fill="white"/>
<path d="M149.434 406.151H152.091V407.85C152.511 407.227 153.083 406.722 153.754 406.383C154.424 406.043 155.17 405.881 155.921 405.911C159.128 405.911 160.181 408.042 160.181 411.201V418.035H157.525V411.572C157.525 409.633 157.094 408.508 155.131 408.508C154.709 408.513 154.294 408.605 153.909 408.778C153.525 408.952 153.18 409.202 152.897 409.514C152.614 409.827 152.399 410.194 152.264 410.593C152.129 410.993 152.079 411.416 152.115 411.836V418.035H149.458L149.434 406.151Z" fill="white"/>
<path d="M170.02 419.029C170.583 419.082 171.147 418.943 171.621 418.634C172.095 418.326 172.45 417.866 172.629 417.329L172.868 416.85L167.746 406.151H170.474L173.323 412.47C173.682 413.26 174.089 414.337 174.089 414.337C174.089 414.337 174.615 412.949 174.855 412.35L177.416 406.151H180.097L174.687 418.526C174.341 419.465 173.698 420.265 172.855 420.805C172.013 421.345 171.017 421.595 170.02 421.518V419.029Z" fill="white"/>
<path d="M181.078 412.051C181.081 411.231 181.247 410.419 181.566 409.664C181.885 408.908 182.351 408.223 182.936 407.649C183.522 407.074 184.215 406.622 184.977 406.317C185.739 406.013 186.553 405.863 187.373 405.875C188.195 405.861 189.01 406.01 189.773 406.314C190.536 406.617 191.232 407.07 191.818 407.644C192.405 408.219 192.872 408.904 193.192 409.661C193.511 410.417 193.678 411.23 193.681 412.051C193.674 412.87 193.506 413.68 193.185 414.434C192.864 415.188 192.396 415.87 191.81 416.442C191.223 417.014 190.529 417.464 189.768 417.766C189.006 418.069 188.193 418.217 187.373 418.203C186.555 418.215 185.743 418.066 184.983 417.763C184.222 417.46 183.53 417.01 182.945 416.438C182.359 415.866 181.893 415.184 181.573 414.431C181.252 413.678 181.084 412.869 181.078 412.051ZM190.976 412.051C190.976 411.099 190.598 410.185 189.924 409.512C189.251 408.839 188.338 408.461 187.385 408.461C186.911 408.451 186.44 408.537 186 408.714C185.56 408.891 185.16 409.155 184.825 409.49C184.489 409.826 184.225 410.225 184.048 410.665C183.871 411.106 183.785 411.577 183.795 412.051C183.783 412.526 183.868 412.998 184.045 413.438C184.221 413.879 184.485 414.28 184.821 414.615C185.157 414.951 185.557 415.215 185.998 415.392C186.439 415.568 186.911 415.653 187.385 415.641C187.86 415.651 188.331 415.565 188.771 415.388C189.211 415.211 189.611 414.947 189.946 414.612C190.281 414.276 190.545 413.877 190.722 413.436C190.899 412.996 190.986 412.525 190.976 412.051V412.051Z" fill="white"/>
<path d="M196.397 413.356V406.175H199.102V412.997C199.102 414.888 199.94 415.701 201.591 415.701C201.994 415.69 202.391 415.596 202.755 415.425C203.12 415.253 203.445 415.008 203.711 414.704C203.976 414.401 204.176 414.045 204.297 413.661C204.418 413.276 204.459 412.871 204.416 412.47V406.175H207.073V418.035H204.559V416.216C204.149 416.851 203.585 417.373 202.92 417.733C202.255 418.093 201.51 418.279 200.753 418.275C197.57 418.239 196.397 416.467 196.397 413.356Z" fill="white"/>
<path d="M210.459 406.151H213.116V408.544C213.468 407.718 214.071 407.023 214.841 406.559C215.61 406.095 216.506 405.885 217.401 405.959V408.856C214.792 408.856 213.116 410.052 213.116 413.212V417.999H210.459V406.151Z" fill="white"/>
<path d="M224.343 406.151H226.928L229.034 412.709C229.248 413.437 229.4 414.182 229.489 414.935C229.561 414.194 229.681 413.459 229.848 412.733L231.595 406.151H234.205L235.952 412.733C236.119 413.459 236.239 414.194 236.311 414.935C236.4 414.182 236.552 413.437 236.766 412.709L238.872 406.151H241.457L237.556 418.023H235.162L233.319 411.441C233.143 410.715 233.007 409.98 232.912 409.239C232.817 409.98 232.681 410.715 232.505 411.441L230.638 418.023H228.244L224.343 406.151Z" fill="white"/>
<path d="M242.822 412.051C242.822 408.628 245.048 405.876 248.315 405.876C249.061 405.86 249.802 406.008 250.484 406.31C251.166 406.612 251.774 407.06 252.265 407.623V406.115H254.922V418.035H252.265V416.551C251.773 417.11 251.164 417.554 250.481 417.852C249.799 418.15 249.059 418.294 248.315 418.275C245.048 418.239 242.822 415.486 242.822 412.051ZM252.265 412.051C252.295 411.598 252.234 411.143 252.084 410.714C251.934 410.285 251.699 409.89 251.393 409.555C251.086 409.219 250.715 408.949 250.301 408.761C249.887 408.573 249.44 408.471 248.985 408.461C248.519 408.455 248.056 408.545 247.626 408.726C247.196 408.906 246.807 409.173 246.484 409.509C246.161 409.846 245.91 410.245 245.748 410.682C245.585 411.119 245.514 411.585 245.539 412.051C245.512 412.517 245.582 412.984 245.744 413.422C245.906 413.86 246.157 414.26 246.48 414.597C246.804 414.934 247.193 415.2 247.624 415.38C248.055 415.56 248.518 415.649 248.985 415.642C249.441 415.635 249.89 415.535 250.305 415.348C250.721 415.161 251.093 414.891 251.401 414.555C251.708 414.218 251.943 413.823 252.091 413.392C252.24 412.962 252.299 412.505 252.265 412.051Z" fill="white"/>
<path d="M259.302 419.029C259.865 419.082 260.429 418.943 260.903 418.634C261.377 418.326 261.732 417.866 261.911 417.329L262.15 416.85L257.028 406.151H259.757L262.605 412.47C262.964 413.26 263.371 414.337 263.371 414.337C263.371 414.337 263.898 412.949 264.137 412.35L266.698 406.151H269.379L263.969 418.526C263.623 419.465 262.98 420.265 262.138 420.805C261.295 421.345 260.299 421.595 259.302 421.518V419.029Z" fill="white"/>
<path d="M269.846 416.587C269.844 416.368 269.886 416.152 269.968 415.949C270.05 415.747 270.171 415.563 270.325 415.407C270.478 415.251 270.66 415.128 270.862 415.043C271.063 414.958 271.279 414.913 271.497 414.911C271.942 414.911 272.368 415.088 272.682 415.402C272.996 415.716 273.173 416.143 273.173 416.587C273.167 417.027 272.987 417.447 272.674 417.756C272.36 418.065 271.938 418.239 271.497 418.239C271.28 418.24 271.065 418.199 270.863 418.116C270.662 418.034 270.48 417.912 270.326 417.758C270.172 417.605 270.051 417.422 269.968 417.221C269.886 417.02 269.844 416.804 269.846 416.587V416.587Z" fill="white"/>
</g>
<defs>
<clipPath id="clip0_659_1816">
<rect width="359.26" height="449.99" fill="white"/>
</clipPath>
</defs>
</svg>
