<svg width="379" height="501" viewBox="0 0 379 501" fill="none" xmlns="http://www.w3.org/2000/svg">
<g clip-path="url(#clip0_664_2338)">
<path d="M375.839 3.15634V312.9H3.1564V3.15634H375.839ZM378.995 -6.10352e-05H0V316.057H378.995V-6.10352e-05Z" fill="#DFC98B"/>
<path d="M378.995 316.057H0V500.1H378.995V316.057Z" fill="#DFC98B"/>
<path d="M34.7202 343.947H45.6414V345.588H36.6014V350.209H44.1768V351.838H36.6014V359.16H34.7202V343.947Z" fill="white"/>
<path d="M47.9771 344.502C47.9755 344.347 48.0046 344.193 48.0629 344.049C48.1211 343.905 48.2074 343.774 48.3166 343.664C48.4258 343.553 48.5557 343.466 48.699 343.406C48.8423 343.346 48.996 343.315 49.1513 343.315C49.4624 343.33 49.757 343.46 49.9784 343.679C50.1998 343.898 50.3324 344.191 50.3507 344.502C50.3508 344.659 50.3196 344.813 50.259 344.957C50.1985 345.101 50.1097 345.232 49.998 345.341C49.8862 345.451 49.7538 345.537 49.6084 345.594C49.463 345.652 49.3076 345.68 49.1513 345.676C48.9966 345.678 48.8432 345.649 48.6999 345.59C48.5567 345.532 48.4266 345.446 48.3173 345.336C48.2079 345.227 48.1215 345.097 48.063 344.953C48.0046 344.81 47.9754 344.657 47.9771 344.502V344.502ZM48.2675 347.722H50.0477V359.16H48.2675V347.722Z" fill="white"/>
<path d="M54.1258 360.928L54.8834 359.766C55.849 360.697 57.1404 361.214 58.4817 361.206C60.426 361.206 62.6355 359.943 62.6355 356.623V356.244C62.2396 357.019 61.6198 357.658 60.8566 358.076C60.0934 358.495 59.2221 358.675 58.3555 358.592C56.9296 358.524 55.5846 357.91 54.5995 356.877C53.6145 355.843 53.0649 354.471 53.0649 353.043C53.0649 351.616 53.6145 350.243 54.5995 349.21C55.5846 348.177 56.9296 347.562 58.3555 347.494C59.2265 347.42 60.1004 347.6 60.8712 348.012C61.6421 348.425 62.2769 349.052 62.6987 349.817V347.722H64.4788V356.559C64.5503 357.349 64.4514 358.146 64.1888 358.894C63.9262 359.642 63.5059 360.326 62.9566 360.898C62.4072 361.47 61.7416 361.917 61.0044 362.21C60.2673 362.503 59.4758 362.634 58.6837 362.595C57.8516 362.631 57.0205 362.503 56.2382 362.217C55.456 361.931 54.738 361.493 54.1258 360.928V360.928ZM62.6355 352.911C62.5984 352.149 62.3392 351.415 61.8898 350.8C61.4403 350.184 60.8203 349.714 60.1064 349.446C59.3925 349.179 58.616 349.127 57.8727 349.296C57.1295 349.465 56.4521 349.849 55.9243 350.399C55.3964 350.949 55.0413 351.641 54.9026 352.391C54.764 353.14 54.8479 353.914 55.1441 354.616C55.4403 355.319 55.9358 355.919 56.5693 356.343C57.2029 356.767 57.9467 356.996 58.7089 357.001C59.2373 357.012 59.7623 356.915 60.2512 356.714C60.7401 356.513 61.1825 356.214 61.5508 355.835C61.9192 355.456 62.2056 355.005 62.3922 354.511C62.5788 354.017 62.6616 353.489 62.6355 352.961V352.911Z" fill="white"/>
<path d="M67.9385 354.868V347.722H69.7187V354.628C69.7187 356.762 70.754 357.658 72.61 357.658C73.0498 357.652 73.484 357.557 73.8865 357.38C74.2891 357.202 74.6519 356.946 74.9534 356.626C75.2549 356.305 75.4889 355.928 75.6416 355.515C75.7943 355.102 75.8625 354.663 75.8421 354.224V347.734H77.6349V359.173H75.9179V357.153C75.5462 357.848 74.99 358.426 74.3105 358.825C73.6311 359.224 72.8548 359.427 72.0671 359.413C69.2768 359.4 67.9385 357.911 67.9385 354.868Z" fill="white"/>
<path d="M81.2837 347.722H83.0765V350.146C83.4559 349.309 84.0805 348.608 84.8673 348.135C85.6542 347.661 86.5662 347.438 87.4828 347.494V349.439C86.8985 349.375 86.3074 349.442 85.7518 349.634C85.1962 349.825 84.6898 350.137 84.2688 350.547C83.8478 350.958 83.5227 351.456 83.3166 352.006C83.1104 352.556 83.0284 353.146 83.0765 353.731V359.16H81.2837V347.722Z" fill="white"/>
<path d="M89.1493 353.454C89.1274 352.682 89.2599 351.914 89.539 351.194C89.818 350.475 90.2381 349.818 90.7744 349.263C91.3107 348.708 91.9524 348.265 92.662 347.962C93.3716 347.658 94.1347 347.499 94.9066 347.494C95.6539 347.519 96.389 347.691 97.0694 348.001C97.7497 348.312 98.3618 348.754 98.8702 349.302C99.3786 349.85 99.7732 350.494 100.031 351.196C100.289 351.897 100.406 352.643 100.373 353.39C100.386 353.622 100.386 353.854 100.373 354.085H90.9927C91.0881 355.114 91.5695 356.069 92.3401 356.757C93.1106 357.446 94.1133 357.817 95.1465 357.797C96.4304 357.791 97.6736 357.345 98.6691 356.534L99.4518 357.797C98.2161 358.766 96.6919 359.295 95.1213 359.299C94.3412 359.323 93.5643 359.189 92.8373 358.905C92.1103 358.622 91.4482 358.194 90.8905 357.648C90.3328 357.102 89.891 356.449 89.5919 355.729C89.2927 355.008 89.1421 354.234 89.1493 353.454ZM98.6185 352.721C98.5643 351.749 98.1434 350.832 97.4405 350.158C96.7376 349.483 95.8051 349.1 94.8308 349.085C93.8602 349.111 92.9342 349.498 92.2338 350.171C91.5334 350.843 91.1088 351.753 91.0431 352.721H98.6185Z" fill="white"/>
<path d="M108.517 351.547C108.517 346.977 110.891 343.707 114.249 343.707C117.607 343.707 119.956 346.977 119.956 351.547C119.956 356.118 117.582 359.4 114.249 359.4C110.916 359.4 108.517 356.13 108.517 351.547ZM118.037 351.547C118.037 347.936 116.56 345.348 114.249 345.348C111.939 345.348 110.461 347.873 110.461 351.547C110.461 355.221 111.964 357.746 114.249 357.746C116.534 357.746 118.037 355.146 118.037 351.547Z" fill="white"/>
<path d="M122.936 357.847L123.718 356.433C124.833 357.293 126.199 357.764 127.607 357.772C128.081 357.809 128.558 357.75 129.009 357.598C129.46 357.446 129.875 357.204 130.229 356.886C130.584 356.568 130.87 356.182 131.07 355.75C131.27 355.319 131.381 354.851 131.395 354.375C131.395 352.305 129.652 351.055 127.418 351.055C126.257 351.071 125.13 351.441 124.185 352.115L123.34 351.434V343.947H132.443V345.563H125.145V350.196C125.986 349.73 126.936 349.495 127.897 349.514C130.94 349.514 133.289 351.37 133.289 354.325C133.289 357.279 131.016 359.375 127.607 359.375C125.918 359.439 124.261 358.897 122.936 357.847V357.847Z" fill="white"/>
<path d="M136.331 358.15C136.331 357.816 136.464 357.494 136.701 357.258C136.938 357.021 137.259 356.888 137.594 356.888C137.928 356.888 138.25 357.021 138.486 357.258C138.723 357.494 138.856 357.816 138.856 358.15C138.856 358.485 138.723 358.806 138.486 359.043C138.25 359.28 137.928 359.413 137.594 359.413C137.259 359.413 136.938 359.28 136.701 359.043C136.464 358.806 136.331 358.485 136.331 358.15Z" fill="white"/>
<path d="M34.6826 376.622H37.6622L43.5205 384.651C44.6821 386.242 46.0457 388.515 46.0457 388.515V376.622H48.9747V393.035H45.9446L40.3641 385.46C38.9501 383.515 37.637 381.293 37.637 381.293V393.085H34.6826V376.622Z" fill="white"/>
<path d="M52.3584 386.747C52.3584 383.136 54.7067 380.232 58.1535 380.232C58.9406 380.216 59.7217 380.373 60.4416 380.691C61.1615 381.01 61.8027 381.482 62.3199 382.076V380.485H65.1229V392.984H62.3199V391.419C61.8009 392.008 61.1587 392.477 60.4388 392.791C59.7189 393.105 58.9387 393.257 58.1535 393.237C54.7067 393.237 52.3584 390.333 52.3584 386.747ZM62.3199 386.747C62.3525 386.269 62.2877 385.789 62.1296 385.336C61.9715 384.884 61.7233 384.468 61.4 384.114C61.0767 383.76 60.6849 383.475 60.2485 383.277C59.812 383.078 59.3398 382.97 58.8605 382.96C57.856 382.96 56.8925 383.359 56.1822 384.069C55.4719 384.779 55.0729 385.743 55.0729 386.747C55.0729 387.752 55.4719 388.715 56.1822 389.426C56.8925 390.136 57.856 390.535 58.8605 390.535C59.341 390.528 59.8149 390.422 60.253 390.225C60.6912 390.028 61.0844 389.743 61.4084 389.388C61.7324 389.034 61.9805 388.616 62.1372 388.162C62.294 387.708 62.3562 387.226 62.3199 386.747Z" fill="white"/>
<path d="M69.441 388.97V382.783H67.5977V380.485H69.441V378.036L72.2439 377.455V380.485H76.0316V382.783H72.2439V389.096C72.2439 390.434 72.8752 390.863 73.5823 390.863C74.233 390.835 74.8629 390.625 75.4003 390.257L76.2336 392.353C75.3472 392.956 74.301 393.282 73.2287 393.287C70.6783 393.237 69.441 391.848 69.441 388.97Z" fill="white"/>
<path d="M78.4302 388.086V380.51H81.2331V387.707C81.2331 389.702 82.1168 390.56 83.8592 390.56C84.2843 390.549 84.7025 390.449 85.0874 390.268C85.4722 390.087 85.8154 389.828 86.0953 389.508C86.3752 389.188 86.5858 388.813 86.7138 388.408C86.8418 388.002 86.8843 387.574 86.8389 387.151V380.51H89.6417V393.01H86.9904V391.091C86.5575 391.761 85.9627 392.311 85.261 392.691C84.5592 393.07 83.7732 393.267 82.9754 393.262C79.6297 393.237 78.4302 391.368 78.4302 388.086Z" fill="white"/>
<path d="M93.2651 380.485H96.0428V383.01C96.4138 382.138 97.0503 381.405 97.8617 380.916C98.6732 380.426 99.6183 380.205 100.563 380.283V383.263C97.8104 383.263 96.0428 384.525 96.0428 387.858V392.909H93.2651V380.485Z" fill="white"/>
<path d="M102.469 386.747C102.469 383.136 104.818 380.232 108.252 380.232C109.039 380.216 109.82 380.373 110.54 380.691C111.26 381.01 111.901 381.482 112.418 382.076V380.485H115.221V392.984H112.456V391.419C111.937 392.008 111.295 392.477 110.575 392.791C109.855 393.105 109.075 393.257 108.29 393.237C104.881 393.237 102.469 390.333 102.469 386.747ZM112.418 386.747C112.451 386.269 112.386 385.789 112.228 385.336C112.07 384.884 111.822 384.468 111.498 384.114C111.175 383.76 110.783 383.475 110.347 383.277C109.91 383.078 109.438 382.97 108.959 382.96C107.954 382.96 106.991 383.359 106.28 384.069C105.57 384.779 105.171 385.743 105.171 386.747C105.171 387.752 105.57 388.715 106.28 389.426C106.991 390.136 107.954 390.535 108.959 390.535C109.442 390.533 109.92 390.431 110.363 390.236C110.806 390.041 111.203 389.757 111.532 389.402C111.86 389.047 112.111 388.628 112.27 388.171C112.429 387.714 112.492 387.23 112.456 386.747H112.418Z" fill="white"/>
<path d="M118.845 376.369H121.648V392.984H118.845V376.369Z" fill="white"/>
<path d="M131.798 388.97V382.783H129.955V380.485H131.798V378.036L134.601 377.455V380.485H138.389V382.783H134.601V389.096C134.601 390.434 135.233 390.863 135.94 390.863C136.59 390.835 137.22 390.625 137.758 390.257L138.591 392.353C137.705 392.956 136.658 393.282 135.586 393.287C133.036 393.237 131.798 391.848 131.798 388.97Z" fill="white"/>
<path d="M140.131 386.747C140.121 385.895 140.28 385.05 140.6 384.26C140.919 383.47 141.391 382.751 141.99 382.145C142.589 381.539 143.302 381.058 144.089 380.73C144.875 380.402 145.718 380.232 146.57 380.233C148.216 380.292 149.771 380.999 150.897 382.201C152.023 383.403 152.628 385.001 152.58 386.646C152.576 387.01 152.551 387.372 152.504 387.732H143.035C143.215 388.618 143.706 389.411 144.419 389.967C145.132 390.522 146.021 390.804 146.924 390.762C148.201 390.768 149.45 390.389 150.51 389.676L151.621 391.747C150.222 392.706 148.569 393.224 146.873 393.237C145.997 393.286 145.119 393.153 144.296 392.848C143.473 392.542 142.721 392.07 142.089 391.461C141.456 390.852 140.956 390.119 140.619 389.308C140.282 388.497 140.116 387.625 140.131 386.747V386.747ZM149.853 385.662C149.742 384.832 149.332 384.071 148.7 383.522C148.067 382.973 147.256 382.675 146.419 382.682C145.593 382.706 144.802 383.017 144.18 383.56C143.558 384.104 143.144 384.847 143.01 385.662H149.853Z" fill="white"/>
<path d="M155.623 380.485H158.426V383.01C158.797 382.138 159.433 381.405 160.245 380.916C161.056 380.426 162.001 380.205 162.946 380.283V383.263C160.193 383.263 158.426 384.525 158.426 387.858V392.909H155.623V380.485Z" fill="white"/>
<path d="M165.345 380.485H168.009V382C168.551 381.406 169.216 380.936 169.957 380.623C170.697 380.309 171.497 380.159 172.301 380.182C175.736 380.182 178.084 383.086 178.084 386.671C178.084 390.257 175.736 393.186 172.301 393.186C171.514 393.203 170.733 393.046 170.013 392.728C169.293 392.409 168.652 391.936 168.135 391.343V396.545H165.332L165.345 380.485ZM175.243 386.722C175.271 386.23 175.197 385.738 175.026 385.276C174.855 384.814 174.591 384.392 174.25 384.036C173.909 383.681 173.498 383.4 173.043 383.21C172.588 383.02 172.1 382.927 171.607 382.934C170.602 382.934 169.639 383.333 168.929 384.044C168.218 384.754 167.819 385.717 167.819 386.722C167.819 387.727 168.218 388.69 168.929 389.4C169.639 390.111 170.602 390.51 171.607 390.51C172.099 390.516 172.587 390.42 173.041 390.23C173.495 390.04 173.905 389.759 174.246 389.404C174.586 389.049 174.851 388.628 175.022 388.166C175.194 387.705 175.269 387.213 175.243 386.722V386.722Z" fill="white"/>
<path d="M180.635 386.747C180.625 385.895 180.784 385.05 181.103 384.26C181.422 383.47 181.895 382.751 182.494 382.145C183.093 381.539 183.806 381.058 184.592 380.73C185.378 380.402 186.222 380.232 187.074 380.233C188.719 380.292 190.275 380.999 191.4 382.201C192.526 383.403 193.131 385.001 193.084 386.646C193.08 387.01 193.054 387.372 193.008 387.732H183.539C183.718 388.618 184.209 389.411 184.923 389.967C185.636 390.522 186.524 390.804 187.427 390.762C188.704 390.768 189.953 390.389 191.013 389.676L192.124 391.747C190.725 392.706 189.072 393.224 187.377 393.237C186.5 393.286 185.623 393.153 184.799 392.848C183.976 392.542 183.225 392.07 182.592 391.461C181.959 390.852 181.459 390.119 181.122 389.308C180.785 388.497 180.62 387.625 180.635 386.747V386.747ZM190.356 385.662C190.246 384.832 189.836 384.071 189.203 383.522C188.571 382.973 187.76 382.675 186.922 382.682C186.097 382.706 185.305 383.017 184.683 383.56C184.061 384.104 183.648 384.847 183.513 385.662H190.356Z" fill="white"/>
<path d="M196.113 380.485H198.916V382.278C199.359 381.621 199.963 381.088 200.67 380.73C201.377 380.372 202.164 380.2 202.956 380.232C206.34 380.232 207.451 382.48 207.451 385.813V392.984H204.623V386.167C204.623 384.121 204.168 382.934 202.098 382.934C201.653 382.94 201.214 383.037 200.809 383.219C200.404 383.402 200.04 383.666 199.742 383.995C199.443 384.325 199.216 384.712 199.073 385.134C198.931 385.555 198.878 386.001 198.916 386.444V392.984H196.113V380.485Z" fill="white"/>
<path d="M210.355 386.747C210.345 385.895 210.504 385.05 210.823 384.26C211.142 383.47 211.615 382.751 212.214 382.145C212.813 381.539 213.526 381.058 214.312 380.73C215.099 380.402 215.942 380.232 216.794 380.233C218.442 380.289 220 380.995 221.129 382.197C222.257 383.399 222.864 384.998 222.816 386.646C222.812 387.01 222.782 387.373 222.728 387.732H213.259C213.439 388.618 213.93 389.411 214.643 389.967C215.356 390.522 216.244 390.804 217.148 390.762C218.425 390.772 219.675 390.393 220.733 389.676L221.844 391.747C220.446 392.706 218.793 393.224 217.097 393.237C216.22 393.286 215.343 393.153 214.52 392.848C213.696 392.542 212.945 392.07 212.312 391.461C211.68 390.852 211.179 390.119 210.842 389.308C210.506 388.497 210.34 387.625 210.355 386.747V386.747ZM220.077 385.662C219.966 384.832 219.556 384.071 218.923 383.522C218.291 382.973 217.48 382.675 216.643 382.682C215.817 382.706 215.025 383.017 214.403 383.56C213.782 384.104 213.368 384.847 213.234 385.662H220.077Z" fill="white"/>
<path d="M224.887 391.419L225.948 389.121C227.051 390.072 228.456 390.6 229.912 390.611C231.049 390.611 232.437 390.181 232.437 389.348C232.437 388.515 231.175 388.212 229.912 387.858C227.539 387.202 225.518 386.495 225.518 384.071C225.518 381.647 228.044 380.283 230.215 380.283C231.801 380.254 233.36 380.693 234.697 381.546L233.649 383.818C232.619 383.203 231.441 382.88 230.24 382.884C229.306 382.884 228.372 383.313 228.372 383.97C228.372 384.828 229.407 385.03 230.518 385.232C232.854 385.737 235.278 386.672 235.278 389.247C235.278 392.176 232.261 393.237 229.937 393.237C228.087 393.28 226.286 392.631 224.887 391.419V391.419Z" fill="white"/>
<path d="M244.457 382.758H242.5V380.485H244.47V379.627C244.47 376.647 246.086 375.561 248.055 375.561C249.156 375.579 250.238 375.856 251.212 376.369L250.378 378.44C249.884 378.161 249.33 378.005 248.762 377.985C247.954 377.985 247.273 378.389 247.273 379.93V380.485H250.732V382.758H247.273V392.984H244.47L244.457 382.758Z" fill="white"/>
<path d="M252.916 380.485H255.719V383.01C256.09 382.138 256.726 381.405 257.538 380.916C258.349 380.426 259.294 380.205 260.239 380.283V383.263C257.486 383.263 255.719 384.525 255.719 387.858V392.909H252.916V380.485Z" fill="white"/>
<path d="M262.044 386.747C262.014 385.428 262.378 384.129 263.089 383.017C263.8 381.906 264.827 381.031 266.037 380.505C267.248 379.979 268.587 379.826 269.886 380.065C271.184 380.303 272.381 380.924 273.325 381.846C274.269 382.768 274.917 383.951 275.186 385.243C275.454 386.536 275.332 387.879 274.834 389.101C274.336 390.323 273.485 391.37 272.39 392.106C271.295 392.843 270.005 393.237 268.685 393.237C267.822 393.25 266.965 393.093 266.163 392.773C265.361 392.454 264.631 391.978 264.013 391.375C263.396 390.772 262.904 390.052 262.566 389.258C262.228 388.464 262.051 387.611 262.044 386.747V386.747ZM272.473 386.747C272.473 385.998 272.251 385.266 271.835 384.643C271.418 384.02 270.827 383.535 270.135 383.248C269.443 382.961 268.681 382.886 267.946 383.032C267.212 383.179 266.537 383.539 266.007 384.069C265.477 384.599 265.117 385.274 264.97 386.008C264.824 386.743 264.899 387.505 265.186 388.197C265.473 388.889 265.958 389.48 266.581 389.897C267.204 390.313 267.936 390.535 268.685 390.535C269.186 390.545 269.683 390.455 270.147 390.268C270.611 390.081 271.033 389.802 271.387 389.449C271.74 389.095 272.019 388.673 272.206 388.209C272.392 387.745 272.483 387.248 272.473 386.747V386.747Z" fill="white"/>
<path d="M278.332 380.485H281.134V382.328C281.518 381.698 282.055 381.176 282.695 380.809C283.336 380.443 284.058 380.244 284.796 380.233C285.62 380.167 286.444 380.36 287.152 380.786C287.861 381.212 288.419 381.848 288.748 382.606C289.178 381.901 289.778 381.315 290.492 380.901C291.206 380.486 292.013 380.256 292.838 380.233C296.121 380.233 297.586 382.253 297.586 385.788V392.984H294.783V386.167C294.783 384.424 294.404 382.934 292.258 382.934C291.863 382.936 291.473 383.02 291.112 383.181C290.751 383.341 290.428 383.575 290.162 383.867C289.896 384.159 289.694 384.502 289.568 384.877C289.442 385.251 289.394 385.647 289.429 386.04V392.984H286.563V386.167C286.563 384.424 286.185 382.934 284.038 382.934C283.631 382.95 283.231 383.048 282.863 383.224C282.495 383.4 282.168 383.65 281.9 383.957C281.633 384.265 281.431 384.624 281.308 385.013C281.185 385.402 281.143 385.811 281.185 386.217V392.984H278.382L278.332 380.485Z" fill="white"/>
<path d="M34.3545 404.474H37.0311V405.989C37.5738 405.395 38.2381 404.925 38.979 404.611C39.7198 404.297 40.5196 404.147 41.3238 404.171C44.7579 404.171 47.1063 407.074 47.1063 410.66C47.1063 414.246 44.7579 417.175 41.3238 417.175C40.5367 417.191 39.7557 417.035 39.0358 416.716C38.3158 416.398 37.6746 415.925 37.1573 415.332V420.533H34.3545V404.474ZM44.2529 410.711C44.2807 410.219 44.2069 409.726 44.036 409.264C43.8651 408.802 43.6009 408.381 43.2597 408.025C42.9185 407.67 42.5077 407.388 42.053 407.199C41.5983 407.009 41.1093 406.915 40.6167 406.923C39.6122 406.923 38.6488 407.322 37.9385 408.032C37.2282 408.743 36.8291 409.706 36.8291 410.711C36.8291 411.715 37.2282 412.679 37.9385 413.389C38.6488 414.099 39.6122 414.498 40.6167 414.498C41.1109 414.508 41.6018 414.415 42.0586 414.227C42.5155 414.038 42.9285 413.757 43.272 413.402C43.6155 413.046 43.8822 412.624 44.0553 412.161C44.2284 411.698 44.3043 411.204 44.2782 410.711H44.2529Z" fill="white"/>
<path d="M50.2119 400.358H53.0148V416.973H50.2119V400.358Z" fill="white"/>
<path d="M56.1084 410.736C56.1084 407.125 58.4568 404.221 61.8909 404.221C62.678 404.205 63.459 404.361 64.1789 404.68C64.8989 404.998 65.5401 405.471 66.0574 406.065V404.474H68.8602V416.973H66.0574V415.407C65.5383 415.997 64.8961 416.465 64.1762 416.78C63.4562 417.094 62.6762 417.246 61.8909 417.226C58.4568 417.226 56.1084 414.322 56.1084 410.736ZM66.0574 410.736C66.0899 410.258 66.0252 409.778 65.867 409.325C65.7089 408.872 65.4607 408.457 65.1373 408.103C64.814 407.749 64.4224 407.464 63.9859 407.265C63.5494 407.067 63.0773 406.959 62.598 406.948C61.5934 406.948 60.63 407.347 59.9197 408.058C59.2093 408.768 58.8103 409.731 58.8103 410.736C58.8103 411.741 59.2093 412.704 59.9197 413.414C60.63 414.125 61.5934 414.524 62.598 414.524C63.0784 414.516 63.5523 414.411 63.9905 414.214C64.4286 414.017 64.8218 413.732 65.1458 413.377C65.4699 413.022 65.7179 412.605 65.8747 412.151C66.0314 411.697 66.0936 411.215 66.0574 410.736V410.736Z" fill="white"/>
<path d="M72.4834 404.474H75.2862V406.266C75.7293 405.609 76.3331 405.076 77.0403 404.718C77.7475 404.36 78.5345 404.189 79.3265 404.221C82.7101 404.221 83.8212 406.468 83.8212 409.802V416.973H81.0182V410.155C81.0182 408.11 80.5637 406.923 78.4931 406.923C78.0485 406.928 77.6098 407.025 77.2044 407.208C76.7989 407.39 76.4356 407.655 76.137 407.984C75.8384 408.314 75.6109 408.701 75.4689 409.122C75.3268 409.544 75.2733 409.99 75.3115 410.433V416.973H72.5086L72.4834 404.474Z" fill="white"/>
<path d="M87.8109 412.958V406.772H85.9424V404.474H87.7857V402.024L90.5886 401.444V404.474H94.3763V406.772H90.5886V413.084C90.5886 414.423 91.2199 414.852 91.9269 414.852C92.5777 414.824 93.2075 414.614 93.745 414.246L94.5783 416.342C93.6919 416.945 92.6457 417.27 91.5734 417.276C89.0483 417.225 87.8109 415.837 87.8109 412.958Z" fill="white"/>
<path d="M96.5352 415.407L97.5957 413.11C98.6985 414.061 100.104 414.589 101.56 414.599C102.696 414.599 104.085 414.17 104.085 413.337C104.085 412.503 102.823 412.201 101.56 411.847C99.1865 411.191 97.1664 410.483 97.1664 408.059C97.1664 405.635 99.6915 404.272 101.863 404.272C103.445 404.243 105 404.682 106.333 405.534L105.297 407.807C104.267 407.191 103.088 406.868 101.888 406.872C100.954 406.872 100.02 407.302 100.02 407.958C100.02 408.817 101.055 409.019 102.166 409.221C104.502 409.726 106.913 410.66 106.913 413.236C106.913 416.165 103.909 417.226 101.585 417.226C99.7345 417.268 97.9342 416.62 96.5352 415.407V415.407Z" fill="white"/>
<path d="M115.676 404.474H118.479V406.317C118.862 405.687 119.399 405.164 120.04 404.798C120.68 404.432 121.402 404.233 122.14 404.221C122.964 404.156 123.788 404.349 124.496 404.775C125.205 405.2 125.763 405.837 126.092 406.595C126.522 405.89 127.122 405.304 127.836 404.889C128.551 404.475 129.357 404.245 130.183 404.221C133.465 404.221 134.93 406.241 134.93 409.777V416.973H132.127V410.155C132.127 408.413 131.748 406.923 129.602 406.923C129.207 406.925 128.817 407.009 128.456 407.169C128.095 407.33 127.772 407.564 127.506 407.855C127.24 408.147 127.038 408.491 126.912 408.865C126.786 409.24 126.739 409.636 126.774 410.029V416.973H123.958V410.155C123.958 408.413 123.579 406.923 121.433 406.923C121.026 406.938 120.626 407.037 120.258 407.213C119.89 407.389 119.562 407.638 119.295 407.946C119.027 408.254 118.826 408.613 118.703 409.002C118.58 409.391 118.538 409.8 118.58 410.206V416.973H115.777L115.676 404.474Z" fill="white"/>
<path d="M137.897 410.736C137.897 407.125 140.245 404.221 143.679 404.221C144.466 404.205 145.248 404.361 145.968 404.68C146.687 404.998 147.329 405.471 147.846 406.065V404.474H150.649V416.973H147.808V415.407C147.289 415.997 146.647 416.465 145.927 416.78C145.207 417.094 144.427 417.246 143.642 417.226C140.233 417.226 137.897 414.322 137.897 410.736ZM147.846 410.736C147.878 410.258 147.814 409.778 147.656 409.325C147.497 408.872 147.249 408.457 146.926 408.103C146.603 407.749 146.211 407.464 145.774 407.265C145.338 407.067 144.866 406.959 144.386 406.948C143.382 406.948 142.419 407.347 141.708 408.058C140.998 408.768 140.599 409.731 140.599 410.736C140.599 411.741 140.998 412.704 141.708 413.414C142.419 414.125 143.382 414.524 144.386 414.524C144.864 414.511 145.333 414.402 145.767 414.203C146.201 414.003 146.59 413.718 146.91 413.364C147.23 413.009 147.474 412.594 147.629 412.142C147.783 411.69 147.844 411.212 147.808 410.736H147.846Z" fill="white"/>
<path d="M155.282 418.059C155.876 418.115 156.471 417.969 156.971 417.643C157.471 417.317 157.846 416.832 158.034 416.266L158.287 415.761L152.858 404.474H155.737L158.741 411.14C159.12 411.973 159.549 413.11 159.549 413.11C159.549 413.11 160.105 411.645 160.358 411.014L163.059 404.474H165.888L160.181 417.529C159.816 418.519 159.137 419.363 158.248 419.933C157.36 420.503 156.309 420.767 155.257 420.685L155.282 418.059Z" fill="white"/>
<path d="M173.64 410.736C173.643 409.871 173.818 409.015 174.155 408.217C174.491 407.42 174.982 406.698 175.6 406.092C176.218 405.486 176.95 405.008 177.753 404.687C178.557 404.366 179.416 404.208 180.281 404.221C181.916 404.211 183.501 404.784 184.751 405.837L183.008 407.832C182.261 407.205 181.306 406.881 180.332 406.923C179.834 406.928 179.343 407.031 178.885 407.226C178.427 407.421 178.013 407.704 177.664 408.059C177.316 408.414 177.041 408.835 176.856 409.296C176.67 409.758 176.577 410.251 176.582 410.749C176.587 411.246 176.69 411.738 176.885 412.195C177.08 412.653 177.363 413.068 177.718 413.416C178.435 414.119 179.403 414.508 180.407 414.498C181.524 414.52 182.61 414.134 183.463 413.413L185.003 415.534C183.674 416.628 182.002 417.218 180.281 417.2C179.42 417.215 178.564 417.06 177.763 416.742C176.962 416.425 176.232 415.952 175.614 415.351C174.997 414.75 174.505 414.033 174.166 413.241C173.827 412.449 173.648 411.598 173.64 410.736V410.736Z" fill="white"/>
<path d="M186.581 410.736C186.551 409.416 186.915 408.118 187.626 407.006C188.337 405.894 189.364 405.019 190.574 404.493C191.785 403.967 193.125 403.814 194.423 404.053C195.721 404.292 196.918 404.912 197.862 405.835C198.806 406.757 199.454 407.94 199.723 409.232C199.991 410.524 199.869 411.867 199.371 413.09C198.873 414.312 198.022 415.358 196.927 416.095C195.832 416.831 194.542 417.225 193.222 417.225C192.359 417.239 191.502 417.081 190.7 416.762C189.898 416.442 189.168 415.967 188.55 415.364C187.933 414.76 187.441 414.041 187.103 413.247C186.765 412.452 186.588 411.599 186.581 410.736V410.736ZM197.01 410.736C197.01 409.987 196.788 409.254 196.372 408.632C195.956 408.009 195.364 407.523 194.672 407.237C193.98 406.95 193.218 406.875 192.483 407.021C191.749 407.167 191.074 407.528 190.544 408.058C190.014 408.587 189.654 409.262 189.507 409.997C189.361 410.732 189.436 411.493 189.723 412.185C190.01 412.878 190.495 413.469 191.118 413.885C191.741 414.301 192.473 414.524 193.222 414.524C193.726 414.539 194.227 414.452 194.696 414.268C195.164 414.083 195.591 413.806 195.948 413.451C196.306 413.097 196.588 412.673 196.777 412.207C196.966 411.74 197.058 411.239 197.048 410.736H197.01Z" fill="white"/>
<path d="M202.868 404.474H205.684V406.266C206.127 405.609 206.731 405.076 207.438 404.718C208.145 404.36 208.932 404.189 209.724 404.221C213.108 404.221 214.219 406.468 214.219 409.802V416.973H211.416V410.155C211.416 408.11 210.961 406.923 208.891 406.923C208.446 406.928 208.007 407.025 207.602 407.208C207.196 407.39 206.833 407.655 206.534 407.984C206.236 408.314 206.008 408.701 205.866 409.122C205.724 409.544 205.671 409.99 205.709 410.433V416.973H202.893L202.868 404.474Z" fill="white"/>
<path d="M218.208 412.958V406.772H216.365V404.474H218.208V402.024L221.011 401.444V404.474H224.799V406.772H221.011V413.084C221.011 414.423 221.642 414.852 222.349 414.852C223 414.824 223.63 414.614 224.167 414.246L225.001 416.342C224.114 416.945 223.068 417.27 221.996 417.276C219.445 417.225 218.208 415.837 218.208 412.958Z" fill="white"/>
<path d="M227.463 404.474H230.278V406.999C230.649 406.127 231.286 405.394 232.097 404.904C232.909 404.415 233.854 404.193 234.798 404.272V407.251C232.046 407.251 230.278 408.514 230.278 411.847V416.897H227.463V404.474Z" fill="white"/>
<path d="M236.881 400.939C236.881 400.487 237.059 400.054 237.375 399.733C237.692 399.412 238.122 399.228 238.573 399.221C239.029 399.225 239.465 399.406 239.788 399.727C240.112 400.048 240.296 400.483 240.303 400.939C240.293 401.391 240.106 401.821 239.783 402.137C239.46 402.453 239.025 402.63 238.573 402.63C238.125 402.63 237.694 402.452 237.377 402.135C237.06 401.818 236.881 401.387 236.881 400.939V400.939ZM237.184 404.448H239.975V416.948H237.172L237.184 404.448Z" fill="white"/>
<path d="M246.287 415.407V416.973H243.611V400.358H246.414V406.065C246.933 405.47 247.576 404.997 248.298 404.678C249.02 404.36 249.804 404.204 250.593 404.221C254.027 404.221 256.375 407.125 256.375 410.736C256.375 414.347 254.027 417.226 250.593 417.226C249.787 417.25 248.985 417.1 248.242 416.786C247.499 416.473 246.832 416.002 246.287 415.407V415.407ZM253.522 410.736C253.546 410.244 253.469 409.752 253.296 409.291C253.123 408.83 252.858 408.409 252.516 408.054C252.174 407.699 251.763 407.418 251.309 407.228C250.854 407.038 250.366 406.943 249.873 406.948C248.869 406.948 247.905 407.347 247.195 408.058C246.485 408.768 246.085 409.731 246.085 410.736C246.085 411.741 246.485 412.704 247.195 413.414C247.905 414.125 248.869 414.524 249.873 414.524C250.367 414.533 250.857 414.441 251.313 414.252C251.769 414.063 252.182 413.782 252.524 413.426C252.867 413.071 253.132 412.648 253.304 412.185C253.476 411.722 253.55 411.229 253.522 410.736Z" fill="white"/>
<path d="M259.317 412.074V404.499H262.133V411.696C262.133 413.69 263.004 414.549 264.759 414.549C265.184 414.537 265.602 414.438 265.987 414.257C266.372 414.076 266.715 413.817 266.995 413.497C267.275 413.177 267.486 412.802 267.614 412.396C267.742 411.991 267.784 411.563 267.739 411.14V404.499H270.542V416.998H267.89V415.079C267.457 415.749 266.863 416.3 266.161 416.679C265.459 417.059 264.673 417.255 263.875 417.251C260.555 417.226 259.317 415.357 259.317 412.074Z" fill="white"/>
<path d="M274.859 412.958V406.772H273.016V404.474H274.859V402.024L277.662 401.444V404.474H281.45V406.772H277.662V413.084C277.662 414.423 278.294 414.852 279.001 414.852C279.651 414.824 280.281 414.614 280.819 414.246L281.652 416.342C280.766 416.945 279.719 417.27 278.647 417.276C276.097 417.225 274.859 415.837 274.859 412.958Z" fill="white"/>
<path d="M283.192 410.736C283.182 409.884 283.341 409.039 283.661 408.249C283.98 407.459 284.452 406.74 285.051 406.134C285.65 405.528 286.364 405.047 287.15 404.719C287.936 404.39 288.779 404.221 289.631 404.221C291.277 404.28 292.832 404.988 293.958 406.19C295.084 407.391 295.689 408.989 295.641 410.635C295.637 410.998 295.612 411.361 295.566 411.721H286.096C286.276 412.607 286.767 413.399 287.48 413.955C288.193 414.511 289.082 414.793 289.985 414.751C291.262 414.756 292.511 414.378 293.571 413.665L294.682 415.736C293.283 416.694 291.63 417.213 289.934 417.226C289.058 417.274 288.18 417.142 287.357 416.836C286.534 416.531 285.782 416.059 285.15 415.45C284.517 414.841 284.017 414.108 283.68 413.297C283.343 412.486 283.177 411.614 283.192 410.736V410.736ZM292.914 409.65C292.803 408.82 292.393 408.059 291.761 407.511C291.128 406.962 290.317 406.663 289.48 406.671C288.654 406.695 287.863 407.005 287.241 407.549C286.619 408.092 286.205 408.835 286.071 409.65H292.914Z" fill="white"/>
<path d="M305.363 412.958V406.772H303.52V404.474H305.363V402.024L308.166 401.444V404.474H311.953V406.772H308.166V413.084C308.166 414.423 308.797 414.852 309.504 414.852C310.155 414.824 310.785 414.614 311.322 414.246L312.155 416.342C311.269 416.945 310.223 417.27 309.151 417.276C306.6 417.225 305.363 415.837 305.363 412.958Z" fill="white"/>
<path d="M313.696 410.736C313.665 409.416 314.029 408.118 314.74 407.006C315.452 405.894 316.478 405.019 317.688 404.493C318.899 403.967 320.239 403.814 321.537 404.053C322.835 404.292 324.032 404.912 324.976 405.835C325.92 406.757 326.568 407.94 326.837 409.232C327.106 410.524 326.983 411.867 326.485 413.09C325.987 414.312 325.137 415.358 324.042 416.095C322.946 416.831 321.657 417.225 320.337 417.225C319.474 417.239 318.616 417.081 317.814 416.762C317.013 416.442 316.282 415.967 315.665 415.364C315.047 414.76 314.555 414.041 314.217 413.247C313.879 412.452 313.702 411.599 313.696 410.736V410.736ZM324.124 410.736C324.124 409.987 323.902 409.254 323.486 408.632C323.07 408.009 322.478 407.523 321.786 407.237C321.094 406.95 320.332 406.875 319.598 407.021C318.863 407.167 318.188 407.528 317.658 408.058C317.129 408.587 316.768 409.262 316.622 409.997C316.476 410.732 316.551 411.493 316.837 412.185C317.124 412.878 317.609 413.469 318.232 413.885C318.855 414.301 319.588 414.524 320.337 414.524C320.837 414.534 321.334 414.443 321.798 414.256C322.262 414.07 322.684 413.791 323.038 413.437C323.392 413.083 323.67 412.662 323.857 412.197C324.044 411.733 324.135 411.236 324.124 410.736V410.736Z" fill="white"/>
<path d="M35.1368 436.947V430.76H33.2935V428.462H35.1368V426.013L37.9397 425.432V428.462H41.7273V430.76H37.9397V437.073C37.9397 438.411 38.5709 438.841 39.278 438.841C39.9287 438.813 40.5586 438.603 41.0961 438.235L41.9294 440.33C41.043 440.934 39.9968 441.259 38.9245 441.265C36.3741 441.214 35.1368 439.825 35.1368 436.947Z" fill="white"/>
<path d="M44.4043 424.346H47.2072V430.255C47.6427 429.596 48.2415 429.062 48.9451 428.703C49.6487 428.345 50.4332 428.175 51.2221 428.21C54.5048 428.21 55.7169 430.356 55.7169 433.79V440.962H52.914V434.144C52.914 432.099 52.3585 430.912 50.2879 430.912C49.85 430.918 49.4183 431.015 49.0204 431.198C48.6225 431.381 48.2671 431.645 47.9771 431.973C47.687 432.301 47.4688 432.686 47.3362 433.103C47.2036 433.521 47.1597 433.961 47.2072 434.396V440.962H44.4043V424.346Z" fill="white"/>
<path d="M58.6206 434.725C58.6106 433.873 58.7697 433.027 59.0888 432.237C59.4079 431.447 59.8807 430.728 60.4796 430.122C61.0785 429.516 61.7918 429.035 62.578 428.707C63.3642 428.379 64.2077 428.21 65.0597 428.21C66.7052 428.269 68.2605 428.977 69.3863 430.178C70.5122 431.38 71.1171 432.978 71.0694 434.624C71.0654 434.987 71.0401 435.349 70.9937 435.709H61.5245C61.7043 436.595 62.1952 437.388 62.9084 437.944C63.6216 438.499 64.51 438.782 65.4132 438.739C66.6902 438.745 67.9394 438.366 68.9989 437.654L70.1099 439.724C68.7113 440.683 67.0582 441.202 65.3627 441.214C64.4859 441.263 63.6084 441.13 62.7852 440.825C61.9619 440.519 61.2105 440.047 60.5779 439.438C59.9452 438.829 59.4448 438.096 59.1081 437.285C58.7713 436.474 58.6054 435.603 58.6206 434.725V434.725ZM68.3423 433.639C68.2315 432.809 67.8214 432.048 67.189 431.499C66.5565 430.951 65.7454 430.652 64.9082 430.659C64.0826 430.683 63.291 430.994 62.6691 431.537C62.0472 432.081 61.6336 432.824 61.4993 433.639H68.3423Z" fill="white"/>
<path d="M80.791 436.947V430.76H78.9478V428.462H80.791V426.013L83.594 425.432V428.462H87.3816V430.76H83.594V437.073C83.594 438.411 84.2252 438.841 84.9323 438.841C85.583 438.813 86.2129 438.603 86.7504 438.235L87.5836 440.33C86.6972 440.934 85.651 441.259 84.5787 441.265C82.0283 441.214 80.791 439.825 80.791 436.947Z" fill="white"/>
<path d="M90.0586 424.346H92.8614V430.255C93.297 429.596 93.8958 429.062 94.5994 428.703C95.303 428.345 96.0875 428.175 96.8764 428.21C100.159 428.21 101.371 430.356 101.371 433.79V440.962H98.5682V434.144C98.5682 432.099 98.0127 430.912 95.9421 430.912C95.5043 430.918 95.0726 431.015 94.6747 431.198C94.2768 431.381 93.9214 431.645 93.6314 431.973C93.3413 432.301 93.123 432.686 92.9904 433.103C92.8579 433.521 92.8139 433.961 92.8614 434.396V440.962H90.0586V424.346Z" fill="white"/>
<path d="M104.288 434.725C104.278 433.873 104.437 433.027 104.756 432.237C105.075 431.447 105.548 430.728 106.147 430.122C106.745 429.516 107.459 429.035 108.245 428.707C109.031 428.379 109.875 428.21 110.727 428.21C112.372 428.269 113.927 428.977 115.053 430.178C116.179 431.38 116.784 432.978 116.736 434.624C116.732 434.987 116.707 435.349 116.661 435.709H107.191C107.371 436.595 107.862 437.388 108.575 437.944C109.288 438.499 110.177 438.782 111.08 438.739C112.357 438.745 113.606 438.366 114.666 437.654L115.777 439.724C114.378 440.683 112.725 441.202 111.03 441.214C110.153 441.263 109.275 441.13 108.452 440.825C107.629 440.519 106.877 440.047 106.245 439.438C105.612 438.829 105.112 438.096 104.775 437.285C104.438 436.474 104.272 435.603 104.288 434.725V434.725ZM114.009 433.639C113.898 432.809 113.488 432.048 112.856 431.499C112.223 430.951 111.412 430.652 110.575 430.659C109.749 430.683 108.958 430.994 108.336 431.537C107.714 432.081 107.301 432.824 107.166 433.639H114.009Z" fill="white"/>
<path d="M119.779 428.462H122.556V430.987C122.928 430.115 123.564 429.383 124.375 428.893C125.187 428.403 126.132 428.182 127.076 428.26V431.24C124.324 431.24 122.556 432.502 122.556 435.836V440.886H119.779V428.462Z" fill="white"/>
<path d="M128.983 434.725C128.983 431.114 131.332 428.21 134.766 428.21C135.553 428.193 136.334 428.35 137.054 428.668C137.774 428.987 138.415 429.46 138.932 430.053V428.462H141.735V440.962H138.97V439.396C138.451 439.985 137.809 440.454 137.089 440.768C136.369 441.082 135.589 441.234 134.804 441.214C131.395 441.214 128.983 438.31 128.983 434.725ZM138.932 434.725C138.965 434.246 138.9 433.766 138.742 433.314C138.584 432.861 138.336 432.445 138.012 432.091C137.689 431.737 137.297 431.452 136.861 431.254C136.424 431.055 135.952 430.948 135.473 430.937C134.468 430.937 133.505 431.336 132.795 432.046C132.084 432.757 131.685 433.72 131.685 434.725C131.685 435.729 132.084 436.693 132.795 437.403C133.505 438.113 134.468 438.512 135.473 438.512C135.957 438.51 136.435 438.408 136.877 438.214C137.32 438.019 137.718 437.735 138.046 437.379C138.374 437.024 138.625 436.605 138.784 436.148C138.943 435.691 139.007 435.207 138.97 434.725H138.932Z" fill="white"/>
<path d="M145.358 428.462H148.035V429.977C148.578 429.383 149.242 428.914 149.983 428.6C150.724 428.286 151.524 428.136 152.328 428.159C155.762 428.159 158.11 431.063 158.11 434.649C158.11 438.234 155.762 441.164 152.328 441.164C151.541 441.18 150.76 441.023 150.04 440.705C149.32 440.386 148.679 439.914 148.161 439.32V444.522H145.358V428.462ZM155.257 434.699C155.285 434.207 155.211 433.715 155.04 433.253C154.869 432.791 154.605 432.369 154.264 432.014C153.922 431.658 153.512 431.377 153.057 431.187C152.602 430.998 152.113 430.904 151.621 430.912C150.616 430.912 149.653 431.311 148.942 432.021C148.232 432.731 147.833 433.695 147.833 434.699C147.833 435.704 148.232 436.667 148.942 437.378C149.653 438.088 150.616 438.487 151.621 438.487C152.113 438.493 152.601 438.398 153.055 438.207C153.509 438.017 153.919 437.736 154.259 437.381C154.6 437.026 154.865 436.605 155.036 436.144C155.208 435.682 155.283 435.191 155.257 434.699V434.699Z" fill="white"/>
<path d="M160.636 434.725C160.626 433.873 160.785 433.027 161.104 432.237C161.423 431.447 161.896 430.728 162.495 430.122C163.094 429.516 163.807 429.035 164.593 428.707C165.379 428.379 166.223 428.21 167.075 428.21C168.72 428.269 170.276 428.977 171.401 430.178C172.527 431.38 173.132 432.978 173.085 434.624C173.081 434.987 173.055 435.349 173.009 435.709H163.54C163.72 436.595 164.21 437.388 164.924 437.944C165.637 438.499 166.525 438.782 167.428 438.739C168.705 438.745 169.954 438.366 171.014 437.654L172.125 439.724C170.726 440.683 169.073 441.202 167.378 441.214C166.501 441.263 165.624 441.13 164.8 440.825C163.977 440.519 163.226 440.047 162.593 439.438C161.96 438.829 161.46 438.096 161.123 437.285C160.786 436.474 160.62 435.603 160.636 434.725V434.725ZM170.357 433.639C170.247 432.809 169.837 432.048 169.204 431.499C168.572 430.951 167.761 430.652 166.923 430.659C166.098 430.683 165.306 430.994 164.684 431.537C164.062 432.081 163.649 432.824 163.514 433.639H170.357Z" fill="white"/>
<path d="M175.938 436.063V428.488H178.741V435.684C178.741 437.679 179.625 438.538 181.38 438.538C181.805 438.526 182.223 438.427 182.608 438.246C182.993 438.065 183.336 437.806 183.616 437.485C183.896 437.165 184.106 436.79 184.234 436.385C184.362 435.979 184.405 435.552 184.359 435.129V428.488H187.162V440.987H184.511V439.068C184.077 439.74 183.48 440.291 182.776 440.671C182.072 441.051 181.283 441.246 180.483 441.24C177.175 441.214 175.938 439.346 175.938 436.063Z" fill="white"/>
<path d="M191.48 436.947V430.76H189.637V428.462H191.48V426.013L194.283 425.432V428.462H198.071V430.76H194.283V437.073C194.283 438.411 194.914 438.841 195.621 438.841C196.272 438.813 196.902 438.603 197.439 438.235L198.273 440.33C197.386 440.934 196.34 441.259 195.268 441.265C192.717 441.214 191.48 439.825 191.48 436.947Z" fill="white"/>
<path d="M200.406 424.927C200.406 424.476 200.584 424.043 200.9 423.722C201.217 423.4 201.647 423.217 202.098 423.21C202.552 423.213 202.987 423.395 203.309 423.717C203.63 424.038 203.812 424.473 203.815 424.927C203.809 425.378 203.625 425.808 203.303 426.125C202.982 426.442 202.549 426.619 202.098 426.619C201.649 426.619 201.219 426.441 200.902 426.123C200.585 425.806 200.406 425.376 200.406 424.927V424.927ZM200.709 428.437H203.512V440.936H200.709V428.437Z" fill="white"/>
<path d="M206.429 434.725C206.432 433.859 206.607 433.003 206.943 432.206C207.28 431.409 207.771 430.686 208.389 430.08C209.007 429.474 209.738 428.997 210.542 428.676C211.345 428.355 212.205 428.196 213.07 428.21C214.704 428.199 216.289 428.772 217.539 429.826L215.797 431.821C215.05 431.194 214.095 430.869 213.12 430.912C212.623 430.917 212.131 431.02 211.674 431.215C211.216 431.409 210.801 431.693 210.453 432.048C210.105 432.403 209.83 432.823 209.644 433.285C209.459 433.746 209.366 434.24 209.37 434.737C209.375 435.235 209.478 435.726 209.673 436.184C209.868 436.641 210.151 437.056 210.507 437.404C211.224 438.108 212.191 438.497 213.196 438.487C214.313 438.508 215.399 438.122 216.251 437.401L217.792 439.522C216.463 440.617 214.791 441.207 213.07 441.189C212.208 441.204 211.353 441.048 210.552 440.731C209.751 440.414 209.02 439.941 208.403 439.34C207.786 438.739 207.293 438.022 206.954 437.23C206.616 436.437 206.437 435.586 206.429 434.725V434.725Z" fill="white"/>
<path d="M225.847 434.725C225.837 433.873 225.996 433.027 226.315 432.237C226.634 431.447 227.107 430.728 227.706 430.122C228.305 429.516 229.018 429.035 229.804 428.707C230.59 428.379 231.434 428.21 232.286 428.21C233.931 428.269 235.486 428.977 236.612 430.178C237.738 431.38 238.343 432.978 238.295 434.624C238.291 434.987 238.266 435.349 238.22 435.709H228.751C228.93 436.595 229.421 437.388 230.134 437.944C230.848 438.499 231.736 438.782 232.639 438.739C233.916 438.745 235.165 438.366 236.225 437.654L237.336 439.724C235.937 440.683 234.284 441.202 232.589 441.214C231.712 441.263 230.835 441.13 230.011 440.825C229.188 440.519 228.437 440.047 227.804 439.438C227.171 438.829 226.671 438.096 226.334 437.285C225.997 436.474 225.831 435.603 225.847 434.725V434.725ZM235.568 433.639C235.458 432.809 235.047 432.048 234.415 431.499C233.783 430.951 232.971 430.652 232.134 430.659C231.309 430.683 230.517 430.994 229.895 431.537C229.273 432.081 228.86 432.824 228.725 433.639H235.568Z" fill="white"/>
<path d="M241.692 430.735H239.722V428.462H241.692V427.604C241.692 424.624 243.308 423.538 245.29 423.538C246.391 423.556 247.472 423.833 248.446 424.346L247.613 426.417C247.119 426.138 246.564 425.982 245.997 425.962C245.189 425.962 244.507 426.366 244.507 427.907V428.462H247.967V430.735H244.507V440.962H241.692V430.735Z" fill="white"/>
<path d="M251.338 430.735H249.368V428.462H251.338V427.604C251.338 424.624 252.954 423.538 254.923 423.538C256.024 423.556 257.106 423.833 258.08 424.346L257.247 426.417C256.752 426.138 256.198 425.982 255.63 425.962C254.822 425.962 254.141 426.366 254.141 427.907V428.462H257.651V430.735H254.191V440.962H251.338V430.735Z" fill="white"/>
<path d="M259.103 434.725C259.093 433.873 259.252 433.027 259.571 432.237C259.89 431.447 260.363 430.728 260.961 430.122C261.56 429.516 262.274 429.035 263.06 428.707C263.846 428.379 264.69 428.21 265.542 428.21C267.187 428.269 268.742 428.977 269.868 430.178C270.994 431.38 271.599 432.978 271.551 434.624C271.547 434.987 271.522 435.349 271.476 435.709H262.006C262.186 436.595 262.677 437.388 263.39 437.944C264.103 438.499 264.992 438.782 265.895 438.739C267.172 438.745 268.421 438.366 269.481 437.654L270.592 439.724C269.193 440.683 267.54 441.202 265.845 441.214C264.968 441.263 264.09 441.13 263.267 440.825C262.444 440.519 261.692 440.047 261.06 439.438C260.427 438.829 259.927 438.096 259.59 437.285C259.253 436.474 259.087 435.603 259.103 434.725V434.725ZM268.824 433.639C268.713 432.809 268.303 432.048 267.671 431.499C267.038 430.951 266.227 430.652 265.39 430.659C264.564 430.683 263.773 430.994 263.151 431.537C262.529 432.081 262.116 432.824 261.981 433.639H268.824Z" fill="white"/>
<path d="M273.95 434.725C273.953 433.859 274.128 433.003 274.465 432.206C274.801 431.409 275.293 430.686 275.91 430.08C276.528 429.474 277.26 428.997 278.063 428.676C278.867 428.355 279.726 428.196 280.591 428.21C282.226 428.199 283.811 428.772 285.061 429.826L283.318 431.821C282.571 431.194 281.616 430.869 280.642 430.912C280.144 430.917 279.653 431.02 279.195 431.215C278.738 431.409 278.323 431.693 277.975 432.048C277.626 432.403 277.352 432.823 277.166 433.285C276.98 433.746 276.887 434.24 276.892 434.737C276.897 435.235 277 435.726 277.195 436.184C277.39 436.641 277.673 437.056 278.028 437.404C278.746 438.108 279.713 438.497 280.718 438.487C281.834 438.508 282.92 438.122 283.773 437.401L285.313 439.522C283.985 440.617 282.312 441.207 280.591 441.189C279.73 441.204 278.874 441.048 278.073 440.731C277.272 440.414 276.542 439.941 275.924 439.34C275.307 438.739 274.815 438.022 274.476 437.23C274.137 436.437 273.958 435.586 273.95 434.725V434.725Z" fill="white"/>
<path d="M288.899 436.947V430.76H287.056V428.462H288.899V426.013L291.702 425.432V428.462H295.49V430.76H291.702V437.073C291.702 438.411 292.333 438.841 293.04 438.841C293.691 438.813 294.321 438.603 294.858 438.235L295.692 440.33C294.805 440.934 293.759 441.259 292.687 441.265C290.136 441.214 288.899 439.825 288.899 436.947Z" fill="white"/>
<path d="M297.623 439.396L298.684 437.098C299.786 438.05 301.192 438.578 302.648 438.588C303.784 438.588 305.173 438.159 305.173 437.325C305.173 436.492 303.911 436.189 302.648 435.836C300.274 435.179 298.254 434.472 298.254 432.048C298.254 429.624 300.779 428.26 302.951 428.26C304.533 428.232 306.088 428.671 307.421 429.523L306.385 431.795C305.355 431.18 304.176 430.857 302.976 430.861C302.042 430.861 301.108 431.291 301.108 431.947C301.108 432.806 302.143 433.008 303.254 433.21C305.577 433.715 308.001 434.649 308.001 437.224C308.001 440.154 304.996 441.214 302.673 441.214C300.822 441.257 299.022 440.609 297.623 439.396V439.396Z" fill="white"/>
<path d="M33.9251 458.713C33.895 457.394 34.2587 456.095 34.9699 454.983C35.6811 453.871 36.7074 452.997 37.918 452.471C39.1285 451.945 40.4683 451.791 41.7664 452.03C43.0644 452.269 44.2619 452.889 45.2059 453.812C46.1499 454.734 46.7976 455.917 47.0664 457.209C47.3351 458.501 47.2128 459.845 46.7149 461.067C46.217 462.289 45.3661 463.335 44.271 464.072C43.1758 464.809 41.886 465.202 40.5661 465.203C39.7031 465.216 38.8459 465.058 38.044 464.739C37.2422 464.419 36.5115 463.944 35.8941 463.341C35.2768 462.738 34.7849 462.018 34.4469 461.224C34.109 460.43 33.9316 459.576 33.9251 458.713V458.713ZM44.3538 458.713C44.3538 457.964 44.1317 457.232 43.7155 456.609C43.2993 455.986 42.7078 455.501 42.0157 455.214C41.3235 454.927 40.562 454.852 39.8272 454.998C39.0925 455.144 38.4175 455.505 37.8878 456.035C37.3581 456.565 36.9974 457.239 36.8512 457.974C36.7051 458.709 36.7801 459.471 37.0668 460.163C37.3535 460.855 37.839 461.446 38.4619 461.863C39.0847 462.279 39.817 462.501 40.5661 462.501C41.0664 462.511 41.5635 462.42 42.0278 462.234C42.492 462.047 42.9136 461.768 43.2674 461.414C43.6212 461.061 43.8998 460.639 44.0865 460.175C44.2732 459.711 44.3641 459.213 44.3538 458.713V458.713Z" fill="white"/>
<path d="M50.5909 454.724H48.5708V452.451H50.5909V451.592C50.5909 448.613 52.207 447.527 54.1766 447.527C55.2776 447.545 56.3589 447.821 57.333 448.335L56.4996 450.406C56.0051 450.127 55.4509 449.971 54.8836 449.951C54.0756 449.951 53.3937 450.355 53.3937 451.895V452.451H56.8532V454.724H53.3937V464.95H50.5909V454.724Z" fill="white"/>
<path d="M64.479 458.713C64.4822 457.848 64.6572 456.992 64.9936 456.195C65.3301 455.398 65.8214 454.675 66.4391 454.069C67.0568 453.463 67.7886 452.986 68.5921 452.665C69.3956 452.344 70.2549 452.185 71.1201 452.199C72.7547 452.188 74.3395 452.761 75.5895 453.815L73.8472 455.809C73.1 455.182 72.145 454.858 71.1706 454.9C70.166 454.91 69.2066 455.319 68.5033 456.037C67.8001 456.754 67.4107 457.721 67.4208 458.726C67.4308 459.731 67.8395 460.69 68.557 461.393C69.2744 462.096 70.2418 462.486 71.2463 462.476C72.3629 462.497 73.449 462.111 74.3018 461.39L75.842 463.511C74.5133 464.605 72.8412 465.195 71.1201 465.178C70.2587 465.193 69.4028 465.037 68.6018 464.72C67.8008 464.402 67.0706 463.93 66.4532 463.329C65.8358 462.728 65.3435 462.01 65.0047 461.218C64.6659 460.426 64.4872 459.575 64.479 458.713V458.713Z" fill="white"/>
<path d="M77.5088 458.713C77.5088 455.102 79.8572 452.198 83.2913 452.198C84.0784 452.182 84.8594 452.339 85.5793 452.657C86.2993 452.976 86.9405 453.448 87.4578 454.042V452.451H90.2606V464.95H87.4578V463.385C86.9387 463.974 86.2965 464.443 85.5766 464.757C84.8566 465.071 84.0766 465.223 83.2913 465.203C79.8572 465.203 77.5088 462.299 77.5088 458.713ZM87.4578 458.713C87.4903 458.235 87.4256 457.755 87.2674 457.302C87.1093 456.85 86.8611 456.434 86.5377 456.08C86.2144 455.726 85.8227 455.441 85.3862 455.243C84.9498 455.044 84.4777 454.936 83.9984 454.926C82.9938 454.926 82.0304 455.325 81.32 456.035C80.6097 456.745 80.2107 457.709 80.2107 458.713C80.2107 459.718 80.6097 460.681 81.32 461.392C82.0304 462.102 82.9938 462.501 83.9984 462.501C84.4788 462.494 84.9526 462.388 85.3908 462.191C85.8289 461.994 86.2222 461.709 86.5462 461.354C86.8703 461 87.1183 460.582 87.2751 460.128C87.4318 459.674 87.494 459.192 87.4578 458.713V458.713Z" fill="white"/>
<path d="M93.8838 452.451H96.6867V454.244C97.1298 453.586 97.7336 453.054 98.4408 452.696C99.1479 452.338 99.9349 452.166 100.727 452.198C104.111 452.198 105.222 454.446 105.222 457.779V464.95H102.419V458.132C102.419 456.087 101.964 454.9 99.8936 454.9C99.449 454.906 99.0102 455.002 98.6048 455.185C98.1994 455.368 97.836 455.632 97.5374 455.961C97.2388 456.291 97.0114 456.678 96.8693 457.1C96.7273 457.521 96.6737 457.967 96.712 458.41V464.95H93.9091L93.8838 452.451Z" fill="white"/>
<path d="M108.731 452.451H111.534V454.244C111.977 453.586 112.581 453.054 113.288 452.696C113.996 452.338 114.783 452.166 115.574 452.198C118.958 452.198 120.082 454.446 120.082 457.779V464.95H117.266V458.132C117.266 456.087 116.812 454.9 114.741 454.9C114.297 454.906 113.858 455.002 113.452 455.185C113.047 455.368 112.684 455.632 112.385 455.961C112.086 456.291 111.859 456.678 111.717 457.1C111.575 457.521 111.521 457.967 111.56 458.41V464.95H108.757L108.731 452.451Z" fill="white"/>
<path d="M123.024 458.713C123.024 455.102 125.372 452.198 128.806 452.198C129.595 452.184 130.378 452.341 131.099 452.659C131.821 452.978 132.465 453.449 132.986 454.042V452.451H135.776V464.95H132.986V463.385C132.463 463.974 131.819 464.442 131.097 464.756C130.375 465.07 129.593 465.223 128.806 465.203C125.372 465.203 123.024 462.299 123.024 458.713ZM132.986 458.713C133.018 458.234 132.953 457.753 132.794 457.3C132.635 456.846 132.386 456.43 132.061 456.075C131.737 455.721 131.343 455.437 130.905 455.239C130.467 455.041 129.994 454.935 129.514 454.926C128.509 454.926 127.546 455.325 126.835 456.035C126.125 456.745 125.726 457.709 125.726 458.713C125.726 459.718 126.125 460.681 126.835 461.392C127.546 462.102 128.509 462.501 129.514 462.501C129.994 462.494 130.469 462.388 130.908 462.191C131.346 461.994 131.74 461.71 132.065 461.355C132.39 461.001 132.64 460.583 132.798 460.129C132.956 459.675 133.02 459.193 132.986 458.713Z" fill="white"/>
<path d="M142.076 463.385V464.95H139.399V448.335H142.202V454.042C142.72 453.448 143.361 452.976 144.081 452.657C144.801 452.339 145.582 452.182 146.369 452.198C149.815 452.198 152.164 455.102 152.164 458.713C152.164 462.324 149.815 465.203 146.369 465.203C145.565 465.226 144.765 465.076 144.024 464.762C143.283 464.449 142.619 463.979 142.076 463.385V463.385ZM149.298 458.713C149.324 458.222 149.249 457.73 149.077 457.269C148.905 456.808 148.641 456.387 148.3 456.032C147.959 455.677 147.55 455.395 147.096 455.205C146.642 455.015 146.154 454.92 145.662 454.926C144.657 454.926 143.694 455.325 142.983 456.035C142.273 456.745 141.874 457.709 141.874 458.713C141.874 459.718 142.273 460.681 142.983 461.392C143.694 462.102 144.657 462.501 145.662 462.501C146.154 462.509 146.643 462.415 147.098 462.225C147.553 462.036 147.963 461.754 148.305 461.399C148.646 461.043 148.91 460.622 149.081 460.16C149.252 459.697 149.326 459.205 149.298 458.713V458.713Z" fill="white"/>
<path d="M154.903 448.916C154.903 448.465 155.081 448.032 155.397 447.71C155.714 447.389 156.144 447.205 156.595 447.199C157.05 447.202 157.484 447.384 157.806 447.705C158.127 448.027 158.309 448.461 158.312 448.916C158.306 449.367 158.122 449.797 157.801 450.114C157.479 450.43 157.046 450.608 156.595 450.608C156.146 450.608 155.716 450.429 155.399 450.112C155.082 449.795 154.903 449.364 154.903 448.916V448.916ZM155.206 452.426H158.009V464.925H155.206V452.426Z" fill="white"/>
<path d="M160.825 463.385L161.885 461.087C162.988 462.038 164.393 462.566 165.85 462.577C166.986 462.577 168.375 462.147 168.375 461.314C168.375 460.481 167.112 460.178 165.85 459.824C163.476 459.168 161.456 458.461 161.456 456.037C161.456 453.612 163.981 452.249 166.153 452.249C167.734 452.22 169.289 452.66 170.622 453.511L169.587 455.784C168.557 455.169 167.378 454.846 166.178 454.85C165.244 454.85 164.309 455.279 164.309 455.936C164.309 456.794 165.345 456.996 166.456 457.198C168.779 457.703 171.203 458.637 171.203 461.213C171.203 464.142 168.198 465.203 165.875 465.203C164.024 465.245 162.224 464.597 160.825 463.385V463.385Z" fill="white"/>
<path d="M173.943 463.46C173.941 463.23 173.985 463.001 174.072 462.788C174.158 462.574 174.286 462.38 174.448 462.216C174.61 462.052 174.802 461.921 175.015 461.831C175.227 461.742 175.455 461.695 175.685 461.693C176.151 461.693 176.597 461.878 176.926 462.207C177.255 462.536 177.44 462.982 177.44 463.448C177.44 463.913 177.255 464.36 176.926 464.689C176.597 465.018 176.151 465.203 175.685 465.203C175.456 465.204 175.229 465.16 175.017 465.073C174.804 464.987 174.612 464.858 174.45 464.696C174.287 464.534 174.159 464.341 174.072 464.129C173.985 463.917 173.941 463.69 173.943 463.46V463.46Z" fill="white"/>
<path d="M188.462 84.4905V71.2589" stroke="#DFC98B" stroke-width="2.5" stroke-linecap="round" stroke-linejoin="round"/>
<path d="M168.615 87.1798L165.193 74.4026" stroke="#DFC98B" stroke-width="2.5" stroke-linecap="round" stroke-linejoin="round"/>
<path d="M150.131 94.9066L143.515 83.4426" stroke="#DFC98B" stroke-width="2.5" stroke-linecap="round" stroke-linejoin="round"/>
<path d="M134.286 107.153L124.93 97.7979" stroke="#DFC98B" stroke-width="2.5" stroke-linecap="round" stroke-linejoin="round"/>
<path d="M122.153 123.087L110.688 116.471" stroke="#DFC98B" stroke-width="2.5" stroke-linecap="round" stroke-linejoin="round"/>
<path d="M114.552 141.609L101.775 138.187" stroke="#DFC98B" stroke-width="2.5" stroke-linecap="round" stroke-linejoin="round"/>
<path d="M112.002 161.481H98.77" stroke="#DFC98B" stroke-width="2.5" stroke-linecap="round" stroke-linejoin="round"/>
<path d="M114.678 181.329L101.901 184.75" stroke="#DFC98B" stroke-width="2.5" stroke-linecap="round" stroke-linejoin="round"/>
<path d="M122.418 199.813L110.954 206.429" stroke="#DFC98B" stroke-width="2.5" stroke-linecap="round" stroke-linejoin="round"/>
<path d="M134.665 215.658L125.309 225.013" stroke="#DFC98B" stroke-width="2.5" stroke-linecap="round" stroke-linejoin="round"/>
<path d="M150.598 227.791L143.982 239.255" stroke="#DFC98B" stroke-width="2.5" stroke-linecap="round" stroke-linejoin="round"/>
<path d="M169.12 235.392L165.698 248.169" stroke="#DFC98B" stroke-width="2.5" stroke-linecap="round" stroke-linejoin="round"/>
<path d="M208.84 235.265L212.261 248.042" stroke="#DFC98B" stroke-width="2.5" stroke-linecap="round" stroke-linejoin="round"/>
<path d="M227.324 227.526L233.927 238.99" stroke="#DFC98B" stroke-width="2.5" stroke-linecap="round" stroke-linejoin="round"/>
<path d="M243.169 215.279L252.525 224.635" stroke="#DFC98B" stroke-width="2.5" stroke-linecap="round" stroke-linejoin="round"/>
<path d="M255.302 199.346L266.766 205.961" stroke="#DFC98B" stroke-width="2.5" stroke-linecap="round" stroke-linejoin="round"/>
<path d="M262.903 180.824L275.68 184.245" stroke="#DFC98B" stroke-width="2.5" stroke-linecap="round" stroke-linejoin="round"/>
<path d="M265.453 160.951H278.685" stroke="#DFC98B" stroke-width="2.5" stroke-linecap="round" stroke-linejoin="round"/>
<path d="M262.764 141.104L275.541 137.682" stroke="#DFC98B" stroke-width="2.5" stroke-linecap="round" stroke-linejoin="round"/>
<path d="M255.037 122.62L266.501 116.017" stroke="#DFC98B" stroke-width="2.5" stroke-linecap="round" stroke-linejoin="round"/>
<path d="M242.79 106.775L252.146 97.4191" stroke="#DFC98B" stroke-width="2.5" stroke-linecap="round" stroke-linejoin="round"/>
<path d="M226.857 94.6415L233.473 83.1774" stroke="#DFC98B" stroke-width="2.5" stroke-linecap="round" stroke-linejoin="round"/>
<path d="M208.335 87.0409L211.757 74.2638" stroke="#DFC98B" stroke-width="2.5" stroke-linecap="round" stroke-linejoin="round"/>
<path d="M188.727 267.423C247.244 267.423 294.682 219.986 294.682 161.469C294.682 102.952 247.244 55.5148 188.727 55.5148C130.211 55.5148 82.7734 102.952 82.7734 161.469C82.7734 219.986 130.211 267.423 188.727 267.423Z" stroke="#DFC98B" stroke-width="2.5" stroke-linecap="round" stroke-linejoin="round"/>
<path d="M188.993 254.671L188.69 225.885C188.69 225.885 232.513 217.564 232.513 170.875C232.513 126.193 187.667 93.4042 187.667 93.4042C187.667 93.4042 144.21 120.903 143.793 165.812C143.439 205.494 175.9 222.627 175.9 222.627" fill="white"/>
<path d="M188.689 226.402L186.922 120.044" stroke="#DFC98B" stroke-width="2.5" stroke-linecap="round" stroke-linejoin="round"/>
<path d="M188.993 254.671L188.69 225.885C188.69 225.885 232.513 217.564 232.513 170.875C232.513 126.193 187.667 93.4042 187.667 93.4042C187.667 93.4042 144.21 120.903 143.793 165.812C143.439 205.494 175.9 222.627 175.9 222.627" stroke="#DFC98B" stroke-width="2.5" stroke-linecap="round" stroke-linejoin="round"/>
<path d="M202.692 132.922L188.917 146.697" stroke="#DFC98B" stroke-width="2.5" stroke-linecap="round" stroke-linejoin="round"/>
<path d="M211.075 184.422L188.917 206.58" stroke="#DFC98B" stroke-width="2.5" stroke-linecap="round" stroke-linejoin="round"/>
<path d="M212.426 153.439L189.22 176.645" stroke="#DFC98B" stroke-width="2.5" stroke-linecap="round" stroke-linejoin="round"/>
<path d="M173.046 132.922L186.821 146.697" stroke="#DFC98B" stroke-width="2.5" stroke-linecap="round" stroke-linejoin="round"/>
<path d="M164.663 184.422L186.821 206.58" stroke="#DFC98B" stroke-width="2.5" stroke-linecap="round" stroke-linejoin="round"/>
<path d="M163.312 153.439L186.518 176.645" stroke="#DFC98B" stroke-width="2.5" stroke-linecap="round" stroke-linejoin="round"/>
</g>
<defs>
<clipPath id="clip0_664_2338">
<rect width="378.995" height="500.1" fill="white"/>
</clipPath>
</defs>
</svg>
