<svg viewBox="0 0 248 128" fill="none" xmlns="http://www.w3.org/2000/svg">
<path d="M78.56 37H84.16V25.92H95.92V21.16H84.16V15.88H97.96V11.08H78.56V37ZM110.002 37.4C112.602 37.4 115.202 36.68 117.442 35.2L115.442 31.36C113.962 32.36 111.962 32.92 110.042 32.92C107.402 32.92 105.122 31.6 104.482 28.84H119.002C119.002 28.84 119.122 27.88 119.122 26.92C119.122 21.24 114.842 16.6 109.402 16.6C103.522 16.6 99.0416 21.24 99.0416 27C99.0416 33.6 104.162 37.4 110.002 37.4ZM104.402 25.28C104.922 22.76 106.922 21.08 109.242 21.08C111.682 21.08 113.682 22.76 114.082 25.28H104.402ZM133.009 37.4C135.609 37.4 138.209 36.68 140.449 35.2L138.449 31.36C136.969 32.36 134.969 32.92 133.049 32.92C130.409 32.92 128.129 31.6 127.489 28.84H142.009C142.009 28.84 142.129 27.88 142.129 26.92C142.129 21.24 137.849 16.6 132.409 16.6C126.529 16.6 122.049 21.24 122.049 27C122.049 33.6 127.169 37.4 133.009 37.4ZM127.409 25.28C127.929 22.76 129.929 21.08 132.249 21.08C134.689 21.08 136.689 22.76 137.089 25.28H127.409ZM145.657 37H151.017V10.68H145.657V37Z" fill="white"/>
<path d="M147.56 83.4C149.68 83.4 151.44 82.68 152.64 81.88L151.12 77.92C150.96 78.04 149.84 78.76 148.56 78.76C147.6 78.76 146.76 78.2 146.76 76.48V67.32H152.28V63H146.76V57.96L141.4 59.16V63H138.48V67.32H141.4V76.56C141.4 81.08 143.56 83.4 147.56 83.4ZM155.274 83H160.634V72.84C160.634 69.96 162.194 67.68 165.034 67.68C167.674 67.68 168.554 69.24 168.554 72.16V83H173.914V71.48C173.914 65.88 171.994 62.6 166.794 62.6C164.394 62.6 162.194 63.44 160.634 65.52V56.68H155.274V83ZM188.095 83.4C190.695 83.4 193.295 82.68 195.535 81.2L193.535 77.36C192.055 78.36 190.055 78.92 188.135 78.92C185.495 78.92 183.215 77.6 182.575 74.84H197.095C197.095 74.84 197.215 73.88 197.215 72.92C197.215 67.24 192.935 62.6 187.495 62.6C181.615 62.6 177.135 67.24 177.135 73C177.135 79.6 182.255 83.4 188.095 83.4ZM182.495 71.28C183.015 68.76 185.015 67.08 187.335 67.08C189.775 67.08 191.775 68.76 192.175 71.28H182.495Z" fill="white"/>
<path d="M51.56 119H57.16V113.12H62.16C62.92 113.12 63.6 113.04 64.36 112.92L68.36 119H74.8L69.4 111.36C72.6 109.64 74.32 106.44 74.32 103.12C74.32 97.56 70.32 93.08 62.68 93.08H51.56V119ZM57.16 108.32V97.84H62.88C66.12 97.84 68.4 100.16 68.4 103.12C68.4 105.96 66.12 108.32 62.84 108.32H57.16ZM87.5719 119.4C90.1719 119.4 92.7719 118.68 95.0119 117.2L93.0119 113.36C91.5319 114.36 89.5319 114.92 87.6119 114.92C84.9719 114.92 82.6919 113.6 82.0519 110.84H96.5719C96.5719 110.84 96.6919 109.88 96.6919 108.92C96.6919 103.24 92.4119 98.6 86.9719 98.6C81.0919 98.6 76.6119 103.24 76.6119 109C76.6119 115.6 81.7319 119.4 87.5719 119.4ZM81.9719 107.28C82.4919 104.76 84.4919 103.08 86.8119 103.08C89.2519 103.08 91.2519 104.76 91.6519 107.28H81.9719ZM108.66 119.4C110.98 119.4 113.5 118.52 114.9 116.6V119H120.14V99H114.9V101.44C113.46 99.52 110.98 98.6 108.66 98.6C103.14 98.6 99.6197 103.24 99.6197 109C99.6197 114.76 103.14 119.4 108.66 119.4ZM110.02 114.44C107.14 114.44 105.06 112.16 105.06 109C105.06 105.88 107.14 103.56 110.02 103.56C112.78 103.56 114.78 105.88 114.78 109C114.78 112.2 112.78 114.44 110.02 114.44ZM124.204 119H129.564V92.68H124.204V119Z" fill="white"/>
</svg>
