<svg viewBox="0 0 150 128" fill="none" xmlns="http://www.w3.org/2000/svg">
  <path d="M29.56 40H35.16V28.92H46.92V24.16H35.16V18.88H48.96V14.08H29.56V40ZM61.0016 40.4C63.6016 40.4 66.2016 39.68 68.4416 38.2L66.4416 34.36C64.9616 35.36 62.9616 35.92 61.0416 35.92C58.4016 35.92 56.1216 34.6 55.4816 31.84H70.0016C70.0016 31.84 70.1216 30.88 70.1216 29.92C70.1216 24.24 65.8416 19.6 60.4016 19.6C54.5216 19.6 50.0416 24.24 50.0416 30C50.0416 36.6 55.1616 40.4 61.0016 40.4ZM55.4016 28.28C55.9216 25.76 57.9216 24.08 60.2416 24.08C62.6816 24.08 64.6816 25.76 65.0816 28.28H55.4016ZM84.0094 40.4C86.6094 40.4 89.2094 39.68 91.4494 38.2L89.4494 34.36C87.9694 35.36 85.9694 35.92 84.0494 35.92C81.4094 35.92 79.1294 34.6 78.4894 31.84H93.0094C93.0094 31.84 93.1294 30.88 93.1294 29.92C93.1294 24.24 88.8494 19.6 83.4094 19.6C77.5294 19.6 73.0494 24.24 73.0494 30C73.0494 36.6 78.1694 40.4 84.0094 40.4ZM78.4094 28.28C78.9294 25.76 80.9294 24.08 83.2494 24.08C85.6894 24.08 87.6894 25.76 88.0894 28.28H78.4094ZM96.6572 40H102.017V13.68H96.6572V40Z" fill="white"/>
  <path d="M98.56 86.4C100.68 86.4 102.44 85.68 103.64 84.88L102.12 80.92C101.96 81.04 100.84 81.76 99.56 81.76C98.6 81.76 97.76 81.2 97.76 79.48V70.32H103.28V66H97.76V60.96L92.4 62.16V66H89.48V70.32H92.4V79.56C92.4 84.08 94.56 86.4 98.56 86.4ZM106.274 86H111.634V75.84C111.634 72.96 113.194 70.68 116.034 70.68C118.674 70.68 119.554 72.24 119.554 75.16V86H124.914V74.48C124.914 68.88 122.994 65.6 117.794 65.6C115.394 65.6 113.194 66.44 111.634 68.52V59.68H106.274V86ZM139.095 86.4C141.695 86.4 144.295 85.68 146.535 84.2L144.535 80.36C143.055 81.36 141.055 81.92 139.135 81.92C136.495 81.92 134.215 80.6 133.575 77.84H148.095C148.095 77.84 148.215 76.88 148.215 75.92C148.215 70.24 143.935 65.6 138.495 65.6C132.615 65.6 128.135 70.24 128.135 76C128.135 82.6 133.255 86.4 139.095 86.4ZM133.495 74.28C134.015 71.76 136.015 70.08 138.335 70.08C140.775 70.08 142.775 71.76 143.175 74.28H133.495Z" fill="white"/>
  <path d="M2.56 122H8.16V116.12H13.16C13.92 116.12 14.6 116.04 15.36 115.92L19.36 122H25.8L20.4 114.36C23.6 112.64 25.32 109.44 25.32 106.12C25.32 100.56 21.32 96.08 13.68 96.08H2.56V122ZM8.16 111.32V100.84H13.88C17.12 100.84 19.4 103.16 19.4 106.12C19.4 108.96 17.12 111.32 13.84 111.32H8.16ZM38.5719 122.4C41.1719 122.4 43.7719 121.68 46.0119 120.2L44.0119 116.36C42.5319 117.36 40.5319 117.92 38.6119 117.92C35.9719 117.92 33.6919 116.6 33.0519 113.84H47.5719C47.5719 113.84 47.6919 112.88 47.6919 111.92C47.6919 106.24 43.4119 101.6 37.9719 101.6C32.0919 101.6 27.6119 106.24 27.6119 112C27.6119 118.6 32.7319 122.4 38.5719 122.4ZM32.9719 110.28C33.4919 107.76 35.4919 106.08 37.8119 106.08C40.2519 106.08 42.2519 107.76 42.6519 110.28H32.9719ZM59.6597 122.4C61.9797 122.4 64.4997 121.52 65.8997 119.6V122H71.1397V102H65.8997V104.44C64.4597 102.52 61.9797 101.6 59.6597 101.6C54.1397 101.6 50.6197 106.24 50.6197 112C50.6197 117.76 54.1397 122.4 59.6597 122.4ZM61.0197 117.44C58.1397 117.44 56.0597 115.16 56.0597 112C56.0597 108.88 58.1397 106.56 61.0197 106.56C63.7797 106.56 65.7797 108.88 65.7797 112C65.7797 115.2 63.7797 117.44 61.0197 117.44ZM75.2041 122H80.5641V95.68H75.2041V122Z" fill="white"/>
</svg>
