<svg width="41" height="41" viewBox="0 0 41 41" fill="none" xmlns="http://www.w3.org/2000/svg">
<g clip-path="url(#clip0_111_1926)">
<path d="M20.493 40.9999C16.4359 41.0027 12.4692 39.802 9.09466 37.5497C5.72014 35.2974 3.08944 32.0948 1.53557 28.3471C-0.0183003 24.5993 -0.425515 20.4749 0.365305 16.4956C1.15612 12.5163 3.10944 8.86104 5.97824 5.99223C8.84705 3.12343 12.5023 1.17003 16.4816 0.37921C20.4609 -0.41161 24.5854 -0.00435247 28.3332 1.54952C32.0809 3.10339 35.2835 5.73405 37.5358 9.10857C39.7881 12.4831 40.9888 16.4498 40.986 20.507C40.9785 25.9397 38.8171 31.1479 34.9755 34.9894C31.1339 38.831 25.9258 40.9924 20.493 40.9999ZM20.493 1.40641C16.7147 1.40363 13.0204 2.52149 9.8775 4.61859C6.73459 6.71569 4.28424 9.6978 2.83641 13.1877C1.38858 16.6776 1.00834 20.5186 1.74375 24.2246C2.47916 27.9307 4.29719 31.3354 6.96789 34.0081C9.63858 36.6807 13.0419 38.5013 16.7474 39.2394C20.4529 39.9776 24.2941 39.6001 27.7851 38.1549C31.2761 36.7096 34.26 34.2615 36.3594 31.1201C38.4588 27.9787 39.5795 24.2853 39.5795 20.507C39.5757 15.4448 37.5641 10.5907 33.9859 7.00991C30.4077 3.42908 25.5552 1.41386 20.493 1.40641Z" fill="#EBCC86"/>
<path d="M25.4017 20.8586C25.2152 20.8586 25.0364 20.7845 24.9045 20.6526C24.7726 20.5207 24.6985 20.3419 24.6985 20.1554V12.6446H9.38148C9.19497 12.6446 9.01614 12.5705 8.88426 12.4386C8.75237 12.3067 8.67822 12.1278 8.67822 11.9413C8.67822 11.7548 8.75237 11.5759 8.88426 11.444C9.01614 11.3121 9.19497 11.238 9.38148 11.238H25.4017C25.5883 11.238 25.7672 11.3121 25.8991 11.444C26.0309 11.5759 26.105 11.7548 26.105 11.9413V20.1413C26.1069 20.2348 26.0901 20.3278 26.0556 20.4147C26.021 20.5017 25.9696 20.5809 25.9041 20.6477C25.8386 20.7145 25.7604 20.7675 25.6741 20.8038C25.5879 20.84 25.4953 20.8586 25.4017 20.8586Z" fill="#EBCC86"/>
<path d="M34.0659 27.2441H32.153C31.9665 27.2441 31.7876 27.1701 31.6557 27.0382C31.5239 26.9063 31.4497 26.7274 31.4497 26.5409C31.4497 26.3544 31.5239 26.1755 31.6557 26.0436C31.7876 25.9117 31.9665 25.8376 32.153 25.8376H33.3626V20.2116C33.3626 20.025 33.4367 19.8462 33.5686 19.7143C33.7005 19.5824 33.8794 19.5083 34.0659 19.5083C34.2524 19.5083 34.4312 19.5824 34.5631 19.7143C34.695 19.8462 34.7692 20.025 34.7692 20.2116V26.5972C34.755 26.7738 34.6746 26.9385 34.5442 27.0585C34.4139 27.1784 34.2431 27.2447 34.0659 27.2441Z" fill="#EBCC86"/>
<path d="M27.1036 27.2442H17.0048C16.8183 27.2442 16.6393 27.1701 16.5075 27.0382C16.3756 26.9063 16.3015 26.7274 16.3015 26.5409C16.3015 26.3544 16.3756 26.1755 16.5075 26.0436C16.6393 25.9117 16.8183 25.8376 17.0048 25.8376H27.1036C27.2901 25.8376 27.4689 25.9117 27.6008 26.0436C27.7327 26.1755 27.8068 26.3544 27.8068 26.5409C27.8068 26.7274 27.7327 26.9063 27.6008 27.0382C27.4689 27.1701 27.2901 27.2442 27.1036 27.2442Z" fill="#EBCC86"/>
<path d="M11.2663 27.2443H9.32533C9.13881 27.2443 8.9599 27.1702 8.82802 27.0383C8.69613 26.9065 8.62207 26.7275 8.62207 26.541V19.5084C8.62207 19.3219 8.69613 19.1431 8.82802 19.0112C8.9599 18.8793 9.13881 18.8052 9.32533 18.8052C9.51185 18.8052 9.69075 18.8793 9.82264 19.0112C9.95453 19.1431 10.0286 19.3219 10.0286 19.5084V25.894H11.2663C11.4528 25.894 11.6318 25.9681 11.7636 26.1C11.8955 26.2319 11.9696 26.4108 11.9696 26.5973C11.9696 26.7838 11.8955 26.9627 11.7636 27.0946C11.6318 27.2265 11.4528 27.3006 11.2663 27.3006V27.2443Z" fill="#EBCC86"/>
<path d="M25.4157 23.5029C25.2291 23.5029 25.0502 23.4288 24.9183 23.2969C24.7865 23.165 24.7124 22.9862 24.7124 22.7997V13.8261C24.7124 13.6395 24.7865 13.4606 24.9183 13.3287C25.0502 13.1969 25.2291 13.1228 25.4157 13.1228H29.3258C30.7745 13.1265 32.1625 13.7046 33.1855 14.7303C34.2085 15.756 34.783 17.1455 34.783 18.5941V20.1413C34.783 20.3278 34.709 20.5067 34.5771 20.6386C34.4452 20.7705 34.2663 20.8446 34.0798 20.8446C33.8933 20.8446 33.7144 20.7705 33.5825 20.6386C33.4507 20.5067 33.3765 20.3278 33.3765 20.1413V18.5941C33.3765 17.5185 32.9502 16.4867 32.191 15.7248C31.4317 14.9629 30.4014 14.533 29.3258 14.5293H26.1189V22.7997C26.1189 22.9862 26.0449 23.165 25.913 23.2969C25.7811 23.4288 25.6022 23.5029 25.4157 23.5029Z" fill="#EBCC86"/>
<path d="M11.7584 15.9219H5.54164C5.35512 15.9219 5.1763 15.8478 5.04441 15.7159C4.91253 15.584 4.83838 15.4052 4.83838 15.2186C4.83838 15.0321 4.91253 14.8533 5.04441 14.7214C5.1763 14.5895 5.35512 14.5154 5.54164 14.5154H11.7584C11.9449 14.5154 12.1238 14.5895 12.2557 14.7214C12.3876 14.8533 12.4617 15.0321 12.4617 15.2186C12.4617 15.4052 12.3876 15.584 12.2557 15.7159C12.1238 15.8478 11.9449 15.9219 11.7584 15.9219Z" fill="#EBCC86"/>
<path d="M11.7584 20.1414H5.54164C5.35512 20.1414 5.1763 20.0673 5.04441 19.9354C4.91253 19.8035 4.83838 19.6246 4.83838 19.4381C4.83838 19.2516 4.91253 19.0727 5.04441 18.9409C5.1763 18.809 5.35512 18.7349 5.54164 18.7349H11.7584C11.9449 18.7349 12.1238 18.809 12.2557 18.9409C12.3876 19.0727 12.4617 19.2516 12.4617 19.4381C12.4617 19.6246 12.3876 19.8035 12.2557 19.9354C12.1238 20.0673 11.9449 20.1414 11.7584 20.1414Z" fill="#EBCC86"/>
<path d="M13.9807 30.4088C13.3214 30.4088 12.6769 30.2133 12.1287 29.847C11.5805 29.4808 11.1533 28.9601 10.901 28.351C10.6487 27.7419 10.5826 27.0717 10.7113 26.4251C10.8399 25.7784 11.1574 25.1845 11.6236 24.7183C12.0897 24.2521 12.6837 23.9346 13.3304 23.806C13.977 23.6774 14.6472 23.7434 15.2563 23.9957C15.8655 24.248 16.386 24.6753 16.7523 25.2235C17.1186 25.7716 17.3141 26.4161 17.3141 27.0754C17.3141 27.9595 16.9629 28.8073 16.3378 29.4325C15.7126 30.0576 14.8647 30.4088 13.9807 30.4088ZM13.9807 25.1485C13.5996 25.1485 13.227 25.2615 12.9101 25.4732C12.5933 25.685 12.3463 25.9859 12.2005 26.338C12.0546 26.6901 12.0164 27.0775 12.0907 27.4513C12.1651 27.8251 12.3486 28.1685 12.6181 28.438C12.8876 28.7074 13.2309 28.891 13.6047 28.9653C13.9785 29.0397 14.366 29.0015 14.7181 28.8556C15.0702 28.7098 15.3711 28.4628 15.5828 28.1459C15.7946 27.8291 15.9076 27.4565 15.9076 27.0754C15.9076 26.5643 15.7046 26.0742 15.3432 25.7129C14.9819 25.3515 14.4917 25.1485 13.9807 25.1485Z" fill="#EBCC86"/>
<path d="M29.551 30.4088C28.8917 30.4088 28.2472 30.2133 27.699 29.847C27.1508 29.4808 26.7236 28.9601 26.4713 28.351C26.219 27.7419 26.153 27.0717 26.2816 26.4251C26.4102 25.7784 26.7277 25.1845 27.1939 24.7183C27.6601 24.2521 28.2541 23.9346 28.9007 23.806C29.5473 23.6774 30.2176 23.7434 30.8267 23.9957C31.4358 24.248 31.9563 24.6753 32.3226 25.2235C32.6889 25.7716 32.8844 26.4161 32.8844 27.0754C32.8844 27.9595 32.5332 28.8073 31.9081 29.4325C31.2829 30.0576 30.4351 30.4088 29.551 30.4088ZM29.551 25.1485C29.1699 25.1485 28.7973 25.2615 28.4805 25.4732C28.1636 25.685 27.9166 25.9859 27.7708 26.338C27.6249 26.6901 27.5867 27.0775 27.6611 27.4513C27.7354 27.8251 27.9189 28.1685 28.1884 28.438C28.4579 28.7074 28.8013 28.891 29.175 28.9653C29.5488 29.0397 29.9363 29.0015 30.2884 28.8556C30.6405 28.7098 30.9414 28.4628 31.1531 28.1459C31.3649 27.8291 31.4779 27.4565 31.4779 27.0754C31.4779 26.5643 31.2749 26.0742 30.9135 25.7129C30.5522 25.3515 30.062 25.1485 29.551 25.1485Z" fill="#EBCC86"/>
<path d="M30.6199 21.3792H25.8236C25.6371 21.3792 25.4583 21.3051 25.3264 21.1732C25.1945 21.0413 25.1204 20.8624 25.1204 20.6759C25.1204 20.4894 25.1945 20.3105 25.3264 20.1786C25.4583 20.0468 25.6371 19.9727 25.8236 19.9727H30.6199C30.8064 19.9727 30.9852 20.0468 31.1171 20.1786C31.249 20.3105 31.3232 20.4894 31.3232 20.6759C31.3232 20.8624 31.249 21.0413 31.1171 21.1732C30.9852 21.3051 30.8064 21.3792 30.6199 21.3792Z" fill="#EBCC86"/>
</g>
<defs>
<clipPath id="clip0_111_1926">
<rect width="41" height="41" fill="white"/>
</clipPath>
</defs>
</svg>
