<svg width="41" height="41" viewBox="0 0 41 41" fill="none" xmlns="http://www.w3.org/2000/svg">
<g clip-path="url(#clip0_111_1938)">
<path d="M20.4931 40.9999C16.436 41.0027 12.4692 39.802 9.09464 37.5497C5.72012 35.2974 3.08951 32.0948 1.53564 28.3471C-0.0182366 24.5993 -0.425537 20.4749 0.365282 16.4956C1.1561 12.5163 3.1095 8.86104 5.97831 5.99223C8.84711 3.12343 12.5024 1.17003 16.4817 0.37921C20.461 -0.41161 24.5855 -0.00435247 28.3332 1.54952C32.081 3.10339 35.2836 5.73405 37.5359 9.10857C39.7881 12.4831 40.9888 16.4498 40.986 20.507C40.9786 25.9397 38.8171 31.1479 34.9755 34.9894C31.134 38.831 25.9259 40.9924 20.4931 40.9999ZM20.4931 1.40641C16.7147 1.40363 13.0205 2.52149 9.87756 4.61859C6.73465 6.71569 4.28431 9.6978 2.83648 13.1877C1.38865 16.6776 1.00832 20.5186 1.74373 24.2246C2.47914 27.9307 4.29717 31.3354 6.96786 34.0081C9.63856 36.6807 13.042 38.5013 16.7475 39.2394C20.453 39.9776 24.2942 39.6001 27.7852 38.1549C31.2762 36.7096 34.2601 34.2615 36.3595 31.1201C38.4589 27.9787 39.5795 24.2853 39.5795 20.507C39.5795 15.4436 37.569 10.5874 33.99 7.00579C30.411 3.42415 25.5564 1.41014 20.4931 1.40641Z" fill="#EBCC86"/>
<path d="M13.2072 23.8828C12.5813 23.8828 11.9694 23.6972 11.4489 23.3494C10.9285 23.0017 10.5229 22.5074 10.2834 21.9292C10.0439 21.3509 9.98118 20.7146 10.1033 20.1007C10.2254 19.4868 10.5268 18.9229 10.9694 18.4804C11.412 18.0378 11.9759 17.7364 12.5898 17.6143C13.2036 17.4922 13.8399 17.5548 14.4182 17.7943C14.9965 18.0339 15.4907 18.4395 15.8385 18.9599C16.1862 19.4804 16.3718 20.0922 16.3718 20.7181C16.3718 21.5574 16.0384 22.3624 15.4449 22.9559C14.8514 23.5493 14.0465 23.8828 13.2072 23.8828ZM13.2072 18.96C12.8594 18.96 12.5195 19.0631 12.2304 19.2563C11.9413 19.4495 11.7159 19.724 11.5829 20.0453C11.4498 20.3666 11.4149 20.7201 11.4828 21.0611C11.5506 21.4022 11.7181 21.7154 11.9639 21.9613C12.2098 22.2072 12.5231 22.3747 12.8641 22.4425C13.2052 22.5103 13.5587 22.4755 13.88 22.3424C14.2012 22.2094 14.4758 21.984 14.669 21.6949C14.8622 21.4058 14.9653 21.0659 14.9653 20.7181C14.9653 20.2518 14.78 19.8046 14.4503 19.4749C14.1206 19.1452 13.6735 18.96 13.2072 18.96Z" fill="#EBCC86"/>
<path d="M20.4931 23.8828C19.8671 23.8828 19.2553 23.6972 18.7348 23.3494C18.2144 23.0017 17.8088 22.5074 17.5693 21.9292C17.3298 21.3509 17.2671 20.7146 17.3892 20.1007C17.5113 19.4868 17.8127 18.9229 18.2553 18.4804C18.6979 18.0378 19.2618 17.7364 19.8756 17.6143C20.4895 17.4922 21.1258 17.5548 21.7041 17.7943C22.2824 18.0339 22.7766 18.4395 23.1244 18.9599C23.4721 19.4804 23.6577 20.0922 23.6577 20.7181C23.6577 21.5574 23.3243 22.3624 22.7308 22.9559C22.1373 23.5493 21.3324 23.8828 20.4931 23.8828ZM20.4931 18.96C20.1453 18.96 19.8054 19.0631 19.5163 19.2563C19.2272 19.4495 19.0018 19.724 18.8687 20.0453C18.7357 20.3666 18.7008 20.7201 18.7686 21.0611C18.8365 21.4022 19.0039 21.7154 19.2498 21.9613C19.4957 22.2072 19.809 22.3747 20.15 22.4425C20.4911 22.5103 20.8446 22.4755 21.1658 22.3424C21.4871 22.2094 21.7617 21.984 21.9549 21.6949C22.1481 21.4058 22.2512 21.0659 22.2512 20.7181C22.2512 20.2518 22.0659 19.8046 21.7362 19.4749C21.4065 19.1452 20.9593 18.96 20.4931 18.96Z" fill="#EBCC86"/>
<path d="M27.7648 23.8828C27.1389 23.8828 26.527 23.6972 26.0066 23.3494C25.4861 23.0017 25.0805 22.5074 24.841 21.9292C24.6015 21.3509 24.5388 20.7146 24.6609 20.1007C24.783 19.4868 25.0844 18.9229 25.527 18.4804C25.9696 18.0378 26.5335 17.7364 27.1474 17.6143C27.7613 17.4922 28.3976 17.5548 28.9758 17.7943C29.5541 18.0339 30.0483 18.4395 30.3961 18.9599C30.7438 19.4804 30.9295 20.0922 30.9295 20.7181C30.9313 21.1342 30.8507 21.5466 30.6923 21.9314C30.534 22.3162 30.3009 22.6658 30.0067 22.96C29.7124 23.2543 29.3629 23.4873 28.9781 23.6457C28.5933 23.8041 28.1809 23.8847 27.7648 23.8828ZM27.7648 18.96C27.4171 18.96 27.0771 19.0631 26.788 19.2563C26.4989 19.4495 26.2735 19.724 26.1405 20.0453C26.0074 20.3666 25.9726 20.7201 26.0405 21.0611C26.1083 21.4022 26.2757 21.7154 26.5216 21.9613C26.7674 22.2072 27.0808 22.3747 27.4218 22.4425C27.7629 22.5103 28.1163 22.4755 28.4376 22.3424C28.7588 22.2094 29.0334 21.984 29.2266 21.6949C29.4198 21.4058 29.5229 21.0659 29.5229 20.7181C29.5229 20.2518 29.3377 19.8046 29.008 19.4749C28.6783 19.1452 28.2311 18.96 27.7648 18.96Z" fill="#EBCC86"/>
</g>
<defs>
<clipPath id="clip0_111_1938">
<rect width="41" height="41" fill="white"/>
</clipPath>
</defs>
</svg>
