<svg width="17" height="17" viewBox="0 0 17 17" fill="none" xmlns="http://www.w3.org/2000/svg">
<path fill-rule="evenodd" clip-rule="evenodd" d="M16.667 8.78955C16.667 9.34184 16.2193 9.78955 15.667 9.78955L1.91199 9.78955C1.35971 9.78955 0.911992 9.34183 0.911992 8.78955C0.911992 8.23727 1.35971 7.78955 1.91199 7.78955L15.667 7.78955C16.2193 7.78955 16.667 8.23727 16.667 8.78955Z" fill="black"/>
<path fill-rule="evenodd" clip-rule="evenodd" d="M9.49715 1.20549C9.88767 1.59602 9.88767 2.22918 9.49715 2.6197L3.32675 8.7901L9.49715 14.9605C9.88767 15.351 9.88767 15.9842 9.49715 16.3747C9.10662 16.7652 8.47346 16.7652 8.08293 16.3747L1.20543 9.4972C1.01789 9.30967 0.912538 9.05531 0.912538 8.7901C0.912538 8.52488 1.01789 8.27053 1.20543 8.08299L8.08293 1.20549C8.47346 0.814967 9.10662 0.814967 9.49715 1.20549Z" fill="black"/>
</svg>
