<svg width="41" height="41" viewBox="0 0 41 41" fill="none" xmlns="http://www.w3.org/2000/svg">
<g clip-path="url(#clip0_111_1922)">
<path d="M20.507 40.9999C16.4498 41.0027 12.4831 39.802 9.10857 37.5497C5.73405 35.2974 3.10339 32.0948 1.54952 28.3471C-0.00435247 24.5993 -0.41161 20.4749 0.37921 16.4956C1.17003 12.5163 3.12343 8.86104 5.99223 5.99223C8.86104 3.12343 12.5163 1.17003 16.4956 0.37921C20.4749 -0.41161 24.5993 -0.00435247 28.3471 1.54952C32.0948 3.10339 35.2974 5.73405 37.5497 9.10857C39.802 12.4831 41.0027 16.4498 40.9999 20.507C40.9924 25.9397 38.831 31.1479 34.9894 34.9894C31.1479 38.831 25.9397 40.9924 20.507 40.9999ZM20.507 1.40641C16.7286 1.40363 13.0344 2.52149 9.89145 4.61859C6.74854 6.71569 4.29815 9.6978 2.85032 13.1877C1.40249 16.6776 1.02225 20.5186 1.75766 24.2246C2.49306 27.9307 4.3111 31.3354 6.98179 34.0081C9.65249 36.6807 13.0558 38.5013 16.7614 39.2394C20.4669 39.9776 24.3081 39.6001 27.7991 38.1549C31.29 36.7096 34.274 34.2615 36.3734 31.1201C38.4728 27.9787 39.5934 24.2853 39.5934 20.507C39.5897 15.4448 37.578 10.5907 33.9998 7.00991C30.4216 3.42908 25.5691 1.41386 20.507 1.40641Z" fill="#EBCC86"/>
<path d="M26.6958 31.056H14.445C14.3533 31.0579 14.2621 31.0414 14.1769 31.0076C14.0916 30.9738 14.014 30.9233 13.9485 30.8591C13.883 30.795 13.831 30.7183 13.7955 30.6338C13.76 30.5492 13.7417 30.4585 13.7417 30.3668L13.6011 23.9812C13.6011 22.1683 14.3213 20.4296 15.6032 19.1476C16.8851 17.8657 18.6238 17.1455 20.4367 17.1455C22.2497 17.1455 23.9884 17.8657 25.2703 19.1476C26.5522 20.4296 27.2724 22.1683 27.2724 23.9812L27.399 30.3527C27.4049 30.4464 27.3903 30.5401 27.3563 30.6276C27.3223 30.715 27.2696 30.794 27.2021 30.8591C27.1359 30.9252 27.0568 30.9768 26.9696 31.0107C26.8824 31.0446 26.7892 31.06 26.6958 31.056ZM15.1201 29.6495H25.9784L25.8659 24.0234C25.8659 22.5835 25.2939 21.2026 24.2757 20.1844C23.2576 19.1662 21.8766 18.5942 20.4367 18.5942C18.9968 18.5942 17.6159 19.1662 16.5977 20.1844C15.5796 21.2026 15.0076 22.5835 15.0076 24.0234L15.1201 29.6495Z" fill="#EBCC86"/>
<path d="M20.0007 18.1582C18.9993 18.1582 18.0203 17.8612 17.1876 17.3048C16.3549 16.7484 15.7059 15.9576 15.3227 15.0324C14.9395 14.1072 14.8392 13.0891 15.0345 12.1069C15.2299 11.1247 15.7122 10.2225 16.4203 9.51433C17.1284 8.80619 18.0307 8.32392 19.0129 8.12854C19.9951 7.93317 21.0132 8.03345 21.9384 8.41669C22.8636 8.79993 23.6544 9.44895 24.2108 10.2816C24.7672 11.1143 25.0642 12.0933 25.0642 13.0947C25.0642 14.4376 24.5307 15.7255 23.5811 16.6751C22.6316 17.6247 21.3436 18.1582 20.0007 18.1582ZM20.0007 9.4378C19.2774 9.4378 18.5704 9.65226 17.969 10.0541C17.3676 10.4559 16.8989 11.0271 16.6222 11.6953C16.3454 12.3635 16.2729 13.0988 16.414 13.8081C16.5551 14.5175 16.9034 15.1692 17.4149 15.6806C17.9263 16.192 18.5779 16.5403 19.2873 16.6814C19.9967 16.8225 20.732 16.7501 21.4002 16.4733C22.0684 16.1965 22.6395 15.7278 23.0414 15.1264C23.4432 14.525 23.6577 13.818 23.6577 13.0947C23.654 12.126 23.2675 11.198 22.5825 10.5129C21.8975 9.82794 20.9695 9.4415 20.0007 9.4378Z" fill="#EBCC86"/>
</g>
<defs>
<clipPath id="clip0_111_1922">
<rect width="41" height="41" fill="white"/>
</clipPath>
</defs>
</svg>
