<svg viewBox="0 0 41 41" fill="none" xmlns="http://www.w3.org/2000/svg">
<g clip-path="url(#clip0_111_1817)">
<path d="M20.5351 40.9999C16.4786 40.9999 12.5132 39.7968 9.14054 37.5429C5.76787 35.2889 3.13943 32.0853 1.58772 28.3373C0.0360046 24.5893 -0.369248 20.4653 0.423161 16.487C1.21557 12.5086 3.17004 8.85465 6.0394 5.98725C8.90877 3.11985 12.5641 1.16785 16.543 0.378175C20.5219 -0.411505 24.6456 -0.00339758 28.3926 1.55089C32.1395 3.10517 35.3413 5.73581 37.5929 9.11002C39.8446 12.4842 41.0449 16.4504 41.0421 20.5069C41.0347 25.9422 38.8713 31.1524 35.0267 34.9944C31.1821 38.8364 25.9703 40.9962 20.5351 40.9999ZM20.5351 1.40641C16.7574 1.40641 13.0645 2.52662 9.92342 4.62541C6.78236 6.72421 4.33419 9.70734 2.88852 13.1975C1.44284 16.6877 1.06461 20.5281 1.80161 24.2333C2.5386 27.9384 4.35775 31.3418 7.02901 34.0131C9.70026 36.6843 13.1036 38.5034 16.8088 39.2404C20.5139 39.9774 24.3544 39.5992 27.8446 38.1535C31.3347 36.7078 34.3178 34.2597 36.4166 31.1186C38.5154 27.9776 39.6356 24.2847 39.6356 20.5069C39.6319 15.4423 37.6183 10.5862 34.0371 7.00492C30.4559 3.42369 25.5997 1.41013 20.5351 1.40641Z" fill="#EBCC86"/>
<path d="M31.5482 27.9053H9.45179C9.26641 27.9017 9.08963 27.8265 8.95852 27.6954C8.8274 27.5643 8.75214 27.3874 8.74854 27.202V14.5153C8.75214 14.3299 8.8274 14.1531 8.95852 14.022C9.08963 13.8909 9.26641 13.8156 9.45179 13.812H31.5482C31.7336 13.8156 31.9104 13.8909 32.0415 14.022C32.1726 14.1531 32.2478 14.3299 32.2514 14.5153V27.1739C32.2533 27.2681 32.2366 27.3618 32.2023 27.4495C32.168 27.5373 32.1166 27.6174 32.0513 27.6853C31.986 27.7532 31.908 27.8076 31.8216 27.8454C31.7353 27.8831 31.6424 27.9035 31.5482 27.9053ZM10.1551 26.4988H30.8449V15.1623H10.1551V26.4988Z" fill="#EBCC86"/>
<path d="M20.6054 24.4313C20.4423 24.4314 20.284 24.3769 20.1554 24.2766L9.00166 15.0077C8.93037 14.9493 8.87151 14.8773 8.82855 14.7958C8.78558 14.7143 8.75941 14.625 8.75154 14.5332C8.74368 14.4414 8.75428 14.349 8.78275 14.2614C8.81122 14.1737 8.85695 14.0927 8.91727 14.0231C8.97461 13.9508 9.04588 13.8908 9.12687 13.8465C9.20785 13.8023 9.29692 13.7747 9.38874 13.7656C9.48057 13.7564 9.57329 13.7657 9.66144 13.793C9.74958 13.8204 9.83133 13.8651 9.90185 13.9246L20.5914 22.8138L31.084 13.9246C31.2285 13.8056 31.4139 13.7478 31.6005 13.7635C31.7871 13.7793 31.9601 13.8674 32.0826 14.0091C32.2017 14.1536 32.2595 14.3389 32.2438 14.5255C32.228 14.7121 32.1399 14.8852 31.9982 15.0077L21.0555 24.2625C20.9306 24.371 20.7709 24.4309 20.6054 24.4313Z" fill="#EBCC86"/>
</g>
<defs>
<clipPath id="clip0_111_1817">
<rect width="41" height="41" fill="white"/>
</clipPath>
</defs>
</svg>
