<svg width="387" height="295" viewBox="0 0 387 295" fill="none" xmlns="http://www.w3.org/2000/svg">
<path d="M110.471 72.4517C123.142 72.4517 134.514 66.8202 140.687 57.6148V30.3236H114.912V41.37H126.824V51.6584C123.034 55.6654 117.402 58.6978 110.688 58.6978C98.2336 58.6978 89.1365 48.7343 89.1365 36.1717C89.1365 23.7174 98.4502 13.7539 110.688 13.7539C115.995 13.7539 120.976 14.9452 125.85 19.2771L135.272 8.98877C128.882 3.46555 120.218 0 110.363 0C88.7033 0 73.325 16.1365 73.325 36.1717C73.325 56.3152 88.8116 72.4517 110.471 72.4517Z" fill="white"/>
<path d="M180.826 72.3434C187.865 72.3434 194.904 70.394 200.969 66.387L195.554 55.9903C191.547 58.6978 186.132 60.214 180.934 60.214C173.786 60.214 167.613 56.6401 165.88 49.1675H205.193C205.193 49.1675 205.518 46.5684 205.518 43.9692C205.518 28.5908 193.93 16.0282 179.201 16.0282C163.281 16.0282 151.152 28.5908 151.152 44.1858C151.152 62.055 165.014 72.3434 180.826 72.3434ZM165.664 39.5289C167.072 32.7061 172.487 28.1576 178.768 28.1576C185.374 28.1576 190.789 32.7061 191.872 39.5289H165.664Z" fill="white"/>
<path d="M235.429 72.3434C241.169 72.3434 245.934 70.394 249.183 68.228L245.068 57.5065C244.635 57.8314 241.602 59.7808 238.137 59.7808C235.537 59.7808 233.263 58.2646 233.263 53.6078V28.8074H248.208V17.1112H233.263V3.46555L218.751 6.71451V17.1112H210.845V28.8074H218.751V53.8243C218.751 66.0621 224.599 72.3434 235.429 72.3434Z" fill="white"/>
<path d="M1.40788 195.804H15.9199V141.655H1.40788V195.804ZM8.55558 135.049C13.3207 135.049 17.2195 131.15 17.2195 126.493C17.2195 121.728 13.3207 117.829 8.55558 117.829C3.89875 117.829 0 121.728 0 126.493C0 131.15 3.89875 135.049 8.55558 135.049Z" fill="white"/>
<path d="M27.0019 195.804H41.5139V168.404C41.5139 160.174 46.3873 154.326 53.6433 154.326C61.0076 154.326 63.0653 158.549 63.0653 166.455V195.804H77.5772V164.614C77.5772 149.777 72.5955 140.572 58.3001 140.572C51.6939 140.572 45.5209 142.954 41.189 148.911V141.655H27.0019V195.804Z" fill="white"/>
<path d="M133.768 294.115C139.508 294.115 144.273 292.166 147.522 290L143.407 279.278C142.973 279.603 139.941 281.553 136.476 281.553C133.876 281.553 131.602 280.037 131.602 275.38V250.579H146.547V238.883H131.602V225.238L117.09 228.486V238.883H109.184V250.579H117.09V275.596C117.09 287.834 122.938 294.115 133.768 294.115Z" fill="white"/>
<path d="M181.628 294.115C197.873 294.115 210.652 281.661 210.652 265.958C210.652 250.254 197.873 237.8 181.628 237.8C165.492 237.8 152.713 250.254 152.713 265.958C152.713 281.661 165.492 294.115 181.628 294.115ZM181.628 280.686C173.506 280.686 167.441 274.513 167.441 265.958C167.441 257.51 173.506 251.229 181.628 251.229C189.751 251.229 195.815 257.51 195.815 265.958C195.815 274.513 189.751 280.686 181.628 280.686Z" fill="white"/>
<path d="M239.072 294.115C245.354 294.115 252.718 290.758 255.967 285.451V293.032H269.612V238.883H255.1V266.608C255.1 273.972 251.418 280.361 243.837 280.361C237.123 280.361 233.874 276.896 233.874 269.315V238.883H219.362V271.264C219.362 285.343 224.127 294.115 239.072 294.115Z" fill="white"/>
<path d="M307.906 294.115C315.704 294.115 322.96 291.516 328.158 287.076L320.469 276.246C317.653 278.954 313.213 280.686 308.664 280.686C299.459 280.686 293.719 274.405 293.719 265.958C293.719 257.402 299.784 251.229 308.231 251.229C312.563 251.229 316.029 252.637 318.519 254.911L327.292 244.731C321.877 240.291 315.379 237.8 307.906 237.8C291.77 237.8 278.99 250.254 278.99 265.958C278.99 281.661 291.77 294.115 307.906 294.115Z" fill="white"/>
<path d="M335.61 293.032H350.122V265.525C350.122 257.727 354.346 251.554 362.035 251.554C369.183 251.554 371.565 255.778 371.565 263.683V293.032H386.077V261.842C386.077 246.681 380.879 237.8 366.8 237.8C360.302 237.8 354.346 240.074 350.122 245.706V221.772H335.61V293.032Z" fill="white"/>
</svg>
