<svg viewBox="0 0 43 43" fill="none" xmlns="http://www.w3.org/2000/svg">
<path d="M21.5 42C32.8218 42 42 32.8218 42 21.5C42 10.1782 32.8218 1 21.5 1C10.1782 1 1 10.1782 1 21.5C1 32.8218 10.1782 42 21.5 42Z" stroke="#EBCC86" stroke-width="1.3" stroke-miterlimit="10"/>
<path d="M14.3393 9.56494L10.7588 14.3389V31.0478C10.7588 31.6809 11.0103 32.288 11.4579 32.7357C11.9056 33.1833 12.5127 33.4348 13.1458 33.4348H29.8547C30.4877 33.4348 31.0949 33.1833 31.5425 32.7357C31.9902 32.288 32.2417 31.6809 32.2417 31.0478V14.3389L28.6612 9.56494H14.3393Z" stroke="#EBCC86" stroke-width="1.3" stroke-linecap="round" stroke-linejoin="round"/>
<path d="M10.7588 15.3389H32.2417" stroke="#EBCC86" stroke-width="1.3" stroke-linecap="round" stroke-linejoin="round"/>
<path d="M26.274 19.1133C26.274 20.3794 25.771 21.5937 24.8758 22.489C23.9805 23.3843 22.7662 23.8873 21.5 23.8873C20.2339 23.8873 19.0196 23.3843 18.1243 22.489C17.229 21.5937 16.7261 20.3794 16.7261 19.1133" stroke="#EBCC86" stroke-width="1.3" stroke-linecap="round" stroke-linejoin="round"/>
</svg>
