<svg viewBox="0 0 41 41" fill="none" xmlns="http://www.w3.org/2000/svg">
<g clip-path="url(#clip0_111_1821)">
<path d="M20.493 40.9999C16.4359 41.0027 12.4692 39.802 9.09464 37.5497C5.72012 35.2974 3.08951 32.0948 1.53564 28.3471C-0.0182366 24.5993 -0.425537 20.4749 0.365283 16.4956C1.1561 12.5163 3.1095 8.86104 5.97831 5.99223C8.84711 3.12343 12.5024 1.17003 16.4817 0.37921C20.461 -0.41161 24.5854 -0.00435247 28.3332 1.54952C32.0809 3.10339 35.2835 5.73405 37.5358 9.10857C39.7881 12.4831 40.9888 16.4498 40.986 20.507C40.9786 25.9397 38.8171 31.1479 34.9755 34.9894C31.1339 38.831 25.9258 40.9924 20.493 40.9999ZM20.493 1.40641C16.7147 1.40363 13.0204 2.52149 9.87752 4.61859C6.73461 6.71569 4.28426 9.6978 2.83643 13.1877C1.3886 16.6776 1.00832 20.5186 1.74373 24.2246C2.47914 27.9307 4.29721 31.3354 6.96791 34.0081C9.6386 36.6807 13.042 38.5013 16.7475 39.2394C20.453 39.9776 24.2942 39.6001 27.7852 38.1549C31.2762 36.7096 34.2601 34.2615 36.3595 31.1201C38.4589 27.9787 39.5795 24.2853 39.5795 20.507C39.5758 15.4448 37.5641 10.5907 33.986 7.00991C30.4078 3.42908 25.5552 1.41386 20.493 1.40641Z" fill="#EBCC86"/>
<path d="M24.4594 25.1063C22.5184 25.1063 21.0416 21.393 20.4649 17.7924C20.1532 16.0321 20.1105 14.2348 20.3383 12.4617C20.6899 10.2394 21.5479 9.64862 22.209 9.5361C24.2906 9.19853 25.8518 13.0946 26.4285 16.8359C27.0333 20.5773 26.738 24.7687 24.6844 25.0922L24.4594 25.1063ZM22.434 10.9286C22.3355 10.9286 21.9417 11.2802 21.7307 12.6726C21.5245 14.3012 21.5672 15.9516 21.8573 17.5673C22.5184 21.7869 24.0515 23.7701 24.4735 23.6997C24.8954 23.6294 25.7253 21.2102 25.0642 17.061C24.4031 12.9118 22.9544 10.9286 22.434 10.9286Z" fill="#EBCC86"/>
<path d="M10.9146 25.1626C10.1586 25.1665 9.42425 24.9098 8.83512 24.436C8.24598 23.9621 7.83797 23.2999 7.67966 22.5606C7.48275 21.6745 7.25769 20.6055 7.04671 19.4662C6.90986 18.7272 7.02898 17.9636 7.38439 17.3014C7.7398 16.6392 8.3103 16.1178 9.00179 15.8233C13.8965 13.7276 21.9277 9.64874 22.0121 9.60654C22.1782 9.52313 22.3705 9.50886 22.5471 9.56684C22.7237 9.62482 22.8701 9.75034 22.9544 9.91598C23.0378 10.0821 23.0521 10.2744 22.9941 10.451C22.9361 10.6276 22.8106 10.774 22.645 10.8583C22.5606 10.8583 14.5013 14.9935 9.56439 17.1173C9.1663 17.2833 8.83658 17.5799 8.62951 17.9583C8.42244 18.3366 8.35035 18.7742 8.42511 19.199C8.63609 20.3242 8.86113 21.3791 9.04398 22.2652C9.14527 22.7233 9.41254 23.1277 9.79433 23.4004C10.1761 23.6731 10.6454 23.7948 11.1116 23.742C15.6276 23.2567 20.1825 23.2567 24.6985 23.742C24.885 23.7719 25.0521 23.8746 25.1628 24.0276C25.2736 24.1805 25.3191 24.3713 25.2892 24.5578C25.2594 24.7444 25.1567 24.9114 25.0037 25.0221C24.8507 25.1329 24.66 25.1784 24.4735 25.1486C20.0782 24.6927 15.6475 24.6927 11.2522 25.1486L10.9146 25.1626Z" fill="#EBCC86"/>
<path d="M16.8783 31.7171C16.4456 31.7186 16.02 31.6079 15.6428 31.3959C15.2657 31.184 14.9499 30.8778 14.7263 30.5075L11.5476 25.1908C11.4563 25.0306 11.4315 24.841 11.4787 24.6627C11.5259 24.4844 11.6413 24.3318 11.7999 24.2378C11.9585 24.1437 12.1477 24.1157 12.3267 24.1598C12.5058 24.2039 12.6604 24.3165 12.7572 24.4735L15.9359 29.7901C16.0988 30.0078 16.3367 30.1572 16.6034 30.2095C16.8702 30.2617 17.1468 30.2131 17.3798 30.073C17.6127 29.9328 17.7853 29.7112 17.8642 29.4511C17.943 29.1909 17.9225 28.9108 17.8066 28.6649L15.5702 24.9096C15.5078 24.8312 15.4628 24.7404 15.4383 24.6432C15.4139 24.5461 15.4104 24.4448 15.4282 24.3462C15.446 24.2476 15.4847 24.154 15.5417 24.0716C15.5986 23.9891 15.6725 23.9198 15.7584 23.8683C15.8443 23.8167 15.9403 23.7841 16.0398 23.7727C16.1393 23.7612 16.2402 23.7712 16.3355 23.8018C16.4309 23.8325 16.5187 23.8832 16.5929 23.9505C16.6671 24.0178 16.726 24.1003 16.7658 24.1922L19.0162 27.9336C19.2464 28.3118 19.3715 28.7447 19.3786 29.1874C19.3857 29.6301 19.2747 30.0668 19.0568 30.4523C18.839 30.8378 18.5223 31.1583 18.1393 31.3806C17.7564 31.6029 17.3211 31.7191 16.8783 31.7171Z" fill="#EBCC86"/>
<path d="M27.7788 12.8416C27.6714 12.8428 27.5653 12.8178 27.4697 12.7688C27.3742 12.7198 27.292 12.6482 27.2303 12.5603C27.1168 12.4128 27.0665 12.2264 27.0902 12.0419C27.1139 11.8573 27.2098 11.6897 27.3569 11.5757L30.8732 8.88927C30.9454 8.82602 31.0298 8.77825 31.1212 8.74887C31.2126 8.71948 31.309 8.70909 31.4046 8.71839C31.5001 8.72769 31.5928 8.75645 31.6768 8.80291C31.7608 8.84937 31.8344 8.91256 31.8931 8.98855C31.9518 9.06454 31.9943 9.15173 32.018 9.24476C32.0417 9.3378 32.0461 9.43472 32.0309 9.52952C32.0157 9.62432 31.9813 9.715 31.9297 9.79599C31.8782 9.87698 31.8106 9.94655 31.7311 10.0004L28.2571 12.6869C28.1215 12.7944 27.9516 12.8494 27.7788 12.8416Z" fill="#EBCC86"/>
<path d="M28.4117 16.8501C28.2252 16.865 28.0404 16.8052 27.8979 16.6839C27.7555 16.5626 27.6671 16.3896 27.6522 16.2031C27.6372 16.0166 27.697 15.8318 27.8184 15.6893C27.9397 15.5469 28.1127 15.4585 28.2992 15.4436L32.6312 14.67C32.8155 14.6412 33.0037 14.6853 33.156 14.793C33.3083 14.9006 33.4127 15.0633 33.447 15.2466C33.4631 15.3381 33.461 15.4319 33.4407 15.5226C33.4204 15.6132 33.3823 15.6989 33.3287 15.7747C33.2751 15.8506 33.207 15.9151 33.1283 15.9645C33.0496 16.0138 32.962 16.0471 32.8704 16.0625L28.5383 16.822L28.4117 16.8501Z" fill="#EBCC86"/>
<path d="M33.222 22.462C33.1294 22.4831 33.0333 22.4831 32.9407 22.462L28.904 20.7039C28.8176 20.6687 28.7392 20.6164 28.6736 20.5501C28.608 20.4838 28.5565 20.4048 28.5223 20.318C28.4881 20.2312 28.4719 20.1384 28.4747 20.0451C28.4774 19.9519 28.499 19.8602 28.5383 19.7755C28.6153 19.606 28.7552 19.4731 28.9285 19.4049C29.1017 19.3367 29.2946 19.3384 29.4666 19.4099L33.5033 21.168C33.6728 21.245 33.8057 21.3849 33.874 21.5582C33.9422 21.7314 33.9404 21.9244 33.869 22.0963C33.8061 22.2116 33.7121 22.307 33.5978 22.3716C33.4834 22.4362 33.3532 22.4676 33.222 22.462Z" fill="#EBCC86"/>
<path d="M22.434 21.3509C22.2655 21.3531 22.1017 21.2947 21.9726 21.1862C21.8436 21.0778 21.7577 20.9266 21.7308 20.7602C21.7063 20.5761 21.7542 20.3897 21.8643 20.2402C21.9745 20.0906 22.1384 19.9897 22.3215 19.9585C22.9123 19.86 23.4186 18.7348 23.1936 17.3705C22.9685 16.0062 22.1668 15.092 21.562 15.1763C21.3777 15.2051 21.1895 15.161 21.0372 15.0534C20.8849 14.9457 20.7805 14.783 20.7462 14.5997C20.7214 14.4139 20.7688 14.2257 20.8788 14.0739C20.9887 13.9221 21.1527 13.8183 21.3369 13.7839C22.8138 13.5448 24.2484 15.0216 24.586 17.1455C24.9236 19.2693 24.0234 21.1118 22.5465 21.365L22.434 21.3509Z" fill="#EBCC86"/>
</g>
<defs>
<clipPath id="clip0_111_1821">
<rect width="41" height="41" fill="white"/>
</clipPath>
</defs>
</svg>
