<svg width="76" height="76" viewBox="0 0 76 76" fill="none" xmlns="http://www.w3.org/2000/svg">
<path d="M18.265 53.0416C18.265 53.4476 18.5941 53.7766 19 53.7766H34.4542C34.8602 53.7766 35.1892 53.4476 35.1892 53.0416V36.4166C35.1892 36.0107 34.8602 35.6816 34.4542 35.6816H28.9841V33.8041C28.9841 33.0106 29.014 32.4055 29.1002 31.9344C29.1854 31.4686 29.316 31.1906 29.4765 31.0065C29.7941 30.6419 30.4642 30.3829 32.2298 30.3829H34.4542C34.8602 30.3829 35.1892 30.0538 35.1892 29.6479V22.1666C35.1892 21.7607 34.8602 21.4316 34.4542 21.4316H28.8345C24.9179 21.4316 22.221 22.4102 20.5212 24.2682C18.8329 26.1136 18.265 28.6804 18.265 31.5479V53.0416ZM41.6024 53.0416C41.6024 53.4476 41.9315 53.7766 42.3374 53.7766H57.7917C58.1976 53.7766 58.5267 53.4476 58.5267 53.0416V36.4166C58.5267 36.0107 58.1976 35.6816 57.7917 35.6816H52.3216V33.8041C52.3216 33.0106 52.3514 32.4055 52.4376 31.9344C52.5228 31.4686 52.6535 31.1906 52.8139 31.0065C53.1315 30.6419 53.8016 30.3829 55.5672 30.3829H57.7917C58.1976 30.3829 58.5267 30.0538 58.5267 29.6479V22.1666C58.5267 21.7607 58.1976 21.4316 57.7917 21.4316H52.172C48.2554 21.4316 45.5584 22.4102 43.8586 24.2682C42.1704 26.1136 41.6024 28.6804 41.6024 31.5479V53.0416Z" stroke="#EBCC86" stroke-width="1.47" stroke-linejoin="round"/>
<circle cx="38" cy="38" r="37.265" stroke="#EBCC86" stroke-width="1.47" stroke-linejoin="round"/>
</svg>
