<svg width="76" height="76" viewBox="0 0 76 76" fill="none" xmlns="http://www.w3.org/2000/svg">
<path d="M37.6834 74.3667C57.943 74.3667 74.3667 57.943 74.3667 37.6834C74.3667 17.4237 57.943 1 37.6834 1C17.4237 1 1 17.4237 1 37.6834C1 57.943 17.4237 74.3667 37.6834 74.3667Z" stroke="#EBCC86" stroke-width="1.47" stroke-linecap="round" stroke-linejoin="round"/>
<path d="M45.2562 45.0323C47.6025 44.6581 48.567 38.476 47.4106 31.224C46.2542 23.972 43.4148 18.3965 41.0686 18.7706C38.7224 19.1447 37.7577 25.3269 38.9141 32.5788C40.0705 39.8308 42.91 45.4064 45.2562 45.0323Z" stroke="#EBCC86" stroke-width="1.47" stroke-linecap="round" stroke-linejoin="round"/>
<path d="M41.0726 18.6508C41.0726 18.6508 26.1072 26.2377 16.9037 30.2007C15.9143 30.6276 15.0952 31.372 14.5759 32.3162C14.0566 33.2605 13.8665 34.3508 14.0358 35.4151C14.4269 37.5009 14.844 39.4823 15.183 41.1248C15.4494 42.2764 16.1251 43.2919 17.0843 43.9826C18.0435 44.6732 19.2208 44.9918 20.3974 44.8792C28.6556 43.9874 36.9858 43.9874 45.244 44.8792" stroke="#EBCC86" stroke-width="1.47" stroke-linecap="round" stroke-linejoin="round"/>
<path d="M29.6792 45.1921L33.8247 52.1273C34.0517 52.5036 34.2021 52.9211 34.2672 53.3557C34.3324 53.7903 34.311 54.2336 34.2044 54.66C34.0978 55.0863 33.9081 55.4874 33.646 55.8402C33.384 56.1931 33.0549 56.4907 32.6776 56.716C31.9197 57.1661 31.0145 57.298 30.1597 57.0831C29.3049 56.8682 28.5698 56.3238 28.115 55.5688L22.2227 45.7136" stroke="#EBCC86" stroke-width="1.47" stroke-linecap="round" stroke-linejoin="round"/>
<path d="M51.1885 22.1966L57.6543 17.1908" stroke="#EBCC86" stroke-width="1.47" stroke-linecap="round" stroke-linejoin="round"/>
<path d="M52.3618 29.6271L60.4181 28.1931" stroke="#EBCC86" stroke-width="1.47" stroke-linecap="round" stroke-linejoin="round"/>
<path d="M53.7959 36.7709L61.2786 40.0299" stroke="#EBCC86" stroke-width="1.47" stroke-linecap="round" stroke-linejoin="round"/>
<path d="M39.5605 26.5245C41.5681 26.2116 43.5756 28.506 44.0971 31.7389C44.6185 34.9718 43.367 37.7094 41.4899 38.0483" stroke="#EBCC86" stroke-width="1.47" stroke-linecap="round" stroke-linejoin="round"/>
</svg>
