<svg viewBox="0 0 314 162" fill="none" xmlns="http://www.w3.org/2000/svg">
  <path d="M2.56 40H8.16V23.08C8.16 23.08 9.76 25.84 11.48 28.16L20.12 40H25.52V14.08H19.92V31.16C19.92 31.16 18.28 28.36 16.84 26.4L7.92 14.08H2.56V40ZM40.4859 40.4C43.0859 40.4 45.6859 39.68 47.9259 38.2L45.9259 34.36C44.4459 35.36 42.4459 35.92 40.5259 35.92C37.8859 35.92 35.6059 34.6 34.9659 31.84H49.4859C49.4859 31.84 49.6059 30.88 49.6059 29.92C49.6059 24.24 45.3259 19.6 39.8859 19.6C34.0059 19.6 29.5259 24.24 29.5259 30C29.5259 36.6 34.6459 40.4 40.4859 40.4ZM34.8859 28.28C35.4059 25.76 37.4059 24.08 39.7259 24.08C42.1659 24.08 44.1659 25.76 44.5659 28.28H34.8859ZM61.5738 40.4C63.8938 40.4 66.4138 39.52 67.8138 37.6V40H73.0538V20H67.8138V22.44C66.3738 20.52 63.8938 19.6 61.5738 19.6C56.0538 19.6 52.5338 24.24 52.5338 30C52.5338 35.76 56.0538 40.4 61.5738 40.4ZM62.9338 35.44C60.0538 35.44 57.9738 33.16 57.9738 30C57.9738 26.88 60.0538 24.56 62.9338 24.56C65.6938 24.56 67.6938 26.88 67.6938 30C67.6938 33.2 65.6938 35.44 62.9338 35.44ZM77.1181 40H82.4781V32.32C82.4781 27.56 84.7581 25.44 89.3981 25.44V19.6C84.9981 19.6 82.9581 22.2 82.3981 23.84V20H77.1181V40ZM92.3134 40H97.6734V13.68H92.3134V40ZM103.807 45.88C106.287 45.88 110.047 45.48 112.207 40.56L121.087 20H115.727L112.087 29.24C111.647 30.4 110.807 32.76 110.807 32.76C110.807 32.76 110.087 30.76 109.487 29.36L105.447 20H100.007L108.367 37.72L107.927 38.6C107.207 40.16 106.287 41 103.807 41V45.88Z" fill="white"/>
  <path d="M215.64 161H221.24V139.88H230.04V135.08H206.84V139.88H215.64V161ZM232.142 161H237.502V150.84C237.502 147.96 239.062 145.68 241.902 145.68C244.542 145.68 245.422 147.24 245.422 150.16V161H250.782V149.48C250.782 143.88 248.862 140.6 243.662 140.6C241.262 140.6 239.062 141.44 237.502 143.52V134.68H232.142V161ZM264.963 161.4C267.563 161.4 270.163 160.68 272.403 159.2L270.403 155.36C268.923 156.36 266.923 156.92 265.003 156.92C262.363 156.92 260.083 155.6 259.443 152.84H273.963C273.963 152.84 274.083 151.88 274.083 150.92C274.083 145.24 269.803 140.6 264.363 140.6C258.483 140.6 254.003 145.24 254.003 151C254.003 157.6 259.123 161.4 264.963 161.4ZM259.363 149.28C259.883 146.76 261.883 145.08 264.203 145.08C266.643 145.08 268.643 146.76 269.043 149.28H259.363ZM277.61 161H282.97V153.32C282.97 148.56 285.25 146.44 289.89 146.44V140.6C285.49 140.6 283.45 143.2 282.89 144.84V141H277.61V161ZM303.009 161.4C305.609 161.4 308.209 160.68 310.449 159.2L308.449 155.36C306.969 156.36 304.969 156.92 303.049 156.92C300.409 156.92 298.129 155.6 297.489 152.84H312.009C312.009 152.84 312.129 151.88 312.129 150.92C312.129 145.24 307.849 140.6 302.409 140.6C296.529 140.6 292.049 145.24 292.049 151C292.049 157.6 297.169 161.4 303.009 161.4ZM297.409 149.28C297.929 146.76 299.929 145.08 302.249 145.08C304.689 145.08 306.689 146.76 307.089 149.28H297.409Z" fill="white"/>
  <path d="M126.47 30.2299C145.47 28.6099 167.19 35.5899 177.93 52.2299C189.54 70.2299 187.27 95.23 174.28 111.79C161.81 127.72 140.58 135.84 120.45 133.79C106.8 132.42 92.31 125.26 88.17 112.18C85.55 103.91 87.59 94.75 91.63 87.07C99.95 71.26 116.5 60.56 134.1 57.47C151.7 54.38 170.1 58.39 185.92 66.72C204.7 76.62 220.39 93.21 225.65 114.09" stroke="white" stroke-width="2" stroke-miterlimit="10"/>
</svg>
