<svg width="43" height="43" viewBox="0 0 43 43" fill="none" xmlns="http://www.w3.org/2000/svg">
<path d="M21.5 42C32.8218 42 42 32.8218 42 21.5C42 10.1782 32.8218 1 21.5 1C10.1782 1 1 10.1782 1 21.5C1 32.8218 10.1782 42 21.5 42Z" stroke="black" stroke-width="1.3" stroke-miterlimit="10"/>
<path d="M14.339 9.56494L10.7585 14.3389V31.0478C10.7585 31.6809 11.01 32.288 11.4577 32.7357C11.9053 33.1833 12.5125 33.4348 13.1455 33.4348H29.8544C30.4875 33.4348 31.0946 33.1833 31.5423 32.7357C31.9899 32.288 32.2414 31.6809 32.2414 31.0478V14.3389L28.6609 9.56494H14.339Z" stroke="black" stroke-width="1.3" stroke-linecap="round" stroke-linejoin="round"/>
<path d="M10.7585 15.3391H32.2414" stroke="black" stroke-width="1.3" stroke-linecap="round" stroke-linejoin="round"/>
<path d="M26.274 19.113C26.274 20.3792 25.771 21.5935 24.8758 22.4887C23.9805 23.384 22.7662 23.887 21.5 23.887C20.2339 23.887 19.0196 23.384 18.1243 22.4887C17.229 21.5935 16.7261 20.3792 16.7261 19.113" stroke="black" stroke-width="1.3" stroke-linecap="round" stroke-linejoin="round"/>
</svg>
