<svg width="117" height="27" viewBox="0 0 117 27" fill="none" xmlns="http://www.w3.org/2000/svg">
<path d="M15.9542 12.6099C19.1067 13.1715 21.2071 16.2884 21.2071 18.7656C21.2071 23.3077 17.2977 26.3109 11.5614 26.3109H0V0.0107422L10.4703 0.0462796C15.9542 0.0853744 20.0663 2.82556 20.0663 7.36411C20.0663 9.39348 18.7157 11.5686 15.94 12.6206L15.9542 12.6099ZM9.45738 10.808C12.6134 10.808 13.3988 9.41837 13.3988 7.91855C13.3988 6.19127 11.9772 5.32763 10.1362 5.32763H6.64256V10.808H9.45738ZM6.64256 15.2399V20.9442H11.4121C13.3633 20.9442 14.5255 19.878 14.5255 18.3888C14.5255 16.8997 13.5126 15.2399 9.68128 15.2399H6.64256Z" fill="#2D2A26"/>
<path d="M31.5352 11.0356C32.1607 7.35362 35.5158 6.47221 36.941 6.47221C37.3823 6.45517 37.8241 6.49337 38.256 6.58594V12.8695C37.4561 12.6884 36.638 12.6001 35.8179 12.6065C33.3016 12.6065 31.7627 14.2236 31.7627 16.5835V26.3075H25.3049V6.86671H31.5352V11.0356Z" fill="#2D2A26"/>
<path d="M40.1505 16.6649C40.1505 11.1099 44.3194 6.4541 51.0011 6.4541C56.8937 6.4541 61.3612 10.0935 61.3612 16.9635C61.3672 17.2388 61.3553 17.5142 61.3257 17.788H46.3453C46.4234 19.5651 48.4493 21.5447 52.1277 21.5447C54.0043 21.5447 55.7671 20.8694 57.4588 19.4442C57.9813 19.9667 60.1208 22.6429 60.6575 23.1191C58.0701 25.8593 54.7293 26.723 51.5733 26.723C44.3656 26.723 40.1612 22.22 40.1612 16.6649H40.1505ZM46.4234 14.337H55.2802C55.0563 12.1228 52.8776 11.2592 50.962 11.2592C49.1245 11.2592 46.7966 12.0838 46.4234 14.337Z" fill="#2D2A26"/>
<path d="M63.8772 16.6649C63.8772 11.1099 68.0461 6.4541 74.7242 6.4541C80.6204 6.4541 85.0843 10.0935 85.0843 16.9635C85.0903 17.2388 85.0784 17.5142 85.0488 17.788H70.0719C70.1466 19.5651 72.1724 21.5447 75.8509 21.5447C77.7274 21.5447 79.4938 20.8694 81.182 19.4442C81.708 19.9667 83.8475 22.6429 84.3806 23.1191C81.7897 25.8593 78.4489 26.723 75.2964 26.723C68.0888 26.723 63.8843 22.22 63.8843 16.6649H63.8772ZM70.1466 14.337H79.0069C78.7794 12.1228 76.6043 11.2592 74.6887 11.2592C72.8477 11.2592 70.5233 12.0838 70.1466 14.337Z" fill="#2D2A26"/>
<path d="M107.393 26.311H87.4622V22.6716L97.5202 11.8993H87.8744V6.8667H106.832V10.5843L96.8058 21.282H107.393V26.311Z" fill="#2D2A26"/>
<path d="M110.29 7.76943V11.2347H109.238V7.76943H108.001V6.8667H111.523V7.76943H110.29Z" fill="#2D2A26"/>
<path d="M115.966 11.2347L115.991 8.14616H115.97L114.836 11.2347H114.097L112.991 8.14616H112.974L112.998 11.2347H112.007V6.8667H113.507L114.502 9.66731H114.523L115.476 6.8667H117V11.2347H115.966Z" fill="#2D2A26"/>
</svg>
