<svg viewBox="0 0 319 294" fill="none" xmlns="http://www.w3.org/2000/svg">
<path d="M20.9808 70.3365H37.1173L47.8388 30.4827C49.1384 25.6092 50.0048 19.003 50.2214 18.2449C50.438 19.003 51.3044 25.6092 52.604 30.4827L63.3255 70.3365H79.3537L100.255 0.0507812H85.2018L73.5056 41.4208C72.206 45.861 71.0147 51.1677 70.7981 51.7092C70.6898 51.1677 69.6068 45.861 68.5238 41.4208L58.1272 0.0507812H42.4239L31.919 41.4208C30.7277 45.9693 29.6447 51.1677 29.5364 51.7092C29.4281 51.1677 28.1285 45.7527 26.9372 41.4208L15.5659 0.0507812H0.1875L20.9808 70.3365Z" fill="white"/>
<path d="M130.505 71.3112C137.545 71.3112 144.584 69.3618 150.649 65.3548L145.234 54.9581C141.227 57.6656 135.812 59.1817 130.614 59.1817C123.466 59.1817 117.293 55.6079 115.56 48.1353H154.872C154.872 48.1353 155.197 45.5361 155.197 42.937C155.197 27.5586 143.609 14.996 128.881 14.996C112.961 14.996 100.831 27.5586 100.831 43.1536C100.831 61.0228 114.694 71.3112 130.505 71.3112ZM115.343 38.4967C116.751 31.6739 122.166 27.1254 128.448 27.1254C135.054 27.1254 140.469 31.6739 141.552 38.4967H115.343Z" fill="white"/>
<path d="M164.182 29.508H173.387L183.676 0.0507812H170.571L164.182 29.508Z" fill="white"/>
<path d="M196.371 70.2282H210.883V49.4349C210.883 36.5474 217.056 30.8075 229.619 30.8075V14.996C217.706 14.996 212.183 22.0354 210.666 26.4756V16.079H196.371V70.2282Z" fill="white"/>
<path d="M265.138 71.3112C272.177 71.3112 279.217 69.3618 285.282 65.3548L279.867 54.9581C275.86 57.6656 270.445 59.1817 265.246 59.1817C258.099 59.1817 251.926 55.6079 250.193 48.1353H289.505C289.505 48.1353 289.83 45.5361 289.83 42.937C289.83 27.5586 278.242 14.996 263.514 14.996C247.594 14.996 235.464 27.5586 235.464 43.1536C235.464 61.0228 249.326 71.3112 265.138 71.3112ZM249.976 38.4967C251.384 31.6739 256.799 27.1254 263.08 27.1254C269.687 27.1254 275.102 31.6739 276.185 38.4967H249.976Z" fill="white"/>
<path d="M123.973 195.854C140.217 195.854 152.997 183.4 152.997 167.697C152.997 151.993 140.217 139.539 123.973 139.539C107.836 139.539 95.0569 151.993 95.0569 167.697C95.0569 183.4 107.836 195.854 123.973 195.854ZM123.973 182.425C115.85 182.425 109.785 176.252 109.785 167.697C109.785 159.249 115.85 152.968 123.973 152.968C132.095 152.968 138.16 159.249 138.16 167.697C138.16 176.252 132.095 182.425 123.973 182.425Z" fill="white"/>
<path d="M162.464 194.771H176.976V167.372C176.976 159.141 181.85 153.293 189.106 153.293C196.47 153.293 198.528 157.517 198.528 165.422V194.771H213.04V163.581C213.04 148.744 208.058 139.539 193.762 139.539C187.156 139.539 180.983 141.922 176.651 147.878V140.622H162.464V194.771Z" fill="white"/>
<path d="M259.129 292.24H273.641V238.091H259.129V292.24ZM266.276 231.485C271.042 231.485 274.94 227.586 274.94 222.929C274.94 218.164 271.042 214.265 266.276 214.265C261.62 214.265 257.721 218.164 257.721 222.929C257.721 227.586 261.62 231.485 266.276 231.485Z" fill="white"/>
<path d="M305.083 293.323C310.823 293.323 315.588 291.374 318.837 289.208L314.721 278.486C314.288 278.811 311.256 280.76 307.79 280.76C305.191 280.76 302.917 279.244 302.917 274.587V249.787H317.862V238.091H302.917V224.445L288.405 227.694V238.091H280.499V249.787H288.405V274.804C288.405 287.042 294.253 293.323 305.083 293.323Z" fill="white"/>
</svg>
