<svg viewBox="0 0 331 112" fill="none" xmlns="http://www.w3.org/2000/svg">
<path d="M324.154 84.5633H30.2323C30.2323 84.5633 36.3927 14.0205 60.3886 14.0205C71.7972 14.0205 77.844 23.4516 82.9778 32.1221C94.7666 52.0871 115.758 63.4956 137.815 68.9717C167.857 76.5774 200.6 75.7788 231.403 76.5774C239.009 76.8056 324.154 78.4408 324.154 77.9464V84.5633Z" fill="#2D2A26"/>
<path d="M30.2323 84.5629C50.9198 61.2514 74.9917 39.385 103.323 25.8088C121.735 17.0746 142.093 13.2494 162.419 14.7046C186.529 16.4158 208.358 27.0637 231.137 34.0609C254.788 41.0087 279.159 45.2196 303.771 46.6105C310.578 47.1049 317.347 47.409 324.154 47.409" stroke="#EBCC86" stroke-width="1.44187" stroke-linecap="round" stroke-linejoin="round"/>
<path d="M256.773 65.8766C258.973 65.8766 261.275 64.8441 261.275 62.4742C261.275 60.1213 258.939 59.3934 256.993 58.9364C255.909 58.6824 255.114 58.4285 255.114 57.7176C255.114 56.8881 256.197 56.6681 256.773 56.6681C257.89 56.6681 259.041 56.9728 259.921 57.5483L260.784 55.7201C259.684 54.9922 258.431 54.5521 256.773 54.5521C254.674 54.5521 252.693 55.6016 252.693 57.7176C252.693 60.0028 254.809 60.6968 256.857 61.1708C257.822 61.4078 258.804 61.6278 258.804 62.4742C258.804 63.3375 257.687 63.7607 256.773 63.7607C255.097 63.7607 254.047 63.2021 253.167 62.5588L252.304 64.387C252.913 64.8779 254.149 65.8766 256.773 65.8766ZM262.888 65.6904H265.156V61.3062C265.156 60.189 265.732 59.2072 266.883 59.2072C268.102 59.2072 268.356 60.0366 268.356 61.1539V65.6904H270.624V61.2216C270.624 60.1044 271.233 59.2072 272.351 59.2072C273.553 59.2072 273.823 60.0366 273.823 61.1539V65.6904H276.092V60.8661C276.092 58.6994 275.347 57.0574 272.96 57.0574C271.995 57.0574 270.827 57.5483 270.218 58.564C269.778 57.616 268.948 57.0574 267.611 57.0574C266.595 57.0574 265.597 57.5991 265.106 58.3608V57.2267H262.888V65.6904ZM281.965 65.8597C284.505 65.8597 286.502 63.913 286.502 61.4586C286.502 59.0041 284.505 57.0574 281.965 57.0574C279.443 57.0574 277.446 59.0041 277.446 61.4586C277.446 63.913 279.443 65.8597 281.965 65.8597ZM281.965 63.7607C280.696 63.7607 279.748 62.7958 279.748 61.4586C279.748 60.1382 280.696 59.1564 281.965 59.1564C283.235 59.1564 284.183 60.1382 284.183 61.4586C284.183 62.7958 283.235 63.7607 281.965 63.7607ZM287.982 65.6904H290.25V63.6083L291.215 62.4573L293.754 65.6904H296.479L292.62 60.9169L295.921 57.2267H293.162L290.25 60.7476V54.5521H287.982V65.6904ZM301.177 65.8597C302.277 65.8597 303.378 65.555 304.326 64.9287L303.479 63.3037C302.853 63.7268 302.006 63.9638 301.194 63.9638C300.077 63.9638 299.112 63.4052 298.841 62.2372H304.986C304.986 62.2372 305.036 61.831 305.036 61.4247C305.036 59.021 303.225 57.0574 300.923 57.0574C298.435 57.0574 296.539 59.021 296.539 61.4586C296.539 64.2516 298.706 65.8597 301.177 65.8597ZM298.807 60.7307C299.027 59.6642 299.874 58.9533 300.855 58.9533C301.888 58.9533 302.734 59.6642 302.904 60.7307H298.807Z" fill="#2D2A26"/>
<path d="M17 83.7357V74.9165H14.9687V81.3659H12.3111V75.4751H10.2967V81.3659H8.06228V75.1535H6.03098L6.03098 83.7357H17ZM17 72.7938V70.5255H10.3813L10.3813 68.4096H8.55318L8.55318 70.5255H8.24848C7.36825 70.5255 7.13127 70.1362 7.13127 69.6622C7.13127 69.2729 7.30054 68.9005 7.38518 68.7143L5.70935 68.071C5.40466 68.6635 5.1846 69.5099 5.1846 70.2716C5.1846 71.7105 6.03098 72.7938 7.99457 72.7938H8.55318V74.1142H10.3813V72.7938H17ZM17 66.5994V64.3311H10.3813V62.2152H8.55318V64.3311H8.24848C7.36825 64.3311 7.13127 63.9418 7.13127 63.4678C7.13127 63.0785 7.30054 62.7061 7.38518 62.5199L5.70935 61.8766C5.40466 62.4691 5.1846 63.3155 5.1846 64.0772C5.1846 65.5161 6.03098 66.5994 7.99457 66.5994H8.55318V67.9198H10.3813V66.5994H17ZM17.1693 56.525C17.1693 55.4247 16.8646 54.3245 16.2383 53.3765L14.6132 54.2229C15.0364 54.8492 15.2734 55.6956 15.2734 56.5081C15.2734 57.6253 14.7148 58.5902 13.5468 58.861V52.7163C13.5468 52.7163 13.1405 52.6656 12.7343 52.6656C10.3306 52.6656 8.36697 54.4768 8.36697 56.7789C8.36697 59.2673 10.3306 61.1632 12.7681 61.1632C15.5612 61.1632 17.1693 58.9964 17.1693 56.525ZM12.0402 58.8949C10.9738 58.6748 10.2629 57.8285 10.2629 56.8467C10.2629 55.8141 10.9738 54.9677 12.0402 54.7984V58.8949ZM17.1693 46.3991C17.1693 45.1803 16.763 44.0462 16.069 43.2336L14.3762 44.4355C14.7994 44.8756 15.0703 45.5696 15.0703 46.2806C15.0703 47.7194 14.0885 48.6166 12.7681 48.6166C11.4309 48.6166 10.466 47.6686 10.466 46.3483C10.466 45.6712 10.686 45.1295 11.0415 44.7402L9.45033 43.3691C8.75631 44.2154 8.36697 45.2311 8.36697 46.3991C8.36697 48.9213 10.3136 50.9187 12.7681 50.9187C15.2226 50.9187 17.1693 48.9213 17.1693 46.3991ZM17.1693 38.3786C17.1693 37.4815 16.8646 36.7366 16.526 36.2288L14.8502 36.8721C14.901 36.9398 15.2057 37.4137 15.2057 37.9554C15.2057 38.3617 14.9687 38.7172 14.2408 38.7172H10.3644V36.3812H8.53625V38.7172H6.40338L6.91121 40.9855H8.53625L8.53625 42.2212H10.3644L10.3644 40.9855H14.2747C16.1875 40.9855 17.1693 40.0714 17.1693 38.3786Z" fill="#2D2A26"/>
<path d="M49.3967 101.819H51.7665V92.8814H55.4906V90.8501H45.6726V92.8814H49.3967V101.819ZM57.1192 101.819H59.3875V93.3553H57.1192V101.819ZM58.2364 92.3228C58.9812 92.3228 59.5906 91.7134 59.5906 90.9855C59.5906 90.2407 58.9812 89.6313 58.2364 89.6313C57.5085 89.6313 56.8991 90.2407 56.8991 90.9855C56.8991 91.7134 57.5085 92.3228 58.2364 92.3228ZM61.6274 101.819H63.8957V97.4349C63.8957 96.3177 64.4713 95.3359 65.6223 95.3359C66.8411 95.3359 67.095 96.1653 67.095 97.2825V101.819H69.3633V97.3502C69.3633 96.233 69.9727 95.3359 71.0899 95.3359C72.2918 95.3359 72.5626 96.1653 72.5626 97.2825V101.819H74.8309V96.9948C74.8309 94.828 74.0861 93.1861 71.6993 93.1861C70.7344 93.1861 69.5664 93.677 68.9571 94.6926C68.5169 93.7447 67.6875 93.1861 66.3502 93.1861C65.3346 93.1861 64.3359 93.7277 63.845 94.4895V93.3553H61.6274V101.819ZM81.3311 101.988C82.4314 101.988 83.5316 101.684 84.4796 101.057L83.6332 99.4323C83.0069 99.8555 82.1605 100.092 81.348 100.092C80.2308 100.092 79.2659 99.5339 78.9951 98.3659H85.1398C85.1398 98.3659 85.1905 97.9596 85.1905 97.5534C85.1905 95.1497 83.3793 93.1861 81.0772 93.1861C78.5888 93.1861 76.6929 95.1497 76.6929 97.5872C76.6929 100.38 78.8596 101.988 81.3311 101.988ZM78.9612 96.8593C79.1813 95.7929 80.0276 95.0819 81.0094 95.0819C82.042 95.0819 82.8884 95.7929 83.0577 96.8593H78.9612Z" fill="#2D2A26"/>
<path d="M256.768 19.6491C257.811 19.895 258.746 20.4729 259.432 21.2959C260.117 22.1189 260.517 23.1426 260.571 24.2125C260.571 27.5591 257.719 29.7646 253.46 29.7646H244.942V10.3701H252.547C256.578 10.3701 259.621 12.3858 259.621 15.7323C259.599 16.5976 259.315 17.436 258.806 18.1357C258.296 18.8355 257.586 19.3634 256.768 19.6491ZM252.015 18.3182C254.335 18.3182 254.905 17.3294 254.905 16.1886C254.905 15.0477 253.84 14.2872 252.509 14.2872H249.924V18.3182H252.015ZM249.924 21.5886V25.8097H253.422C254.867 25.8097 255.742 25.0111 255.742 23.9083C255.742 22.8054 254.981 21.5886 252.167 21.5886H249.924Z" fill="#EBCC86"/>
<path d="M268.253 18.5081C268.408 17.5956 268.868 16.7629 269.56 16.1476C270.251 15.5323 271.132 15.1711 272.056 15.1235H273.045V19.7631C272.444 19.6375 271.833 19.5736 271.219 19.5728C270.826 19.5451 270.431 19.6017 270.061 19.7385C269.691 19.8754 269.355 20.0896 269.074 20.3666C268.794 20.6437 268.575 20.9773 268.434 21.3454C268.292 21.7135 268.23 22.1074 268.253 22.5011V29.6885H263.499V15.4278H268.063L268.253 18.5081Z" fill="#EBCC86"/>
<path d="M274.604 22.654C274.602 21.619 274.812 20.5947 275.22 19.6436C275.628 18.6924 276.226 17.8347 276.977 17.1226C277.728 16.4106 278.617 15.8594 279.589 15.5028C280.56 15.1461 281.594 14.9914 282.628 15.0483C283.644 14.9811 284.663 15.1318 285.616 15.4902C286.569 15.8487 287.435 16.4067 288.155 17.1268C288.875 17.847 289.433 18.7126 289.792 19.6659C290.15 20.6191 290.301 21.6378 290.234 22.654V23.2626H279.167C279.167 24.5556 280.726 26.0005 283.426 26.0005C284.832 25.9482 286.175 25.4108 287.229 24.4795C287.609 24.8598 289.169 26.8371 289.587 27.1794C288.711 28.0661 287.661 28.7609 286.502 29.2192C285.343 29.6775 284.101 29.8894 282.856 29.8414C281.838 29.9296 280.814 29.8121 279.843 29.4956C278.872 29.1791 277.974 28.6702 277.204 27.9994C276.434 27.3287 275.807 26.5097 275.36 25.5913C274.913 24.6729 274.656 23.6739 274.604 22.654ZM279.243 20.9429H285.784C285.637 20.2303 285.226 19.5993 284.634 19.1763C284.042 18.7534 283.312 18.5694 282.59 18.6611C281.852 18.5807 281.109 18.7664 280.496 19.1847C279.882 19.603 279.438 20.2265 279.243 20.9429Z" fill="#EBCC86"/>
<path d="M292.097 22.6526C292.096 21.621 292.305 20.5999 292.71 19.6514C293.116 18.703 293.711 17.8471 294.458 17.1356C295.205 16.4242 296.088 15.872 297.056 15.513C298.023 15.1539 299.053 14.9953 300.083 15.0469C301.098 14.9859 302.114 15.1409 303.064 15.5016C304.015 15.8622 304.878 16.4203 305.597 17.1391C306.315 17.8579 306.874 18.721 307.234 19.6714C307.595 20.6218 307.75 21.6379 307.689 22.6526C307.708 22.855 307.708 23.0588 307.689 23.2612H296.775C296.775 24.5541 298.334 25.9991 301.034 25.9991C302.439 25.9468 303.783 25.4094 304.837 24.4781C305.217 24.8584 306.776 26.8357 307.156 27.178C306.288 28.0637 305.244 28.7582 304.091 29.2166C302.939 29.675 301.703 29.8873 300.463 29.84C299.437 29.9445 298.4 29.8389 297.416 29.5299C296.431 29.2209 295.52 28.7149 294.737 28.0426C293.955 27.3702 293.317 26.5457 292.863 25.6191C292.409 24.6925 292.149 23.6831 292.097 22.6526ZM296.737 20.9415H303.239C303.1 20.2319 302.697 19.6015 302.111 19.1779C301.525 18.7543 300.8 18.569 300.083 18.6596C299.351 18.5888 298.618 18.779 298.012 19.1965C297.407 19.614 296.969 20.2321 296.775 20.9415H296.737Z" fill="#EBCC86"/>
<path d="M324.154 29.7645H309.475V27.0646L317.081 19.1547H309.97V15.3518H323.964V18.09L316.549 25.9617H324.154V29.7645Z" fill="#EBCC86"/>
<path d="M327.73 15.3139C328.364 15.2988 328.989 15.4733 329.525 15.815C330.06 16.1567 330.481 16.6501 330.734 17.2323C330.988 17.8145 331.062 18.459 330.948 19.0836C330.833 19.7081 330.535 20.2846 330.092 20.7389C329.648 21.1933 329.079 21.5051 328.457 21.6346C327.836 21.7642 327.19 21.7055 326.602 21.4661C326.013 21.2268 325.51 20.8176 325.156 20.2907C324.801 19.7639 324.611 19.1434 324.611 18.5084C324.601 18.0925 324.674 17.6788 324.826 17.2917C324.979 16.9045 325.207 16.5516 325.497 16.2539C325.788 15.9563 326.135 15.7197 326.518 15.5583C326.902 15.3969 327.314 15.3138 327.73 15.3139ZM327.73 21.0943C328.366 21.0172 328.953 20.7097 329.378 20.2297C329.803 19.7497 330.038 19.1307 330.038 18.4894C330.038 17.848 329.803 17.229 329.378 16.749C328.953 16.2691 328.366 15.9615 327.73 15.8844C327.093 15.9615 326.507 16.2691 326.081 16.749C325.656 17.229 325.421 17.848 325.421 18.4894C325.421 19.1307 325.656 19.7497 326.081 20.2297C326.507 20.7097 327.093 21.0172 327.73 21.0943ZM328.452 18.9647L329.137 19.9154H328.262L327.615 18.8505V19.9154H326.741V16.6831H328.186C328.331 16.6773 328.475 16.7021 328.609 16.756C328.744 16.8099 328.865 16.8916 328.965 16.9957C329.066 17.0999 329.143 17.2242 329.192 17.3604C329.241 17.4965 329.262 17.6415 329.251 17.7858C329.284 17.9162 329.29 18.0522 329.267 18.1848C329.244 18.3174 329.192 18.4436 329.117 18.555C329.041 18.6665 328.943 18.7606 328.828 18.8313C328.714 18.9019 328.585 18.9474 328.452 18.9647ZM327.919 18.3561C327.919 18.3561 328.186 18.1661 328.186 17.9759C328.186 17.7858 328.186 17.5957 327.919 17.5957H327.426V18.3561H327.919Z" fill="#EBCC86"/>
</svg>
