<svg viewBox="0 0 60 60" fill="none" xmlns="http://www.w3.org/2000/svg">
<path d="M29.9999 59.2111C46.1327 59.2111 59.211 46.1328 59.211 30C59.211 13.8672 46.1327 0.78894 29.9999 0.78894C13.8671 0.78894 0.788818 13.8672 0.788818 30C0.788818 46.1328 13.8671 59.2111 29.9999 59.2111Z" stroke="#1D1D1B" stroke-linecap="round" stroke-linejoin="round"/>
<path d="M30.166 48.9757L29.6055 14.8027" stroke="#1D1D1B" stroke-linecap="round" stroke-linejoin="round"/>
<path d="M30.27 58.0692L30.1662 48.8097C30.1662 48.8097 44.2423 46.1315 44.2423 31.1419C44.2423 16.7751 29.834 6.22839 29.834 6.22839C29.834 6.22839 15.8617 15.0519 15.7372 29.481C15.7162 33.1714 16.6638 36.8027 18.4853 40.0123C20.3069 43.2219 22.9387 45.8974 26.1178 47.7716" stroke="#1D1D1B" stroke-linecap="round" stroke-linejoin="round"/>
<path d="M34.6712 18.9342L30.249 23.3564" stroke="#1D1D1B" stroke-linecap="round" stroke-linejoin="round"/>
<path d="M37.3701 35.481L30.249 42.6021" stroke="#1D1D1B" stroke-linecap="round" stroke-linejoin="round"/>
<path d="M37.8063 25.5364L30.3323 32.9897" stroke="#1D1D1B" stroke-linecap="round" stroke-linejoin="round"/>
<path d="M25.1418 18.9342L29.564 23.3564" stroke="#1D1D1B" stroke-linecap="round" stroke-linejoin="round"/>
<path d="M22.4429 35.481L29.564 42.6021" stroke="#1D1D1B" stroke-linecap="round" stroke-linejoin="round"/>
<path d="M22.0276 25.5364L29.4809 32.9897" stroke="#1D1D1B" stroke-linecap="round" stroke-linejoin="round"/>
<path d="M31.0173 48.4775C34.9778 48.6341 38.869 47.4055 42.0216 45.0032C45.1742 42.6009 47.391 39.175 48.2907 35.3149C51.6748 21.9446 40.7129 8.71973 40.7129 8.71973C38.9981 9.34134 37.3383 10.1053 35.7509 11.0035" stroke="#1D1D1B" stroke-linecap="round" stroke-linejoin="round"/>
</svg>
