<svg viewBox="0 0 251 173" fill="none" xmlns="http://www.w3.org/2000/svg">
<g clip-path="url(#clip0_151_1159)">
<path d="M19.8027 158.229H22.4153V168.072H29.3636V170.301H19.761L19.8027 158.229Z" fill="#2C2927"/>
<path d="M30.6976 158.381C30.6948 158.087 30.78 157.799 30.9424 157.553C31.1047 157.308 31.3368 157.116 31.609 157.002C31.8813 156.888 32.1814 156.858 32.4711 156.914C32.7608 156.971 33.0271 157.112 33.2358 157.32C33.4446 157.528 33.5865 157.794 33.6435 158.082C33.7004 158.371 33.6699 158.67 33.5556 158.941C33.4413 159.212 33.2486 159.443 33.0019 159.605C32.7553 159.767 32.4659 159.852 32.1707 159.849C31.7811 159.845 31.4085 159.689 31.133 159.415C30.8576 159.141 30.7012 158.77 30.6976 158.381ZM30.9339 160.984H33.4352V170.287H30.9339V160.984Z" fill="#2C2927"/>
<path d="M35.728 171.851L36.6591 170.287C37.4705 170.858 38.445 171.154 39.4384 171.131C39.7868 171.163 40.138 171.12 40.4685 171.006C40.799 170.892 41.1012 170.709 41.355 170.469C41.6088 170.229 41.8084 169.938 41.9404 169.616C42.0724 169.293 42.1337 168.946 42.1204 168.598C42.135 168.529 42.135 168.459 42.1204 168.39C41.8145 168.838 41.3985 169.201 40.9119 169.443C40.4253 169.686 39.8845 169.8 39.3411 169.774C38.208 169.686 37.1502 169.175 36.3787 168.343C35.6072 167.512 35.1787 166.421 35.1787 165.289C35.1787 164.157 35.6072 163.066 36.3787 162.235C37.1502 161.404 38.208 160.893 39.3411 160.804C39.9077 160.767 40.4744 160.875 40.9876 161.117C41.5007 161.359 41.9434 161.728 42.2734 162.188V160.915H44.6497V168.072C44.7081 168.736 44.6207 169.405 44.3935 170.032C44.1663 170.66 43.8048 171.23 43.3341 171.704C42.8634 172.179 42.2947 172.545 41.6676 172.778C41.0405 173.012 40.3699 173.106 39.7024 173.055C38.2777 173.124 36.8732 172.698 35.728 171.851ZM42.0927 165.234C42.071 164.796 41.9209 164.375 41.6614 164.021C41.4018 163.667 41.0438 163.397 40.6318 163.244C40.2198 163.091 39.7719 163.061 39.3431 163.158C38.9143 163.256 38.5237 163.476 38.2193 163.793C37.9149 164.109 37.7101 164.507 37.6303 164.938C37.5505 165.369 37.5992 165.813 37.7702 166.217C37.9413 166.621 38.2274 166.965 38.593 167.209C38.9586 167.452 39.3878 167.584 39.8276 167.587C40.129 167.593 40.4284 167.538 40.7077 167.425C40.9869 167.311 41.2401 167.143 41.452 166.929C41.6639 166.716 41.8299 166.461 41.9401 166.182C42.0502 165.902 42.1022 165.603 42.0927 165.303V165.234Z" fill="#2C2927"/>
<path d="M46.4563 158.035H48.9576V162.188C49.2868 161.741 49.7212 161.38 50.2227 161.139C50.7243 160.898 51.2777 160.783 51.8343 160.804C54.2523 160.804 55.1554 162.327 55.1554 164.957V170.314H52.6541V165.303C52.6541 163.919 52.2372 163.213 51.0143 163.213C49.7914 163.213 48.9576 164.279 48.9576 165.621V170.342H46.4563V158.035Z" fill="#2C2927"/>
<path d="M57.5735 167.269V162.978H56.1838V160.97H57.5735V159.185L60.0748 158.631V160.97H62.6456V162.978H60.0748V167.241C60.0748 168.044 60.4639 168.293 60.9085 168.293C61.3355 168.278 61.7496 168.144 62.1036 167.906L62.8124 169.747C62.1122 170.21 61.2902 170.455 60.45 170.453C58.5879 170.453 57.5735 169.373 57.5735 167.269Z" fill="#2C2927"/>
<path d="M94.441 158.229H97.0118L102.279 170.273H99.6244L98.8045 168.349H92.6624L91.8424 170.273H89.1743L94.441 158.229ZM97.9847 166.328L96.595 162.894C96.2198 161.981 95.7613 160.776 95.7335 160.735C95.7057 160.693 95.2471 161.981 94.8719 162.894L93.4822 166.328H97.9847Z" fill="#2C2927"/>
<path d="M101.612 160.97H104.113L105.85 165.746C106.212 166.715 106.503 167.684 106.545 167.809C106.545 167.684 106.879 166.688 107.212 165.774L108.949 160.97H111.437L107.754 170.287H105.294L101.612 160.97Z" fill="#2C2927"/>
<path d="M111.965 165.622C111.957 164.986 112.077 164.356 112.318 163.767C112.558 163.179 112.914 162.644 113.364 162.194C113.814 161.744 114.35 161.388 114.94 161.147C115.531 160.906 116.163 160.785 116.801 160.79C117.415 160.806 118.019 160.943 118.58 161.193C119.14 161.443 119.646 161.801 120.067 162.246C120.488 162.691 120.816 163.215 121.033 163.787C121.25 164.359 121.351 164.969 121.331 165.58C121.347 165.88 121.347 166.18 121.331 166.48H114.466C114.6 167.051 114.934 167.555 115.408 167.902C115.882 168.25 116.464 168.418 117.051 168.376C117.948 168.382 118.827 168.127 119.58 167.643L120.511 169.428C119.48 170.103 118.271 170.46 117.037 170.453C116.38 170.491 115.722 170.394 115.104 170.167C114.486 169.941 113.921 169.59 113.446 169.137C112.97 168.684 112.593 168.138 112.338 167.533C112.083 166.928 111.956 166.277 111.965 165.622ZM118.913 164.819C118.842 164.276 118.574 163.777 118.159 163.418C117.744 163.058 117.212 162.862 116.662 162.867C116.116 162.881 115.592 163.084 115.179 163.439C114.766 163.795 114.49 164.283 114.397 164.819H118.913Z" fill="#2C2927"/>
<path d="M122.971 160.97H125.43V162.756C125.697 162.127 126.157 161.599 126.743 161.246C127.33 160.893 128.013 160.733 128.696 160.79V163.559C128.257 163.481 127.805 163.51 127.379 163.643C126.953 163.776 126.566 164.009 126.25 164.323C125.934 164.637 125.698 165.022 125.562 165.445C125.427 165.869 125.396 166.319 125.472 166.757V170.328H122.971V160.97Z" fill="#2C2927"/>
<path d="M129.752 165.622C129.752 162.95 131.392 160.79 133.921 160.79C134.479 160.785 135.031 160.907 135.535 161.147C136.038 161.387 136.48 161.738 136.826 162.175V161.039H139.272V170.342H136.826V169.221C136.475 169.646 136.03 169.985 135.527 170.21C135.023 170.436 134.473 170.543 133.921 170.522C131.364 170.453 129.752 168.293 129.752 165.622ZM136.826 165.622C136.856 165.308 136.822 164.991 136.725 164.691C136.629 164.391 136.471 164.114 136.263 163.877C136.055 163.639 135.8 163.447 135.514 163.312C135.229 163.176 134.918 163.1 134.602 163.088C133.974 163.154 133.392 163.449 132.969 163.917C132.546 164.385 132.312 164.992 132.312 165.622C132.312 166.251 132.546 166.859 132.969 167.326C133.392 167.794 133.974 168.089 134.602 168.155C134.917 168.141 135.225 168.064 135.508 167.928C135.792 167.791 136.044 167.598 136.25 167.361C136.455 167.123 136.61 166.847 136.704 166.548C136.799 166.249 136.83 165.933 136.798 165.622H136.826Z" fill="#2C2927"/>
<path d="M141.592 171.851L142.523 170.287C143.335 170.858 144.309 171.154 145.303 171.131C145.651 171.163 146.002 171.12 146.333 171.006C146.663 170.892 146.965 170.709 147.219 170.469C147.473 170.229 147.672 169.938 147.804 169.616C147.936 169.293 147.998 168.946 147.985 168.598C147.992 168.529 147.992 168.459 147.985 168.39C147.681 168.84 147.265 169.204 146.778 169.447C146.291 169.689 145.749 169.802 145.205 169.774C144.072 169.686 143.014 169.175 142.243 168.343C141.471 167.512 141.043 166.421 141.043 165.289C141.043 164.157 141.471 163.066 142.243 162.235C143.014 161.404 144.072 160.893 145.205 160.804C145.772 160.767 146.339 160.875 146.852 161.117C147.365 161.359 147.807 161.728 148.137 162.188V160.915H150.5V168.072C150.561 168.735 150.475 169.404 150.25 170.031C150.024 170.659 149.664 171.23 149.194 171.704C148.725 172.178 148.157 172.545 147.53 172.778C146.904 173.012 146.234 173.106 145.567 173.055C144.142 173.124 142.737 172.698 141.592 171.851ZM147.957 165.234C147.935 164.796 147.785 164.375 147.526 164.021C147.266 163.667 146.908 163.397 146.496 163.244C146.084 163.091 145.636 163.061 145.207 163.158C144.778 163.256 144.388 163.476 144.083 163.793C143.779 164.109 143.574 164.507 143.495 164.938C143.415 165.369 143.463 165.813 143.634 166.217C143.805 166.621 144.091 166.965 144.457 167.209C144.823 167.452 145.252 167.584 145.692 167.587C145.993 167.593 146.293 167.538 146.572 167.425C146.851 167.311 147.104 167.143 147.316 166.929C147.528 166.716 147.694 166.461 147.804 166.182C147.914 165.902 147.966 165.603 147.957 165.303V165.234Z" fill="#2C2927"/>
<path d="M151.987 165.622C151.978 164.987 152.096 164.357 152.334 163.768C152.573 163.18 152.928 162.645 153.377 162.194C153.826 161.744 154.361 161.388 154.951 161.147C155.54 160.906 156.172 160.785 156.809 160.79C157.423 160.806 158.029 160.943 158.59 161.193C159.151 161.442 159.657 161.8 160.079 162.245C160.502 162.69 160.832 163.214 161.05 163.786C161.269 164.358 161.372 164.968 161.353 165.58C161.369 165.88 161.369 166.18 161.353 166.48H154.572C154.709 167.052 155.045 167.556 155.521 167.904C155.997 168.251 156.582 168.419 157.17 168.376C158.062 168.38 158.936 168.125 159.686 167.643L160.617 169.428C159.586 170.105 158.377 170.461 157.142 170.453C156.478 170.505 155.81 170.418 155.181 170.198C154.552 169.978 153.976 169.629 153.491 169.174C153.005 168.719 152.621 168.168 152.362 167.556C152.103 166.944 151.975 166.285 151.987 165.622ZM158.935 164.819C158.864 164.276 158.596 163.777 158.181 163.418C157.766 163.058 157.234 162.862 156.684 162.867C156.138 162.881 155.614 163.084 155.201 163.439C154.788 163.795 154.512 164.283 154.419 164.819H158.935Z" fill="#2C2927"/>
<path d="M183.949 158.229H186.562V162.922H191.731V158.229H194.344V170.273H191.731V165.151H186.562V170.273H183.949V158.229Z" fill="#2C2927"/>
<path d="M196.206 165.622C196.198 164.986 196.318 164.356 196.559 163.767C196.799 163.179 197.155 162.644 197.605 162.194C198.055 161.744 198.591 161.388 199.181 161.147C199.772 160.906 200.404 160.785 201.042 160.79C201.656 160.806 202.26 160.943 202.821 161.193C203.381 161.443 203.886 161.801 204.308 162.246C204.729 162.691 205.057 163.215 205.274 163.787C205.491 164.359 205.593 164.969 205.572 165.58C205.589 165.88 205.589 166.18 205.572 166.48H198.804C198.938 167.05 199.272 167.555 199.746 167.902C200.22 168.25 200.802 168.418 201.389 168.376C202.286 168.382 203.165 168.127 203.918 167.643L204.794 169.456C203.762 170.131 202.554 170.487 201.32 170.481C200.657 170.525 199.992 170.431 199.367 170.206C198.742 169.98 198.171 169.628 197.69 169.171C197.209 168.714 196.829 168.163 196.574 167.552C196.318 166.941 196.193 166.283 196.206 165.622ZM203.154 164.819C203.083 164.276 202.815 163.777 202.4 163.418C201.985 163.058 201.453 162.862 200.903 162.867C200.357 162.881 199.833 163.084 199.42 163.439C199.007 163.795 198.731 164.283 198.638 164.819H203.154Z" fill="#2C2927"/>
<path d="M206.934 165.622C206.934 162.95 208.574 160.79 211.103 160.79C211.661 160.785 212.213 160.907 212.716 161.147C213.22 161.387 213.662 161.738 214.007 162.175V161.039H216.453V170.342H214.007V169.221C213.657 169.646 213.212 169.985 212.708 170.21C212.204 170.436 211.655 170.543 211.103 170.522C208.574 170.453 206.934 168.293 206.934 165.622ZM214.007 165.622C214.038 165.308 214.004 164.991 213.907 164.691C213.81 164.391 213.653 164.114 213.445 163.877C213.236 163.639 212.982 163.447 212.696 163.312C212.411 163.176 212.1 163.1 211.784 163.088C211.155 163.154 210.573 163.449 210.15 163.917C209.727 164.385 209.493 164.992 209.493 165.622C209.493 166.251 209.727 166.859 210.15 167.326C210.573 167.794 211.155 168.089 211.784 168.155C212.101 168.145 212.412 168.07 212.699 167.936C212.985 167.801 213.241 167.608 213.449 167.371C213.658 167.133 213.815 166.855 213.911 166.554C214.007 166.253 214.04 165.936 214.007 165.622Z" fill="#2C2927"/>
<path d="M217.593 160.97H220.08L221.817 165.746C222.178 166.715 222.47 167.684 222.512 167.809C222.512 167.684 222.845 166.688 223.179 165.774L224.916 160.97H227.404L223.721 170.287H221.261L217.593 160.97Z" fill="#2C2927"/>
<path d="M229.433 170.73C229.831 170.794 230.24 170.719 230.59 170.517C230.939 170.315 231.208 169.999 231.35 169.622L231.559 169.207L227.654 160.901H230.197L232.087 165.261C232.365 165.912 232.698 166.84 232.698 166.84C232.698 166.84 233.087 165.732 233.296 165.192L234.991 160.901H237.493L233.324 170.467C233.03 171.247 232.488 171.91 231.78 172.355C231.073 172.8 230.238 173.002 229.405 172.931L229.433 170.73Z" fill="#2C2927"/>
<path d="M170.664 149.868H80.3362V152.526H170.664V149.868Z" fill="#2C2927"/>
<path d="M251 165.317H248.332V152.526H170.664V149.868H251V165.317Z" fill="#2C2927"/>
<path d="M81.6701 151.197H79.002V165.303H81.6701V151.197Z" fill="#2C2927"/>
<path d="M2.66814 165.303H0V149.868H80.3361V152.526H2.66814V165.303Z" fill="#2C2927"/>
<path d="M171.998 151.197H169.33V165.317H171.998V151.197Z" fill="#2C2927"/>
<path d="M249.68 94.9237C249.68 103.08 247.252 111.053 242.703 117.835C238.154 124.617 231.689 129.903 224.124 133.024C216.56 136.145 208.236 136.962 200.206 135.371C192.175 133.779 184.799 129.852 179.009 124.084C173.22 118.317 169.277 110.969 167.679 102.969C166.082 94.9695 166.902 86.6777 170.035 79.1422C173.169 71.6067 178.475 65.1659 185.283 60.6345C192.09 56.1031 200.094 53.6845 208.282 53.6845C213.719 53.6826 219.103 54.7481 224.127 56.8199C229.15 58.8917 233.714 61.9293 237.559 65.7591C241.403 69.5889 244.453 74.1358 246.532 79.14C248.612 84.1442 249.682 89.5076 249.68 94.9237Z" fill="#EBCC85"/>
<path d="M208.282 137.478C199.83 137.478 191.568 134.981 184.54 130.303C177.512 125.625 172.035 118.976 168.802 111.197C165.568 103.418 164.722 94.858 166.372 86.6002C168.022 78.3424 172.093 70.7575 178.071 64.8048C184.049 58.8521 191.664 54.7989 199.954 53.1579C208.244 51.517 216.837 52.362 224.645 55.586C232.453 58.81 239.125 64.2682 243.819 71.2704C248.513 78.2725 251.017 86.5039 251.014 94.9237C251.003 106.209 246.497 117.029 238.485 125.007C230.473 132.986 219.611 137.471 208.282 137.478ZM208.282 55.0135C200.358 55.0135 192.612 57.3541 186.024 61.7395C179.435 66.1249 174.3 72.3581 171.268 79.6508C168.236 86.9434 167.442 94.968 168.988 102.71C170.534 110.452 174.35 117.563 179.953 123.145C185.556 128.726 192.694 132.527 200.466 134.067C208.238 135.607 216.293 134.817 223.614 131.796C230.935 128.775 237.192 123.66 241.594 117.097C245.996 110.534 248.346 102.817 248.346 94.9237C248.335 84.3422 244.11 74.1973 236.599 66.7151C229.088 59.2328 218.904 55.0245 208.282 55.0135Z" fill="#2C2927"/>
<path d="M249.68 81.8279C249.683 89.9848 247.257 97.9594 242.71 104.743C238.163 111.527 231.698 116.814 224.134 119.938C216.57 123.061 208.245 123.88 200.214 122.29C192.183 120.701 184.805 116.774 179.014 111.007C173.223 105.24 169.279 97.8921 167.68 89.8921C166.082 81.8921 166.901 73.5996 170.034 66.0633C173.167 58.5271 178.473 52.0855 185.281 47.5535C192.089 43.0214 200.094 40.6024 208.282 40.6024C219.259 40.6024 229.787 44.9453 237.55 52.6762C245.313 60.4071 249.676 70.8929 249.68 81.8279Z" fill="#EBCC85"/>
<path d="M208.282 124.382C199.834 124.379 191.576 121.881 184.553 117.204C177.53 112.526 172.057 105.879 168.825 98.103C165.594 90.327 164.75 81.7711 166.4 73.5173C168.05 65.2634 172.12 57.6823 178.095 51.7324C184.069 45.7824 191.681 41.7308 199.967 40.09C208.253 38.4491 216.842 39.2927 224.647 42.5139C232.451 45.7352 239.122 51.1895 243.816 58.1872C248.509 65.1849 251.014 73.4119 251.014 81.8277C251.003 93.1129 246.497 103.932 238.485 111.911C230.473 119.889 219.61 124.375 208.282 124.382ZM208.282 41.9313C200.357 41.9313 192.611 44.2723 186.022 48.6583C179.433 53.0443 174.298 59.2783 171.266 66.5718C168.235 73.8652 167.442 81.8905 168.989 89.6328C170.536 97.375 174.353 104.486 179.957 110.067C185.562 115.648 192.702 119.448 200.474 120.987C208.247 122.525 216.303 121.733 223.623 118.71C230.944 115.687 237.2 110.569 241.6 104.004C246.001 97.4394 248.348 89.7218 248.346 81.8277C248.335 71.2475 244.11 61.104 236.598 53.6239C229.087 46.1438 218.903 41.9386 208.282 41.9313Z" fill="#2C2927"/>
<path d="M249.68 68.7461C249.68 76.9024 247.252 84.8756 242.703 91.6573C238.154 98.4391 231.689 103.725 224.124 106.846C216.56 109.968 208.236 110.784 200.206 109.193C192.175 107.602 184.799 103.674 179.009 97.9066C173.22 92.1392 169.277 84.7911 167.679 76.7915C166.082 68.7918 166.902 60.5 170.035 52.9645C173.169 45.429 178.475 38.9883 185.283 34.4569C192.09 29.9255 200.094 27.5068 208.282 27.5068C219.261 27.5068 229.791 31.8517 237.555 39.5855C245.318 47.3194 249.68 57.8087 249.68 68.7461Z" fill="#EBCC85"/>
<path d="M208.282 111.314C199.83 111.314 191.568 108.817 184.54 104.139C177.512 99.461 172.035 92.8119 168.802 85.0328C165.568 77.2536 164.722 68.6939 166.372 60.4361C168.022 52.1783 172.093 44.5934 178.071 38.6407C184.049 32.6879 191.664 28.6348 199.954 26.9939C208.244 25.353 216.837 26.1979 224.645 29.4219C232.453 32.6459 239.125 38.1041 243.819 45.1062C248.513 52.1084 251.017 60.3399 251.014 68.7597C251.003 80.0448 246.497 90.8644 238.485 98.8429C230.473 106.821 219.611 111.307 208.282 111.314ZM208.282 28.8494C200.358 28.8494 192.612 31.1901 186.024 35.5755C179.435 39.9609 174.3 46.194 171.268 53.4867C168.236 60.7793 167.442 68.804 168.988 76.5458C170.534 84.2876 174.35 91.3989 179.953 96.9805C185.556 102.562 192.694 106.363 200.466 107.903C208.238 109.443 216.293 108.653 223.614 105.632C230.935 102.611 237.192 97.4959 241.594 90.9327C245.996 84.3694 248.346 76.6532 248.346 68.7597C248.339 58.1758 244.116 48.0272 236.604 40.542C229.093 33.0568 218.907 28.8465 208.282 28.8355V28.8494Z" fill="#2C2927"/>
<path d="M249.68 55.65C249.68 63.8063 247.252 71.7796 242.703 78.5613C238.154 85.3431 231.689 90.6288 224.124 93.7501C216.56 96.8714 208.236 97.6881 200.206 96.0968C192.175 94.5056 184.799 90.578 179.009 84.8106C173.22 79.0432 169.277 71.695 167.679 63.6954C166.082 55.6958 166.902 47.4039 170.035 39.8684C173.169 32.3329 178.475 25.8922 185.283 21.3608C192.09 16.8294 200.094 14.4108 208.282 14.4108C213.718 14.409 219.101 15.4739 224.123 17.5449C229.146 19.6158 233.71 22.6522 237.554 26.4805C241.398 30.3088 244.448 34.8541 246.528 39.8567C248.609 44.8593 249.68 50.2213 249.68 55.6362" fill="#EBCC85"/>
<path d="M208.282 98.2045C199.834 98.2018 191.576 95.7037 184.553 91.0261C177.53 86.3485 172.057 79.7014 168.825 71.9253C165.594 64.1493 164.75 55.5935 166.4 47.3397C168.05 39.0858 172.12 31.5046 178.095 25.5547C184.069 19.6047 191.681 15.5532 199.967 13.9124C208.253 12.2715 216.842 13.1151 224.647 16.3363C232.451 19.5576 239.122 25.0119 243.816 32.0096C248.509 39.0073 251.014 47.2342 251.014 55.6501C251.003 66.9352 246.497 77.7548 238.485 85.7333C230.473 93.7119 219.61 98.1972 208.282 98.2045ZM208.282 15.7398C200.358 15.7398 192.612 18.0805 186.024 22.4659C179.435 26.8513 174.3 33.0845 171.268 40.3771C168.235 47.6698 167.442 55.6943 168.988 63.4362C170.534 71.178 174.35 78.2894 179.953 83.871C185.556 89.4525 192.694 93.2536 200.466 94.7935C208.237 96.3335 216.293 95.5432 223.614 92.5224C230.934 89.5017 237.192 84.3862 241.594 77.823C245.996 71.2598 248.346 63.5436 248.346 55.6501C248.32 45.0782 244.089 34.9474 236.58 27.4772C229.07 20.0069 218.895 15.8061 208.282 15.7952V15.7398Z" fill="#2C2927"/>
<path d="M166.898 94.9238C166.898 103.084 164.468 111.06 159.915 117.844C155.363 124.627 148.892 129.913 141.323 133.032C133.754 136.151 125.426 136.962 117.393 135.364C109.36 133.766 101.984 129.831 96.1978 124.055C90.4116 118.279 86.4753 110.923 84.8874 102.918C83.2994 94.9131 84.1313 86.6186 87.2774 79.0845C90.4235 71.5505 95.7424 65.1156 102.561 60.5942C109.38 56.0728 117.392 53.6681 125.583 53.6845C131.019 53.6845 136.402 54.7513 141.424 56.824C146.445 58.8966 151.008 61.9345 154.851 65.7641C158.694 69.5937 161.742 74.14 163.821 79.1433C165.9 84.1466 166.969 89.5088 166.967 94.9238" fill="#EBCC85"/>
<path d="M125.583 137.478C117.131 137.481 108.867 134.986 101.838 130.31C94.8082 125.633 89.3289 118.985 86.0929 111.206C82.8569 103.428 82.0094 94.8674 83.6578 86.6087C85.3062 78.35 89.3763 70.7638 95.3534 64.8097C101.33 58.8556 108.946 54.801 117.236 53.159C125.527 51.5169 134.12 52.3611 141.929 55.5847C149.737 58.8083 156.411 64.2665 161.106 71.2689C165.8 78.2714 168.304 86.5034 168.301 94.9237C168.287 106.205 163.781 117.021 155.773 124.998C147.765 132.975 136.908 137.464 125.583 137.478ZM125.583 55.0135C117.659 55.0108 109.912 57.3491 103.321 61.7329C96.731 66.1166 91.5937 72.3487 88.5593 79.6412C85.5248 86.9336 84.7295 94.9586 86.2738 102.701C87.8181 110.444 91.6327 117.557 97.2351 123.14C102.838 128.723 109.976 132.525 117.748 134.066C125.52 135.607 133.577 134.818 140.898 131.797C148.22 128.777 154.477 123.662 158.88 117.098C163.283 110.535 165.633 102.818 165.633 94.9237C165.622 84.3446 161.4 74.2018 153.892 66.72C146.383 59.2381 136.203 55.0281 125.583 55.0135Z" fill="#2C2927"/>
<path d="M166.898 81.8278C166.901 89.9883 164.473 97.9662 159.922 104.752C155.371 111.537 148.902 116.825 141.333 119.946C133.763 123.067 125.435 123.88 117.401 122.284C109.368 120.688 101.99 116.753 96.2026 110.978C90.4149 105.202 86.4774 97.8465 84.8884 89.8411C83.2993 81.8356 84.1303 73.5404 87.276 66.0056C90.4217 58.4708 95.7407 52.0351 102.56 47.5131C109.379 42.991 117.391 40.5859 125.583 40.6024C136.559 40.6024 147.085 44.9457 154.846 52.677C162.607 60.4083 166.967 70.8942 166.967 81.8278" fill="#EBCC85"/>
<path d="M125.583 124.382C117.134 124.382 108.875 121.886 101.85 117.21C94.8254 112.534 89.3502 105.888 86.117 98.1126C82.8837 90.3368 82.0378 81.7805 83.6861 73.5258C85.3344 65.271 89.4028 57.6886 95.377 51.7373C101.351 45.7859 108.963 41.733 117.249 40.091C125.536 38.449 134.125 39.2917 141.931 42.5126C149.736 45.7334 156.408 51.1877 161.102 58.1858C165.796 65.1838 168.301 73.4113 168.301 81.8277C168.287 93.1093 163.781 103.925 155.773 111.902C147.765 119.879 136.908 124.367 125.583 124.382ZM125.583 41.9313C117.658 41.9285 109.91 44.2672 103.32 48.6516C96.7291 53.0359 91.5919 59.2689 88.5579 66.5621C85.5238 73.8554 84.7293 81.8811 86.2747 89.6242C87.8201 97.3674 91.6361 104.48 97.24 110.062C102.844 115.645 109.984 119.446 117.757 120.986C125.53 122.525 133.586 121.734 140.908 118.711C148.229 115.689 154.486 110.571 158.887 104.006C163.288 97.4405 165.636 89.7224 165.633 81.8277C165.618 71.251 161.394 61.1117 153.887 53.6329C146.379 46.154 136.201 41.9459 125.583 41.9313Z" fill="#2C2927"/>
<path d="M166.898 68.7458C166.898 76.9057 164.468 84.8821 159.915 91.6657C155.363 98.4492 148.892 103.735 141.323 106.854C133.754 109.973 125.426 110.784 117.393 109.186C109.36 107.589 101.984 103.653 96.1978 97.8768C90.4116 92.1011 86.4753 84.7453 84.8874 76.7402C83.2994 68.7351 84.1313 60.4406 87.2774 52.9066C90.4235 45.3725 95.7424 38.9376 102.561 34.4162C109.38 29.8948 117.392 27.4901 125.583 27.5066C131.019 27.5066 136.402 28.5733 141.424 30.646C146.445 32.7186 151.008 35.7565 154.851 39.5861C158.694 43.4157 161.742 47.9619 163.821 52.9652C165.9 57.9685 166.969 63.3308 166.967 68.7458" fill="#EBCC85"/>
<path d="M125.583 111.314C117.131 111.317 108.867 108.822 101.838 104.146C94.8082 99.4693 89.3289 92.8213 86.0929 85.0424C82.8569 77.2635 82.0094 68.7033 83.6578 60.4446C85.3062 52.1859 89.3763 44.5997 95.3534 38.6456C101.33 32.6915 108.946 28.637 117.236 26.9949C125.527 25.3529 134.12 26.1969 141.929 29.4205C149.737 32.6441 156.411 38.1024 161.106 45.1048C165.8 52.1072 168.304 60.3393 168.301 68.7597C168.287 80.0413 163.781 90.8567 155.773 98.834C147.765 106.811 136.908 111.299 125.583 111.314ZM125.583 28.8494C117.659 28.8466 109.912 31.185 103.321 35.5687C96.731 39.9525 91.5937 46.1846 88.5593 53.477C85.5248 60.7694 84.7295 68.7945 86.2738 76.5373C87.8181 84.28 91.6327 91.3927 97.2351 96.9756C102.838 102.559 109.976 106.361 117.748 107.902C125.52 109.443 133.577 108.654 140.898 105.633C148.22 102.613 154.477 97.4976 158.88 90.9341C163.283 84.3706 165.633 76.6538 165.633 68.7597C165.626 58.1782 161.405 48.0317 153.896 40.5469C146.388 33.0621 136.206 28.8502 125.583 28.8355V28.8494Z" fill="#2C2927"/>
<path d="M166.898 55.6501C166.898 63.81 164.468 71.7865 159.915 78.57C155.363 85.3536 148.892 90.6392 141.323 93.7581C133.754 96.8769 125.426 97.6887 117.393 96.0908C109.36 94.4928 101.984 90.5569 96.1978 84.7812C90.4116 79.0055 86.4753 71.6496 84.8874 63.6445C83.2994 55.6394 84.1313 47.3449 87.2774 39.8109C90.4235 32.2768 95.7424 25.8419 102.561 21.3205C109.38 16.7991 117.392 14.3944 125.583 14.4109C136.559 14.4109 147.085 18.7542 154.846 26.4855C162.607 34.2167 166.967 44.7026 166.967 55.6363" fill="#EBCC85"/>
<path d="M125.583 98.2045C117.134 98.2045 108.875 95.7087 101.85 91.0328C94.8254 86.3568 89.3502 79.7108 86.117 71.935C82.8837 64.1592 82.0378 55.6029 83.6861 47.3481C85.3344 39.0934 89.4028 31.5109 95.377 25.5596C101.351 19.6083 108.963 15.5554 117.249 13.9134C125.536 12.2714 134.125 13.1142 141.931 16.335C149.736 19.5558 156.408 25.0102 161.102 32.0082C165.796 39.0062 168.301 47.2336 168.301 55.6501C168.287 66.9317 163.781 77.7471 155.773 85.7244C147.765 93.7017 136.908 98.1899 125.583 98.2045ZM125.583 15.7398C117.659 15.7371 109.912 18.0754 103.321 22.4591C96.731 26.8429 91.5937 33.0751 88.5592 40.3675C85.5247 47.6599 84.7294 55.685 86.2737 63.4277C87.818 71.1705 91.6326 78.2831 97.2351 83.8661C102.838 89.449 109.976 93.2515 117.748 94.7925C125.52 96.3336 133.576 95.544 140.898 92.5237C148.22 89.5034 154.477 84.388 158.88 77.8245C163.283 71.261 165.633 63.5442 165.633 55.6501C165.604 45.0817 161.374 34.9551 153.868 27.486C146.362 20.0169 136.192 15.8134 125.583 15.7952V15.7398Z" fill="#2C2927"/>
<path d="M249.68 42.5543C249.683 50.7113 247.257 58.6858 242.71 65.4694C238.163 72.253 231.698 77.5408 224.134 80.6643C216.57 83.7877 208.245 84.6064 200.214 83.0167C192.183 81.427 184.805 77.5005 179.014 71.7336C173.223 65.9667 169.279 58.6186 167.68 50.6186C166.082 42.6186 166.901 34.3261 170.034 26.7898C173.167 19.2535 178.473 12.812 185.281 8.27992C192.089 3.74788 200.094 1.32886 208.282 1.32886C219.259 1.32886 229.787 5.67182 237.55 13.4027C245.313 21.1336 249.676 31.6194 249.68 42.5543Z" fill="#EBCC85"/>
<path d="M208.282 85.1227C199.831 85.1227 191.569 82.6261 184.542 77.9486C177.514 73.2712 172.037 66.6229 168.803 58.8446C165.569 51.0663 164.722 42.5073 166.371 34.2498C168.02 25.9924 172.09 18.4074 178.066 12.4542C184.042 6.50089 191.656 2.44666 199.946 0.804152C208.235 -0.838352 216.827 0.004677 224.635 3.22656C232.443 6.44845 239.117 11.9045 243.812 18.9048C248.508 25.9051 251.014 34.1353 251.014 42.5545C251.003 53.8409 246.497 64.6619 238.486 72.6426C230.475 80.6233 219.612 85.1117 208.282 85.1227ZM208.282 2.65801C200.358 2.65801 192.611 4.99903 186.022 9.38504C179.434 13.7711 174.299 20.0051 171.267 27.2985C168.235 34.592 167.442 42.6173 168.989 50.3595C170.536 58.1017 174.353 65.213 179.958 70.794C185.562 76.375 192.702 80.175 200.475 81.7134C208.247 83.2518 216.303 82.4595 223.623 79.4367C230.944 76.4138 237.2 71.2962 241.601 64.7312C246.001 58.1661 248.349 50.4486 248.346 42.5545C248.335 31.9743 244.11 21.8307 236.598 14.3506C229.087 6.8706 218.903 2.66534 208.282 2.65801Z" fill="#2C2927"/>
<path d="M84.1159 91.9333C84.1187 100.091 81.6927 108.066 77.1449 114.85C72.5971 121.634 66.1317 126.922 58.5667 130.045C51.0017 133.168 42.6767 133.986 34.645 132.395C26.6133 130.804 19.2357 126.876 13.4452 121.108C7.65479 115.339 3.7118 107.99 2.1149 99.9891C0.517995 91.9882 1.33883 83.6952 4.47386 76.1592C7.60889 68.6231 12.9172 62.1826 19.7272 57.6522C26.5372 53.1218 34.5429 50.7052 42.7319 50.7079C53.7076 50.7079 64.2337 55.0513 71.9947 62.7826C79.7558 70.5139 84.1159 80.9997 84.1159 91.9333Z" fill="#EBCC85"/>
<path d="M42.732 134.474C34.2787 134.477 26.0143 131.982 18.9847 127.305C11.955 122.628 6.47585 115.979 3.24026 108.199C0.00466277 100.419 -0.841998 91.8585 0.807509 83.5994C2.45702 75.3403 6.52856 67.7541 12.507 61.8006C18.4854 55.847 26.102 51.7936 34.3934 50.1531C42.6848 48.5126 51.2784 49.3588 59.087 52.5845C66.8955 55.8102 73.5684 61.2706 78.2611 68.2748C82.9538 75.2791 85.4556 83.5125 85.4501 91.9334C85.4317 103.213 80.9247 114.024 72.917 121.999C64.9094 129.973 54.0546 134.459 42.732 134.474ZM42.732 52.0093C34.8081 52.0065 27.0614 54.3446 20.4714 58.7277C13.8814 63.1108 8.74419 69.3422 5.70931 76.6338C2.67443 83.9254 1.87825 91.9497 3.42143 99.6921C4.96461 107.434 8.77781 114.547 14.3789 120.131C19.98 125.714 27.1173 129.518 34.8884 131.06C42.6595 132.603 50.7153 131.815 58.0371 128.797C65.3588 125.779 71.6177 120.666 76.0222 114.104C80.4268 107.542 82.7791 99.827 82.7819 91.9334C82.7745 81.3519 78.5535 71.2055 71.0451 63.7207C63.5367 56.2358 53.3542 52.0239 42.732 52.0093Z" fill="#2C2927"/>
<path d="M84.1161 78.8239C84.1161 86.9809 81.6878 94.9546 77.1383 101.737C72.5889 108.519 66.1226 113.804 58.5573 116.925C50.992 120.046 42.6675 120.862 34.6367 119.27C26.6059 117.677 19.2296 113.748 13.4405 107.98C7.6515 102.211 3.7099 94.8613 2.11412 86.8608C0.518342 78.8602 1.34001 70.5679 4.47545 63.0327C7.61089 55.4974 12.9191 49.0577 19.7288 44.528C26.5385 39.9982 34.5438 37.5819 42.7321 37.5846C48.1679 37.5846 53.5503 38.6514 58.5722 40.724C63.594 42.7967 68.1569 45.8345 71.9999 49.6641C75.8429 53.4937 78.891 58.04 80.9699 63.0433C83.0488 68.0466 84.118 73.4089 84.1161 78.8239Z" fill="#EBCC85"/>
<path d="M42.732 121.378C34.2792 121.381 26.0156 118.886 18.9862 114.21C11.9568 109.533 6.47761 102.885 3.24161 95.1063C0.00560438 87.3275 -0.841895 78.7673 0.806485 70.5086C2.45486 62.2499 6.52503 54.6637 12.502 48.7096C18.479 42.7555 26.0944 38.7009 34.3849 37.0589C42.6754 35.4168 51.2685 36.261 59.0773 39.4846C66.8861 42.7082 73.5599 48.1664 78.2543 55.1688C82.9487 62.1712 85.4528 70.4033 85.4501 78.8237C85.4391 90.1065 80.9348 100.924 72.926 108.902C64.9172 116.88 54.0582 121.367 42.732 121.378ZM42.732 38.9134C34.8075 38.9107 27.0603 41.249 20.47 45.6328C13.8797 50.0165 8.74242 56.2486 5.70795 63.5411C2.67348 70.8335 1.87814 78.8585 3.42244 86.6013C4.96674 94.344 8.78133 101.457 14.3838 107.04C19.9863 112.623 27.1249 116.425 34.8969 117.966C42.6689 119.507 50.7252 118.718 58.0468 115.697C65.3683 112.677 71.6261 107.562 76.029 100.998C80.4319 94.4346 82.7819 86.7178 82.7819 78.8237C82.7709 68.2446 78.5482 58.1017 71.0402 50.6199C63.5322 43.138 53.3518 38.928 42.732 38.9134Z" fill="#2C2927"/>
<path d="M104.391 62.572L105.906 60.1356C107.078 61.09 108.562 61.5825 110.075 61.52C112.312 61.52 113.841 60.4125 113.841 58.6544C113.841 57.27 112.59 56.1902 110.422 56.1902C109.565 56.1579 108.717 56.3691 107.976 56.7993L106.767 54.6951L111.993 50.293H105.336V47.1367H116.578V50.1823L112.409 53.7676C112.881 53.807 113.346 53.8952 113.799 54.0307C114.861 54.2937 115.803 54.9079 116.469 55.7729C117.135 56.6379 117.488 57.7026 117.468 58.7928C117.468 62.6966 114.216 64.607 110.325 64.607C108.161 64.6918 106.044 63.9657 104.391 62.572Z" fill="#2C2927"/>
<path d="M119.497 56.3284H130.711V59.1801H119.497V56.3284Z" fill="#2C2927"/>
<path d="M141.023 61.0074H132.893V58.5848L139.369 46.5826L142.357 48.0777L137.09 57.8511H141.023V54.0996H144.469V57.8511H146.512V61.0074H144.469V64.3298H141.023V61.0074Z" fill="#2C2927"/>
<path d="M194.191 49.1991L195.58 46.5688C196.765 47.4314 198.185 47.9142 199.652 47.9531C202.056 47.9531 203.168 46.5688 203.168 45.1845C203.168 43.3572 201.5 42.4158 199.36 42.4158C198.248 42.441 197.159 42.7407 196.192 43.288L194.886 42.0974V33.4869H205.892V36.6432H198.457V39.8133C199.114 39.6094 199.798 39.5067 200.486 39.5088C203.918 39.5088 206.878 41.3776 206.878 44.963C206.878 48.5484 204.002 50.9572 199.763 50.9572C197.759 51.0189 195.794 50.3988 194.191 49.1991Z" fill="#2C2927"/>
<path d="M214.438 44.7H209.783V41.8345H214.438V37.2523H217.565V41.8345H222.248V44.7H217.565V49.2406H214.438V44.7Z" fill="#2C2927"/>
<path d="M27.1817 75.1275L23.4575 77.5362L21.8594 75.0444L27.5569 70.5315H30.7532V87.7803H27.1817V75.1275Z" fill="#2C2927"/>
<path d="M34.533 79.7516H45.7615V82.5202H34.533V79.7516Z" fill="#2C2927"/>
<path d="M47.7625 85.4548C53.599 80.7619 56.2672 78.0209 56.2672 75.7644C56.2774 75.44 56.2173 75.1172 56.0909 74.818C55.9645 74.5189 55.7746 74.2504 55.5345 74.031C55.2944 73.8115 55.0098 73.6462 54.6997 73.5464C54.3897 73.4466 54.0616 73.4146 53.738 73.4526C52.2641 73.5597 50.8802 74.1997 49.8469 75.2522L48.0403 72.9266C48.7989 72.0918 49.7226 71.4223 50.7533 70.9602C51.784 70.498 52.8996 70.2532 54.0298 70.241C57.3094 70.241 60.0331 72.0406 60.0331 75.4461C60.0331 78.8515 56.7258 82.16 53.5296 84.5549H60.5611V87.7804H47.7625V85.4548Z" fill="#2C2927"/>
</g>
<defs>
<clipPath id="clip0_151_1159">
<rect width="251" height="173" fill="white"/>
</clipPath>
</defs>
</svg>
