<svg viewBox="0 0 60 60" fill="none" xmlns="http://www.w3.org/2000/svg">
<path d="M29.9999 59.2111C46.1327 59.2111 59.211 46.1328 59.211 30C59.211 13.8672 46.1327 0.78894 29.9999 0.78894C13.8671 0.78894 0.788818 13.8672 0.788818 30C0.788818 46.1328 13.8671 59.2111 29.9999 59.2111Z" stroke="#1D1D1B" stroke-linecap="round" stroke-linejoin="round"/>
<path d="M12.3323 6.83044H16.36C19.5481 6.83044 22.6056 8.0969 24.8599 10.3512C27.1143 12.6056 28.3807 15.6631 28.3807 18.8512V59.1072" stroke="#1D1D1B" stroke-linecap="round" stroke-linejoin="round"/>
<path d="M19.7023 20.8028C19.7023 18.2688 17.6528 16.2145 15.1245 16.2145C12.5962 16.2145 10.5466 18.2688 10.5466 20.8028V30.3737C10.5466 32.9077 12.5962 34.9619 15.1245 34.9619C17.6528 34.9619 19.7023 32.9077 19.7023 30.3737V20.8028Z" stroke="#1D1D1B" stroke-linecap="round" stroke-linejoin="round"/>
<path d="M15.1557 27.1765C17.2311 27.1765 18.9135 25.494 18.9135 23.4187C18.9135 21.3433 17.2311 19.6609 15.1557 19.6609C13.0804 19.6609 11.3979 21.3433 11.3979 23.4187C11.3979 25.494 13.0804 27.1765 15.1557 27.1765Z" stroke="#1D1D1B" stroke-linecap="round" stroke-linejoin="round"/>
<path d="M15.1556 24.1868C15.5799 24.1868 15.9238 23.8429 15.9238 23.4187C15.9238 22.9944 15.5799 22.6505 15.1556 22.6505C14.7314 22.6505 14.3875 22.9944 14.3875 23.4187C14.3875 23.8429 14.7314 24.1868 15.1556 24.1868Z" fill="#1D1D1B"/>
<path class="fill" d="M22.2145 20.5744C22.0402 20.5759 21.8704 20.5198 21.7315 20.4146C21.5925 20.3094 21.4922 20.1612 21.4464 19.9931C21.3957 19.7922 21.426 19.5794 21.5309 19.4007C21.6358 19.222 21.8068 19.0917 22.0069 19.038L24.0831 18.4775C24.1812 18.4526 24.2833 18.4475 24.3835 18.4622C24.4837 18.477 24.5799 18.5114 24.6667 18.5635C24.7536 18.6156 24.8292 18.6843 24.8894 18.7658C24.9495 18.8472 24.9931 18.9397 25.0174 19.038C25.0457 19.1362 25.0541 19.239 25.0422 19.3405C25.0303 19.4419 24.9982 19.54 24.9479 19.6289C24.8976 19.7179 24.8303 19.7958 24.7495 19.8584C24.6687 19.9209 24.5762 19.9667 24.4775 19.9931L22.4014 20.5536L22.2145 20.5744ZM28.5882 18.9135C28.4156 18.9085 28.2489 18.8498 28.1113 18.7456C27.9736 18.6414 27.8718 18.4969 27.8201 18.3322C27.7694 18.1313 27.7997 17.9185 27.9046 17.7398C28.0095 17.5611 28.1805 17.4308 28.3807 17.3771L30.4568 16.8166C30.6574 16.7713 30.8676 16.804 31.045 16.9081C31.2224 17.0122 31.3535 17.1799 31.4117 17.3771C31.4624 17.578 31.4321 17.7908 31.3272 17.9695C31.2223 18.1482 31.0514 18.2785 30.8513 18.3322L28.7751 18.872L28.5882 18.9135ZM34.9619 17.2318C34.7894 17.2361 34.6207 17.1806 34.4845 17.0746C34.3482 16.9686 34.2529 16.8188 34.2146 16.6505C34.1639 16.4496 34.1942 16.2368 34.2991 16.0581C34.404 15.8794 34.5749 15.7492 34.775 15.6955L36.8512 15.1557C36.9493 15.1274 37.0522 15.1189 37.1536 15.1308C37.2551 15.1427 37.3531 15.1748 37.442 15.225C37.531 15.2753 37.609 15.3428 37.6715 15.4236C37.7341 15.5044 37.7799 15.5968 37.8062 15.6955C37.8569 15.8964 37.8266 16.1092 37.7217 16.2879C37.6168 16.4666 37.4458 16.5968 37.2456 16.6505L35.1695 17.2111L34.9619 17.2318ZM41.3357 15.5709C41.164 15.5714 40.9972 15.5145 40.8617 15.4091C40.7263 15.3037 40.63 15.1561 40.5883 14.9896C40.5376 14.7887 40.5679 14.5759 40.6728 14.3972C40.7777 14.2185 40.9486 14.0883 41.1488 14.0346L43.2249 13.474C43.3244 13.4461 43.4286 13.4384 43.5312 13.4516C43.6337 13.4649 43.7325 13.4987 43.8217 13.551C43.9109 13.6034 43.9886 13.6732 44.0502 13.7563C44.1117 13.8394 44.1559 13.934 44.1799 14.0346C44.2306 14.2355 44.2003 14.4483 44.0954 14.627C43.9905 14.8057 43.8195 14.9359 43.6193 14.9896L41.5432 15.5294L41.3357 15.5709ZM47.7094 13.8893C47.5387 13.8863 47.3735 13.828 47.2388 13.7232C47.104 13.6184 47.0068 13.4727 46.9619 13.308C46.937 13.2098 46.9319 13.1077 46.9467 13.0075C46.9614 12.9073 46.9958 12.8111 47.0479 12.7242C47.1 12.6374 47.1687 12.5618 47.2502 12.5016C47.3316 12.4414 47.4242 12.398 47.5225 12.3737L49.4325 11.8547C49.6334 11.804 49.8462 11.8343 50.0249 11.9392C50.2036 12.0441 50.3339 12.2151 50.3875 12.4152C50.4382 12.6161 50.4079 12.8289 50.303 13.0076C50.1981 13.1863 50.0271 13.3166 49.8269 13.3702L47.9169 13.8685L47.7094 13.8893Z" fill="#1D1D1B"/>
<path class="fill" d="M22.9205 22.8581C22.7358 22.8278 22.5678 22.733 22.4467 22.5903C22.3256 22.4477 22.259 22.2667 22.259 22.0795C22.259 21.8924 22.3256 21.7114 22.4467 21.5688C22.5678 21.4262 22.7358 21.3313 22.9205 21.301L24.9966 21.0519C25.0996 21.0342 25.2051 21.0384 25.3064 21.064C25.4077 21.0897 25.5025 21.1363 25.5847 21.2008C25.6669 21.2654 25.7346 21.3465 25.7835 21.4388C25.8324 21.5312 25.8614 21.6328 25.8686 21.737C25.8801 21.838 25.8714 21.9402 25.8431 22.0379C25.8148 22.1355 25.7674 22.2265 25.7037 22.3057C25.64 22.3848 25.5612 22.4506 25.4719 22.4991C25.3826 22.5476 25.2845 22.5779 25.1834 22.5882L23.0035 22.8581H22.9205ZM29.4602 22.0899C29.2701 22.0911 29.0864 22.0216 28.9445 21.8951C28.8026 21.7685 28.7126 21.5938 28.6921 21.4048C28.6776 21.3022 28.684 21.1978 28.7109 21.0978C28.7378 20.9977 28.7847 20.9042 28.8487 20.8227C28.9127 20.7413 28.9925 20.6736 29.0834 20.6238C29.1742 20.574 29.2741 20.543 29.3772 20.5328L31.4533 20.2837C31.5532 20.2692 31.655 20.275 31.7525 20.3009C31.85 20.3267 31.9412 20.3721 32.0208 20.4341C32.1003 20.4962 32.1665 20.5738 32.2153 20.6621C32.264 20.7504 32.2943 20.8477 32.3045 20.9481C32.319 21.0506 32.3126 21.1551 32.2857 21.2551C32.2588 21.3552 32.212 21.4487 32.148 21.5302C32.084 21.6117 32.0041 21.6793 31.9133 21.7291C31.8225 21.7789 31.7226 21.8099 31.6195 21.82L29.5433 22.0692L29.4602 22.0899ZM36.0001 21.3218C35.808 21.3178 35.6241 21.2439 35.4827 21.1139C35.3412 20.984 35.2521 20.8069 35.2319 20.6159C35.2204 20.5149 35.229 20.4127 35.2572 20.3151C35.2855 20.2174 35.333 20.1264 35.3968 20.0472C35.4605 19.9681 35.5392 19.9023 35.6285 19.8538C35.7178 19.8053 35.8159 19.775 35.9171 19.7647L38.097 19.4948C38.3022 19.4766 38.5066 19.5374 38.6686 19.6646C38.8306 19.7919 38.938 19.9762 38.9689 20.1799C38.9834 20.2825 38.9771 20.3869 38.9501 20.487C38.9232 20.587 38.8763 20.6806 38.8123 20.762C38.7483 20.8435 38.6686 20.9111 38.5777 20.961C38.4869 21.0108 38.3868 21.0417 38.2837 21.0519L36.2076 21.301L36.0001 21.3218ZM42.5606 20.5328C42.3704 20.534 42.1867 20.4645 42.0448 20.338C41.9029 20.2114 41.8129 20.0367 41.7924 19.8477C41.7779 19.7479 41.7838 19.6461 41.8096 19.5486C41.8355 19.4511 41.8807 19.3598 41.9428 19.2803C42.0049 19.2007 42.0824 19.1346 42.1708 19.0858C42.2591 19.037 42.3564 19.0067 42.4568 18.9965L44.6367 18.7266C44.7393 18.7121 44.8438 18.7185 44.9438 18.7454C45.0439 18.7723 45.1374 18.8192 45.2188 18.8832C45.3003 18.9472 45.3679 19.027 45.4178 19.1179C45.4676 19.2087 45.4986 19.3087 45.5087 19.4118C45.5322 19.618 45.4734 19.8252 45.3451 19.9884C45.2169 20.1516 45.0295 20.2577 44.8236 20.2837L42.6437 20.5328H42.5606ZM49.1004 19.7647C48.9103 19.7658 48.7264 19.6964 48.5845 19.5698C48.4426 19.4432 48.3528 19.2686 48.3322 19.0796C48.3177 18.9781 48.3243 18.8748 48.3514 18.776C48.3785 18.6771 48.4256 18.585 48.4899 18.5051C48.5541 18.4253 48.6341 18.3595 48.7248 18.3119C48.8155 18.2643 48.9152 18.2359 49.0174 18.2283L51.0935 17.9584C51.195 17.9439 51.2983 17.9505 51.3971 17.9776C51.496 18.0047 51.5881 18.0519 51.6679 18.1161C51.7478 18.1804 51.8136 18.2603 51.8612 18.3511C51.9088 18.4418 51.9372 18.5414 51.9447 18.6436C51.9593 18.7446 51.9536 18.8475 51.9279 18.9463C51.9023 19.0451 51.8573 19.1377 51.7954 19.2189C51.7336 19.3001 51.6561 19.3681 51.5677 19.4191C51.4793 19.47 51.3816 19.5028 51.2803 19.5155L49.0796 19.7647H49.1004ZM55.6609 18.9965C55.4685 18.9982 55.2821 18.9295 55.1368 18.8033C54.9915 18.6771 54.8974 18.5022 54.8721 18.3114C54.8539 18.1062 54.9146 17.9017 55.0419 17.7397C55.1692 17.5777 55.3534 17.4703 55.5571 17.4394H56.0347C56.1362 17.4249 56.2395 17.4314 56.3383 17.4585C56.4371 17.4857 56.5293 17.5328 56.6091 17.5971C56.6889 17.6613 56.7547 17.7413 56.8024 17.832C56.85 17.9228 56.8784 18.0223 56.8859 18.1245C56.9004 18.226 56.8938 18.3293 56.8667 18.4281C56.8396 18.527 56.7925 18.6192 56.7282 18.699C56.664 18.7788 56.584 18.8446 56.4933 18.8922C56.4026 18.9398 56.3029 18.9682 56.2007 18.9758H55.744L55.6609 18.9965Z" fill="#1D1D1B"/>
<path class="fill" d="M56.5952 34.6713H56.4499L54.3737 34.2353C54.1731 34.1858 53.9991 34.0615 53.8872 33.8878C53.7752 33.7141 53.7339 33.5042 53.7717 33.301C53.7915 33.2012 53.8309 33.1062 53.8877 33.0218C53.9444 32.9373 54.0176 32.8649 54.1026 32.8089C54.1876 32.7529 54.2828 32.7143 54.3829 32.6954C54.4829 32.6766 54.5856 32.6778 54.6852 32.699L56.7613 33.1557C56.9651 33.1777 57.1518 33.2798 57.2802 33.4394C57.4087 33.5991 57.4685 33.8032 57.4465 34.0069C57.4245 34.2106 57.3224 34.3973 57.1628 34.5258C57.0031 34.6542 56.7989 34.7141 56.5952 34.692V34.6713ZM50.1385 33.3218H49.9932L47.917 32.865C47.718 32.8202 47.5442 32.6999 47.432 32.5296C47.3197 32.3593 47.2778 32.1521 47.315 31.9515C47.3348 31.8517 47.3742 31.7567 47.4309 31.6723C47.4877 31.5878 47.5607 31.5154 47.6457 31.4594C47.7307 31.4034 47.826 31.3648 47.926 31.3459C48.0261 31.3271 48.1289 31.3283 48.2285 31.3495L50.3046 31.7855C50.5084 31.8075 50.6949 31.9095 50.8234 32.0692C50.9519 32.2288 51.0117 32.4329 50.9897 32.6367C50.9676 32.8404 50.8656 33.027 50.7059 33.1555C50.5463 33.284 50.3422 33.3438 50.1385 33.3218ZM43.6818 31.9931H43.5364L41.4603 31.5363C41.3608 31.5159 41.2663 31.476 41.1822 31.419C41.0981 31.3621 41.026 31.2891 40.97 31.2043C40.9141 31.1194 40.8754 31.0244 40.8563 30.9247C40.8371 30.8249 40.8378 30.7223 40.8583 30.6228C40.8787 30.5233 40.9185 30.4288 40.9755 30.3447C41.0325 30.2606 41.1055 30.1885 41.1903 30.1326C41.2751 30.0767 41.3701 30.0381 41.4698 30.0189C41.5696 29.9997 41.6721 30.0003 41.7717 30.0208L43.8478 30.4775C44.0515 30.4995 44.2382 30.6016 44.3667 30.7612C44.4952 30.9208 44.555 31.125 44.5329 31.3287C44.5109 31.5324 44.4088 31.7191 44.2492 31.8476C44.0896 31.9761 43.8855 32.0359 43.6818 32.0138V31.9931ZM37.2251 30.6436H37.0797L35.0036 30.2076C34.8194 30.1478 34.6637 30.0223 34.566 29.855C34.4684 29.6877 34.4357 29.4904 34.4742 29.3006C34.5126 29.1108 34.6196 28.9417 34.7746 28.8257C34.9297 28.7096 35.122 28.6547 35.3149 28.6713L37.3911 29.128C37.5948 29.15 37.7815 29.2521 37.91 29.4117C38.0385 29.5714 38.0982 29.7755 38.0762 29.9792C38.0542 30.183 37.9521 30.3696 37.7925 30.4981C37.6329 30.6266 37.4288 30.6864 37.2251 30.6644V30.6436ZM30.7682 29.3149H30.6229L28.5468 28.8581C28.4472 28.8377 28.3527 28.7978 28.2686 28.7409C28.1845 28.6839 28.1125 28.6109 28.0566 28.5261C28.0007 28.4413 27.962 28.3462 27.9428 28.2465C27.9236 28.1467 27.9243 28.0442 27.9447 27.9446C27.9652 27.8451 28.005 27.7506 28.0619 27.6665C28.1189 27.5824 28.1919 27.5103 28.2767 27.4544C28.3615 27.3985 28.4566 27.3598 28.5564 27.3406C28.6561 27.3215 28.7587 27.3221 28.8582 27.3425L30.9343 27.7993C31.1381 27.8213 31.3248 27.9234 31.4532 28.083C31.5817 28.2426 31.6415 28.4468 31.6195 28.6505C31.5975 28.8542 31.4954 29.0409 31.3358 29.1694C31.1762 29.2978 30.972 29.3577 30.7682 29.3356V29.3149ZM24.3115 27.9654H24.1869L22.1108 27.5294C21.9266 27.4695 21.7709 27.344 21.6733 27.1768C21.5756 27.0095 21.5429 26.8122 21.5814 26.6224C21.6199 26.4325 21.7269 26.2635 21.882 26.1475C22.037 26.0314 22.2293 25.9765 22.4223 25.9931L24.4984 26.4498C24.7021 26.4719 24.8887 26.5739 25.0172 26.7335C25.1457 26.8932 25.2055 27.0973 25.1834 27.301C25.1614 27.5047 25.0594 27.6914 24.8997 27.8199C24.7401 27.9484 24.536 28.0082 24.3323 27.9861L24.3115 27.9654Z" fill="#1D1D1B"/>
<path class="fill" d="M57.9238 27.5086L55.7439 27.3841C55.5382 27.3681 55.347 27.2722 55.2112 27.117C55.0753 26.9618 55.0057 26.7596 55.0172 26.5536C55.0165 26.4508 55.0376 26.349 55.0792 26.2549C55.1208 26.1609 55.182 26.0767 55.2585 26.0081C55.3351 25.9394 55.4253 25.8877 55.5233 25.8565C55.6212 25.8253 55.7247 25.8152 55.8269 25.827L58.0276 25.9723C58.1285 25.9776 58.2274 26.0028 58.3186 26.0464C58.4098 26.09 58.4914 26.1511 58.5589 26.2264C58.6264 26.3016 58.6784 26.3894 58.712 26.4847C58.7455 26.58 58.7599 26.6811 58.7543 26.782C58.7383 26.9876 58.6424 27.1788 58.4872 27.3147C58.3319 27.4505 58.1297 27.5201 57.9238 27.5086ZM51.3425 27.0727L49.2664 26.9273C49.1636 26.9221 49.0629 26.8963 48.9702 26.8514C48.8776 26.8065 48.795 26.7434 48.7272 26.666C48.6594 26.5885 48.6078 26.4982 48.5756 26.4005C48.5434 26.3027 48.5312 26.1995 48.5397 26.0969C48.5419 25.9931 48.5658 25.8909 48.6097 25.7968C48.6536 25.7028 48.7166 25.6189 48.7947 25.5505C48.8729 25.4822 48.9644 25.4308 49.0635 25.3998C49.1626 25.3687 49.267 25.3587 49.3702 25.3702L51.5501 25.5156C51.6529 25.5208 51.7536 25.5466 51.8462 25.5915C51.9388 25.6364 52.0215 25.6994 52.0892 25.7769C52.157 25.8544 52.2086 25.9447 52.2408 26.0424C52.273 26.1402 52.2853 26.2434 52.2768 26.346C52.2734 26.459 52.245 26.5699 52.1938 26.6707C52.1426 26.7714 52.0698 26.8597 51.9805 26.9291C51.8913 26.9985 51.7878 27.0473 51.6775 27.0722C51.5672 27.097 51.4529 27.0972 51.3425 27.0727ZM44.7611 26.6574L42.685 26.5329C42.4793 26.5169 42.2882 26.421 42.1524 26.2658C42.0166 26.1106 41.9469 25.9084 41.9584 25.7024C41.9573 25.5976 41.9789 25.4938 42.0217 25.3981C42.0646 25.3024 42.1276 25.2171 42.2065 25.1481C42.2854 25.0791 42.3783 25.0279 42.4788 24.9982C42.5793 24.9684 42.6851 24.9608 42.7889 24.9758L44.865 25.1211C44.9669 25.1236 45.0671 25.1469 45.1596 25.1895C45.2522 25.2321 45.335 25.2933 45.403 25.3691C45.4711 25.4449 45.5229 25.5338 45.5553 25.6304C45.5878 25.727 45.6001 25.8293 45.5916 25.9308C45.5864 26.0336 45.5606 26.1343 45.5157 26.2269C45.4708 26.3195 45.4078 26.4022 45.3303 26.47C45.2528 26.5377 45.1625 26.5893 45.0647 26.6215C44.9669 26.6537 44.8637 26.6659 44.7611 26.6574ZM38.1798 26.2214L35.9791 26.0761C35.8763 26.0709 35.7756 26.0451 35.683 26.0002C35.5904 25.9553 35.5077 25.8922 35.4399 25.8148C35.3722 25.7373 35.3206 25.647 35.2884 25.5492C35.2562 25.4515 35.2441 25.3482 35.2525 25.2457C35.2515 25.1408 35.2731 25.037 35.3159 24.9414C35.3587 24.8457 35.4218 24.7604 35.5006 24.6913C35.5795 24.6223 35.6724 24.5712 35.773 24.5414C35.8735 24.5117 35.9792 24.504 36.0829 24.519L38.159 24.6644C38.3437 24.6946 38.5117 24.7895 38.6328 24.9321C38.754 25.0748 38.8205 25.2558 38.8205 25.4429C38.8205 25.63 38.754 25.811 38.6328 25.9537C38.5117 26.0963 38.3437 26.1912 38.159 26.2214H38.1798ZM31.5985 25.7854L29.3978 25.6609C29.1922 25.6449 29.0009 25.5491 28.8651 25.3938C28.7293 25.2386 28.6597 25.0364 28.6711 24.8304C28.67 24.7256 28.6918 24.6218 28.7346 24.5261C28.7774 24.4304 28.8403 24.3452 28.9192 24.2761C28.9981 24.2071 29.091 24.1559 29.1916 24.1262C29.2921 24.0964 29.3979 24.0888 29.5016 24.1038L31.7023 24.2491C31.9042 24.265 32.0923 24.358 32.2276 24.5087C32.3628 24.6594 32.4349 24.8564 32.4289 25.0588C32.4349 25.1695 32.4176 25.2801 32.378 25.3836C32.3384 25.487 32.2774 25.581 32.199 25.6593C32.1207 25.7377 32.0268 25.7986 31.9233 25.8383C31.8198 25.8779 31.7092 25.8953 31.5985 25.8893V25.7854ZM25.0173 25.3702L22.8166 25.2249C22.6109 25.2089 22.4197 25.1131 22.2838 24.9579C22.148 24.8026 22.0784 24.6004 22.0898 24.3944C22.0921 24.2907 22.1159 24.1885 22.1598 24.0944C22.2037 24.0003 22.2668 23.9164 22.3449 23.8481C22.4231 23.7797 22.5146 23.7284 22.6137 23.6973C22.7128 23.6663 22.8172 23.6562 22.9203 23.6678L25.121 23.8131C25.3057 23.8434 25.4736 23.9383 25.5947 24.0809C25.7158 24.2235 25.7824 24.4046 25.7824 24.5917C25.7824 24.7788 25.7158 24.9598 25.5947 25.1024C25.4736 25.2451 25.3057 25.34 25.121 25.3702H25.0173Z" fill="#1D1D1B"/>
<path d="M28.8997 30.3529C29.1809 30.3389 29.462 30.3821 29.726 30.4802C29.99 30.5782 30.2313 30.7289 30.4352 30.9231C30.6391 31.1173 30.8014 31.3509 30.9122 31.6098C31.0229 31.8687 31.0799 32.1475 31.0796 32.4291V42.519C31.0945 42.8092 31.0483 43.0994 30.944 43.3706C30.8397 43.6418 30.6797 43.8881 30.4742 44.0936C30.2688 44.2991 30.0224 44.4592 29.7512 44.5634C29.48 44.6677 29.1899 44.7139 28.8997 44.699" stroke="#1D1D1B" stroke-linecap="round" stroke-linejoin="round"/>
</svg>
