<svg viewBox="0 0 60 60" fill="none" xmlns="http://www.w3.org/2000/svg">
<path d="M29.9999 59.2111C46.1327 59.2111 59.211 46.1328 59.211 30C59.211 13.8672 46.1327 0.788927 29.9999 0.788927C13.8671 0.788927 0.788818 13.8672 0.788818 30C0.788818 46.1328 13.8671 59.2111 29.9999 59.2111Z" stroke="#1D1D1B" stroke-linecap="round" stroke-linejoin="round"/>
<path d="M20.0139 11.564L43.9931 11.1073L39.7578 52.3599L21.5295 52.7336L15.6956 11.6678" stroke="#1D1D1B" stroke-linecap="round" stroke-linejoin="round"/>
<path d="M39.7579 47.1488C36.9931 48.6313 33.8823 49.348 30.7475 49.2249C27.4967 49.425 24.2464 48.8263 21.2804 47.481L20.9482 47.2941" stroke="#1D1D1B" stroke-linecap="round" stroke-linejoin="round"/>
<path d="M30.0831 27.3633C36.8367 27.3633 42.3115 26.2851 42.3115 24.955C42.3115 23.6249 36.8367 22.5467 30.0831 22.5467C23.3296 22.5467 17.8547 23.6249 17.8547 24.955C17.8547 26.2851 23.3296 27.3633 30.0831 27.3633Z" stroke="#1D1D1B" stroke-linecap="round" stroke-linejoin="round"/>
<path d="M37.7648 30.9965L36.3945 44.5744" stroke="#1D1D1B" stroke-linecap="round" stroke-linejoin="round"/>
</svg>
