<svg width="360" height="360" viewBox="0 0 215 215" fill="none" xmlns="http://www.w3.org/2000/svg">
<path d="M107.462 30.4905V17.2589" stroke="#DFC98B" stroke-width="2.5" stroke-linecap="round" stroke-linejoin="round"/>
<path d="M87.6149 33.1798L84.1934 20.4026" stroke="#DFC98B" stroke-width="2.5" stroke-linecap="round" stroke-linejoin="round"/>
<path d="M69.131 40.9066L62.5151 29.4426" stroke="#DFC98B" stroke-width="2.5" stroke-linecap="round" stroke-linejoin="round"/>
<path d="M53.2857 53.1535L43.9302 43.7979" stroke="#DFC98B" stroke-width="2.5" stroke-linecap="round" stroke-linejoin="round"/>
<path d="M41.1525 69.087L29.6885 62.4712" stroke="#DFC98B" stroke-width="2.5" stroke-linecap="round" stroke-linejoin="round"/>
<path d="M33.552 87.6087L20.7749 84.1871" stroke="#DFC98B" stroke-width="2.5" stroke-linecap="round" stroke-linejoin="round"/>
<path d="M31.0016 107.481H17.77" stroke="#DFC98B" stroke-width="2.5" stroke-linecap="round" stroke-linejoin="round"/>
<path d="M33.6785 127.329L20.9014 130.75" stroke="#DFC98B" stroke-width="2.5" stroke-linecap="round" stroke-linejoin="round"/>
<path d="M41.4177 145.813L29.9536 152.429" stroke="#DFC98B" stroke-width="2.5" stroke-linecap="round" stroke-linejoin="round"/>
<path d="M53.6647 161.658L44.3091 171.013" stroke="#DFC98B" stroke-width="2.5" stroke-linecap="round" stroke-linejoin="round"/>
<path d="M69.5982 173.791L62.9824 185.255" stroke="#DFC98B" stroke-width="2.5" stroke-linecap="round" stroke-linejoin="round"/>
<path d="M88.1198 181.392L84.6982 194.169" stroke="#DFC98B" stroke-width="2.5" stroke-linecap="round" stroke-linejoin="round"/>
<path d="M127.84 181.265L131.261 194.042" stroke="#DFC98B" stroke-width="2.5" stroke-linecap="round" stroke-linejoin="round"/>
<path d="M146.324 173.526L152.927 184.99" stroke="#DFC98B" stroke-width="2.5" stroke-linecap="round" stroke-linejoin="round"/>
<path d="M162.169 161.279L171.525 170.635" stroke="#DFC98B" stroke-width="2.5" stroke-linecap="round" stroke-linejoin="round"/>
<path d="M174.302 145.346L185.766 151.961" stroke="#DFC98B" stroke-width="2.5" stroke-linecap="round" stroke-linejoin="round"/>
<path d="M181.903 126.824L194.68 130.245" stroke="#DFC98B" stroke-width="2.5" stroke-linecap="round" stroke-linejoin="round"/>
<path d="M184.453 106.951H197.685" stroke="#DFC98B" stroke-width="2.5" stroke-linecap="round" stroke-linejoin="round"/>
<path d="M181.764 87.1037L194.541 83.6821" stroke="#DFC98B" stroke-width="2.5" stroke-linecap="round" stroke-linejoin="round"/>
<path d="M174.037 68.6198L185.501 62.0166" stroke="#DFC98B" stroke-width="2.5" stroke-linecap="round" stroke-linejoin="round"/>
<path d="M161.79 52.7747L171.146 43.4191" stroke="#DFC98B" stroke-width="2.5" stroke-linecap="round" stroke-linejoin="round"/>
<path d="M145.857 40.6415L152.473 29.1774" stroke="#DFC98B" stroke-width="2.5" stroke-linecap="round" stroke-linejoin="round"/>
<path d="M127.335 33.0409L130.757 20.2638" stroke="#DFC98B" stroke-width="2.5" stroke-linecap="round" stroke-linejoin="round"/>
<path d="M107.727 213.423C166.244 213.423 213.682 165.986 213.682 107.469C213.682 48.952 166.244 1.51477 107.727 1.51477C49.2107 1.51477 1.77344 48.952 1.77344 107.469C1.77344 165.986 49.2107 213.423 107.727 213.423Z" stroke="#DFC98B" stroke-width="2.5" stroke-linecap="round" stroke-linejoin="round"/>
<path d="M107.993 200.671L107.69 171.885C107.69 171.885 151.513 163.564 151.513 116.875C151.513 72.1929 106.667 39.4042 106.667 39.4042C106.667 39.4042 63.2096 66.9028 62.7929 111.812C62.4394 151.494 94.8998 168.627 94.8998 168.627" fill="white"/>
<path d="M107.689 172.402L105.922 66.0442" stroke="#DFC98B" stroke-width="2.5" stroke-linecap="round" stroke-linejoin="round"/>
<path d="M107.993 200.671L107.69 171.885C107.69 171.885 151.513 163.564 151.513 116.875C151.513 72.1929 106.667 39.4042 106.667 39.4042C106.667 39.4042 63.2096 66.9028 62.7929 111.812C62.4394 151.494 94.8998 168.627 94.8998 168.627" stroke="#DFC98B" stroke-width="2.5" stroke-linecap="round" stroke-linejoin="round"/>
<path d="M121.692 78.9224L107.917 92.6969" stroke="#DFC98B" stroke-width="2.5" stroke-linecap="round" stroke-linejoin="round"/>
<path d="M130.075 130.422L107.917 152.58" stroke="#DFC98B" stroke-width="2.5" stroke-linecap="round" stroke-linejoin="round"/>
<path d="M131.426 99.439L108.22 122.645" stroke="#DFC98B" stroke-width="2.5" stroke-linecap="round" stroke-linejoin="round"/>
<path d="M92.0464 78.9224L105.821 92.6969" stroke="#DFC98B" stroke-width="2.5" stroke-linecap="round" stroke-linejoin="round"/>
<path d="M83.6631 130.422L105.821 152.58" stroke="#DFC98B" stroke-width="2.5" stroke-linecap="round" stroke-linejoin="round"/>
<path d="M82.312 99.439L105.518 122.645" stroke="#DFC98B" stroke-width="2.5" stroke-linecap="round" stroke-linejoin="round"/>
</svg>
