<svg width="28" height="29" viewBox="0 0 24 25" fill="none" xmlns="http://www.w3.org/2000/svg">
<path fill-rule="evenodd" clip-rule="evenodd" d="M15 10.5C15 13.2614 12.7614 15.5 10 15.5C7.23858 15.5 5 13.2614 5 10.5C5 7.73858 7.23858 5.5 10 5.5C12.7614 5.5 15 7.73858 15 10.5ZM13.594 16.5082C12.5434 17.1379 11.314 17.5 10 17.5C6.13401 17.5 3 14.366 3 10.5C3 6.63401 6.13401 3.5 10 3.5C13.866 3.5 17 6.63401 17 10.5C17 12.3276 16.2996 13.9916 15.1526 15.2383L19.2071 19.2929C19.5976 19.6834 19.5976 20.3166 19.2071 20.7071C18.8166 21.0976 18.1834 21.0976 17.7929 20.7071L13.594 16.5082Z" fill="black"/>
<path fill-rule="evenodd" clip-rule="evenodd" d="M15 10.5C15 13.2614 12.7614 15.5 10 15.5C7.23858 15.5 5 13.2614 5 10.5C5 7.73858 7.23858 5.5 10 5.5C12.7614 5.5 15 7.73858 15 10.5ZM13.594 16.5082C12.5434 17.1379 11.314 17.5 10 17.5C6.13401 17.5 3 14.366 3 10.5C3 6.63401 6.13401 3.5 10 3.5C13.866 3.5 17 6.63401 17 10.5C17 12.3276 16.2996 13.9916 15.1526 15.2383L19.2071 19.2929C19.5976 19.6834 19.5976 20.3166 19.2071 20.7071C18.8166 21.0976 18.1834 21.0976 17.7929 20.7071L13.594 16.5082Z" fill="#203EDF" fill-opacity="0.3"/>
<path fill-rule="evenodd" clip-rule="evenodd" d="M15 10.5C15 13.2614 12.7614 15.5 10 15.5C7.23858 15.5 5 13.2614 5 10.5C5 7.73858 7.23858 5.5 10 5.5C12.7614 5.5 15 7.73858 15 10.5ZM13.594 16.5082C12.5434 17.1379 11.314 17.5 10 17.5C6.13401 17.5 3 14.366 3 10.5C3 6.63401 6.13401 3.5 10 3.5C13.866 3.5 17 6.63401 17 10.5C17 12.3276 16.2996 13.9916 15.1526 15.2383L19.2071 19.2929C19.5976 19.6834 19.5976 20.3166 19.2071 20.7071C18.8166 21.0976 18.1834 21.0976 17.7929 20.7071L13.594 16.5082Z" fill="white" fill-opacity="0.05"/>
</svg>
