<svg width="25" height="25" viewBox="0 0 25 25" fill="none" xmlns="http://www.w3.org/2000/svg">
<path d="M18.5674 17.3359L14.3244 21.5789C14.1388 21.7646 13.9185 21.912 13.676 22.0125C13.4334 22.1131 13.1735 22.1648 12.9109 22.1648C12.6484 22.1648 12.3884 22.1131 12.1458 22.0125C11.9033 21.912 11.683 21.7646 11.4974 21.5789L7.2534 17.3359C6.13463 16.2171 5.37274 14.7916 5.06409 13.2398C4.75544 11.6879 4.91389 10.0794 5.51941 8.61764C6.12492 7.15585 7.1503 5.90645 8.46589 5.02741C9.78147 4.14838 11.3282 3.6792 12.9104 3.6792C14.4926 3.6792 16.0393 4.14838 17.3549 5.02741C18.6705 5.90645 19.6959 7.15585 20.3014 8.61764C20.9069 10.0794 21.0654 11.6879 20.7567 13.2398C20.4481 14.7916 19.6862 16.2171 18.5674 17.3359V17.3359Z" stroke="black" stroke-width="2" stroke-linecap="round" stroke-linejoin="round"/>
<path d="M15.9104 11.679C15.9104 12.4746 15.5943 13.2377 15.0317 13.8003C14.4691 14.3629 13.706 14.679 12.9104 14.679C12.1148 14.679 11.3517 14.3629 10.7891 13.8003C10.2265 13.2377 9.9104 12.4746 9.9104 11.679C9.9104 10.8833 10.2265 10.1202 10.7891 9.55763C11.3517 8.99503 12.1148 8.67896 12.9104 8.67896C13.706 8.67896 14.4691 8.99503 15.0317 9.55763C15.5943 10.1202 15.9104 10.8833 15.9104 11.679V11.679Z" stroke="black" stroke-width="2" stroke-linecap="round" stroke-linejoin="round"/>
</svg>
