<svg width="357" height="179" viewBox="0 0 357 179" fill="none" xmlns="http://www.w3.org/2000/svg">
<path d="M2.56 40H15.2C20.92 40 25.24 37.48 25.24 32C25.24 28.6 23.12 26.12 20.32 25.44C21.72 24.64 22.88 22.72 22.88 20.84C22.88 15.88 19.08 14.08 14.8 14.08H2.56V40ZM8.16 35.2V28.52H15.24C17.72 28.52 19.4 29.56 19.4 31.92C19.4 34.24 17.6 35.2 14.92 35.2H8.16ZM8.16 24V18.88H14.28C16.36 18.88 17.32 19.92 17.32 21.48C17.32 23.04 16.36 24 14.4 24H8.16ZM28.9541 40H34.3141V32.32C34.3141 27.56 36.5941 25.44 41.2341 25.44V19.6C36.8341 19.6 34.7941 22.2 34.2341 23.84V20H28.9541V40ZM52.4331 40.4C54.7531 40.4 57.2731 39.52 58.6731 37.6V40H63.9131V20H58.6731V22.44C57.2331 20.52 54.7531 19.6 52.4331 19.6C46.9131 19.6 43.3931 24.24 43.3931 30C43.3931 35.76 46.9131 40.4 52.4331 40.4ZM53.7931 35.44C50.9131 35.44 48.8331 33.16 48.8331 30C48.8331 26.88 50.9131 24.56 53.7931 24.56C56.5531 24.56 58.5531 26.88 58.5531 30C58.5531 33.2 56.5531 35.44 53.7931 35.44ZM67.9775 40H73.3375V20H67.9775V40ZM70.6175 17.56C72.3775 17.56 73.8175 16.12 73.8175 14.4C73.8175 12.64 72.3775 11.2 70.6175 11.2C68.8975 11.2 67.4575 12.64 67.4575 14.4C67.4575 16.12 68.8975 17.56 70.6175 17.56ZM77.4306 40H82.7906V29.88C82.7906 26.84 84.5906 24.68 87.2706 24.68C89.9906 24.68 90.7506 26.24 90.7506 29.16V40H96.1106V28.48C96.1106 23 94.2706 19.6 88.9906 19.6C86.5506 19.6 84.2706 20.48 82.6706 22.68V20H77.4306V40Z" fill="white"/>
<path d="M202.56 161H215.2C220.92 161 225.24 158.48 225.24 153C225.24 149.6 223.12 147.12 220.32 146.44C221.72 145.64 222.88 143.72 222.88 141.84C222.88 136.88 219.08 135.08 214.8 135.08H202.56V161ZM208.16 156.2V149.52H215.24C217.72 149.52 219.4 150.56 219.4 152.92C219.4 155.24 217.6 156.2 214.92 156.2H208.16ZM208.16 145V139.88H214.28C216.36 139.88 217.32 140.92 217.32 142.48C217.32 144.04 216.36 145 214.4 145H208.16ZM237.394 161.4C239.714 161.4 242.234 160.52 243.634 158.6V161H248.874V141H243.634V143.44C242.194 141.52 239.714 140.6 237.394 140.6C231.874 140.6 228.354 145.24 228.354 151C228.354 156.76 231.874 161.4 237.394 161.4ZM238.754 156.44C235.874 156.44 233.794 154.16 233.794 151C233.794 147.88 235.874 145.56 238.754 145.56C241.514 145.56 243.514 147.88 243.514 151C243.514 154.2 241.514 156.44 238.754 156.44ZM260.058 161.4C263.778 161.4 268.778 159.76 268.778 154.84C268.778 150.76 265.058 149.28 261.658 148.48C259.818 148.08 258.138 147.72 258.138 146.6C258.138 145.76 259.298 145.2 260.538 145.2C262.298 145.2 264.138 145.64 266.098 146.6L267.898 142.6C265.818 141.4 263.738 140.6 260.458 140.6C256.698 140.6 252.698 142.76 252.698 146.84C252.698 150.68 255.938 152 259.898 153.04C261.618 153.52 263.338 153.8 263.338 155C263.338 156.2 261.298 156.68 260.058 156.68C257.058 156.68 255.178 155.6 253.818 154.56L251.898 158.68C253.018 159.72 255.778 161.4 260.058 161.4ZM271.962 161H277.322V156.08L279.602 153.36L285.602 161H292.042L282.922 149.72L290.722 141H284.202L277.322 149.32V134.68H271.962V161ZM303.142 161.4C305.742 161.4 308.342 160.68 310.582 159.2L308.582 155.36C307.102 156.36 305.102 156.92 303.182 156.92C300.542 156.92 298.262 155.6 297.622 152.84H312.142C312.142 152.84 312.262 151.88 312.262 150.92C312.262 145.24 307.982 140.6 302.542 140.6C296.662 140.6 292.182 145.24 292.182 151C292.182 157.6 297.302 161.4 303.142 161.4ZM297.542 149.28C298.062 146.76 300.062 145.08 302.382 145.08C304.822 145.08 306.822 146.76 307.222 149.28H297.542ZM323.31 161.4C325.43 161.4 327.19 160.68 328.39 159.88L326.87 155.92C326.71 156.04 325.59 156.76 324.31 156.76C323.35 156.76 322.51 156.2 322.51 154.48V145.32H328.03V141H322.51V135.96L317.15 137.16V141H314.23V145.32H317.15V154.56C317.15 159.08 319.31 161.4 323.31 161.4Z" fill="white"/>
<path d="M120.47 30.2299C139.47 28.6099 161.19 35.5899 171.93 52.2299C183.54 70.2299 181.27 95.23 168.28 111.79C155.81 127.72 134.58 135.84 114.45 133.79C100.8 132.42 86.31 125.26 82.17 112.18C79.55 103.91 81.59 94.75 85.63 87.07C93.95 71.26 110.5 60.56 128.1 57.47C145.7 54.38 164.1 58.39 179.92 66.72C198.7 76.62 214.39 93.21 219.65 114.09" stroke="white" stroke-width="2" stroke-miterlimit="10"/>
</svg>
