<svg width="40" height="38" viewBox="0 0 40 38" fill="none" xmlns="http://www.w3.org/2000/svg">
<rect y="0.620117" width="40" height="37" rx="6" fill="none"/>
<path d="M15.7857 14.5V11.6875C15.7857 11.2399 15.9814 10.8107 16.3297 10.4943C16.6779 10.1778 17.1503 10 17.6429 10H21.3571C21.8497 10 22.3221 10.1778 22.6703 10.4943C23.0186 10.8107 23.2143 11.2399 23.2143 11.6875V14.5M26 14.5V26.3125C26 26.7601 25.8043 27.1893 25.4561 27.5057C25.1078 27.8222 24.6354 28 24.1429 28H14.8571C14.3646 28 13.8922 27.8222 13.5439 27.5057C13.1957 27.1893 13 26.7601 13 26.3125V14.5H26Z" stroke="black" stroke-width="2" stroke-linecap="round" stroke-linejoin="round"/>
<path d="M17.3655 15.0625L17.3655 27.0449" stroke="black" stroke-width="2" stroke-linecap="square"/>
<path d="M21.7493 15.0625L21.7493 27.0449" stroke="black" stroke-width="2" stroke-linecap="square"/>
</svg>
