<svg width="32" height="26" viewBox="0 0 32 26" fill="none" xmlns="http://www.w3.org/2000/svg">
<path d="M8.74998 24.125C9.285 24.125 9.71871 23.6912 9.71871 23.1562C9.71871 22.6212 9.285 22.1875 8.74998 22.1875C8.21497 22.1875 7.78125 22.6212 7.78125 23.1562C7.78125 23.6912 8.21497 24.125 8.74998 24.125Z" stroke="black" stroke-width="1.93746" stroke-linecap="round" stroke-linejoin="round"/>
<path d="M22.312 24.125C22.847 24.125 23.2807 23.6912 23.2807 23.1562C23.2807 22.6212 22.847 22.1875 22.312 22.1875C21.777 22.1875 21.3433 22.6212 21.3433 23.1562C21.3433 23.6912 21.777 24.125 22.312 24.125Z" stroke="black" stroke-width="1.93746" stroke-linecap="round" stroke-linejoin="round"/>
<path d="M1 2.81299H4.87492L7.78111 19.2814H23.2808" stroke="black" stroke-width="1.93746" stroke-linecap="round" stroke-linejoin="round"/>
<path d="M7.78121 15.4065H22.8837C22.9957 15.4066 23.1043 15.3679 23.191 15.2969C23.2776 15.2259 23.337 15.1271 23.359 15.0172L25.1027 6.29866C25.1168 6.22836 25.1151 6.15581 25.0977 6.08625C25.0803 6.01669 25.0477 5.95185 25.0023 5.89642C24.9568 5.84098 24.8996 5.79633 24.8348 5.7657C24.7699 5.73506 24.6991 5.71919 24.6274 5.71924H5.84375" stroke="black" stroke-width="1.93746" stroke-linecap="round" stroke-linejoin="round"/>
<circle cx="25" cy="7" r="6" fill="#EBCC86" stroke="white" stroke-width="2"/>
</svg>
