<svg width="39" height="45" viewBox="0 0 39 45" fill="none" xmlns="http://www.w3.org/2000/svg">
<mask id="path-1-inside-1_19_3588" fill="white">
<path fill-rule="evenodd" clip-rule="evenodd" d="M25.7836 38.4018C33.4451 35.7811 38.9538 28.5182 38.9538 19.9686C38.9538 9.2118 30.2337 0.491699 19.4769 0.491699C8.7201 0.491699 0 9.2118 0 19.9686C0 28.5183 5.50887 35.7814 13.1707 38.4019L19.4771 44.7083L25.7836 38.4018Z"/>
</mask>
<path fill-rule="evenodd" clip-rule="evenodd" d="M25.7836 38.4018C33.4451 35.7811 38.9538 28.5182 38.9538 19.9686C38.9538 9.2118 30.2337 0.491699 19.4769 0.491699C8.7201 0.491699 0 9.2118 0 19.9686C0 28.5183 5.50887 35.7814 13.1707 38.4019L19.4771 44.7083L25.7836 38.4018Z" fill="white"/>
<path d="M25.7836 38.4018L25.6531 38.0205L25.5647 38.0507L25.4986 38.1168L25.7836 38.4018ZM13.1707 38.4019L13.4556 38.117L13.3896 38.0509L13.3011 38.0206L13.1707 38.4019ZM19.4771 44.7083L19.1921 44.9932L19.4771 45.2782L19.762 44.9932L19.4771 44.7083ZM38.5508 19.9686C38.5508 28.3407 33.1567 35.4539 25.6531 38.0205L25.914 38.7831C33.7336 36.1084 39.3568 28.6957 39.3568 19.9686H38.5508ZM19.4769 0.89467C30.0111 0.89467 38.5508 9.43436 38.5508 19.9686H39.3568C39.3568 8.98925 30.4562 0.0887289 19.4769 0.0887289V0.89467ZM0.40297 19.9686C0.40297 9.43436 8.94266 0.89467 19.4769 0.89467V0.0887289C8.49755 0.0887289 -0.40297 8.98925 -0.40297 19.9686H0.40297ZM13.3011 38.0206C5.79731 35.4542 0.40297 28.3408 0.40297 19.9686H-0.40297C-0.40297 28.6959 5.22044 36.1087 13.0403 38.7832L13.3011 38.0206ZM19.762 44.4233L13.4556 38.117L12.8858 38.6869L19.1921 44.9932L19.762 44.4233ZM25.4986 38.1168L19.1921 44.4233L19.762 44.9932L26.0685 38.6867L25.4986 38.1168Z" fill="black" fill-opacity="0.06" mask="url(#path-1-inside-1_19_3588)"/>
<circle cx="19.4768" cy="19.9685" r="16.2307" fill="#E0C98B"/>
<path d="M22.6245 13.9678H10.8203V24.1981H22.6245V13.9678Z" stroke="black" stroke-width="0.976898" stroke-linecap="round" stroke-linejoin="round"/>
<path d="M22.625 17.9023H25.7728L28.1336 20.2632V24.1979H22.625V17.9023Z" stroke="black" stroke-width="0.976898" stroke-linecap="round" stroke-linejoin="round"/>
<path d="M14.3619 28.133C15.4484 28.133 16.3293 27.2522 16.3293 26.1656C16.3293 25.0791 15.4484 24.1982 14.3619 24.1982C13.2753 24.1982 12.3945 25.0791 12.3945 26.1656C12.3945 27.2522 13.2753 28.133 14.3619 28.133Z" stroke="black" stroke-width="0.976898" stroke-linecap="round" stroke-linejoin="round"/>
<path d="M24.5924 28.133C25.6789 28.133 26.5597 27.2522 26.5597 26.1656C26.5597 25.0791 25.6789 24.1982 24.5924 24.1982C23.5058 24.1982 22.625 25.0791 22.625 26.1656C22.625 27.2522 23.5058 28.133 24.5924 28.133Z" stroke="black" stroke-width="0.976898" stroke-linecap="round" stroke-linejoin="round"/>
</svg>
