<svg width="40" height="46" viewBox="0 0 40 46" fill="none" xmlns="http://www.w3.org/2000/svg">
<mask id="path-1-inside-1_19_3626" fill="white">
<path fill-rule="evenodd" clip-rule="evenodd" d="M26.5287 38.7084C34.1903 36.0878 39.6989 28.8248 39.6989 20.2752C39.6989 9.51844 30.9788 0.79834 20.222 0.79834C9.46522 0.79834 0.745117 9.51844 0.745117 20.2752C0.745117 28.825 6.25399 36.0881 13.9158 38.7086L20.2222 45.0149L26.5287 38.7084Z"/>
</mask>
<path fill-rule="evenodd" clip-rule="evenodd" d="M26.5287 38.7084C34.1903 36.0878 39.6989 28.8248 39.6989 20.2752C39.6989 9.51844 30.9788 0.79834 20.222 0.79834C9.46522 0.79834 0.745117 9.51844 0.745117 20.2752C0.745117 28.825 6.25399 36.0881 13.9158 38.7086L20.2222 45.0149L26.5287 38.7084Z" fill="white"/>
<path d="M26.5287 38.7084L26.3983 38.3271L26.3098 38.3574L26.2437 38.4235L26.5287 38.7084ZM13.9158 38.7086L14.2008 38.4236L14.1347 38.3575L14.0462 38.3273L13.9158 38.7086ZM20.2222 45.0149L19.9372 45.2999L20.2222 45.5848L20.5071 45.2999L20.2222 45.0149ZM39.2959 20.2752C39.2959 28.6473 33.9018 35.7605 26.3983 38.3271L26.6591 39.0897C34.4787 36.415 40.1019 29.0023 40.1019 20.2752H39.2959ZM20.222 1.20131C30.7563 1.20131 39.2959 9.741 39.2959 20.2752H40.1019C40.1019 9.29589 31.2014 0.39537 20.222 0.39537V1.20131ZM1.14809 20.2752C1.14809 9.741 9.68778 1.20131 20.222 1.20131V0.39537C9.24267 0.39537 0.342147 9.29589 0.342147 20.2752H1.14809ZM14.0462 38.3273C6.54242 35.7608 1.14809 28.6475 1.14809 20.2752H0.342147C0.342147 29.0025 5.96555 36.4153 13.7854 39.0899L14.0462 38.3273ZM20.5071 44.73L14.2008 38.4236L13.6309 38.9935L19.9372 45.2999L20.5071 44.73ZM26.2437 38.4235L19.9372 44.73L20.5071 45.2999L26.8136 38.9934L26.2437 38.4235Z" fill="black" fill-opacity="0.06" mask="url(#path-1-inside-1_19_3626)"/>
<circle cx="20.222" cy="20.2752" r="16.2307" fill="#E0C98B"/>
<path d="M12.9185 17.8414L20.2223 12.1606L27.5261 17.8414V26.7683C27.5261 27.1988 27.3551 27.6116 27.0507 27.916C26.7464 28.2204 26.3335 28.3914 25.9031 28.3914H14.5415C14.1111 28.3914 13.6982 28.2204 13.3938 27.916C13.0895 27.6116 12.9185 27.1988 12.9185 26.7683V17.8414Z" stroke="black" stroke-width="0.980561" stroke-linecap="round" stroke-linejoin="round"/>
<path d="M17.7876 28.3908V20.2754H22.6568V28.3908" stroke="black" stroke-width="0.980561" stroke-linecap="round" stroke-linejoin="round"/>
</svg>
