<svg viewBox="0 0 139 139" fill="none" xmlns="http://www.w3.org/2000/svg">
<path d="M29.9476 27.04H35.9076L39.8676 12.32C40.3476 10.52 40.6676 8.08008 40.7476 7.80008C40.8276 8.08008 41.1476 10.52 41.6276 12.32L45.5876 27.04H51.5076L59.2276 1.08008H53.6676L49.3476 16.36C48.8676 18 48.4276 19.96 48.3476 20.16C48.3076 19.96 47.9076 18 47.5076 16.36L43.6676 1.08008H37.8676L33.9876 16.36C33.5476 18.04 33.1476 19.96 33.1076 20.16C33.0676 19.96 32.5876 17.96 32.1476 16.36L27.9476 1.08008H22.2676L29.9476 27.04Z" fill="white"/>
<path d="M68.4804 27.4001C70.8004 27.4001 73.3204 26.5201 74.7204 24.6001V27.0001H79.9604V7.0001H74.7204V9.4401C73.2804 7.5201 70.8004 6.6001 68.4804 6.6001C62.9604 6.6001 59.4404 11.2401 59.4404 17.0001C59.4404 22.7601 62.9604 27.4001 68.4804 27.4001ZM69.8404 22.4401C66.9604 22.4401 64.8804 20.1601 64.8804 17.0001C64.8804 13.8801 66.9604 11.5601 69.8404 11.5601C72.6004 11.5601 74.6004 13.8801 74.6004 17.0001C74.6004 20.2001 72.6004 22.4401 69.8404 22.4401Z" fill="white"/>
<path d="M84.0254 27.0001H89.3854V0.680176H84.0254V27.0001Z" fill="white"/>
<path d="M93.4775 27.0001H98.8375V0.680176H93.4775V27.0001Z" fill="white"/>
<path d="M113.291 27.4001C115.891 27.4001 118.491 26.6801 120.731 25.2001L118.731 21.3601C117.251 22.3601 115.251 22.9201 113.331 22.9201C110.691 22.9201 108.411 21.6001 107.771 18.8401H122.291C122.291 18.8401 122.411 17.8801 122.411 16.9201C122.411 11.2401 118.131 6.6001 112.691 6.6001C106.811 6.6001 102.331 11.2401 102.331 17.0001C102.331 23.6001 107.451 27.4001 113.291 27.4001ZM107.691 15.2801C108.211 12.7601 110.211 11.0801 112.531 11.0801C114.971 11.0801 116.971 12.7601 117.371 15.2801H107.691Z" fill="white"/>
<path d="M133.459 27.3999C135.579 27.3999 137.339 26.6799 138.539 25.8799L137.019 21.9199C136.859 22.0399 135.739 22.7599 134.459 22.7599C133.499 22.7599 132.659 22.1999 132.659 20.4799V11.3199H138.179V6.99996H132.659V1.95996L127.299 3.15996V6.99996H124.379V11.3199H127.299V20.5599C127.299 25.0799 129.459 27.3999 133.459 27.3999Z" fill="white"/>
<path d="M0.568359 64.0001H6.16836V58.0801H11.6484C19.2884 58.0801 23.2884 53.6001 23.2884 48.0801C23.2884 42.5601 19.2884 38.0801 11.6884 38.0801H0.568359V64.0001ZM6.16836 53.2801V42.8801H11.9684C15.2484 42.8801 17.4084 45.2001 17.4084 48.0801C17.4084 50.9601 15.2484 53.2801 11.9284 53.2801H6.16836Z" fill="white"/>
<path d="M26.8057 63.9997H32.1657V53.8397C32.1657 50.9597 33.7257 48.6797 36.5657 48.6797C39.2057 48.6797 40.0857 50.2397 40.0857 53.1597V63.9997H45.4457V52.4797C45.4457 46.8797 43.5257 43.5997 38.3257 43.5997C35.9257 43.5997 33.7257 44.4397 32.1657 46.5197V37.6797H26.8057V63.9997Z" fill="white"/>
<path d="M59.347 64.4001C65.347 64.4001 70.067 59.8001 70.067 54.0001C70.067 48.2001 65.347 43.6001 59.347 43.6001C53.387 43.6001 48.667 48.2001 48.667 54.0001C48.667 59.8001 53.387 64.4001 59.347 64.4001ZM59.347 59.4401C56.347 59.4401 54.107 57.1601 54.107 54.0001C54.107 50.8801 56.347 48.5601 59.347 48.5601C62.347 48.5601 64.587 50.8801 64.587 54.0001C64.587 57.1601 62.347 59.4401 59.347 59.4401Z" fill="white"/>
<path d="M73.5635 64.0001H78.9235V53.8801C78.9235 50.8401 80.723 48.6801 83.403 48.6801C86.123 48.6801 86.883 50.2401 86.883 53.1601V64.0001H92.243V52.4801C92.243 47.0001 90.403 43.6001 85.123 43.6001C82.683 43.6001 80.403 44.4801 78.8035 46.6801V44.0001H73.5635V64.0001Z" fill="white"/>
<path d="M106.384 64.4001C108.984 64.4001 111.584 63.6801 113.824 62.2001L111.824 58.3601C110.344 59.3601 108.344 59.9201 106.424 59.9201C103.784 59.9201 101.504 58.6001 100.864 55.8401H115.384C115.384 55.8401 115.504 54.8801 115.504 53.9201C115.504 48.2401 111.224 43.6001 105.784 43.6001C99.9038 43.6001 95.4238 48.2401 95.4238 54.0001C95.4238 60.6001 100.544 64.4001 106.384 64.4001ZM100.784 52.2801C101.304 49.7601 103.304 48.0801 105.624 48.0801C108.064 48.0801 110.064 49.7601 110.464 52.2801H100.784Z" fill="white"/>
<path d="M38.9775 101H44.5775V96.7196L49.2175 91.0396L56.2575 101H62.8175L52.6575 86.9196L61.6975 75.0796H55.1775L46.9375 86.0796C46.0175 87.2796 44.7375 89.1996 44.5775 89.4796V75.0796H38.9775V101Z" fill="white"/>
<path d="M74.0137 101.4C76.6137 101.4 79.2137 100.68 81.4534 99.1996L79.4537 95.3596C77.9737 96.3596 75.9737 96.9196 74.0537 96.9196C71.4137 96.9196 69.1337 95.5996 68.4937 92.8396H83.0134C83.0134 92.8396 83.1334 91.8796 83.1334 90.9196C83.1334 85.2396 78.8537 80.5996 73.4137 80.5996C67.5337 80.5996 63.0537 85.2396 63.0537 90.9996C63.0537 97.5996 68.1737 101.4 74.0137 101.4ZM68.4137 89.2796C68.9337 86.7596 70.9337 85.0796 73.2537 85.0796C75.6937 85.0796 77.6937 86.7596 78.0937 89.2796H68.4137Z" fill="white"/>
<path d="M88.1154 106.88C90.5954 106.88 94.3554 106.48 96.5154 101.56L105.395 81H100.035L96.3954 90.24C95.9554 91.4 95.1154 93.76 95.1154 93.76C95.1154 93.76 94.3954 91.76 93.7954 90.36L89.7554 81H84.3154L92.6754 98.72L92.2354 99.6C91.5154 101.16 90.5954 102 88.1154 102V106.88Z" fill="white"/>
<path d="M114.719 101.4C118.439 101.4 123.439 99.7596 123.439 94.8396C123.439 90.7596 119.719 89.2796 116.319 88.4796C114.479 88.0796 112.799 87.7196 112.799 86.5996C112.799 85.7596 113.959 85.1996 115.199 85.1996C116.959 85.1996 118.799 85.6396 120.759 86.5996L122.559 82.5996C120.479 81.3996 118.399 80.5996 115.119 80.5996C111.359 80.5996 107.359 82.7596 107.359 86.8396C107.359 90.6796 110.599 91.9996 114.559 93.0396C116.279 93.5196 117.999 93.7996 117.999 94.9996C117.999 96.1996 115.959 96.6796 114.719 96.6796C111.719 96.6796 109.839 95.5996 108.479 94.5596L106.559 98.6796C107.679 99.7196 110.439 101.4 114.719 101.4Z" fill="white"/>
<path d="M9.89648 138H22.5365C28.2565 138 32.5765 135.48 32.5765 130C32.5765 126.6 30.4565 124.12 27.6565 123.44C29.0565 122.64 30.2165 120.72 30.2165 118.84C30.2165 113.88 26.4165 112.08 22.1365 112.08H9.89648V138ZM15.4965 133.2V126.52H22.5765C25.0565 126.52 26.7365 127.56 26.7365 129.92C26.7365 132.24 24.9365 133.2 22.2565 133.2H15.4965ZM15.4965 122V116.88H21.6165C23.6965 116.88 24.6565 117.92 24.6565 119.48C24.6565 121.04 23.6965 122 21.7365 122H15.4965Z" fill="white"/>
<path d="M36.29 138H41.65V130.32C41.65 125.56 43.93 123.44 48.57 123.44V117.6C44.17 117.6 42.13 120.2 41.57 121.84V118H36.29V138Z" fill="white"/>
<path d="M61.6895 138.4C64.2895 138.4 66.8895 137.68 69.1295 136.2L67.1295 132.36C65.6495 133.36 63.6495 133.92 61.7295 133.92C59.0895 133.92 56.8095 132.6 56.1695 129.84H70.6895C70.6895 129.84 70.8095 128.88 70.8095 127.92C70.8095 122.24 66.5295 117.6 61.0895 117.6C55.2095 117.6 50.7295 122.24 50.7295 128C50.7295 134.6 55.8495 138.4 61.6895 138.4ZM56.0895 126.28C56.6095 123.76 58.6095 122.08 60.9295 122.08C63.3695 122.08 65.3695 123.76 65.7695 126.28H56.0895Z" fill="white"/>
<path d="M84.6974 138.4C87.2974 138.4 89.8974 137.68 92.1374 136.2L90.1374 132.36C88.6574 133.36 86.6574 133.92 84.7374 133.92C82.0974 133.92 79.8173 132.6 79.1773 129.84H93.6974C93.6974 129.84 93.8174 128.88 93.8174 127.92C93.8174 122.24 89.5374 117.6 84.0974 117.6C78.2173 117.6 73.7373 122.24 73.7373 128C73.7373 134.6 78.8573 138.4 84.6974 138.4ZM79.0973 126.28C79.6173 123.76 81.6174 122.08 83.9374 122.08C86.3774 122.08 88.3774 123.76 88.7774 126.28H79.0973Z" fill="white"/>
<path d="M96.2246 138H112.745V133.28H102.705C102.705 133.28 104.585 131.4 105.705 130L112.425 121.84V118H96.6246V122.72H105.825C105.825 122.72 103.945 124.6 102.905 125.84L96.2246 134.12V138Z" fill="white"/>
<path d="M119.928 119.738V123.188H118.883V119.738H117.658V118.841H121.168V119.738H119.928Z" fill="white"/>
<path d="M125.59 123.188L125.605 120.111H125.59L124.469 123.188H123.722L122.632 120.111H122.602L122.632 123.188H121.646V118.841H123.14L124.126 121.634H124.156L125.097 118.841H126.62V123.188H125.59Z" fill="white"/>
</svg>
