<svg viewBox="0 0 65 51" fill="none" xmlns="http://www.w3.org/2000/svg">
<path d="M0.646447 46.1464C0.451184 46.3417 0.451184 46.6583 0.646447 46.8536L3.82843 50.0355C4.02369 50.2308 4.34027 50.2308 4.53553 50.0355C4.7308 49.8403 4.7308 49.5237 4.53553 49.3284L1.70711 46.5L4.53553 43.6716C4.7308 43.4763 4.7308 43.1597 4.53553 42.9645C4.34027 42.7692 4.02369 42.7692 3.82843 42.9645L0.646447 46.1464ZM63.5 0.994506C63.4176 8.49503 61.1913 19.7331 52.3245 29.0937C43.4657 38.4457 27.9057 46 1 46V47C28.0943 47 43.9509 39.3876 53.0505 29.7814C62.1421 20.1835 64.4157 8.67164 64.5 1.00549L63.5 0.994506Z" fill="black"/>
</svg>
