<svg width="14" height="15" viewBox="0 0 14 15" fill="none" xmlns="http://www.w3.org/2000/svg">
<path d="M6.98977 14.22C10.6698 14.22 13.6698 11.22 13.6698 7.52C13.6698 3.84 10.6698 0.839999 6.98977 0.839999C3.32977 0.839999 0.329766 3.84 0.329766 7.52C0.329766 11.22 3.32977 14.22 6.98977 14.22ZM6.98977 13.1C3.94977 13.1 1.48977 10.58 1.48977 7.52C1.48977 4.48 3.94977 1.94 6.98977 1.94C10.0298 1.94 12.5098 4.48 12.5098 7.52C12.5098 10.58 10.0298 13.1 6.98977 13.1ZM4.08977 11.5H5.24977V10.04H7.28977C7.52977 10.04 7.84977 10.02 8.06977 9.98L9.06977 11.5H10.4298L9.08977 9.54C9.94977 8.96 10.5298 8 10.5298 6.8C10.5298 5.02 9.08977 3.58 7.22977 3.58H4.08977V11.5ZM5.24977 8.88V4.7H7.28977C8.46977 4.7 9.32977 5.7 9.32977 6.8C9.32977 7.98 8.48977 8.88 7.28977 8.88H5.24977Z" fill="white"/>
</svg>
